<?xml version="1.0" encoding="UTF-8" standalone="no"?>
<svg
   xmlns:dc="http://purl.org/dc/elements/1.1/"
   xmlns:cc="http://creativecommons.org/ns#"
   xmlns:rdf="http://www.w3.org/1999/02/22-rdf-syntax-ns#"
   xmlns:svg="http://www.w3.org/2000/svg"
   xmlns="http://www.w3.org/2000/svg"
   xmlns:sodipodi="http://sodipodi.sourceforge.net/DTD/sodipodi-0.dtd"
   xmlns:inkscape="http://www.inkscape.org/namespaces/inkscape"
   viewBox="0 0 110 85"
   version="1.1"
   x="0px"
   y="0px"
   id="svg2"
   inkscape:version="0.92.1 r15371"
   sodipodi:docname="contribute.svg"
   width="110"
   height="85">
  <metadata
     id="metadata16">
    <rdf:RDF>
      <cc:Work
         rdf:about="">
        <dc:format>image/svg+xml</dc:format>
        <dc:type
           rdf:resource="http://purl.org/dc/dcmitype/StillImage" />
        <dc:title></dc:title>
      </cc:Work>
    </rdf:RDF>
  </metadata>
  <defs
     id="defs14" />
  <sodipodi:namedview
     pagecolor="#ffffff"
     bordercolor="#666666"
     borderopacity="1"
     objecttolerance="10"
     gridtolerance="10"
     guidetolerance="10"
     inkscape:pageopacity="0"
     inkscape:pageshadow="2"
     inkscape:window-width="3070"
     inkscape:window-height="1752"
     id="namedview12"
     showgrid="false"
     fit-margin-top="2"
     fit-margin-left="2"
     fit-margin-right="2"
     fit-margin-bottom="2"
     inkscape:zoom="1.4786841"
     inkscape:cx="422.99319"
     inkscape:cy="64.23906"
     inkscape:window-x="130"
     inkscape:window-y="48"
     inkscape:window-maximized="1"
     inkscape:current-layer="svg2" />
  <path
     inkscape:connector-curvature="0"
     id="path6"
     d="m 37.549179,7.8139903 c -4.47005,0.2217264 -8.63621,4.0235337 -9.03045,9.2192017 -0.30001,1.764437 -0.028,3.401156 0.49871,4.788659 h -14.63901 c -1.08471,1.18e-4 -1.96403,0.954572 -1.96414,2.131992 V 40.018742 C 8.0177191,38.193758 2.5596396,40.061422 0.53736961,45.098882 -2.2919704,51.114945 1.4244696,58.822136 7.6266891,59.64807 c 1.64667,0.28143 3.2703599,-0.04284 4.7875999,-0.666246 v 16.073227 c 1.1e-4,1.177419 0.87943,2.131873 1.96414,2.131995 h 18.26807 c 1.79604,-0.0047 2.64468,-2.407395 1.31197,-3.714332 -2.55009,-2.499978 -1.77701,-7.967805 1.34269,-9.535672 0.047,-0.02574 0.0931,-0.05351 0.13811,-0.08328 2.86806,-1.752928 7.18591,0.467932 7.78752,3.972504 0.005,0.03074 0.01,0.0612 0.0153,0.09161 0.41232,1.929453 -0.20102,4.209156 -1.51146,5.5715 -1.27946,1.329008 -0.41289,3.672594 1.35801,3.672689 h 18.0609 c 0.1089,0.02139 0.21928,0.03242 0.3299,0.03343 h 18.26806 c 1.79981,0.0027 2.65515,-2.404653 1.31966,-3.714334 -2.55011,-2.499543 -1.7847,-7.97613 1.335,-9.544001 0.047,-0.02574 0.0931,-0.05351 0.13812,-0.08328 2.86805,-1.752926 7.18591,0.467934 7.78752,3.972507 0.006,0.03074 0.0148,0.06126 0.0231,0.09161 0.41232,1.929453 -0.20102,4.209154 -1.51147,5.5715 -1.27945,1.329008 -0.41288,3.672589 1.35802,3.672689 h 17.945811 c 0.37685,0.05632 0.76067,-0.0073 1.10484,-0.183208 l 0.0537,-0.04177 c 0.82138,-0.425548 1.2659,-1.407771 1.07414,-2.373507 v -19.40448 c -8e-5,-1.92223 -2.15916,-2.862858 -3.38353,-1.474074 -1.17768,1.332493 -3.07394,2.024752 -4.74924,1.732244 -0.0255,-5.5e-4 -0.0511,-5.5e-4 -0.0767,0 -3.361404,-0.426399 -5.660501,-5.210257 -4.089404,-8.453022 0.0246,-0.049 0.0478,-0.09897 0.0691,-0.149922 1.38003,-3.508409 6.474904,-4.360949 8.807974,-1.574007 1.20656,1.449611 3.42445,0.521182 3.4219,-1.432435 V 24.936317 l -0.50636,0.458047 c 1.20505,-1.353122 0.32196,-3.613729 -1.41188,-3.614157 H 93.696039 c 1.68143,-4.771397 -0.0256,-10.693409 -4.65717,-12.9085507 -1.4078,-0.78372 -2.91169,-1.1305815 -4.38863,-1.057666 -4.46451,0.217461 -8.6196,4.0171117 -9.02278,9.2025457 -0.30523,1.771262 -0.0373,3.413121 0.49104,4.805315 h -14.43952 c -0.10911,-0.01835 -0.21946,-0.02689 -0.32989,-0.02518 h -14.76176 c 1.68142,-4.771403 -0.0175,-10.693413 -4.6495,-12.9085551 -1.40979,-0.7862787 -2.90925,-1.1305814 -4.38862,-1.0576709 V 7.813801 Z m 0.17645,4.3472627 c 0.8558,-0.07355 1.70462,0.07512 2.46285,0.508017 0.045,0.02984 0.091,0.05752 0.13812,0.08328 3.23304,1.511155 4.0106,7.063094 1.44242,9.602297 -1.32129,1.310948 -0.47043,3.700426 1.31966,3.706003 h 16.42667 v 13.957892 c -4.38893,-1.817738 -9.83285,0.04264 -11.86158,5.063482 -2.84437,6.018192 0.87355,13.739058 7.08165,14.565846 1.64309,0.27715 3.26533,1.2e-5 4.77993,-0.657919 v 13.907924 h -13.02012 c 0.67978,-1.878288 0.99498,-3.877925 0.57544,-5.887968 -1.14259,-6.479982 -8.14352,-10.078302 -13.48047,-6.895666 -4.47072,2.297442 -6.12633,8.10607 -4.47303,12.80029 h -12.7746 v -17.73885 c -9e-5,-1.922232 -2.15916,-2.862854 -3.38353,-1.474075 -1.17768,1.332499 -3.0739499,2.024755 -4.7492399,1.732245 -0.0281,-6.65e-4 -0.0563,-6.65e-4 -0.0844,0 -3.3613895,-0.426398 -5.6528295,-5.210259 -4.0817295,-8.453021 0.0222,-0.04908 0.0427,-0.09909 0.0614,-0.149921 1.38003,-3.508403 6.4825594,-4.360948 8.8156194,-1.574008 1.20658,1.44962 3.42448,0.521188 3.42192,-1.432434 v -17.73052 h 16.11977 c 1.62546,0.0015 2.54908,-2.018426 1.56518,-3.422847 -0.77814,-1.107782 -1.89256,-3.761022 -1.67259,-4.913577 0.0166,-0.09628 0.0268,-0.193673 0.0308,-0.291489 0.1717,-2.83182 2.7726,-5.0843 5.34001,-5.304999 z m 47.10873,0.0086 c 0.8558,-0.07354 1.70462,0.07512 2.46285,0.508016 v -0.01664 c 0.0452,0.02688 0.0912,0.05194 0.13812,0.07496 3.23304,1.511158 4.00292,7.063096 1.43473,9.602297 -1.32403,1.313703 -0.4665,3.708008 1.32734,3.706002 h 16.250211 v 13.974552 c -4.39056,-1.819017 -9.841971,0.04264 -11.869251,5.063482 -2.84283,6.018189 0.87419,13.739056 7.081661,14.565842 1.64643,0.28143 3.27051,-0.04284 4.78759,-0.666246 V 72.90662 H 93.603969 c 0.67976,-1.878286 0.99498,-3.877924 0.57543,-5.887966 -1.1426,-6.480219 -8.14353,-10.07854 -13.48047,-6.895903 -4.47262,2.298291 -6.1298,8.113542 -4.47302,12.808617 H 63.443629 V 55.184189 c -0.006,-1.912213 -2.15072,-2.848176 -3.37586,-1.474071 -1.17768,1.332494 -3.07394,2.024752 -4.74924,1.732244 -0.0283,-6.65e-4 -0.0562,-6.65e-4 -0.0843,0 -3.36139,-0.426398 -5.6605,-5.210259 -4.0894,-8.45302 0.0246,-0.049 0.0478,-0.09897 0.0691,-0.149921 1.38002,-3.508408 6.48256,-4.360955 8.81563,-1.574012 1.20772,1.434209 3.40909,0.510637 3.41423,-1.432431 V 26.102472 h 16.12745 c 1.62191,-0.0056 2.53927,-2.02148 1.5575,-3.422844 -0.77815,-1.107785 -1.89256,-3.761025 -1.67259,-4.913579 0.0187,-0.09608 0.0318,-0.193459 0.0384,-0.291487 0.17171,-2.831819 2.77262,-5.084296 5.34001,-5.305001 z"
     style="color:#000000;font-style:normal;font-variant:normal;font-weight:normal;font-stretch:normal;font-size:medium;line-height:normal;font-family:sans-serif;text-indent:0;text-align:start;text-decoration:none;text-decoration-line:none;text-decoration-style:solid;text-decoration-color:#000000;letter-spacing:normal;word-spacing:normal;text-transform:none;writing-mode:lr-tb;direction:ltr;baseline-shift:baseline;text-anchor:start;white-space:normal;clip-rule:nonzero;display:inline;overflow:visible;visibility:visible;opacity:1;isolation:auto;mix-blend-mode:normal;color-interpolation:sRGB;color-interpolation-filters:linearRGB;solid-color:#000000;solid-opacity:1;fill:#ffffff;fill-opacity:1;fill-rule:nonzero;stroke:none;stroke-width:4.09269476;stroke-linecap:round;stroke-linejoin:round;stroke-miterlimit:4;stroke-dasharray:none;stroke-dashoffset:0;stroke-opacity:1;color-rendering:auto;image-rendering:auto;shape-rendering:auto;text-rendering:auto;enable-background:accumulate"
     sodipodi:nodetypes="ccccccccccccccccccccccccccccccccccccccccccccccccccccccccccccccccccccccccccccccccccccccccccccccccccccccccccccccccccccccc" />
</svg>
