<?xml version="1.0" encoding="UTF-8" standalone="no"?>
<!-- Generator: Adobe Illustrator 16.0.0, SVG Export Plug-In . SVG Version: 6.00 Build 0)  -->

<svg
   xmlns:dc="http://purl.org/dc/elements/1.1/"
   xmlns:cc="http://creativecommons.org/ns#"
   xmlns:rdf="http://www.w3.org/1999/02/22-rdf-syntax-ns#"
   xmlns:svg="http://www.w3.org/2000/svg"
   xmlns="http://www.w3.org/2000/svg"
   xmlns:sodipodi="http://sodipodi.sourceforge.net/DTD/sodipodi-0.dtd"
   xmlns:inkscape="http://www.inkscape.org/namespaces/inkscape"
   version="1.1"
   id="Capa_1"
   x="0px"
   y="0px"
   width="110.9239"
   height="83.213898"
   viewBox="0 0 110.9239 83.213898"
   xml:space="preserve"
   sodipodi:docname="email.svg"
   inkscape:version="0.92.1 r15371"><metadata
     id="metadata41"><rdf:RDF><cc:Work
         rdf:about=""><dc:format>image/svg+xml</dc:format><dc:type
           rdf:resource="http://purl.org/dc/dcmitype/StillImage" /><dc:title></dc:title></cc:Work></rdf:RDF></metadata><defs
     id="defs39" /><sodipodi:namedview
     pagecolor="#ffffff"
     bordercolor="#666666"
     borderopacity="1"
     objecttolerance="10"
     gridtolerance="10"
     guidetolerance="10"
     inkscape:pageopacity="0"
     inkscape:pageshadow="2"
     inkscape:window-width="3070"
     inkscape:window-height="1752"
     id="namedview37"
     showgrid="false"
     inkscape:zoom="3.0831947"
     inkscape:cx="242.6055"
     inkscape:cy="207.94711"
     inkscape:window-x="130"
     inkscape:window-y="48"
     inkscape:window-maximized="1"
     inkscape:current-layer="g4"
     fit-margin-top="0"
     fit-margin-left="0"
     fit-margin-right="0"
     fit-margin-bottom="0" /><g
     id="g4"
     transform="translate(-5.1846885e-7,-341.3916)"><g
       id="g4522"
       transform="matrix(0.1867307,0,0,0.1867307,0.7678292,337.69675)"><rect
         ry="60.651371"
         y="60.923771"
         x="-3.7876935"
         height="363.36246"
         width="484.56247"
         id="rect4518"
         style="opacity:0;fill:#0000ff;fill-rule:evenodd;stroke:#000000;stroke-width:0.63753891px;stroke-linecap:butt;stroke-linejoin:miter;stroke-opacity:1" /><path
         inkscape:connector-curvature="0"
         style="fill:#ffffff"
         id="path2"
         d="m 481.09904,363.906 c 0,10.637 -2.992,20.498 -7.785,29.174 l -153.201,-171.41 151.54,-132.583998 c 5.895,9.354999 9.446,20.343998 9.446,32.218998 z m -242.605,-111.113 210.863,-184.499998 c -8.653,-4.737 -18.397,-7.642 -28.908,-7.642 H 56.539042 c -10.524,0 -20.271,2.905 -28.889,7.642 z m 58.787,-11.162 -48.809,42.734 c -2.855,2.487 -6.41,3.729 -9.978,3.729 -3.57,0 -7.125,-1.242 -9.98,-3.729 l -48.82,-42.736 L 24.555042,415.23 c 9.299,5.834 20.197,9.329 31.983,9.329 H 420.44904 c 11.784,0 22.687,-3.495 31.983,-9.329 z M 5.3360425,89.085002 c -5.89400003,9.354999 -9.448,20.343998 -9.448,32.219998 v 242.602 c 0,10.637 2.978,20.498 7.789,29.174 L 156.86004,221.641 Z" /></g></g><g
     id="g6"
     transform="translate(-5.1846885e-7,-341.3916)" /><g
     id="g8"
     transform="translate(-5.1846885e-7,-341.3916)" /><g
     id="g10"
     transform="translate(-5.1846885e-7,-341.3916)" /><g
     id="g12"
     transform="translate(-5.1846885e-7,-341.3916)" /><g
     id="g14"
     transform="translate(-5.1846885e-7,-341.3916)" /><g
     id="g16"
     transform="translate(-5.1846885e-7,-341.3916)" /><g
     id="g18"
     transform="translate(-5.1846885e-7,-341.3916)" /><g
     id="g20"
     transform="translate(-5.1846885e-7,-341.3916)" /><g
     id="g22"
     transform="translate(-5.1846885e-7,-341.3916)" /><g
     id="g24"
     transform="translate(-5.1846885e-7,-341.3916)" /><g
     id="g26"
     transform="translate(-5.1846885e-7,-341.3916)" /><g
     id="g28"
     transform="translate(-5.1846885e-7,-341.3916)" /><g
     id="g30"
     transform="translate(-5.1846885e-7,-341.3916)" /><g
     id="g32"
     transform="translate(-5.1846885e-7,-341.3916)" /><g
     id="g34"
     transform="translate(-5.1846885e-7,-341.3916)" /></svg>