<?xml version="1.0" encoding="UTF-8" standalone="no"?>
<svg
   xmlns:dc="http://purl.org/dc/elements/1.1/"
   xmlns:cc="http://creativecommons.org/ns#"
   xmlns:rdf="http://www.w3.org/1999/02/22-rdf-syntax-ns#"
   xmlns:svg="http://www.w3.org/2000/svg"
   xmlns="http://www.w3.org/2000/svg"
   xmlns:sodipodi="http://sodipodi.sourceforge.net/DTD/sodipodi-0.dtd"
   xmlns:inkscape="http://www.inkscape.org/namespaces/inkscape"
   version="1.1"
   x="0px"
   y="0px"
   viewBox="0 0 110 75"
   enable-background="new 0 0 100 100"
   xml:space="preserve"
   id="svg8"
   sodipodi:docname="faq.svg"
   inkscape:version="0.92.1 r15371"
   width="110"
   height="75"><metadata
     id="metadata14"><rdf:RDF><cc:Work
         rdf:about=""><dc:format>image/svg+xml</dc:format><dc:type
           rdf:resource="http://purl.org/dc/dcmitype/StillImage" /><dc:title></dc:title></cc:Work></rdf:RDF></metadata><defs
     id="defs12" /><sodipodi:namedview
     pagecolor="#ffffff"
     bordercolor="#666666"
     borderopacity="1"
     objecttolerance="10"
     gridtolerance="10"
     guidetolerance="10"
     inkscape:pageopacity="0"
     inkscape:pageshadow="2"
     inkscape:window-width="1859"
     inkscape:window-height="1056"
     id="namedview10"
     showgrid="false"
     inkscape:zoom="2.6700352"
     inkscape:cx="-26.985122"
     inkscape:cy="45.450839"
     inkscape:window-x="61"
     inkscape:window-y="24"
     inkscape:window-maximized="1"
     inkscape:current-layer="svg8"
     width="110px" /><path
     d="m 54.999998,2.5561136 c -11.64767,0 -23.296215,0 -34.943886,0 0,11.6485434 0,23.2962164 0,34.9438874 0,19.298635 15.644378,34.943885 34.943886,34.943885 19.299509,0 34.94389,-15.64525 34.94389,-34.943885 0,-19.299509 -15.64438,-34.9438874 -34.94389,-34.9438874 z m 4.78644,57.9334704 h -8.961361 v -8.724615 h 8.960487 v 8.724615 z M 70.56488,33.045529 c -1.116457,1.717492 -3.503125,4.055237 -7.158254,7.014985 -1.893085,1.53229 -3.067201,2.763188 -3.524965,3.695316 -0.456893,0.930381 -0.663061,2.597205 -0.620255,4.99785 h -8.132317 c -0.02097,-1.138297 -0.03233,-1.831933 -0.03233,-2.079162 0,-2.566628 0.435925,-4.678986 1.307775,-6.334453 0.87185,-1.65634 2.614676,-3.517975 5.229352,-5.587527 2.613803,-2.069552 4.176668,-3.425374 4.686849,-4.067468 0.787112,-1.013373 1.180232,-2.131578 1.180232,-3.352867 0,-1.697399 -0.696258,-3.151064 -2.089646,-4.36187 -1.391641,-1.21168 -3.267253,-1.817083 -5.62684,-1.817083 -2.273973,0 -4.176668,0.630737 -5.708083,1.893959 -1.531416,1.262348 -2.583227,3.187757 -3.15718,5.774477 l -8.226661,-0.99328 c 0.234124,-3.704925 1.854647,-6.850749 4.862442,-9.438343 3.007794,-2.586722 6.956454,-3.881394 11.84685,-3.881394 5.145488,0 9.237416,1.309524 12.277535,3.928568 3.039245,2.618171 4.559304,5.665278 4.559304,9.143068 -8.43e-4,1.926282 -0.558229,3.747732 -1.673812,5.465224 z"
     id="path2"
     inkscape:connector-curvature="0"
     style="clip-rule:evenodd;fill:#ffffff;fill-rule:evenodd;stroke-width:0.8735972" /></svg>