<?xml version="1.0" encoding="UTF-8" standalone="no"?>
<!-- Created with Inkscape (http://www.inkscape.org/) -->

<svg
   xmlns:dc="http://purl.org/dc/elements/1.1/"
   xmlns:cc="http://creativecommons.org/ns#"
   xmlns:rdf="http://www.w3.org/1999/02/22-rdf-syntax-ns#"
   xmlns:svg="http://www.w3.org/2000/svg"
   xmlns="http://www.w3.org/2000/svg"
   xmlns:sodipodi="http://sodipodi.sourceforge.net/DTD/sodipodi-0.dtd"
   xmlns:inkscape="http://www.inkscape.org/namespaces/inkscape"
   width="110"
   height="85"
   viewBox="0 0 103.125 79.687496"
   id="svg4956"
   version="1.1"
   inkscape:version="0.92.1 r15371"
   sodipodi:docname="github.svg">
  <defs
     id="defs4958" />
  <sodipodi:namedview
     id="base"
     pagecolor="#ffffff"
     bordercolor="#666666"
     borderopacity="1.0"
     inkscape:pageopacity="0.0"
     inkscape:pageshadow="2"
     inkscape:zoom="4.7625719"
     inkscape:cx="114.11263"
     inkscape:cy="95.326644"
     inkscape:document-units="px"
     inkscape:current-layer="layer1"
     showgrid="false"
     fit-margin-top="0"
     fit-margin-left="0"
     fit-margin-right="0"
     fit-margin-bottom="0"
     inkscape:window-width="3070"
     inkscape:window-height="1752"
     inkscape:window-x="130"
     inkscape:window-y="48"
     inkscape:window-maximized="1"
     units="px" />
  <metadata
     id="metadata4961">
    <rdf:RDF>
      <cc:Work
         rdf:about="">
        <dc:format>image/svg+xml</dc:format>
        <dc:type
           rdf:resource="http://purl.org/dc/dcmitype/StillImage" />
        <dc:title></dc:title>
      </cc:Work>
    </rdf:RDF>
  </metadata>
  <g
     inkscape:label="Calque 1"
     inkscape:groupmode="layer"
     id="layer1"
     transform="translate(-142.37215,-160.58133)">
    <g
       id="g4500">
      <g
         id="g4503" />
    </g>
    <g
       id="g4501"
       transform="translate(0,0.31314929)">
      <path
         d="m 183.54579,159.95506 c -22.73659,0 -41.17364,18.43295 -41.17364,41.17363 0,18.19092 11.7975,33.62455 28.15704,39.06887 2.05773,0.38113 2.81319,-0.89319 2.81319,-1.98069 0,-0.98113 -0.0382,-4.22523 -0.0559,-7.66568 -11.45455,2.49069 -13.87159,-4.85795 -13.87159,-4.85795 -1.87295,-4.75841 -4.57159,-6.02455 -4.57159,-6.02455 -3.73568,-2.55546 0.28159,-2.50295 0.28159,-2.50295 4.13455,0.29045 6.31159,4.24363 6.31159,4.24363 3.67228,6.29387 9.63205,4.4741 11.98159,3.42204 0.37023,-2.66045 1.4366,-4.47749 2.61409,-5.50567 -9.14522,-1.04046 -18.75886,-4.57159 -18.75886,-20.34818 0,-4.49454 1.60841,-8.16819 4.24227,-11.0516 -0.4275,-1.03704 -1.83681,-5.22477 0.39955,-10.89613 0,0 3.4575,-1.10591 11.325,4.22113 3.28432,-0.91227 6.80659,-1.36977 10.30568,-1.38613 3.49909,0.0164 7.0241,0.47386 10.31455,1.38613 7.85863,-5.32704 11.31136,-4.22113 11.31136,-4.22113 2.24114,5.67136 0.83182,9.85909 0.40432,10.89613 2.64,2.88341 4.23682,6.55706 4.23682,11.0516 0,15.81477 -9.63205,19.29613 -18.80046,20.31545 1.47682,1.27773 2.79273,3.78341 2.79273,7.62477 0,5.50909 -0.0471,9.94296 -0.0471,11.29909 0,1.09637 0.74046,2.37955 2.8275,1.97592 16.35137,-5.45047 28.13386,-20.87864 28.13386,-39.0641 0,-22.74068 -18.43431,-41.17363 -41.17363,-41.17363"
         style="fill:#ffffff;fill-opacity:1;fill-rule:evenodd;stroke:none;stroke-width:0.68181819"
         id="path28"
         inkscape:connector-curvature="0"
         transform="translate(4.4826197e-7,-3.4697232e-6)" />
      <path
         d="m 170.96265,201.40594 c -0.16625,0.37625 -0.75625,0.48875 -1.29375,0.23125 -0.54875,-0.2475 -0.855,-0.75875 -0.6775,-1.135 0.1625,-0.385 0.7525,-0.4925 1.3,-0.235 0.5475,0.24625 0.86,0.7625 0.67125,1.13875"
         style="fill:#ffffff;fill-opacity:1;fill-rule:nonzero;stroke:none;stroke-width:1.25"
         id="path32"
         inkscape:connector-curvature="0" />
      <path
         d="m 174.02052,204.81656 c -0.36,0.33375 -1.065,0.17875 -1.54125,-0.34875 -0.495,-0.52625 -0.58625,-1.23125 -0.22125,-1.56875 0.37125,-0.33375 1.05375,-0.1775 1.5475,0.34875 0.495,0.5325 0.59125,1.23 0.215,1.56875"
         style="fill:#ffffff;fill-opacity:1;fill-rule:nonzero;stroke:none;stroke-width:1.25"
         id="path36"
         inkscape:connector-curvature="0" />
      <path
         d="m 176.99665,209.16343 c -0.4625,0.3225 -1.22,0.0212 -1.6875,-0.64999 -0.4625,-0.67251 -0.4625,-1.47751 0.0113,-1.80001 0.4675,-0.32249 1.21375,-0.0312 1.6875,0.63376 0.46125,0.6825 0.46125,1.4875 -0.0113,1.81624"
         style="fill:#ffffff;fill-opacity:1;fill-rule:nonzero;stroke:none;stroke-width:1.25"
         id="path40"
         inkscape:connector-curvature="0" />
      <path
         d="m 181.07377,213.36394 c -0.41375,0.45625 -1.295,0.33375 -1.94,-0.29001 -0.66,-0.60749 -0.84375,-1.47125 -0.43,-1.92749 0.42,-0.4575 1.30625,-0.32875 1.95625,0.28875 0.655,0.60749 0.85375,1.4775 0.41375,1.92875"
         style="fill:#ffffff;fill-opacity:1;fill-rule:nonzero;stroke:none;stroke-width:1.25"
         id="path44"
         inkscape:connector-curvature="0" />
      <path
         d="m 186.69877,215.80281 c -0.18375,0.59125 -1.03125,0.85875 -1.88625,0.6075 -0.85375,-0.25875 -1.4125,-0.95 -1.24,-1.5475 0.1775,-0.595 1.03,-0.875 1.89125,-0.60625 0.8525,0.2575 1.4125,0.945 1.235,1.54625"
         style="fill:#ffffff;fill-opacity:1;fill-rule:nonzero;stroke:none;stroke-width:1.25"
         id="path48"
         inkscape:connector-curvature="0" />
      <path
         d="m 192.87677,216.25456 c 0.0213,0.6225 -0.70374,1.13875 -1.60125,1.15 -0.9025,0.02 -1.63375,-0.48375 -1.64375,-1.09625 0,-0.62875 0.71,-1.13875 1.61126,-1.155 0.89749,-0.0175 1.63374,0.48375 1.63374,1.10125"
         style="fill:#ffffff;fill-opacity:1;fill-rule:nonzero;stroke:none;stroke-width:1.25"
         id="path52"
         inkscape:connector-curvature="0" />
      <path
         d="m 198.62502,215.27669 c 0.1075,0.60625 -0.51625,1.22999 -1.4075,1.39625 -0.87625,0.16125 -1.6875,-0.215 -1.79875,-0.81625 -0.10874,-0.6225 0.525,-1.24626 1.40125,-1.4075 0.8925,-0.155 1.69125,0.21 1.805,0.8275"
         style="fill:#ffffff;fill-opacity:1;fill-rule:nonzero;stroke:none;stroke-width:1.25"
         id="path56"
         inkscape:connector-curvature="0" />
    </g>
  </g>
</svg>
