<?xml version="1.0" encoding="UTF-8" standalone="no"?>
<svg
   xmlns:dc="http://purl.org/dc/elements/1.1/"
   xmlns:cc="http://creativecommons.org/ns#"
   xmlns:rdf="http://www.w3.org/1999/02/22-rdf-syntax-ns#"
   xmlns:svg="http://www.w3.org/2000/svg"
   xmlns="http://www.w3.org/2000/svg"
   xmlns:sodipodi="http://sodipodi.sourceforge.net/DTD/sodipodi-0.dtd"
   xmlns:inkscape="http://www.inkscape.org/namespaces/inkscape"
   version="1.1"
   x="0px"
   y="0px"
   viewBox="0 0 110 85.039307"
   xml:space="preserve"
   id="svg36"
   sodipodi:docname="paper.svg"
   width="110"
   height="85.039307"
   inkscape:version="0.92.1 r15371"><metadata
     id="metadata42"><rdf:RDF><cc:Work
         rdf:about=""><dc:format>image/svg+xml</dc:format><dc:type
           rdf:resource="http://purl.org/dc/dcmitype/StillImage" /><dc:title></dc:title></cc:Work></rdf:RDF></metadata><defs
     id="defs40" /><sodipodi:namedview
     pagecolor="#ffffff"
     bordercolor="#666666"
     borderopacity="1"
     objecttolerance="10"
     gridtolerance="10"
     guidetolerance="10"
     inkscape:pageopacity="0"
     inkscape:pageshadow="2"
     inkscape:window-width="3070"
     inkscape:window-height="1752"
     id="namedview38"
     showgrid="false"
     fit-margin-top="0"
     fit-margin-left="0"
     fit-margin-right="0"
     fit-margin-bottom="0"
     inkscape:zoom="2.2798098"
     inkscape:cx="-262.48268"
     inkscape:cy="-112.10563"
     inkscape:window-x="130"
     inkscape:window-y="48"
     inkscape:window-maximized="1"
     inkscape:current-layer="g30" /><g
     id="g30"
     transform="translate(0,54.039306)"><g
       id="g4510"
       transform="matrix(2.9323898,0,0,2.9323898,0,-59.904084)"><path
         style="fill:#ffffff"
         inkscape:connector-curvature="0"
         id="path2"
         d="M 12,10 H 5 C 4.448,10 4,9.552 4,9 4,8.448 4.448,8 5,8 h 7 c 0.552,0 1,0.448 1,1 0,0.552 -0.448,1 -1,1 z" /><path
         style="fill:#ffffff"
         inkscape:connector-curvature="0"
         id="path4"
         d="M 27,10 H 20 C 19.447,10 19,9.552 19,9 19,8.448 19.447,8 20,8 h 7 c 0.553,0 1,0.448 1,1 0,0.552 -0.447,1 -1,1 z" /><path
         style="fill:#ffffff"
         inkscape:connector-curvature="0"
         id="path6"
         d="M 12,14 H 5 C 4.448,14 4,13.552 4,13 4,12.448 4.448,12 5,12 h 7 c 0.552,0 1,0.448 1,1 0,0.552 -0.448,1 -1,1 z" /><path
         style="fill:#ffffff"
         inkscape:connector-curvature="0"
         id="path8"
         d="m 27,14 h -7 c -0.553,0 -1,-0.448 -1,-1 0,-0.552 0.447,-1 1,-1 h 7 c 0.553,0 1,0.448 1,1 0,0.552 -0.447,1 -1,1 z" /><path
         style="fill:#ffffff"
         inkscape:connector-curvature="0"
         id="path10"
         d="M 12,18 H 5 C 4.448,18 4,17.553 4,17 4,16.448 4.448,16 5,16 h 7 c 0.552,0 1,0.448 1,1 0,0.553 -0.448,1 -1,1 z" /><path
         style="fill:#ffffff"
         inkscape:connector-curvature="0"
         id="path12"
         d="m 27,18 h -7 c -0.553,0 -1,-0.447 -1,-1 0,-0.552 0.447,-1 1,-1 h 7 c 0.553,0 1,0.448 1,1 0,0.553 -0.447,1 -1,1 z" /><path
         style="fill:#ffffff"
         inkscape:connector-curvature="0"
         id="path14"
         d="M 12,22 H 5 C 4.448,22 4,21.553 4,21 4,20.447 4.448,20 5,20 h 7 c 0.552,0 1,0.447 1,1 0,0.553 -0.448,1 -1,1 z" /><path
         style="fill:#ffffff"
         inkscape:connector-curvature="0"
         id="path16"
         d="m 27,22 h -7 c -0.553,0 -1,-0.447 -1,-1 0,-0.553 0.447,-1 1,-1 h 7 c 0.553,0 1,0.447 1,1 0,0.553 -0.447,1 -1,1 z" /><path
         style="fill:#ffffff"
         inkscape:connector-curvature="0"
         id="path18"
         d="m 29.501,28 h -9.41 c -0.553,0 -1,-0.447 -1,-1 0,-0.553 0.447,-1 1,-1 h 9.41 C 29.776,26 30,25.776 30,25.501 V 4.499 C 30,4.224 29.776,4 29.501,4 h -9.41 c -0.553,0 -1,-0.448 -1,-1 0,-0.552 0.447,-1 1,-1 h 9.41 C 30.879,2 32,3.121 32,4.499 V 25.501 C 32,26.879 30.879,28 29.501,28 Z" /><path
         style="fill:#ffffff"
         inkscape:connector-curvature="0"
         id="path20"
         d="M 11.909,28 H 2.499 C 1.121,28 0,26.879 0,25.501 V 4.499 C 0,3.121 1.121,2 2.499,2 h 9.41 c 0.552,0 1,0.448 1,1 0,0.552 -0.448,1 -1,1 H 2.499 C 2.224,4 2,4.224 2,4.499 V 25.501 C 2,25.776 2.224,26 2.499,26 h 9.41 c 0.552,0 1,0.447 1,1 0,0.553 -0.448,1 -1,1 z" /><path
         style="fill:#ffffff"
         inkscape:connector-curvature="0"
         id="path22"
         d="M 16,8 C 15.448,8 15,7.552 15,7 15,5.346 13.654,4 12,4 11.448,4 11,3.552 11,3 c 0,-0.552 0.448,-1 1,-1 2.757,0 5,2.243 5,5 0,0.552 -0.448,1 -1,1 z" /><path
         style="fill:#ffffff"
         inkscape:connector-curvature="0"
         id="path24"
         d="m 16,8 c -0.552,0 -1,-0.448 -1,-1 0,-2.757 2.243,-5 5,-5 0.553,0 1,0.448 1,1 0,0.552 -0.447,1 -1,1 -1.654,0 -3,1.346 -3,3 0,0.552 -0.448,1 -1,1 z" /><path
         style="fill:#ffffff"
         inkscape:connector-curvature="0"
         id="path26"
         d="m 16,31 c -0.552,0 -1,-0.447 -1,-1 V 7 c 0,-0.552 0.448,-1 1,-1 0.552,0 1,0.448 1,1 v 23 c 0,0.553 -0.448,1 -1,1 z" /><path
         style="fill:#ffffff"
         inkscape:connector-curvature="0"
         id="path28"
         d="M 16.142,31 H 15.859 C 15.403,31 15.005,30.691 14.891,30.251 14.547,28.926 13.359,28 12,28 c -0.552,0 -1,-0.447 -1,-1 0,-0.553 0.448,-1 1,-1 1.612,0 3.08,0.777 4,2.018 C 16.92,26.777 18.389,26 20,26 c 0.553,0 1,0.447 1,1 0,0.553 -0.447,1 -1,1 -1.358,0 -2.548,0.926 -2.891,2.251 C 16.996,30.691 16.597,31 16.142,31 Z" /></g></g></svg>