<?xml version="1.0" encoding="UTF-8" standalone="no"?>
<svg
   xmlns:dc="http://purl.org/dc/elements/1.1/"
   xmlns:cc="http://creativecommons.org/ns#"
   xmlns:rdf="http://www.w3.org/1999/02/22-rdf-syntax-ns#"
   xmlns:svg="http://www.w3.org/2000/svg"
   xmlns="http://www.w3.org/2000/svg"
   xmlns:sodipodi="http://sodipodi.sourceforge.net/DTD/sodipodi-0.dtd"
   xmlns:inkscape="http://www.inkscape.org/namespaces/inkscape"
   xml:space="preserve"
   style="clip-rule:evenodd;fill-rule:evenodd;image-rendering:optimizeQuality;shape-rendering:geometricPrecision;text-rendering:geometricPrecision"
   viewBox="0 0 5243.501 6985.8566"
   x="0px"
   y="0px"
   id="svg2"
   version="1.1"
   inkscape:version="0.91 r13725"
   sodipodi:docname="partner.svg"
   width="5243.501"
   height="6985.8564"><metadata
     id="metadata18"><rdf:RDF><cc:Work
         rdf:about=""><dc:format>image/svg+xml</dc:format><dc:type
           rdf:resource="http://purl.org/dc/dcmitype/StillImage" /><dc:title></dc:title></cc:Work></rdf:RDF></metadata><sodipodi:namedview
     pagecolor="#ffffff"
     bordercolor="#666666"
     borderopacity="1"
     objecttolerance="10"
     gridtolerance="10"
     guidetolerance="10"
     inkscape:pageopacity="0"
     inkscape:pageshadow="2"
     inkscape:window-width="1855"
     inkscape:window-height="1056"
     id="namedview16"
     showgrid="false"
     fit-margin-top="0"
     fit-margin-left="0"
     fit-margin-right="0"
     fit-margin-bottom="0"
     inkscape:zoom="0.028284271"
     inkscape:cx="5953.9174"
     inkscape:cy="3817.333"
     inkscape:window-x="65"
     inkscape:window-y="24"
     inkscape:window-maximized="1"
     inkscape:current-layer="g4" /><defs
     id="defs4"><style
       type="text/css"
       id="style6">
   
    .fil0 {fill:black;fill-rule:nonzero}
   
  </style></defs><g
     id="g8"
     transform="translate(-3934.3559,-3852.8568)"><g
       transform="matrix(44.720342,0,0,44.720342,3293.5127,3767.2621)"
       id="g4"><circle
         cx="44.349697"
         cy="18.276955"
         r="16.362955"
         id="circle6"
         style="fill:#ffffff" /><circle
         cx="99.207169"
         cy="18.512276"
         r="16.362955"
         id="circle8"
         style="fill:#ffffff" /><path
         inkscape:connector-curvature="0"
         d="M 131.24645,82.457063 124.41889,49.260511 C 122.61206,40.471387 114.0228,34.813983 105.23529,36.620806 97.896784,38.129448 92.758378,44.370321 92.308686,51.502519 l -4.077843,13.306989 -14.760829,6.511656 c -0.546399,0.240158 -1.039608,0.548011 -1.49897,0.889712 L 58.801058,66.400351 53.13237,47.903378 C 52.882542,47.089422 52.484428,46.368948 52.017008,45.709724 49.889437,41.314356 45.829322,37.915078 40.67641,36.854517 31.885675,35.049304 23.301247,40.706709 21.48959,49.494221 l -6.822734,33.196553 c -1.02349,4.97078 0.343312,9.875474 3.313853,13.527805 l 0,50.960161 c 0,6.04423 4.903083,10.94731 10.94732,10.94731 6.047458,0 10.94893,-4.90308 10.94893,-10.94731 l 0,-47.904196 c 3.286452,-2.296809 5.741218,-5.800854 6.6132,-10.038266 l 2.127571,-10.346119 18.672657,8.23789 c 1.018656,0.449691 2.082441,0.662449 3.130108,0.662449 1.766529,0 3.476645,-0.620542 4.853119,-1.718176 0.44002,0.07736 0.884876,0.128944 1.336179,0.128944 1.046055,0 2.111452,-0.212757 3.130108,-0.662448 l 17.392891,-7.673762 2.290362,11.139123 c 0.891326,4.337344 3.439576,7.912307 6.845296,10.202669 l 0,47.264312 c 0,6.04746 4.90309,10.94892 10.95055,10.94892 6.04584,0 10.94731,-4.90146 10.94731,-10.94892 l 0,-50.797368 c 2.7997,-3.618483 4.07301,-8.382951 3.08014,-13.216729 z"
         id="path10"
         style="fill:#ffffff" /></g></g></svg>