<?xml version="1.0" encoding="UTF-8" standalone="no"?>
<svg
   xmlns:dc="http://purl.org/dc/elements/1.1/"
   xmlns:cc="http://creativecommons.org/ns#"
   xmlns:rdf="http://www.w3.org/1999/02/22-rdf-syntax-ns#"
   xmlns:svg="http://www.w3.org/2000/svg"
   xmlns="http://www.w3.org/2000/svg"
   xmlns:sodipodi="http://sodipodi.sourceforge.net/DTD/sodipodi-0.dtd"
   xmlns:inkscape="http://www.inkscape.org/namespaces/inkscape"
   version="1.1"
   x="0px"
   y="0px"
   viewBox="0 0 110 90.024201"
   enable-background="new 0 0 100 100"
   xml:space="preserve"
   id="svg38"
   sodipodi:docname="previousVersion.svg"
   width="110"
   height="90.0242"
   inkscape:version="0.92.1 r15371"><metadata
     id="metadata44"><rdf:RDF><cc:Work
         rdf:about=""><dc:format>image/svg+xml</dc:format><dc:type
           rdf:resource="http://purl.org/dc/dcmitype/StillImage" /><dc:title></dc:title></cc:Work></rdf:RDF></metadata><defs
     id="defs42" /><sodipodi:namedview
     pagecolor="#ffffff"
     bordercolor="#666666"
     borderopacity="1"
     objecttolerance="10"
     gridtolerance="10"
     guidetolerance="10"
     inkscape:pageopacity="0"
     inkscape:pageshadow="2"
     inkscape:window-width="3070"
     inkscape:window-height="1752"
     id="namedview40"
     showgrid="false"
     width="100px"
     inkscape:zoom="11.750526"
     inkscape:cx="55.591869"
     inkscape:cy="54.318269"
     inkscape:window-x="130"
     inkscape:window-y="48"
     inkscape:window-maximized="1"
     inkscape:current-layer="svg38"
     fit-margin-top="0"
     fit-margin-left="0"
     fit-margin-right="0"
     fit-margin-bottom="0" /><path
     inkscape:connector-curvature="0"
     d="M 38.322266,2.3879723 C 22.010999,2.459232 0.510794,16.294956 0.5107946,33.45009 c 0,15.013357 29.8029434,45.902905 36.2860374,53.495869 0.762718,0.920359 2.288152,0.920359 3.05087,0 C 46.521476,79.352995 76.81456,48.463447 76.81456,33.45009 76.814561,16.294956 54.809517,2.3159437 38.322266,2.3879723 Z M 16.967694,37.317591 35.200367,19.424379 c 1.619347,-1.589197 4.215081,-0.673402 3.234831,1.442999 v 10.38961 h 7.60038 c 7.977095,0 14.352847,-0.374182 14.352847,1.698091 v 11.611028 c 0,2.072064 -6.42599,1.698093 -14.352847,1.698093 h -7.60038 v 10.389606 c 0.980253,2.116403 -2.254579,3.559403 -3.234831,1.443002 L 16.967694,40.203596 c -1.052156,-0.684926 -1.052156,-2.201079 0,-2.886005 z"
     id="path4"
     style="opacity:1;fill:#ffffff;stroke-width:1.72567296;fill-opacity:1"
     sodipodi:nodetypes="asccsacsccssssccccc" /></svg>