<?xml version="1.0" encoding="UTF-8" standalone="no"?>
<!-- Generator: Adobe Illustrator 14.0.0, SVG Export Plug-In . SVG Version: 6.00 Build 43363)  -->

<svg
   xmlns:dc="http://purl.org/dc/elements/1.1/"
   xmlns:cc="http://creativecommons.org/ns#"
   xmlns:rdf="http://www.w3.org/1999/02/22-rdf-syntax-ns#"
   xmlns:svg="http://www.w3.org/2000/svg"
   xmlns="http://www.w3.org/2000/svg"
   xmlns:sodipodi="http://sodipodi.sourceforge.net/DTD/sodipodi-0.dtd"
   xmlns:inkscape="http://www.inkscape.org/namespaces/inkscape"
   version="1.1"
   id="Calque_1"
   x="0px"
   y="0px"
   width="110"
   height="85.944801"
   viewBox="0 0 110 85.944803"
   enable-background="new 0 0 425.2 99.21"
   xml:space="preserve"
   inkscape:version="0.92.1 r15371"
   sodipodi:docname="twitter.svg"><metadata
     id="metadata6193"><rdf:RDF><cc:Work
         rdf:about=""><dc:format>image/svg+xml</dc:format><dc:type
           rdf:resource="http://purl.org/dc/dcmitype/StillImage" /><dc:title></dc:title></cc:Work></rdf:RDF></metadata><defs
     id="defs6191"><linearGradient
       id="bird_2_"
       gradientUnits="userSpaceOnUse"
       x1="3726.1963"
       y1="1102.499"
       x2="3726.1963"
       y2="1085.1249"
       gradientTransform="matrix(4.262,0,0,-4.262,-15526.008,4711.7021)"><stop
         offset="0.3006"
         style="stop-color:#57C2EB"
         id="stop6115" /><stop
         offset="1"
         style="stop-color:#28B3E3"
         id="stop6117" /></linearGradient></defs><sodipodi:namedview
     pagecolor="#ffffff"
     bordercolor="#666666"
     borderopacity="1"
     objecttolerance="10"
     gridtolerance="10"
     guidetolerance="10"
     inkscape:pageopacity="0"
     inkscape:pageshadow="2"
     inkscape:window-width="3070"
     inkscape:window-height="1752"
     id="namedview6189"
     showgrid="false"
     fit-margin-top="0"
     fit-margin-left="0"
     fit-margin-right="0"
     fit-margin-bottom="0"
     inkscape:zoom="2.7088539"
     inkscape:cx="58.100428"
     inkscape:cy="51.144694"
     inkscape:window-x="130"
     inkscape:window-y="48"
     inkscape:window-maximized="1"
     inkscape:current-layer="Calque_1" /><path
     id="bird_1_"
     d="m 0,58.220593 c 6.4395035,5.956126 22.971,11.590001 36.424535,-1.596526 -2.418727,0.377494 -4.437862,-0.08102 -5.971779,-1.598367 -1.456576,-1.441845 -1.535758,-2.933408 -0.75683,-4.290547 0.633454,-1.1021 1.967575,-1.881027 3.279598,-2.69218 -2.380977,0.441945 -4.411161,0.211765 -6.225897,-0.715398 -2.435299,-1.244812 -4.803387,-2.554993 -5.467224,-5.256381 1.488801,-1.566141 3.145173,-2.967475 6.729529,-2.439904 -3.37167,-1.126038 -6.392547,-2.592742 -8.579253,-4.794179 -2.130541,-2.143433 -2.352435,-3.534638 -2.69218,-5.215869 1.859851,-0.689618 3.805329,-1.047777 5.887994,-0.841537 C 17.915336,26.370186 15.913694,23.0556 14.80607,19.442702 14.471849,18.351651 14.412003,17.31216 14.552873,16.245968 33.64857,23.454272 42.591506,28.633311 47.527476,33.491021 49.748249,27.58093 54.927289,14.194608 62.668688,9.6002236 c 0.03775,0.7292084 -0.253197,1.5155024 -0.841536,2.3561184 2.292588,-1.277037 4.082465,-3.3201104 7.234083,-3.2805204 -0.363683,1.4915644 -1.405937,2.6857364 -3.449011,3.4480904 2.060568,-0.787214 4.148757,-1.456576 6.310604,-1.849723 2.005324,-0.3627634 1.97586,1.218111 0.841536,2.018215 -2.303637,1.624147 -4.749065,1.826705 -7.15214,2.607474 7.363905,0.184143 13.382641,3.669063 18.08567,11.272353 1.562456,2.526452 2.612998,5.052902 2.86067,7.822423 3.14149,0.882968 6.267328,1.062508 9.420789,0.505474 0.864556,-0.152839 1.670186,-0.314886 2.439901,-0.672124 -1.228235,1.841436 -2.643382,3.354176 -4.626607,4.03735 -1.895759,0.65463 -3.79428,1.292688 -5.887989,1.34701 3.409418,1.290847 7.164103,1.361742 11.02007,1.093813 -4.714991,4.539142 -8.324211,4.429576 -11.946312,4.373412 C 85.390172,51.38518 82.14464,58.073277 75.286211,64.196054 66.290793,72.227479 56.6076,76.059509 46.602155,76.899204 37.220956,77.685497 28.153723,77.576852 18.252318,72.944719 10.914194,69.508598 4.7619548,64.78071 0,58.220593 Z"
     style="fill:#ffffff;stroke-width:0.92071819"
     inkscape:connector-curvature="0" /></svg>