<?xml version="1.0" encoding="UTF-8" standalone="no"?>
<!-- Generator: Adobe Illustrator 14.0.0, SVG Export Plug-In . SVG Version: 6.00 Build 43363)  -->

<svg
   xmlns:dc="http://purl.org/dc/elements/1.1/"
   xmlns:cc="http://creativecommons.org/ns#"
   xmlns:rdf="http://www.w3.org/1999/02/22-rdf-syntax-ns#"
   xmlns:svg="http://www.w3.org/2000/svg"
   xmlns="http://www.w3.org/2000/svg"
   xmlns:sodipodi="http://sodipodi.sourceforge.net/DTD/sodipodi-0.dtd"
   xmlns:inkscape="http://www.inkscape.org/namespaces/inkscape"
   version="1.1"
   id="Calque_1"
   x="0px"
   y="0px"
   width="107.443"
   height="74.500847"
   viewBox="0 0 107.443 74.500848"
   enable-background="new 0 0 425.2 99.21"
   xml:space="preserve"
   inkscape:version="0.92.1 r15371"
   sodipodi:docname="twitter.svg"><metadata
     id="metadata6193"><rdf:RDF><cc:Work
         rdf:about=""><dc:format>image/svg+xml</dc:format><dc:type
           rdf:resource="http://purl.org/dc/dcmitype/StillImage" /><dc:title /></cc:Work></rdf:RDF></metadata><defs
     id="defs6191"><linearGradient
       id="bird_2_"
       gradientUnits="userSpaceOnUse"
       x1="3726.1963"
       y1="1102.499"
       x2="3726.1963"
       y2="1085.1249"
       gradientTransform="matrix(4.262,0,0,-4.262,-15526.008,4711.7021)"><stop
         offset="0.3006"
         style="stop-color:#57C2EB"
         id="stop6115" /><stop
         offset="1"
         style="stop-color:#28B3E3"
         id="stop6117" /></linearGradient></defs><sodipodi:namedview
     pagecolor="#ffffff"
     bordercolor="#666666"
     borderopacity="1"
     objecttolerance="10"
     gridtolerance="10"
     guidetolerance="10"
     inkscape:pageopacity="0"
     inkscape:pageshadow="2"
     inkscape:window-width="1859"
     inkscape:window-height="1176"
     id="namedview6189"
     showgrid="false"
     fit-margin-top="0"
     fit-margin-left="0"
     fit-margin-right="0"
     fit-margin-bottom="0"
     inkscape:zoom="5.1752499"
     inkscape:cx="48.957252"
     inkscape:cy="33.157745"
     inkscape:window-x="61"
     inkscape:window-y="24"
     inkscape:window-maximized="1"
     inkscape:current-layer="Calque_1" /><path
     id="bird_1_"
     d="m 0,53.811616 c 6.994,6.469 24.949,12.588 39.561,-1.734 -2.627,0.41 -4.82,-0.088 -6.486,-1.736 -1.582,-1.566 -1.668,-3.186 -0.822,-4.66 0.688,-1.197 2.137,-2.043 3.562,-2.924 -2.586,0.48 -4.791,0.23 -6.762,-0.777 -2.645,-1.352 -5.217,-2.775 -5.938,-5.709 1.617,-1.701 3.416,-3.223 7.309,-2.65 -3.662,-1.223 -6.943,-2.816 -9.318,-5.207 -2.314,-2.328 -2.555,-3.839 -2.924,-5.665 2.02,-0.749 4.133,-1.138 6.395,-0.914 -5.119,-2.617 -7.293,-6.217 -8.496,-10.141 -0.363,-1.185 -0.428,-2.3140003 -0.275,-3.4720003 20.74,7.8290003 30.453,13.4540003 35.814,18.7300003 2.412,-6.419 8.037,-20.9580003 16.445,-25.9480003 0.041,0.792 -0.275,1.646 -0.914,2.559 2.49,-1.387 4.434,-3.60599995 7.857,-3.5629999533 C 74.613,1.6206157 73.481,2.9176157 71.262,3.7456157 c 2.238,-0.855 4.506,-1.582 6.854,-2.009 2.178,-0.394 2.146,1.323 0.914,2.192 -2.502,1.764 -5.158,1.984 -7.768,2.832 7.998,0.2 14.535,3.9850003 19.643,12.2430003 1.697,2.744 2.838,5.488 3.107,8.496 3.412,0.959 6.807,1.154 10.232,0.549 0.939,-0.166 1.814,-0.342 2.65,-0.73 -1.334,2 -2.871,3.643 -5.025,4.385 -2.059,0.711 -4.121,1.404 -6.395,1.463 3.703,1.402 7.781,1.479 11.969,1.188 -5.121,4.93 -9.041,4.811 -12.975,4.75 -1.725,7.283 -5.25,14.547 -12.699,21.197 -9.77,8.723 -20.287,12.885 -31.154,13.797 -10.189,0.854 -20.037,0.736 -30.791,-4.295 -7.97,-3.732 -14.652,-8.867 -19.824,-15.992 l 0,0 z"
     style="fill:#ffffff"
     inkscape:connector-curvature="0" /><rect
     style="fill:none"
     x="-301.27899"
     id="rect6187"
     height="99.210999"
     width="425.19501"
     y="-12.356384" /></svg>