<svg
   xmlns:dc="http://purl.org/dc/elements/1.1/"
   xmlns:cc="http://creativecommons.org/ns#"
   xmlns:rdf="http://www.w3.org/1999/02/22-rdf-syntax-ns#"
   xmlns:svg="http://www.w3.org/2000/svg"
   xmlns="http://www.w3.org/2000/svg"
   id="svg4853"
   version="1.1"
   viewBox="0 0 164.62714 66.386947"
   height="66.386948mm"
   width="164.62712mm"
   class="center-svg"
   fit-margin-top="5"
   fit-margin-left="5"
   fit-margin-right="5"
   fit-margin-bottom="5">
  <defs
     id="defs4847" />
  <metadata
     id="metadata4850">
    <rdf:RDF>
      <cc:Work
         rdf:about="">
        <dc:format>image/svg+xml</dc:format>
        <dc:type
           rdf:resource="http://purl.org/dc/dcmitype/StillImage" />
        <dc:title></dc:title>
      </cc:Work>
    </rdf:RDF>
  </metadata>
  <g
     transform="translate(19.848411,-79.686301)"
     id="layer1">
    <rect
       ry="1.0147123"
       y="81.893372"
       x="-17.641338"
       height="61.972809"
       width="160.213"
       id="rect4574"
       style="fill:#f2f2f2;fill-rule:evenodd;stroke:#2f2f3b;stroke-width:0.41414487px;stroke-linecap:butt;stroke-linejoin:miter;stroke-opacity:1" />
    <g
       style="fill:#2f2f3b;fill-opacity:1"
       id="g6"
       transform="matrix(0.26323021,0,0,0.33840503,99.353644,103.85942)" />
    <g
       transform="matrix(1.9588676,0,0,1.9588676,-624.75265,-118.25243)"
       id="g5496" />
    <g
       style="fill:#a02c2c;fill-opacity:1"
       id="g5101"
       transform="matrix(0.01847561,0,0,0.01847561,107.14643,90.270816)">
      <path
         id="path5099"
         d="m 426.60182,332.28423 c -12.435,-0.553 -25.18,1.316 -37.576,5.939 l -225.217,83.153 c -49.649,18.433 -74.975001,73.688 -56.729,123.276 l 83.154,225.095 c 18.494,49.65 73.688,75.034 123.275,56.85 l 56.729,-21.213 0,-189.822 c -1.8,1.055 -3.655,1.86 -5.455,2.667 -20.046,7.385 -42.071,-2.622 -49.456,-22.668 -7.385,-19.797 2.622,-41.948 22.667,-49.334 11.358,-4.158 23.476,-2.688 32.971,3.394 2.11,-18.742 8.559,-35.829 18.303,-50.91 -7.944,-4.158 -14.29,-11.122 -17.455,-20.121 -7.447,-19.984 2.559,-41.887 22.667,-49.334 19.736,-7.386 41.707,2.689 49.092,22.424 14.771,-6.578 31.41,-10.303 48.85,-10.303 l 36.97,0 -17.091,-46.426 c -13.871,-37.423 -48.395,-61.009 -85.699,-62.667 z m 65.82,135.76 c -53.001,0 -95.881,42.88 -95.881,95.881 l 0,240.005 c 0,53.001 42.88,95.88 95.881,95.88 l 240.005,0 c 53.001,0 96.001,-42.879 96.001,-95.88 l 0,-240.005 c 0,-53.001 -43,-95.881 -96.001,-95.881 z m -258.551,23.758 c 14.947,0.652 28.886,10.057 34.425,25.092 7.385,19.798 -2.87,41.954 -22.668,49.091 -20.045,7.448 -41.948,-2.559 -49.334,-22.667 -7.385,-19.797 2.5,-41.955 22.546,-49.092 4.95,-1.846 10.048,-2.641 15.031,-2.424 z m 293.824,69.577 c 9.829,0 19.674,3.794 27.152,11.273 15.019,15.019 15.019,39.347 0,54.304 -14.956,15.019 -39.285,15.019 -54.304,0 -14.957,-14.957 -14.957,-39.285 0,-54.304 7.51,-7.479 17.323,-11.273 27.152,-11.273 z m 84.123,84.123 c 9.837,0 19.643,3.794 27.152,11.273 14.957,15.019 14.957,39.285 0,54.304 -15.019,15.019 -39.285,15.019 -54.304,0 -14.957,-14.957 -14.957,-39.285 0,-54.304 7.51,-7.479 17.315,-11.273 27.152,-11.273 z m -317.34,9.819 c 14.93,0.709 28.765,10.121 34.304,24.97 7.385,19.735 -2.932,41.949 -22.667,49.334 -20.046,7.385 -42.07,-2.81 -49.456,-22.546 -7.385,-19.798 2.743,-42.07 22.789,-49.456 4.949,-1.846 10.054,-2.539 15.03,-2.302 z m 401.463,74.304 c 9.829,0 19.642,3.794 27.152,11.273 14.957,15.019 14.957,39.347 0,54.304 -15.019,15.019 -39.347,15.019 -54.304,0 -15.019,-14.957 -15.019,-39.285 0,-54.304 7.478,-7.479 17.323,-11.273 27.152,-11.273 z"
         style="fill:#a02c2c;fill-opacity:1" />
    </g>
    <text
       xml:space="preserve"
       style="font-style:normal;font-variant:normal;font-weight:normal;font-stretch:normal;font-size:10.4693718px;line-height:1.25;font-family:'gi';-inkscape-font-specification:'gi';letter-spacing:0px;word-spacing:0px;fill:#2f2f3b;fill-opacity:1;stroke:none;stroke-width:0.22269183"
       x="-10.672691"
       y="106.52077"
       id="text4809"><tspan
         id="tspan4807"
         x="-10.672691"
         y="106.52077"
         style="font-style:normal;font-variant:normal;font-weight:normal;font-stretch:normal;font-size:4.14627028px;font-family:'gi';-inkscape-font-specification:'gi';fill:#2f2f3b;fill-opacity:1;stroke-width:0.22269183">Output Exploration</tspan></text>
    <rect
       style="fill:#a02c2c;fill-opacity:1;fill-rule:evenodd;stroke:none;stroke-width:0.11872421;stroke-linecap:butt;stroke-linejoin:miter;stroke-miterlimit:4;stroke-dasharray:none;stroke-opacity:1"
       id="rect5005"
       width="3.6419649"
       height="3.6851702"
       x="37.120983"
       y="103.53432"
       ry="0.33818275" />
    <rect
       ry="0.34277257"
       y="94.438179"
       x="37.120983"
       height="3.7351851"
       width="29.383017"
       id="rect4773"
       style="opacity:1;fill:#2f2f3b;fill-opacity:1;fill-rule:evenodd;stroke:none;stroke-width:0.09319162;stroke-linecap:butt;stroke-linejoin:miter;stroke-miterlimit:4;stroke-dasharray:none;stroke-opacity:1" />
    <text
       id="text4797"
       y="97.449669"
       x="-7.1337833"
       style="font-style:normal;font-variant:normal;font-weight:normal;font-stretch:normal;font-size:10.4693718px;line-height:1.25;font-family:'gi';-inkscape-font-specification:'gi';letter-spacing:0px;word-spacing:0px;fill:#2f2f3b;fill-opacity:1;stroke:none;stroke-width:0.22269183"
       xml:space="preserve"><tspan
         style="font-style:normal;font-variant:normal;font-weight:bold;font-stretch:normal;font-size:4.14627028px;font-family:'gi';-inkscape-font-specification:'gi Bold';fill:#2f2f3b;fill-opacity:1;stroke-width:0.22269183"
         y="97.449669"
         x="-7.1337833"
         id="tspan4795">Input Exploration</tspan></text>
    <g
       transform="matrix(1.4699929,0,0,1.4699929,45.736068,-83.367649)"
       id="g961">
      <rect
         style="fill:#ffffff;fill-opacity:1;fill-rule:evenodd;stroke:#2f2f3b;stroke-width:0.41205972;stroke-linecap:butt;stroke-linejoin:miter;stroke-miterlimit:4;stroke-dasharray:none;stroke-opacity:1"
         id="rect5095"
         width="7.7021041"
         height="5.7964873"
         x="44.53241"
         y="134.48897"
         ry="0.64627987" />
      <g
         style="fill:#a02c2c;fill-opacity:1"
         transform="matrix(0.65199321,0,0,0.65199321,126.29413,107.53576)"
         id="g5113">
        <path
           style="fill:#a02c2c;fill-opacity:1;stroke-width:0.07052927"
           id="path5107"
           d="m -133.08548,42.623619 0.27666,0.50071 c 0.0261,0.0472 0.0821,0.0819 0.13603,0.0842 l 2.51264,0.10678 c 0.0539,0.002 0.0734,-0.0291 0.0445,-0.0719 l -1.21347,-2.20575 c -0.0261,-0.0472 -0.0821,-0.0819 -0.13603,-0.0842 l -0.57154,-0.0243 c -0.0539,-0.002 -0.0774,0.0291 -0.0473,0.0764 l 0.63682,1.15258 -3.78489,-2.34269 c -0.056,-0.0347 -0.10991,-0.037 -0.12939,-0.006 l -0.21142,0.34159 c -0.0195,0.0315 0.007,0.0787 0.0627,0.11334 l 3.78489,2.34269 -1.31563,-0.0559 c -0.0432,-0.002 -0.0654,0.0341 -0.0445,0.0719 z" />
        <path
           d="m -133.08548,48.946216 0.27666,-0.50071 c 0.0261,-0.0472 0.0821,-0.0819 0.13603,-0.0842 l 2.51264,-0.10678 c 0.0539,-0.002 0.0734,0.0291 0.0445,0.0719 l -1.21347,2.20575 c -0.0261,0.0472 -0.0821,0.0819 -0.13603,0.0842 l -0.57154,0.0243 c -0.0539,0.002 -0.0774,-0.0291 -0.0473,-0.0764 l 0.63682,-1.15258 -3.78489,2.34269 c -0.056,0.0347 -0.10991,0.037 -0.12939,0.006 l -0.21142,-0.34159 c -0.0195,-0.0315 0.007,-0.0787 0.0627,-0.11334 l 3.78489,-2.34269 -1.31563,0.0559 c -0.0432,0.002 -0.0654,-0.0341 -0.0445,-0.0719 z"
           id="path5109"
           style="fill:#a02c2c;fill-opacity:1;stroke-width:0.07052927" />
        <path
           d="m -132.99978,46.51027 0.49565,0.285616 c 0.0467,0.02691 0.11262,0.02767 0.15998,0.0018 l 2.2061,-1.207419 c 0.0472,-0.02615 0.0478,-0.06285 9.3e-4,-0.08455 l -2.17896,-1.260938 c -0.0468,-0.02691 -0.11262,-0.02767 -0.15997,-0.0018 l -0.50182,0.274637 c -0.0472,0.02615 -0.0512,0.06492 -0.001,0.08985 l 1.14093,0.657467 -4.45098,-0.04895 c -0.0659,-7.57e-4 -0.11321,0.02514 -0.11386,0.06175 l -0.004,0.4017 c -4.1e-4,0.03704 0.0467,0.06375 0.11226,0.06461 l 4.45097,0.04895 -1.15512,0.632218 c -0.038,0.02062 -0.0384,0.063 -9.3e-4,0.08455 z"
           id="path5111"
           style="fill:#a02c2c;fill-opacity:1;stroke-width:0.07052927" />
      </g>
      <g
         style="fill:#7e8b00;fill-opacity:1;stroke:none;stroke-opacity:1"
         transform="matrix(0.65199321,0,0,0.65199321,126.29413,107.3615)"
         id="g5123">
        <g
           style="fill:#7e8b00;fill-opacity:1;stroke:none;stroke-opacity:1"
           id="g5121"
           transform="translate(2.1166667,0)">
          <path
             style="fill:#7e8b00;fill-opacity:1;stroke:none;stroke-width:0.07052927;stroke-opacity:1"
             id="path5115"
             d="m -108.51286,51.357606 0.27666,0.50071 c 0.0261,0.0472 0.0821,0.0819 0.13603,0.0842 l 2.51264,0.10678 c 0.0539,0.002 0.0734,-0.0291 0.0445,-0.0719 l -1.21346,-2.20575 c -0.0261,-0.0472 -0.0821,-0.0819 -0.13604,-0.0842 l -0.57154,-0.0243 c -0.0539,-0.002 -0.0774,0.0291 -0.0473,0.0764 l 0.63683,1.15258 -3.7849,-2.34269 c -0.056,-0.0347 -0.10991,-0.037 -0.12939,-0.006 l -0.21142,0.34159 c -0.0195,0.0315 0.007,0.0787 0.0627,0.11334 l 3.78489,2.34269 -1.31563,-0.0559 c -0.0432,-0.002 -0.0654,0.0341 -0.0445,0.0719 z" />
          <path
             d="m -108.51286,40.746766 0.27666,-0.50071 c 0.0261,-0.0472 0.0821,-0.0819 0.13603,-0.0842 l 2.51264,-0.10678 c 0.0539,-0.002 0.0734,0.0291 0.0445,0.0719 l -1.21346,2.20575 c -0.0261,0.0472 -0.0821,0.0819 -0.13604,0.0842 l -0.57154,0.0243 c -0.0539,0.002 -0.0774,-0.0291 -0.0473,-0.0764 l 0.63683,-1.15258 -3.7849,2.34269 c -0.056,0.0347 -0.10991,0.037 -0.12939,0.006 l -0.21142,-0.34159 c -0.0195,-0.0315 0.007,-0.0787 0.0627,-0.11334 l 3.78489,-2.34269 -1.31563,0.0559 c -0.0432,0.002 -0.0654,-0.0341 -0.0445,-0.0719 z"
             id="path5117"
             style="fill:#7e8b00;fill-opacity:1;stroke:none;stroke-width:0.07052927;stroke-opacity:1" />
          <path
             d="m -107.59962,47.568604 0.49565,0.285616 c 0.0467,0.02691 0.11262,0.02767 0.15998,0.0018 l 2.2061,-1.207419 c 0.0472,-0.02615 0.0478,-0.06285 9.3e-4,-0.08455 l -2.17896,-1.260938 c -0.0468,-0.02691 -0.11262,-0.02767 -0.15997,-0.0018 l -0.50182,0.274637 c -0.0472,0.02615 -0.0512,0.06492 -0.001,0.08985 l 1.14093,0.657467 -4.45098,-0.04895 c -0.0659,-7.57e-4 -0.11321,0.02514 -0.11386,0.06175 l -0.004,0.4017 c -4.1e-4,0.03704 0.0467,0.06375 0.11226,0.06461 l 4.45097,0.04895 -1.15512,0.632218 c -0.038,0.02062 -0.0384,0.063 -9.3e-4,0.08455 z"
             id="path5119"
             style="fill:#7e8b00;fill-opacity:1;stroke:none;stroke-width:0.07052927;stroke-opacity:1" />
        </g>
      </g>
      <g
         aria-label="M"
         transform="matrix(0.14361038,0,0,0.14361038,7.2725137,114.55038)"
         style="font-style:normal;font-weight:normal;font-size:22.5px;line-height:125%;font-family:'Bitstream Vera Sans';text-align:center;letter-spacing:0px;word-spacing:0px;text-anchor:middle;fill:#2f2f3b;fill-opacity:1;stroke:none;stroke-width:1px;stroke-linecap:butt;stroke-linejoin:miter;stroke-opacity:1"
         id="flowRoot4670">
        <path
           d="m 293.2535,166.72559 1.5975,0 -3.555,-16.3125 -5.0175,13.095 -5.0175,-13.095 -3.5775,16.3125 1.62,0 2.3625,-10.89 4.6125,11.79 4.59,-11.79 z"
           style="font-style:normal;font-variant:normal;font-weight:normal;font-stretch:normal;font-family:'gi';-inkscape-font-specification:'gi';fill:#2f2f3b;fill-opacity:1"
           id="path4672" />
      </g>
    </g>
    <text
       xml:space="preserve"
       style="font-style:normal;font-variant:normal;font-weight:normal;font-stretch:normal;font-size:8.29253864px;line-height:1.25;font-family:'Humor Sans';-inkscape-font-specification:'Humor Sans';letter-spacing:0px;word-spacing:0px;fill:#2f2f3b;fill-opacity:1;stroke:none;stroke-width:0.22269183"
       x="5.2734122"
       y="124.66297"
       id="text5009"><tspan
         id="tspan5034"
         x="5.2734122"
         y="124.66297"
         style="font-style:normal;font-variant:normal;font-weight:normal;font-stretch:normal;font-size:4.14627028px;font-family:'gi';-inkscape-font-specification:'gi';fill:#2f2f3b;fill-opacity:1;stroke-width:0.22269183">Sensitivity</tspan></text>
    <rect
       style="fill:#2f2f3b;fill-opacity:1;fill-rule:evenodd;stroke:none;stroke-width:0.06034318;stroke-linecap:butt;stroke-linejoin:miter;stroke-miterlimit:4;stroke-dasharray:none;stroke-opacity:1"
       id="rect4775"
       width="9.6761332"
       height="3.799531"
       x="37.120983"
       y="121.61934"
       ry="0.34867746" />
    <text
       xml:space="preserve"
       style="font-style:normal;font-variant:normal;font-weight:normal;font-stretch:normal;font-size:10.4693718px;line-height:1.25;font-family:'Humor Sans';-inkscape-font-specification:'Humor Sans';letter-spacing:0px;word-spacing:0px;fill:#2f2f3b;fill-opacity:1;stroke:none;stroke-width:0.22269183"
       x="0.40562496"
       y="115.59188"
       id="text4801"><tspan
         id="tspan4799"
         x="0.40562496"
         y="115.59188"
         style="font-style:normal;font-variant:normal;font-weight:normal;font-stretch:normal;font-size:4.14627028px;font-family:'gi';-inkscape-font-specification:'gi';fill:#2f2f3b;fill-opacity:1;stroke-width:0.22269183">Optimisation</tspan></text>
    <rect
       ry="0.34867749"
       y="112.54825"
       x="37.120983"
       height="3.799531"
       width="9.6761332"
       id="rect856"
       style="fill:#2f2f3b;fill-opacity:1;fill-rule:evenodd;stroke:none;stroke-width:0.06034318;stroke-linecap:butt;stroke-linejoin:miter;stroke-miterlimit:4;stroke-dasharray:none;stroke-opacity:1" />
    <g
       style="stroke:#2f2f3b;stroke-opacity:1"
       transform="matrix(1.9588676,0,0,1.9588676,34.640139,-62.883689)"
       id="g936">
      <path
         style="fill:#2f2f3b;fill-opacity:1;fill-rule:evenodd;stroke:#2f2f3b;stroke-width:0.1;stroke-linecap:butt;stroke-linejoin:miter;stroke-miterlimit:4;stroke-dasharray:none;stroke-opacity:1"
         d="m 1.266468,99.244558 25,0"
         id="path896" />
      <g
         id="g925"
         style="fill:#2f2f3b;fill-opacity:1;stroke:#2f2f3b;stroke-width:0.1;stroke-miterlimit:4;stroke-dasharray:none;stroke-opacity:1">
        <g
           id="g916"
           style="fill:#2f2f3b;fill-opacity:1;stroke:#2f2f3b;stroke-width:0.1;stroke-miterlimit:4;stroke-dasharray:none;stroke-opacity:1">
          <path
             id="path898"
             d="m 21.266589,98.765009 0,0.959098"
             style="fill:#2f2f3b;fill-opacity:1;fill-rule:evenodd;stroke:#2f2f3b;stroke-width:0.1;stroke-linecap:butt;stroke-linejoin:miter;stroke-miterlimit:4;stroke-dasharray:none;stroke-opacity:1" />
          <path
             style="fill:#2f2f3b;fill-opacity:1;fill-rule:evenodd;stroke:#2f2f3b;stroke-width:0.1;stroke-linecap:butt;stroke-linejoin:miter;stroke-miterlimit:4;stroke-dasharray:none;stroke-opacity:1"
             d="m 16.266589,98.765009 0,0.959098"
             id="path900" />
          <path
             id="path902"
             d="m 11.266589,98.765009 0,0.959098"
             style="fill:#2f2f3b;fill-opacity:1;fill-rule:evenodd;stroke:#2f2f3b;stroke-width:0.1;stroke-linecap:butt;stroke-linejoin:miter;stroke-miterlimit:4;stroke-dasharray:none;stroke-opacity:1" />
          <path
             style="fill:#2f2f3b;fill-opacity:1;fill-rule:evenodd;stroke:#2f2f3b;stroke-width:0.1;stroke-linecap:butt;stroke-linejoin:miter;stroke-miterlimit:4;stroke-dasharray:none;stroke-opacity:1"
             d="m 6.266589,98.765009 0,0.959098"
             id="path904" />
          <path
             id="path906"
             d="m 1.316468,98.765009 0,0.959098"
             style="fill:#2f2f3b;fill-opacity:1;fill-rule:evenodd;stroke:#2f2f3b;stroke-width:0.1;stroke-linecap:butt;stroke-linejoin:miter;stroke-miterlimit:4;stroke-dasharray:none;stroke-opacity:1" />
          <path
             style="fill:#2f2f3b;fill-opacity:1;fill-rule:evenodd;stroke:#2f2f3b;stroke-width:0.1;stroke-linecap:butt;stroke-linejoin:miter;stroke-miterlimit:4;stroke-dasharray:none;stroke-opacity:1"
             d="m 26.266589,98.765009 0,0.959098"
             id="path908" />
        </g>
      </g>
    </g>
    <flowRoot
       style="font-style:normal;font-weight:normal;font-size:78.35470581px;line-height:125%;font-family:sans-serif;letter-spacing:0px;word-spacing:0px;fill:#000000;fill-opacity:1;stroke:none;stroke-width:1px;stroke-linecap:butt;stroke-linejoin:miter;stroke-opacity:1"
       id="flowRoot4178"
       xml:space="preserve"><flowRegion
         id="flowRegion4180"><rect
           y="-187.13019"
           x="-81.229866"
           height="269.4075"
           width="308.88367"
           id="rect4182" /></flowRegion><flowPara
         id="flowPara4184" /></flowRoot>  </g>
</svg>
