<?xml version="1.0" encoding="UTF-8" standalone="no"?>
<svg
   xmlns:dc="http://purl.org/dc/elements/1.1/"
   xmlns:cc="http://creativecommons.org/ns#"
   xmlns:rdf="http://www.w3.org/1999/02/22-rdf-syntax-ns#"
   xmlns:svg="http://www.w3.org/2000/svg"
   xmlns="http://www.w3.org/2000/svg"
   xmlns:xlink="http://www.w3.org/1999/xlink"
   xmlns:sodipodi="http://sodipodi.sourceforge.net/DTD/sodipodi-0.dtd"
   xmlns:inkscape="http://www.inkscape.org/namespaces/inkscape"
   height="337.8588"
   width="419.2092"
   id="svg10"
   y="0px"
   x="0px"
   version="1.1"
   viewBox="0 0 419.20922 337.85881"
   sodipodi:docname="mapAnimated.svg"
   inkscape:version="0.92.1 r15371">
  <sodipodi:namedview
     pagecolor="#ffffff"
     bordercolor="#666666"
     borderopacity="1"
     objecttolerance="10"
     gridtolerance="10"
     guidetolerance="10"
     inkscape:pageopacity="0"
     inkscape:pageshadow="2"
     inkscape:window-width="1859"
     inkscape:window-height="1056"
     id="namedview18"
     showgrid="false"
     fit-margin-top="0"
     fit-margin-left="0"
     fit-margin-right="0"
     fit-margin-bottom="0"
     inkscape:zoom="0.54883721"
     inkscape:cx="190.20642"
     inkscape:cy="172.21223"
     inkscape:window-x="61"
     inkscape:window-y="24"
     inkscape:window-maximized="1"
     inkscape:current-layer="svg10" />
  <metadata
     id="metadata16">
    <rdf:RDF>
      <cc:Work
         rdf:about="">
        <dc:format>image/svg+xml</dc:format>
        <dc:type
           rdf:resource="http://purl.org/dc/dcmitype/StillImage" />
        <dc:title></dc:title>
      </cc:Work>
    </rdf:RDF>
  </metadata>
  <defs
     id="defs14" />
  <g
     id="g4"
     transform="matrix(0.94377377,0,0,0.98093727,-182.75934,-439.4019)">
    <path
       id="path2"
       d="m 203.0334,448.42435 c -2.112,-0.828 -4.528,-0.597 -6.392,0.728 -1.863,1.285 -2.994,3.427 -2.994,5.66399 v 288.76201 c 0,2.817 1.761,5.27499 4.369,6.311 l 107.609,41.99199 c 1.614,0.621 3.401,0.621 5.016,0 l 105.1,-40.941 105.1,40.941 c 0.827,0.33101 1.678,0.48401 2.508,0.48401 0.872,0 1.677,-0.164 2.505,-0.48401 l 107.608,-41.99199 c 2.61,-0.995 4.369,-3.45001 4.369,-6.311 V 454.81634 c -0.07,-2.27899 -1.25,-4.42099 -3.073,-5.66399 -1.863,-1.28301 -4.24,-1.515 -6.311,-0.728 l -105.181,40.939 -105.1,-40.939 c -1.615,-0.621 -3.317,-0.621 -4.935,0 l -105.182,40.939 -105.019,-40.939 z m 210.685,14.48099 c -0.36413,91.77356 0,182.29946 0,274.12401 -0.182,0.03 -0.371,0 -0.485,0.08 l -103.077,40.211 c -0.77683,-92.7961 -0.004,-173.1198 -0.004,-274.117 0.184,-0.03 0.329,0 0.485,-0.08 l 103.079,-40.212 z m 4.044,0.08 103.077,40.132 c 0.07,0.03 0.182,0.03 0.256,0.08 v 274.037 l -102.916,-40.049 c -0.183,-0.04 -0.328,-0.04 -0.485,-0.08 -0.94634,-253.50476 0.09,-54.10129 0.09,-274.107 z m -210.525,1.781 98.305,38.352 c 0.106,0.03 0.328,0.03 0.485,0.08 0.14394,123.24891 0,179.0769 0,274.118 l -98.79,-38.432 z m 416.76,0.08 v 274.037 l -98.87,38.514 v -274.119 c 0.255,-0.04 0.437,-0.08 0.645,-0.163 l 98.224,-38.27 z"
       style="fill:#a6bf26;fill-opacity:1"
       inkscape:connector-curvature="0" />
    <path
       style="fill:#a6bf26;fill-opacity:1"
       id="dash9"
       d="m 371.85567,661.7581 c 0,-0.24396 -0.24396,-1.2198 -0.48792,-1.46376 -0.73188,-2.92751 -1.2198,-6.09899 -1.2198,-9.27047 0,-1.2198 0,-2.68356 0.24396,-3.90336 0,-0.24396 0.24396,-1.2198 0.24396,-1.46376 0.24396,-2.19564 -1.2198,-4.14732 -3.41544,-4.39128 -2.19564,-0.24396 -4.14732,1.2198 -4.39128,3.41544 0,0.24396 -0.24396,1.70772 -0.24396,1.70772 -0.24396,1.46376 -0.24396,3.17148 -0.24396,4.63524 0,3.90336 0.48792,7.80671 1.46376,11.22215 0,0.24396 0.48792,1.46376 0.48792,1.70772 0.48792,1.70772 2.19564,2.92752 3.90336,2.92752 0.48792,0 0.73188,0 1.2198,-0.24396 1.95168,-0.48792 3.17148,-2.68356 2.4396,-4.8792 z"
       inkscape:connector-curvature="0" />
    <path
       style="fill:#a6bf26;fill-opacity:1"
       id="dash1"
       d="m 546.04301,699.57188 c 0,0 0,2.4396 0,3.17148 0,5.61108 -0.48791,10.24632 -0.97583,12.44195 -0.24396,2.19564 1.21979,4.14732 3.17147,4.63524 0.24396,0 0.48792,0 0.73188,0 1.95168,0 3.6594,-1.46376 3.90336,-3.41544 0.48792,-2.43959 0.97584,-7.31879 0.97584,-13.66175 0,-0.48792 0,-0.97584 0,-1.70772 0,-0.24396 0,-1.46376 0,-1.70772 0,-2.19564 -1.95168,-3.90336 -4.14732,-3.90336 -1.95168,0 -3.6594,1.95168 -3.6594,4.14732 z"
       inkscape:connector-curvature="0" />
    <path
       style="fill:#a6bf26;fill-opacity:1"
       id="dash8"
       d="m 390.39662,683.95845 c -0.24396,-0.24396 -1.2198,-0.73188 -1.2198,-0.73188 -4.14732,-2.68356 -7.56276,-5.61108 -10.24632,-8.78255 0,0 -0.73188,-0.97584 -0.97584,-1.2198 -1.46375,-1.70772 -3.90335,-1.95168 -5.61107,-0.73188 -1.70772,1.46376 -1.95168,3.90336 -0.73188,5.61107 0.24396,0.24396 0.97584,1.2198 1.2198,1.46376 3.17148,3.90336 7.31879,7.3188 11.95403,10.24632 0.24396,0 1.2198,0.73188 1.46376,0.97584 0.73188,0.48792 1.2198,0.48792 1.95168,0.48792 1.46376,0 2.68356,-0.73188 3.41544,-1.95168 1.46376,-1.70772 0.73188,-4.14732 -1.2198,-5.36712 z"
       inkscape:connector-curvature="0" />
    <path
       style="fill:#a6bf26;fill-opacity:1"
       id="dash7"
       d="m 419.42784,693.96081 c -0.24396,0 -1.46376,-0.24396 -1.46376,-0.24396 -4.14731,-0.48792 -8.78255,-1.70772 -13.41779,-3.41544 -0.24396,0 -1.46376,-0.48792 -1.46376,-0.48792 -1.95168,-0.73188 -4.39128,0.24396 -5.12316,2.4396 -0.73188,1.95168 0.24396,4.39127 2.4396,5.12315 0,0 1.46376,0.48792 1.70772,0.48792 5.36712,1.95168 10.24632,3.17148 15.12551,3.6594 0.24396,0 1.46376,0.24396 1.70772,0.24396 0.24396,0 0.24396,0 0.48792,0 1.95168,0 3.6594,-1.46376 3.90336,-3.6594 0,-1.95168 -1.70772,-3.90335 -3.90336,-4.14731 z"
       inkscape:connector-curvature="0" />
    <path
       style="fill:#a6bf26;fill-opacity:1"
       id="dash2"
       d="m 538.48026,672.00442 c 2.19564,3.6594 4.14732,7.80671 5.36712,12.44195 0,0.24396 0.24396,1.2198 0.48792,1.46376 0.48792,1.70772 1.95167,2.92752 3.90335,2.92752 0.24396,0 0.73188,0 0.97584,0 2.19564,-0.48792 3.41544,-2.68356 2.92752,-4.8792 0,-0.24396 -0.48792,-1.46376 -0.48792,-1.70772 -1.46376,-5.36712 -3.6594,-10.24631 -6.34295,-14.39363 0,-0.24396 -0.73188,-1.2198 -0.97584,-1.46376 -1.2198,-1.70772 -3.6594,-2.19564 -5.61108,-0.97584 -1.70772,1.2198 -2.19564,3.6594 -0.97584,5.61108 0,0 0.73188,0.73188 0.73188,0.97584 z"
       inkscape:connector-curvature="0" />
    <path
       style="fill:#a6bf26;fill-opacity:1"
       id="dash4"
       d="m 499.44668,645.65675 c -0.24396,0 -1.70772,0.24396 -1.70772,0.24396 -5.36712,0.73188 -10.24631,2.68356 -15.12551,5.85504 -0.24396,0 -1.2198,0.73188 -1.46376,0.97584 -1.70772,1.2198 -2.19564,3.6594 -0.97584,5.61107 0.73188,0.97584 1.95168,1.70772 3.17148,1.70772 0.73188,0 1.70772,-0.24396 2.19564,-0.73188 0.24396,-0.24396 1.2198,-0.73188 1.2198,-0.73188 3.90335,-2.68355 7.80671,-4.14731 11.95403,-4.63523 0,0 1.2198,-0.24396 1.46376,-0.24396 2.19564,-0.24396 3.6594,-2.19564 3.41544,-4.39128 -0.24396,-2.19564 -1.95168,-3.90336 -4.14732,-3.6594 z"
       inkscape:connector-curvature="0" />
    <path
       style="fill:#a6bf26;fill-opacity:1"
       id="dash6"
       d="m 447.23927,686.15409 c -0.24396,0.24396 -1.2198,0.73188 -1.2198,0.97584 -3.90336,2.68356 -7.80672,4.63524 -11.95404,5.85504 0,0 -1.21979,0.24396 -1.46375,0.48792 -2.19564,0.48792 -3.41544,2.68355 -2.92752,4.87919 0.48792,1.70772 1.95168,3.17148 3.90335,3.17148 0.24396,0 0.48792,0 0.97584,0 0.24396,0 1.70772,-0.48792 1.70772,-0.48792 5.12316,-1.46376 9.7584,-3.6594 14.39364,-6.83087 0,0 1.21979,-0.73188 1.46375,-0.97584 1.70772,-1.2198 2.19564,-3.90336 0.73188,-5.61108 -1.21979,-2.4396 -3.90335,-2.92752 -5.61107,-1.46376 z"
       inkscape:connector-curvature="0" />
    <path
       style="fill:#a6bf26;fill-opacity:1"
       id="dash3"
       d="m 533.84502,660.29434 c 1.2198,-1.70772 0.73188,-4.14731 -0.97584,-5.61107 -0.24396,-0.24396 -1.46376,-0.97584 -1.46376,-0.97584 -4.14732,-2.68356 -9.02651,-4.8792 -14.39363,-6.34296 -0.24396,0 -1.46376,-0.48792 -1.70772,-0.48792 -2.19564,-0.48792 -4.14732,0.73188 -4.8792,2.92752 -0.48792,2.19564 0.73188,4.14732 2.92752,4.8792 0.24396,0 1.46376,0.24396 1.46376,0.48792 4.63524,1.2198 8.78256,3.17147 12.19799,5.36711 0,0 0.97584,0.73188 1.2198,0.73188 0.73188,0.48792 1.46376,0.73188 2.19564,0.73188 1.46376,0 2.68356,-0.48792 3.41544,-1.70772 z"
       inkscape:connector-curvature="0" />
    <path
       style="fill:#a6bf26;fill-opacity:1"
       id="dash5"
       d="m 469.43962,663.22186 c 0,0 -0.97584,1.2198 -1.2198,1.2198 -1.70772,1.70772 -3.17148,3.6594 -4.8792,5.36712 -1.70772,1.95168 -3.17148,3.6594 -4.8792,5.61108 0,0 -0.97584,1.21979 -0.97584,1.21979 -1.46376,1.70772 -1.46376,4.14732 0.24396,5.61108 0.73188,0.73188 1.70772,0.97584 2.68356,0.97584 0.97584,0 2.19564,-0.48792 2.92752,-1.2198 0,0 0.97584,-1.2198 1.2198,-1.2198 1.70772,-1.95168 3.41544,-3.90336 5.12316,-5.61107 1.46375,-1.70772 3.17147,-3.6594 4.63523,-5.36712 0,0 0.97584,-1.2198 0.97584,-1.2198 1.46376,-1.70772 1.46376,-4.14732 -0.24396,-5.61108 -1.46376,-1.46376 -3.90336,-1.2198 -5.61107,0.24396 z"
       inkscape:connector-curvature="0" />
    <path
       style="fill:#a6bf26;fill-opacity:1"
       id="croix"
       d="m 553.60577,736.16586 8.05068,-7.56275 c 1.46376,-1.46376 1.70772,-4.14732 0,-5.61108 -1.46376,-1.46376 -4.14732,-1.70772 -5.61108,0 l -7.80672,7.56276 -6.83087,-7.56276 c -1.46376,-1.70772 -3.90336,-1.70772 -5.61108,-0.24396 -1.70772,1.46376 -1.70772,3.90336 -0.24396,5.61108 l 6.83088,7.80671 -8.05068,7.80672 c -1.46376,1.46376 -1.70772,4.14732 0,5.61108 0.73188,0.73188 1.70772,1.2198 2.92752,1.2198 0.97584,0 1.95168,-0.48792 2.68356,-1.2198 l 7.80671,-7.56276 7.56276,8.5386 c 0.73188,0.97584 1.95168,1.21979 2.92752,1.21979 0.97584,0 1.95168,-0.24395 2.68356,-0.97583 1.70772,-1.46376 1.70772,-3.90336 0.24396,-5.61108 z"
       inkscape:connector-curvature="0">
      <animateTransform
         attributeType="XML"
         attributeName="transform"
         type="scale"
         from="1"
         to="1.5"
         begin="croix.end"
         dur="1.5s"
         repeatCount="1"
         id="croixscale" />
    </path>
    <path
       style="fill:#a02c2c;fill-opacity:1"
       id="vousetesici"
       d="m 372.83151,631.995 c 0,0 25.12786,-49.03594 30.9829,-60.74601 5.85504,-11.46611 5.85504,-24.63995 0,-36.59398 -10.00235,-20.00471 -34.6423,-28.05538 -54.64701,-18.05303 -20.00471,10.00235 -27.81143,35.37418 -18.05303,54.64701 9.75839,19.27283 30.9829,60.74601 30.9829,60.74601 2.19564,4.39128 8.5386,4.39128 10.73424,0 z m -26.34767,-78.79904 c 0,-11.71007 9.51444,-21.22451 21.22451,-21.22451 11.71007,0 21.22451,9.51444 21.22451,21.22451 0,11.71007 -9.51444,21.22451 -21.22451,21.22451 -11.95403,-0.24396 -21.22451,-9.51444 -21.22451,-21.22451 z"
       inkscape:connector-curvature="0" />
  </g>




  <animate 
    xlink:href="#dash1"
    attributeType="CSS"
    attributeName="fill-opacity"
    values= "0;1" 
    dur="0.35s"
    begin="0s"
    restart="always"
    repeatCount="1"
    fill="freeze" 
    id="step1"
    calcMode="paced"
    />

  <animate 
    xlink:href="#dash2"
    attributeType="CSS"
    attributeName="fill-opacity"
    values= "0;1" 
    dur="0.35s"
    begin="step1.end"
    restart="always"
    repeatCount="1"
    fill="freeze" 
    id="step2"
    calcMode="paced"
    />


  <animate 
    xlink:href="#dash3"
    attributeType="CSS"
    attributeName="fill-opacity"
    values= "0;1" 
    dur="0.35s"
    begin="step2.end"
    restart="always"
    repeatCount="1"
    fill="freeze" 
    id="step3"
    calcMode="paced"
    />


<animate 
    xlink:href="#dash4"
    attributeType="CSS"
    attributeName="fill-opacity"
    values= "0;1" 
    dur="0.35s"
    begin="step3.end"
    restart="always"
    repeatCount="1"
    fill="freeze" 
    id="step4"
    calcMode="paced"
    />
<animate 
    xlink:href="#dash5"
    attributeType="CSS"
    attributeName="fill-opacity"
    values= "0;1" 
    dur="0.35s"
    begin="step4.end"
    restart="always"
    repeatCount="1"
    fill="freeze" 
    id="step5"
    calcMode="paced"
    />

<animate 
    xlink:href="#dash6"
    attributeType="CSS"
    attributeName="fill-opacity"
    values= "0;1" 
    dur="0.35s"
    begin="step5.end"
    restart="always"
    repeatCount="1"
    fill="freeze" 
    id="step6"
    calcMode="paced"
    />
<animate 
    xlink:href="#dash7"
    attributeType="CSS"
    attributeName="fill-opacity"
    values= "0;1" 
    dur="0.35s"
    begin="step6.end"
    restart="always"
    repeatCount="1"
    fill="freeze" 
    id="step7"
    calcMode="paced"
    />
<animate 
    xlink:href="#dash8"
    attributeType="CSS"
    attributeName="fill-opacity"
    values= "0;1" 
    dur="0.35s"
    begin="step7.end"
    restart="always"
    repeatCount="1"
    fill="freeze" 
    id="step8"
    calcMode="paced"
    />
<animate 
    xlink:href="#dash9"
    attributeType="CSS"
    attributeName="fill-opacity"
    values= "0;1" 
    dur="0.35s"
    begin="step8.end"
    restart="always"
    repeatCount="1"
    fill="freeze" 
    id="step9"
    calcMode="paced"
    />
<animate 
    xlink:href="#croix"
    attributeType="CSS"
    attributeName="fill-opacity"
    values= "0;1" 
    dur="0.35s"
    begin="0s"
    restart="always"
    repeatCount="1"
    fill="freeze" 
    id="croix"
    calcMode="paced"
    />
<animate 
    xlink:href="#vousetesici"
    attributeType="CSS"
    attributeName="fill-opacity"
    values= "1;0;1" 
    dur="1s"
    begin="step9.end"
    restart="always"
    repeatCount="1"
    fill="freeze" 
   id="vousetesiciappear"
    calcMode="paced"
    />
</svg>
