<?xml version="1.0" encoding="UTF-8" standalone="no"?>
<svg
   xmlns:dc="http://purl.org/dc/elements/1.1/"
   xmlns:cc="http://creativecommons.org/ns#"
   xmlns:rdf="http://www.w3.org/1999/02/22-rdf-syntax-ns#"
   xmlns:svg="http://www.w3.org/2000/svg"
   xmlns="http://www.w3.org/2000/svg"
   xmlns:sodipodi="http://sodipodi.sourceforge.net/DTD/sodipodi-0.dtd"
   xmlns:inkscape="http://www.inkscape.org/namespaces/inkscape"
   version="1.1"
   x="0px"
   y="0px"
   viewBox="0 0 450 430"
   enable-background="new 0 0 100 100"
   xml:space="preserve"
   id="svg8"
   sodipodi:docname="scale.svg"
   width="450"
   height="430"
   inkscape:version="0.92.1 r15371"><metadata
     id="metadata14"><rdf:RDF><cc:Work
         rdf:about=""><dc:format>image/svg+xml</dc:format><dc:type
           rdf:resource="http://purl.org/dc/dcmitype/StillImage" /><dc:title></dc:title></cc:Work></rdf:RDF></metadata><defs
     id="defs12"><inkscape:path-effect
       effect="spiro"
       id="path-effect4485"
       is_visible="true" /></defs><sodipodi:namedview
     pagecolor="#ffffff"
     bordercolor="#666666"
     borderopacity="1"
     objecttolerance="10"
     gridtolerance="10"
     guidetolerance="10"
     inkscape:pageopacity="0"
     inkscape:pageshadow="2"
     inkscape:window-width="1859"
     inkscape:window-height="1176"
     id="namedview10"
     showgrid="false"
     scale-x="1"
     inkscape:zoom="0.5"
     inkscape:cx="-598.71738"
     inkscape:cy="-432.96497"
     inkscape:window-x="61"
     inkscape:window-y="24"
     inkscape:window-maximized="1"
     inkscape:current-layer="svg8" /><g
     id="g4487"
     transform="matrix(3.5957624,0,0,3.5957624,0.26484838,-1151.3897)"><path
       sodipodi:nodetypes="ccccc"
       inkscape:connector-curvature="0"
       id="path4487"
       d="m 102.22112,364.45077 4.03776,3.91666 -11.826979,11.64896 -3.878039,-3.88909 z"
       style="fill:#a02c2c;fill-opacity:1;fill-rule:evenodd;stroke:none;stroke-width:1px;stroke-linecap:butt;stroke-linejoin:miter;stroke-opacity:1" /><path
       style="color:#000000;font-style:normal;font-variant:normal;font-weight:normal;font-stretch:normal;font-size:medium;line-height:normal;font-family:sans-serif;font-variant-ligatures:normal;font-variant-position:normal;font-variant-caps:normal;font-variant-numeric:normal;font-variant-alternates:normal;font-feature-settings:normal;text-indent:0;text-align:start;text-decoration:none;text-decoration-line:none;text-decoration-style:solid;text-decoration-color:#000000;letter-spacing:normal;word-spacing:normal;text-transform:none;writing-mode:lr-tb;direction:ltr;text-orientation:mixed;dominant-baseline:auto;baseline-shift:baseline;text-anchor:start;white-space:normal;shape-padding:0;clip-rule:nonzero;display:inline;overflow:visible;visibility:visible;opacity:1;isolation:auto;mix-blend-mode:normal;color-interpolation:sRGB;color-interpolation-filters:linearRGB;solid-color:#000000;solid-opacity:1;vector-effect:none;fill:#a6bf26;fill-opacity:1;fill-rule:nonzero;stroke:#a6bf26;stroke-width:1.37076259;stroke-linecap:butt;stroke-linejoin:miter;stroke-miterlimit:4;stroke-dasharray:none;stroke-dashoffset:0;stroke-opacity:1;color-rendering:auto;image-rendering:auto;shape-rendering:auto;text-rendering:auto;enable-background:accumulate"
       d="m 60.444335,349.84375 v 0.68554 14.39258 h 4.111328 v -15.07812 z m 1.371093,1.36914 h 1.369141 v 12.33789 h -1.369141 z m -19.367187,1.97852 -3.867188,1.6289 5.726563,14.01758 0.638672,-0.26953 3.228515,-1.35938 z m 40.939453,0.40234 -5.880859,13.87304 3.720703,1.6543 0.271484,-0.64258 5.609375,-13.23046 z m -43.025391,1.96289 6.03125,10.91601 -1.339843,0.56446 z m 43.744141,-0.14453 1.214844,0.54101 -4.8125,11.34766 -1.212891,-0.53906 z m -61.359372,10.04687 -2.88672,2.88867 10.701169,10.70313 0.48438,-0.48633 2.40429,-2.40234 z m 60.781247,14.64063 -24.664062,14.93555 c -4.360329,2.55605 -5.109227,8.71694 -1.509766,12.3164 3.592729,3.59273 9.619907,2.83763 12.308594,-1.49414 l 0.002,-0.006 0.0039,-0.004 14.802734,-24.81035 z m -1.642578,2.59766 -22.324225,13.51752 c -2.246059,3.61865 6.698404,5.11161 3.711472,2.12468 -2.980201,-2.9802 -7.30547,-0.0181 -3.715372,-2.12268 l 0.0039,-0.002 z m -72.238279,0.93164 -1.6543,3.7207 13.87305,5.88086 0.27539,-0.61524 1.37891,-3.10546 z m 106.132798,0.55078 -13.98828,5.71679 0.22852,0.6211 1.20312,3.26758 14.18556,-5.73438 z m -105.427718,1.23828 11.34961,4.81055 -0.54102,1.21289 -11.34766,-4.81055 z m 104.691398,0.54492 v 0 l -11.58399,4.68359 0.0742,0.0176 z M 4.2431609,406.04492 v 4.11133 H 19.321292 v -0.68555 -3.42578 z m 101.4355391,0 v 4.11133 h 15.07814 v -0.68555 -3.42578 z M 5.614251,407.41406 h 12.335941 v 1.37109 H 5.614251 Z m 101.435539,0 h 12.3379 v 1.37109 h -12.3379 z"
       id="path4493"
       inkscape:connector-curvature="0"
       sodipodi:nodetypes="cccccccccccccccccccccccccccccccccccccccccscccccccscccccccccccccccccccccccccccccccccccccccccccccc" /></g></svg>