        <svg width="669" height="535" viewBox="0 0 669 535" xmlns="http://www.w3.org/2000/svg">
            <g fill="none" fill-rule="evenodd">
                <path
                    d="M340.70581 472.22452C189.46766 460.7297 9.09245 343.40744 18.26407 222.58675 27.4357 101.76607 202.13323-10.68338 353.3714.81145c151.23815 11.49484 238.27496 237.3308 229.10334 358.1515-9.17162 120.7582-90.53076 124.81888-241.76892 113.26157z"
                    fill="#F2F2F2" fill-rule="nonzero" />
                <ellipse fill="#3F3D56" fill-rule="nonzero" cx="352.89986" cy="471.31946" rx="316.10014" ry="19.34344" />
                <ellipse fill="#000" fill-rule="nonzero" opacity=".1" cx="352.89986" cy="472.26305" rx="268.92102"
                    ry="12.73836" />
                <ellipse fill="#3F3D56" fill-rule="nonzero" cx="132.57334" cy="522.27292" rx="132.57334" ry="11.79478" />
                <ellipse fill="#000" fill-rule="nonzero" opacity=".1" cx="132.57334" cy="522.74471" rx="112.75811"
                    ry="7.54866" />
                <path fill="#3F3D56" fill-rule="nonzero" d="M122.66573 101.90691h468.96051v367.99718H122.66573z" />
                <path
                    d="M352.51287 151.91678H236.39182c-.75119 0-1.43977-.62905-1.43977-1.38392 0-.75486.62598-1.44682 1.37717-1.44682h116.12105c.75119 0 1.37718.62905 1.37718 1.44682.1252.75487-.5008 1.38392-1.31458 1.38392zM478.84107 167.0141h-183.0009c-.75257 0-1.44243-.61538-1.44243-1.41537 0-.8.62715-1.41537 1.44244-1.41537h183.00089c.75257 0 1.44243.61538 1.44243 1.41537 0 .8-.62715 1.41537-1.44243 1.41537zM353.34857 182.11142H237.33408c-.7505 0-1.43845-.61538-1.43845-1.41537 0-.8.62541-1.41537 1.43845-1.41537h116.01449c.7505 0 1.43845.61538 1.43845 1.41537 0 .8-.62541 1.41537-1.43845 1.41537zM478.84504 182.11142H362.83056c-.7505 0-1.43846-.61538-1.43846-1.41537 0-.8.62542-1.41537 1.43846-1.41537h116.01448c.7505 0 1.43846.61538 1.43846 1.41537 0 .8-.62542 1.41537-1.43846 1.41537zM353.34857 198.15233H237.33408c-.7505 0-1.43845-.61538-1.43845-1.41538 0-.79999.62541-1.41537 1.43845-1.41537h116.01449c.7505 0 1.43845.61538 1.43845 1.41537 0 .8-.68795 1.41538-1.43845 1.41538zM353.34857 214.19323H237.33408c-.7505 0-1.43845-.61538-1.43845-1.41537 0-.8.62541-1.41538 1.43845-1.41538h116.01449c.7505 0 1.43845.61538 1.43845 1.41538 0 .79999-.62541 1.41537-1.43845 1.41537zM406.19837 151.91678h-32.99759c-.7457 0-1.42927-.61538-1.42927-1.41537 0-.8.62142-1.41537 1.42927-1.41537h32.9976c.7457 0 1.42926.61538 1.42926 1.41537 0 .8-.62142 1.41537-1.42927 1.41537zM406.19837 198.15233h-32.99759c-.7457 0-1.42927-.61538-1.42927-1.41538 0-.79999.62142-1.41537 1.42927-1.41537h32.9976c.7457 0 1.42926.61538 1.42926 1.41537 0 .8-.62142 1.41538-1.42927 1.41538zM406.25814 213.24965h-33.05488c-.747 0-1.43175-.62906-1.43175-1.38392 0-.75487.6225-1.44683 1.3695-1.44683h33.05488c.747 0 1.43175.62905 1.43175 1.38392s-.56025 1.44683-1.3695 1.44683c.06225 0 0 0 0 0zM461.86726 213.24965h-33.05488c-.747 0-1.3695-.62906-1.3695-1.44683 0-.75486.6225-1.38392 1.3695-1.38392h33.05488c.747 0 1.43175.62905 1.43175 1.38392s-.6225 1.44683-1.43175 1.44683zM269.3789 167.0141h-32.99758c-.7457 0-1.42927-.61538-1.42927-1.41537 0-.8.62142-1.41537 1.42927-1.41537h32.99759c.7457 0 1.42927.61538 1.42927 1.41537 0 .8-.68356 1.41537-1.42927 1.41537zM353.41111 380.26375H237.33408c-.7505 0-1.43845-.61538-1.43845-1.41537 0-.73846.62541-1.41538 1.43845-1.41538h116.01449c.7505 0 1.43845.61538 1.43845 1.41538s-.62541 1.41537-1.3759 1.41537zM352.40574 411.40197h-116.016c-.7501 0-1.4377-.61538-1.4377-1.41537 0-.73845.6251-1.41537 1.4377-1.41537h116.016c.7501 0 1.4377.61538 1.4377 1.41537-.0625.8-.6876 1.41537-1.4377 1.41537zM352.40499 425.55571H236.3905c-.7505 0-1.43846-.61538-1.43846-1.41537 0-.73846.62542-1.41537 1.43846-1.41537h116.01449c.7505 0 1.43845.61538 1.43845 1.41537 0 .73845-.62541 1.41537-1.43845 1.41537zM401.48046 411.40197h-32.99759c-.7457 0-1.42927-.61538-1.42927-1.41537 0-.73845.62142-1.41537 1.42927-1.41537h32.99759c.7457 0 1.42927.61538 1.42927 1.41537-.06214.8-.68356 1.41537-1.42927 1.41537zM401.48046 425.55571h-32.99759c-.7457 0-1.42927-.61538-1.42927-1.41537 0-.73846.62142-1.41537 1.42927-1.41537h32.99759c.7457 0 1.42927.61538 1.42927 1.41537-.06214.73845-.68356 1.41537-1.42927 1.41537zM457.15183 411.40197h-32.9976c-.7457 0-1.42926-.61538-1.42926-1.41537 0-.73845.62142-1.41537 1.42927-1.41537h32.99759c.7457 0 1.42927.61538 1.42927 1.41537 0 .8-.62142 1.41537-1.42927 1.41537zM478.77835 394.41749H295.84018c-.75258 0-1.44244-.61538-1.44244-1.41537 0-.73846.62715-1.41538 1.44244-1.41538h183.00089c.75257 0 1.44243.61538 1.44243 1.41538-.06272.79999-.68986 1.41537-1.50515 1.41537zM269.3789 394.41749h-32.99758c-.7457 0-1.42927-.61538-1.42927-1.41537 0-.73846.62142-1.41538 1.42927-1.41538h32.99759c.7457 0 1.42927.61538 1.42927 1.41538 0 .79999-.62142 1.41537-1.42927 1.41537zM478.77835 441.59661H295.84018c-.75258 0-1.44244-.61537-1.44244-1.41537 0-.73845.62715-1.41537 1.44244-1.41537h183.00089c.75257 0 1.44243.61538 1.44243 1.41537-.06272.8-.68986 1.41537-1.50515 1.41537zM269.3789 441.59661h-32.99758c-.7457 0-1.42927-.61537-1.42927-1.41537 0-.73845.62142-1.41537 1.42927-1.41537h32.99759c.7457 0 1.42927.61538 1.42927 1.41537 0 .8-.62142 1.41537-1.42927 1.41537z"
                    fill="#F2F2F2" fill-rule="nonzero" />
                <circle fill="#A6BF26" fill-rule="nonzero" cx="135.87588" cy="111.34274" r="5.6615" />
                <circle fill="#A6BF26" fill-rule="nonzero" cx="150.02962" cy="111.34274" r="5.6615" />
                <circle fill="#A6BF26" fill-rule="nonzero" cx="165.12694" cy="111.34274" r="5.6615" />
                <path fill="#000" fill-rule="nonzero" opacity=".1" d="M122.66573 119.83498h468.96051v1.88717H122.66573z" />
                <path
                    d="M76.683 468.7971c-1.62415.8673-3.31077 1.6107-5.12232 2.16824-3.18583.8673-6.55906.55754-9.74488 1.30094-1.31182.30975-2.74856.92924-3.18583 2.16823-.31234.92925 0 1.92044.3748 2.84968 3.56063 10.28362 5.68452 21.24868 11.30657 30.5411 2.37375 3.90282 5.30971 7.43395 8.7454 10.53142 1.31182 1.17704 2.74857 2.29213 4.43518 2.47798 2.4987.2478 4.68504-1.54874 4.99738-3.96477.06247-.80534-.06247-1.61068-.3748-2.29213-.49974-1.11509-1.43675-1.98238-2.06142-3.03553-.68714-1.36288-1.06194-2.84967-1.12441-4.33646-.5622-4.39841-1.12441-8.98268.43727-13.19524 1.06194-2.78773 2.93596-5.20376 4.49764-7.68174 1.56168-2.47798 2.8735-5.45156 2.56115-8.36319-.24986-2.04433-1.24934-3.84086-2.24882-5.6374-1.06194-1.73459-3.12336-6.44275-5.24724-7.06225-2.18636-.61949-6.3092 2.53994-8.24568 3.53113zM134.43388 504.01806c.06207 1.00418-.12415 2.00835-.43452 2.94976-.68282 1.7573-2.29674 2.94976-3.1037 4.6443-1.17941 2.32215-.62074 5.14638.12414 7.59406.4966 1.56902 1.11734 3.2008 2.4209 4.1422 1.11733.69038 2.3588 1.1297 3.72444 1.19246 11.17333 1.56902 22.59496.69037 33.89244 1.00418 2.04844.06276 4.22103.12552 6.02118-.87866 1.80015-1.00417 2.91748-3.57736 1.676-5.2719-1.11733-1.50626-3.28993-1.50626-5.09007-1.56902-4.84178-.25105-9.37319-2.13387-12.97348-5.39743-.68282-.6276-1.30356-1.31798-1.80015-2.13387-.37244-.69037-.68282-1.4435-.93111-2.19663-1.61393-4.33049-3.47615-8.53546-5.64874-12.61491-.62074-1.1297-1.30356-2.32215-2.42089-2.94976-.80696-.37657-1.73807-.56485-2.60711-.56485-2.79333-.18828-10.11807-1.1297-12.29066 1.06694-2.11052 2.0711-.55867 8.40994-.55867 10.98313z"
                    fill="#2F2E41" fill-rule="nonzero" />
                <ellipse fill="#FBBEBE" fill-rule="nonzero" transform="rotate(-85.935 151.73223 235.2933)" cx="151.73223"
                    cy="235.29331" rx="18.11484" ry="18.11136" />
                <path
                    d="M135.6594 250.0237c-1.04006 2.88492-2.81428 5.58168-5.44501 7.14957l24.53314 5.14267c-.9177-3.6375-.97888-7.46314-.36708-11.22607.24472-.87801.3059-1.81875.12236-2.75948-.48944-1.81875-2.4472-2.69676-4.2826-3.13577-4.46613-1.06616-8.44282-1.6306-12.60305-3.6375-1.2236 2.32048-1.04006 5.89525-1.95776 8.46659z"
                    fill="#FBBEBE" fill-rule="nonzero" />
                <path
                    d="M129.40072 251.79172c5.45044-2.4792 11.77797-2.29326 17.10311.43386 3.19509 1.67346 5.88898 4.21464 8.52023 6.69384 2.4433 2.29326 5.0119 4.9584 5.1372 8.24334.06265 1.61147-.43855 3.16098-.68914 4.77246-.93973 6.75581 2.50595 13.3257 8.64553 16.4247 2.00476 3.28493 2.38065 7.25165 2.4433 11.0944.1253 14.50333-4.51071 29.25456-1.19033 43.386.75179 3.34692 2.00476 6.56988 2.63125 9.9168.87708 4.3386.81443 8.80115 1.25297 13.20173.5012 4.77246 1.56622 9.42096 3.19509 13.9455-1.06503 1.73544-3.38303 2.35524-5.3878 2.23128-2.00475-.12396-3.94686-.99168-5.76368-1.92138-8.83347-4.46256-16.9778-10.41264-26.12452-14.19342-6.07693-2.54118-12.52975-4.09067-18.41873-7.00373-5.88899-2.91306-11.33943-7.49958-13.15624-13.75956-.75178-2.72712-.81443-5.5782-.87708-8.3673-.18795-11.83818-.3759-23.80031 2.25535-35.39057 2.318-10.2267 6.70342-19.95756 7.7058-30.3702.31324-3.4089.31324-7.00373 2.25535-9.85481 2.6939-4.0287 8.52023-5.02038 10.46234-9.48294zM141.70232 235.46706c1.07823-1.38842 3.17125-1.57775 4.88372-1.19909 1.71248.37866 3.2981 1.32531 5.074 1.64087.82452.25244 1.64905.12622 2.34672-.31556.63425-.56799.95138-1.38842 1.0148-2.27196.63425-3.59728.7611-7.32078.44398-10.98117-.06343-.50488-.06343-1.00976.12685-1.51464.44397-1.00977 1.7759-1.2622 2.85412-1.64087 3.67865-1.19909 6.02537-4.79637 5.70825-8.58298 0-.88354-.38056-1.76708-1.07823-2.33507-.7611-.6311-1.7759-.6311-2.72727-.6311a581.7284 581.7284 0 0 0-14.84144 0c-1.83933 0-3.74207.0631-5.3277.94665-1.14165.6942-2.0296 1.76708-3.10782 2.58751-2.72727 2.20886-6.46935 2.65063-9.76744 3.78661-1.64905.44177-3.10783 1.32532-4.3129 2.5244-1.14165 1.26221-1.64905 3.15552-.95138 4.67016.38056.6311.7611 1.2622 1.20508 1.8302 1.96617 3.1555.63425 7.19455.95137 10.85494.38055 4.60704 7.23045 12.05404 11.86047 13.12691 7.48414 1.8302 3.17125-9.46652 5.64482-12.4958zM130.0562 435.7173c.44148 3.32438 1.07217 6.7115.88297 10.0359-.25228 4.70432-1.95516 9.22047-2.2705 13.9248-.25229 3.51256.31534 7.02513-.18922 10.5377-.31534 2.25807-1.07218 4.3907-1.51367 6.58605-1.4506 7.27603.12614 14.80295 4.41487 20.88722.31535.5018.75684.94086 1.2614 1.25448.50455.18818 1.07217.2509 1.57673.18818 5.29784-.12545 10.59568-.56452 15.89352-1.44266.37842 0 .75683-.18818 1.00911-.43908.12614-.18817.18921-.37634.25228-.62724.94604-4.95522-1.26139-9.97317-1.82902-14.99112-.6307-5.3943.69377-10.7886 1.95516-16.05744.56762-2.5717 1.32446-5.1434 2.20743-7.65237.6307-1.69356 1.38753-3.3244 1.89209-5.08068.75683-2.69714 1.26139-5.45702 1.38753-8.27961.37841-4.45343.56762-8.84414.56762-13.29757.12614-4.20253-.25227-8.40506-1.07218-12.54487-1.19832-5.20612-3.59496-10.09862-5.9916-14.86568-1.2614.31363-2.52278.87815-3.5319 1.69356-3.0904 2.00718-6.30695 3.76346-9.7127 5.33157-2.2705 1.06632-6.6223 1.75629-8.0729 3.95164-1.38753 2.13263-.50456 6.52333-.37842 8.84413.31535 4.01436.69377 8.02872 1.2614 12.04308z"
                    fill="#2F2E41" fill-rule="nonzero" />
                <path
                    d="M130.0562 435.7173c.44148 3.32438 1.07217 6.7115.88297 10.0359-.25228 4.70432-1.95516 9.22047-2.2705 13.9248-.25229 3.51256.31534 7.02513-.18922 10.5377-.31534 2.25807-1.07218 4.3907-1.51367 6.58605-1.4506 7.27603.12614 14.80295 4.41487 20.88722.31535.5018.75684.94086 1.2614 1.25448.50455.18818 1.07217.2509 1.57673.18818 5.29784-.12545 10.59568-.56452 15.89352-1.44266.37842 0 .75683-.18818 1.00911-.43908.12614-.18817.18921-.37634.25228-.62724.94604-4.95522-1.26139-9.97317-1.82902-14.99112-.6307-5.3943.69377-10.7886 1.95516-16.05744.56762-2.5717 1.32446-5.1434 2.20743-7.65237.6307-1.69356 1.38753-3.3244 1.89209-5.08068.75683-2.69714 1.26139-5.45702 1.38753-8.27961.37841-4.45343.56762-8.84414.56762-13.29757.12614-4.20253-.25227-8.40506-1.07218-12.54487-1.19832-5.20612-3.59496-10.09862-5.9916-14.86568-1.2614.31363-2.52278.87815-3.5319 1.69356-3.0904 2.00718-6.30695 3.76346-9.7127 5.33157-2.2705 1.06632-6.6223 1.75629-8.0729 3.95164-1.38753 2.13263-.50456 6.52333-.37842 8.84413.31535 4.01436.69377 8.02872 1.2614 12.04308z"
                    fill="#000" fill-rule="nonzero" opacity=".1" />
                <path
                    d="M107.53687 364.22285c-2.35901 6.52785 1.11743 13.55784 4.15931 19.77185 7.5116 15.31533 12.72626 31.63495 17.94092 47.8918.37248 1.1926.80703 2.57348.37248 3.76607-.37248.87875-.99327 1.5692-1.73822 2.07134-3.6006 2.76178-8.1324 3.7033-12.41586 5.14695-4.09724 1.3809-8.07031 3.26393-11.73299 5.58634-3.10396 1.9458-5.95961 4.14267-8.87734 6.4023l-9.18773 7.09277c-.6208.3766-1.11743.94151-1.55198 1.50642-.86911 1.3809-.49664 3.26393-.06208 4.83312 1.1795 4.26821 2.6694 8.41088 4.53178 12.42802.3104.87875.86911 1.63196 1.61407 2.1341 1.42782.75322 3.16604-.25107 4.28347-1.44365 1.11742-1.1926 2.04861-2.76179 3.6006-3.26393 1.55198-.50214 3.22812.12554 4.84218-.12553 2.60733-.37661 4.34555-2.82455 6.20793-4.64482 7.69783-7.5949 20.48617-7.09276 28.92895-13.8089 1.24158-1.12983 2.48317-2.13411 3.84891-3.07563 1.42783-.87875 3.04189-1.31812 4.5318-2.07133 4.53178-2.32241 7.32535-7.03 8.87733-11.92588 1.55198-4.89589 1.92446-9.98008 3.04189-15.0015.5587-2.57348 1.30366-5.14696 1.55198-7.72043.18624-2.44795.12416-4.89589-.18624-7.34383l-3.04189-38.10004c-.24831-3.07562-.49663-6.214-.99326-9.28963-9.06358.31384-18.06508.69045-27.12865.81598-7.26328.1883-14.58864.69045-21.41736-1.63196z"
                    fill="#2F2E41" fill-rule="nonzero" />
                <path
                    d="M102.7809 373.0454c1.24698 1.93823 4.23972 1.87766 6.29724.84798 2.0575-1.02968 3.67857-2.84677 5.73609-3.87645 2.8057-1.3931 6.04783-1.33253 9.22762-1.27196 4.9879.12114 9.97581.30285 14.77667 1.57481 4.92556 1.3931 9.72642 3.99759 14.83902 3.45246.87288-.12114 1.87046-.36341 2.36926-1.09025.31174-.54512.43644-1.15082.37409-1.69594l.18704-4.361c.1247-.72684 0-1.51425-.37409-2.18051-.43644-.54513-.99758-1.02968-1.68342-1.27196-7.2948-3.3919-15.5872-4.05816-23.6302-4.30044a419.51389 419.51389 0 0 0-12.34506-.1817c-3.49154 0-7.6689-.48456-11.03575.42398-4.55146 1.27196-7.04541 10.35739-4.7385 13.93099z"
                    fill="#2F2E41" fill-rule="nonzero" />
                <path
                    d="M149.60731 255.53415c-9.57148-.06111-18.20458-6.23357-27.77606-6.4169-1.12605-.06112-2.31467.12222-3.37816.55001-1.31374.67225-2.18956 1.89452-3.1905 2.99456-2.81514 2.99456-6.94401 4.5835-9.82171 7.51695-2.75259 2.7501-4.254 6.78359-3.1905 10.5115 1.0635 3.72792 5.12982 6.47803 8.9459 5.62244 1.5014-4.82796 4.6919-9.04479 8.9459-11.91712 2.2521-1.4056 4.56678-2.56676 7.00656-3.60569 4.31655-1.89451 9.07101-3.85014 13.57524-2.44453 1.62653.61113 3.1905 1.46672 4.62934 2.44453l7.50705 4.88908c-.87582-3.30013-1.62653-7.02805-3.25305-10.14483z"
                    fill="#A6BF26" fill-rule="nonzero" />
                <path
                    d="M109.61217 274.1836c-1.24878 1.55363.56195 3.853.24976 5.84166-.18732 1.30505-1.31122 2.36152-1.7483 3.60443-.4995 1.30505-.24975 2.7344-.37462 4.1016-.18732.99432-.43708 1.98865-.81171 2.92083-.8117 2.85868-1.37366 5.77952-1.68585 8.70035l-1.68585 12.42907c-.3122 1.86436-.43707 3.72872-.49951 5.65523.06244 1.42934 0 2.85869-.3122 4.22588-.37463 1.3672-1.18634 2.54796-1.74829 3.85302-.56195 1.30505-.8117 2.85868-.06244 4.03945-2.49755 2.0508-3.24682 6.15239-1.49853 8.82464.3122.43502.56195.87003.74927 1.42934.12488.6836 0 1.42935-.3122 2.0508l-1.68585 4.47447c-.43707 1.11861-.56195 2.92083.6244 3.1694-.99903 1.05648-1.7483 2.23724-2.31025 3.60444-.49951 1.3672-.24975 2.85869.62439 4.03945.43707.37287.74927.80789 1.06146 1.30505.18732.6836.12488 1.3672-.12488 1.98865-.4995 1.98866-.18731 4.1016.93659 5.77952 1.1239 1.74007 3.18438 2.6101 5.24487 2.23723 3.3717-.74574 6.4312-1.9265 9.8029-1.30505 7.30536 1.3672 14.67315 2.67225 21.79119 4.97163 8.11706 2.54796 15.98436 6.33883 24.41361 7.14672.56195.12429 1.1239 0 1.62342-.24858.43707-.43502.68682-.93218.74926-1.55364.87415-4.1016 1.7483-8.14104 2.62244-12.24263 1.06146-4.53661 1.87317-9.07323 2.43511-13.67198.3122-2.98298.37464-5.96596.43708-8.94894l.68683-23.73953c.3122-3.48014-.12488-7.02242-1.37366-10.31613l-3.87121-12.30478c-2.18537-7.02243-7.30536-13.29911-9.11608-20.44583-1.1239-4.5366-1.99805-9.38395-5.05756-12.92623-4.37072-5.03378-11.92583-5.84167-18.6068-4.97163-2.99706.37287-5.99413 1.05647-8.61656 2.6101-2.99707 1.80222-5.18243 4.59876-7.3678 7.33316-1.56097 2.23723-3.3717 4.10159-5.18243 6.33882z"
                    fill="#A6BF26" fill-rule="nonzero" />
                <path
                    d="M125.16188 344.80563c.5676 2.39154 1.70278 4.59428 2.3965 6.92288 1.19826 3.90198 1.07213 8.11864 2.27038 12.02063.50453 1.63631 1.19825 3.2097 1.57665 4.90895.81985 3.90198-.3784 7.92983-1.89198 11.64301-1.51358 3.71318-3.3425 7.36342-3.84702 11.32834-.31533 2.76915.12613 5.97885 2.33344 7.74104 2.27037 1.88805 5.48673 1.76218 8.38776 1.51044 1.07212 0 2.08118-.25174 3.02716-.62935 2.20731-1.0699 3.1533-3.71318 3.7209-6.10472 1.76584-8.0557 1.2613-16.4261.75678-24.6706l-1.32438-21.52385c-.25227-4.15373-.50453-8.37039-1.82891-12.3353-.44146-1.44752-1.26132-4.40547-2.5857-5.28657-1.32439-.94403-5.04527-.94403-6.68499-1.00696-7.63097-.44055-7.50484 10.1955-6.30658 15.48206z"
                    fill="#FBBEBE" fill-rule="nonzero" />
                <path
                    d="M133.32658 264.6572c-1.58377-.82059-3.54765-.44186-5.06807.44185-1.45707 1.00995-2.72409 2.20927-3.80105 3.66107-3.3576 4.10293-6.9686 8.83707-6.4618 14.13932.19006 1.95678.95027 3.85043 1.45708 5.80722 2.28063 8.45834-.2534 17.35853.06335 26.13248.19005 5.04975 1.26702 10.03639 2.34398 14.9599.2534 1.00995.57016 2.14614 1.58378 2.52488.7602.25248 1.52042-.06313 2.28063-.37874 5.51152-2.0199 11.65656-1.26243 16.47123 2.08303 1.83717-.94683 1.14031-4.0398.69686-5.99659-1.20367-5.99658.44345-12.1194 2.40733-17.8635 1.96388-5.7441 4.37121-11.4882 4.68797-17.61103.3801-6.88029-1.90053-13.63434-4.18116-20.1359-.5068-1.4518-1.01362-2.9036-2.15393-3.91356-.95026-.75746-2.09058-1.26243-3.29425-1.51492-2.34398-.75746-4.75131-1.1362-7.03195-2.33551z"
                    fill="#2F2E41" fill-rule="nonzero" />
                <g transform="translate(235 245)">
                    <ellipse fill="#2F2E41" fill-rule="nonzero" cx="59.5" cy="88" rx="59.5" ry="10" />
                    <path
                        d="M23 38v57.8919C33.04685 97.18918 45.7123 98 59.5 98c13.7877 0 26.45315-.81081 36.5-2.1081V38H23z"
                        fill="#878696" fill-rule="nonzero" />
                    <g transform="translate(39 46)" stroke="#3F3D56" stroke-width="6.7996">
                        <ellipse fill-opacity=".6" fill="#3F3D56" fill-rule="nonzero" cx="7.97468" cy="8.05333" rx="7.6557"
                            ry="7.68" />
                        <ellipse fill-opacity=".6" fill="#3F3D56" fill-rule="nonzero" cx="33.91899" cy="8.05333" rx="7.6557"
                            ry="7.68" />
                        <path d="M15.25823 8.05333h11.37721" />
                    </g>
                    <path
                        d="M52 80l.82117 1.05495c3.66788 3.92673 9.63503 3.92673 13.35766 0 .32847-.35165.6022-.7033.82117-1.05495-1.69708 1.64103-4.4343 2.75458-7.5 2.75458-3.0657 0-5.80292-1.05495-7.5-2.75458z"
                        fill="#3F3D56" fill-rule="nonzero" />
                    <path
                        d="M66.22392 68.57163l-3.36196-3.22392c-1.87388-1.79695-4.90516-1.79695-6.72392 0l-3.36196 3.22392c-2.3148 2.21975-3.19662 5.33797-2.59037 8.19193.27557 1.32128.88183 2.5897 1.76366 3.75243C53.6579 81.99583 56.4136 83 59.5 83c3.1415 0 5.89721-.95132 7.55063-2.484.88183-1.10988 1.48809-2.43116 1.76366-3.75244.60625-2.90681-.27557-5.97218-2.59037-8.19193z"
                        fill="#FFF" fill-rule="nonzero" opacity=".5" />
                    <path
                        d="M56.17483 79.82517c-1.56644-1.56643-1.56644-4.08391 0-5.65034 1.56643-1.56644 4.08391-1.56644 5.65034 0 1.56644 1.56643 1.56644 4.08391 0 5.65034-1.56643 1.56644-4.08391 1.56644-5.65034 0z"
                        fill="#3F3D56" fill-rule="nonzero" />
                    <g fill-rule="nonzero">
                        <path
                            d="M100.45093 36.48904h-4.48695c-.16025-10.25753-5.71553-19.33972-14.26212-25.10959-1.92298-1.33561-4.0062-2.45753-6.19627-3.41918v18.21781c0 .8548-.69441 1.4959-1.49565 1.4959s-1.49565-.69453-1.49565-1.4959V6.78493c-1.92299-.6411-3.9528-1.17534-5.98261-1.49589v8.06712c0 2.45754-2.02982 4.48768-4.48696 4.48768h-4.9677c-2.45714 0-4.48696-2.03014-4.48696-4.48768V5.28904c-2.08323.37397-4.05963.8548-5.9826 1.4959v19.39314c0 .8548-.69442 1.4959-1.49566 1.4959-.85466 0-1.49565-.69453-1.49565-1.4959V7.96028c-2.19006.96164-4.2733 2.08356-6.19627 3.41917-8.54659 5.82329-14.10187 14.90548-14.26212 25.1096h-5.6621c-.69442 0-1.22858.53424-1.22858 1.22876s.53416 1.22877 1.22857 1.22877h82.95528c.69441 0 1.22857-.53425 1.22857-1.22877 0-.69452-.58757-1.22877-1.22857-1.22877z"
                            fill="#A6BF26" />
                        <path
                            d="M61.9913 0c1.12174 0 2.08323.90822 2.08323 2.08356v11.2726c0 1.12192-.90807 2.08357-2.08323 2.08357h-4.9677c-1.12174 0-2.08323-.90822-2.08323-2.08357V2.08356C54.94037.96164 55.84845 0 57.0236 0h4.9677"
                            fill="#FFB500" />
                    </g>
                </g>
            </g>
        </svg>