<?xml version="1.0" encoding="UTF-8" standalone="no"?>
<svg
   xmlns:dc="http://purl.org/dc/elements/1.1/"
   xmlns:cc="http://creativecommons.org/ns#"
   xmlns:rdf="http://www.w3.org/1999/02/22-rdf-syntax-ns#"
   xmlns:svg="http://www.w3.org/2000/svg"
   xmlns="http://www.w3.org/2000/svg"
   xmlns:sodipodi="http://sodipodi.sourceforge.net/DTD/sodipodi-0.dtd"
   xmlns:inkscape="http://www.inkscape.org/namespaces/inkscape"
   id="f4673761-b724-4a95-a095-d2125482816e"
   data-name="Layer 1"
   width="700"
   height="488.03256"
   viewBox="0 0 699.99998 488.03257"
   version="1.1"
   sodipodi:docname="hologram_HA.svg"
   inkscape:version="0.92.5 (2060ec1f9f, 2020-04-08)">
  <metadata
     id="metadata157">
    <rdf:RDF>
      <cc:Work
         rdf:about="">
        <dc:format>image/svg+xml</dc:format>
        <dc:type
           rdf:resource="http://purl.org/dc/dcmitype/StillImage" />
        <dc:title>hologram</dc:title>
      </cc:Work>
    </rdf:RDF>
  </metadata>
  <defs
     id="defs155" />
  <sodipodi:namedview
     pagecolor="#ffffff"
     bordercolor="#666666"
     borderopacity="1"
     objecttolerance="10"
     gridtolerance="10"
     guidetolerance="10"
     inkscape:pageopacity="0"
     inkscape:pageshadow="2"
     inkscape:window-width="1920"
     inkscape:window-height="1016"
     id="namedview153"
     showgrid="false"
     inkscape:zoom="0.9616307"
     inkscape:cx="563.3369"
     inkscape:cy="292.7473"
     inkscape:window-x="0"
     inkscape:window-y="27"
     inkscape:window-maximized="1"
     inkscape:current-layer="f4673761-b724-4a95-a095-d2125482816e" />
  <title
     id="title2">hologram</title>
  <path
     d="m 353.73972,138.80252 a 6.1899842,6.1899842 0 1 1 6.18998,-6.18999 6.1970779,6.1970779 0 0 1 -6.18998,6.18999 z"
     id="path134"
     inkscape:connector-curvature="0"
     style="fill:#a6bf26;stroke-width:0.61899841" />
  <path
     d="m 603.88936,262.09814 c 0,110.39218 -79.17604,202.29486 -183.84254,222.01617 -0.40849,0.0805 -0.82332,0.15474 -1.238,0.22902 q -9.75851,1.792 -19.80794,2.71741 c -0.41468,0.0433 -0.82332,0.0805 -1.23801,0.11141 q -9.7864,0.85422 -19.80794,0.86041 c -0.41468,0 -0.82331,0 -1.238,-0.006 q -10.0092,-0.0464 -19.80795,-0.96564 c -0.41468,-0.0309 -0.82332,-0.0743 -1.238,-0.11761 q -10.03711,-0.97492 -19.80795,-2.82881 c -0.41468,-0.0743 -0.8295,-0.15477 -1.23799,-0.23523 -104.0537,-20.21046 -182.60453,-111.82223 -182.60453,-221.7811 0,-124.7777 101.15667,-225.934422 225.93442,-225.934422 124.77775,0 225.93443,101.156722 225.93443,225.934422 z"
     id="path24"
     inkscape:connector-curvature="0"
     style="fill:#3f3d56;stroke-width:0.61899841" />
  <rect
     x="419.4278"
     y="165.2249"
     width="1.2379968"
     height="183.53304"
     id="rect26"
     style="fill:#a6bf26;stroke-width:0.61899841" />
  <rect
     x="419.4278"
     y="86.551643"
     width="1.2379968"
     height="54.144836"
     id="rect28"
     style="fill:#a6bf26;stroke-width:0.61899841" />
  <rect
     x="334.625"
     y="80.901772"
     width="1.2379968"
     height="267.85614"
     id="rect30"
     style="fill:#a6bf26;stroke-width:0.61899841" />
  <rect
     x="355.67099"
     y="57.209667"
     width="1.2379968"
     height="60.325447"
     id="rect32"
     style="fill:#a6bf26;stroke-width:0.61899841" />
  <rect
     x="355.67099"
     y="146.34544"
     width="1.2379968"
     height="183.61826"
     id="rect34"
     style="fill:#a6bf26;stroke-width:0.61899841" />
  <path
     d="m 356.90898,358.50713 v 128.55361 c -0.41468,-0.0309 -0.82332,-0.0743 -1.238,-0.11762 V 358.50713 Z"
     id="path36"
     inkscape:connector-curvature="0"
     style="fill:#a6bf26;stroke-width:0.61899841" />
  <rect
     x="376.71689"
     y="37.401699"
     width="1.2379968"
     height="170.43916"
     id="rect38"
     style="fill:#a6bf26;stroke-width:0.61899841" />
  <path
     d="m 377.95493,231.4701 v 256.56246 c -0.41468,0 -0.82331,0 -1.238,-0.006 V 231.4701 Z"
     id="path40"
     inkscape:connector-curvature="0"
     style="fill:#a6bf26;stroke-width:0.61899841" />
  <rect
     x="397.76288"
     y="57.209667"
     width="1.2379968"
     height="236.45738"
     id="rect42"
     style="fill:#a6bf26;stroke-width:0.61899841" />
  <path
     d="m 399.00088,479.69465 v 7.36609 c -0.41468,0.0433 -0.82332,0.0805 -1.23801,0.11141 v -7.4775 z"
     id="path46"
     inkscape:connector-curvature="0"
     style="fill:#a6bf26;stroke-width:0.61899841" />
  <path
     d="m 335.86303,380.94583 v 103.16848 c -0.41468,-0.0743 -0.8295,-0.15477 -1.23799,-0.23523 V 380.94583 Z"
     id="path50"
     inkscape:connector-curvature="0"
     style="fill:#a6bf26;stroke-width:0.61899841" />
  <rect
     x="313.57907"
     y="104.87255"
     width="1.2379968"
     height="38.631489"
     id="rect52"
     style="fill:#a6bf26;stroke-width:0.61899841" />
  <rect
     x="313.57907"
     y="172.51384"
     width="1.2379968"
     height="176.24408"
     id="rect54"
     style="fill:#a6bf26;stroke-width:0.61899841" />
  <rect
     x="292.53317"
     y="119.10954"
     width="1.2379968"
     height="229.64839"
     id="rect56"
     style="fill:#a6bf26;stroke-width:0.61899841" />
  <rect
     x="271.48718"
     y="137.67946"
     width="1.2379968"
     height="74.840179"
     id="rect58"
     style="fill:#a6bf26;stroke-width:0.61899841" />
  <rect
     x="271.48718"
     y="237.31857"
     width="1.2379968"
     height="111.43938"
     id="rect60"
     style="fill:#a6bf26;stroke-width:0.61899841" />
  <rect
     x="250.44127"
     y="157.48741"
     width="1.2379968"
     height="124.75024"
     id="rect62"
     style="fill:#a6bf26;stroke-width:0.61899841" />
  <rect
     x="250.44127"
     y="305.42798"
     width="1.2379968"
     height="43.329887"
     id="rect64"
     style="fill:#a6bf26;stroke-width:0.61899841" />
  <rect
     x="229.39531"
     y="176.05737"
     width="1.2379968"
     height="41.843449"
     id="rect66"
     style="fill:#a6bf26;stroke-width:0.61899841" />
  <rect
     x="229.39531"
     y="245.27304"
     width="1.2379968"
     height="103.48486"
     id="rect68"
     style="fill:#a6bf26;stroke-width:0.61899841" />
  <rect
     x="208.34937"
     y="197.96625"
     width="1.2379968"
     height="150.79169"
     id="rect70"
     style="fill:#a6bf26;stroke-width:0.59573841" />
  <rect
     x="187.30344"
     y="230.52921"
     width="1.2379968"
     height="53.813869"
     id="rect72"
     style="fill:#a6bf26;stroke-width:0.61899841" />
  <rect
     x="187.30344"
     y="308.90808"
     width="1.2379968"
     height="39.849838"
     id="rect74"
     style="fill:#a6bf26;stroke-width:0.61899841" />
  <rect
     x="460.90079"
     y="119.10954"
     width="1.2379968"
     height="36.793835"
     id="rect78"
     style="fill:#a6bf26;stroke-width:0.61899841" />
  <rect
     x="460.90079"
     y="180.46831"
     width="1.2379968"
     height="168.2896"
     id="rect80"
     style="fill:#a6bf26;stroke-width:0.61899841" />
  <rect
     x="481.94672"
     y="144.73631"
     width="1.2379968"
     height="31.321056"
     id="rect82"
     style="fill:#a6bf26;stroke-width:0.7442674" />
  <rect
     x="481.94672"
     y="200.35425"
     width="1.2379968"
     height="107.61808"
     id="rect84"
     style="fill:#a6bf26;stroke-width:0.61899841" />
  <rect
     x="481.94672"
     y="329.96368"
     width="1.2379968"
     height="18.794218"
     id="rect86"
     style="fill:#a6bf26;stroke-width:0.61899841" />
  <rect
     x="502.99261"
     y="157.48741"
     width="1.2379968"
     height="191.27051"
     id="rect88"
     style="fill:#a6bf26;stroke-width:0.61899841" />
  <rect
     x="524.03857"
     y="176.05737"
     width="1.2379968"
     height="61.261196"
     id="rect90"
     style="fill:#a6bf26;stroke-width:0.61899841" />
  <rect
     x="524.03857"
     y="260.47992"
     width="1.2379968"
     height="88.278"
     id="rect92"
     style="fill:#a6bf26;stroke-width:0.61899841" />
  <rect
     x="545.08459"
     y="197.96625"
     width="1.2379968"
     height="150.79169"
     id="rect94"
     style="fill:#a6bf26;stroke-width:0.59573841" />
  <path
     d="m 335.24404,381.56483 a 6.1899842,6.1899842 0 1 1 6.18998,-6.18999 6.1972699,6.1972699 0 0 1 -6.18998,6.18999 z m 0,-11.14197 a 4.9519873,4.9519873 0 1 0 4.95199,4.95198 4.9576636,4.9576636 0 0 0 -4.95199,-4.95198 z"
     id="path96"
     inkscape:connector-curvature="0"
     style="fill:#a6bf26;stroke-width:0.61899841" />
  <path
     d="m 356.28998,349.37691 a 6.1899842,6.1899842 0 1 1 6.18999,-6.18999 6.1972699,6.1972699 0 0 1 -6.18999,6.18999 z m 0,-11.14197 a 4.9519873,4.9519873 0 1 0 4.95199,4.95198 4.9576636,4.9576636 0 0 0 -4.95199,-4.95198 z"
     id="path98"
     inkscape:connector-curvature="0"
     style="fill:#a6bf26;stroke-width:0.61899841" />
  <path
     d="m 398.38188,311.61801 a 6.1899842,6.1899842 0 1 1 6.18998,-6.18999 6.1972699,6.1972699 0 0 1 -6.18998,6.18999 z m 0,-11.14197 a 4.9519873,4.9519873 0 1 0 4.95198,4.95198 4.9576636,4.9576636 0 0 0 -4.95198,-4.95198 z"
     id="path104"
     inkscape:connector-curvature="0"
     style="fill:#a6bf26;stroke-width:0.61899841" />
  <path
     inkscape:connector-curvature="0"
     style="fill:#a6bf26;stroke-width:0.61899841"
     d="m 377.33592,225.57723 a 6.1899842,6.1899842 0 1 1 6.18999,-6.18999 6.1970779,6.1970779 0 0 1 -6.18999,6.18999 z m 0,-11.14197 a 4.9519873,4.9519873 0 1 0 4.952,4.95198 4.9576636,4.9576636 0 0 0 -4.952,-4.95198 z"
     id="path118-0" />
  <path
     d="m 419.42783,158.1064 a 6.1899842,6.1899842 0 1 1 6.18998,-6.18998 6.1970779,6.1970779 0 0 1 -6.18998,6.18998 z m 0,-11.14197 a 4.9519873,4.9519873 0 1 0 4.95198,4.95199 4.9576636,4.9576636 0 0 0 -4.95198,-4.95199 z"
     id="path108"
     inkscape:connector-curvature="0"
     style="fill:#a6bf26;stroke-width:0.61899841" />
  <path
     d="m 272.1062,231.14822 a 6.1899842,6.1899842 0 1 1 6.18998,-6.18998 6.1970779,6.1970779 0 0 1 -6.18998,6.18998 z m 0,-11.14198 a 4.9519873,4.9519873 0 1 0 4.95198,4.952 4.9576636,4.9576636 0 0 0 -4.95198,-4.952 z"
     id="path110"
     inkscape:connector-curvature="0"
     style="fill:#a6bf26;stroke-width:0.61899841" />
  <path
     d="m 230.01431,236.7192 a 6.1899842,6.1899842 0 1 1 6.18998,-6.18998 6.1970779,6.1970779 0 0 1 -6.18998,6.18998 z m 0,-11.14197 a 4.9519873,4.9519873 0 1 0 4.95198,4.95199 4.9576636,4.9576636 0 0 0 -4.95198,-4.95199 z"
     id="path112"
     inkscape:connector-curvature="0"
     style="fill:#a6bf26;stroke-width:0.61899841" />
  <path
     inkscape:connector-curvature="0"
     style="fill:#a6bf26;stroke-width:0.61899841"
     d="m 251.06025,299.85703 a 6.1899842,6.1899842 0 1 1 6.18999,-6.18998 6.1972699,6.1972699 0 0 1 -6.18999,6.18998 z m 0,-11.14196 a 4.9519873,4.9519873 0 1 0 4.95199,4.95198 4.9576636,4.9576636 0 0 0 -4.95199,-4.95198 z"
     id="path122-8" />
  <path
     d="m 420.04682,86.92159 a 6.1899842,6.1899842 0 1 1 6.18998,-6.18998 6.1970779,6.1970779 0 0 1 -6.18998,6.18998 z m 0,-11.14197 a 4.9519873,4.9519873 0 1 0 4.95198,4.95199 4.9576636,4.9576636 0 0 0 -4.95198,-4.95199 z"
     id="path116"
     inkscape:connector-curvature="0"
     style="fill:#a6bf26;stroke-width:0.61899841" />
  <path
     d="m 314.19809,163.67739 a 6.1899842,6.1899842 0 1 1 6.18999,-6.18999 6.1970779,6.1970779 0 0 1 -6.18999,6.18999 z m 0,-11.14197 a 4.9519873,4.9519873 0 1 0 4.95199,4.95198 4.9576636,4.9576636 0 0 0 -4.95199,-4.95198 z"
     id="path118"
     inkscape:connector-curvature="0"
     style="fill:#a6bf26;stroke-width:0.61899841" />
  <path
     d="m 293.15214,119.7285 a 6.1899842,6.1899842 0 1 1 6.18998,-6.18998 6.1970779,6.1970779 0 0 1 -6.18998,6.18998 z m 0,-11.14198 a 4.9519873,4.9519873 0 1 0 4.95199,4.952 4.9576636,4.9576636 0 0 0 -4.95199,-4.952 z"
     id="path120"
     inkscape:connector-curvature="0"
     style="fill:#a6bf26;stroke-width:0.61899841" />
  <path
     d="m 187.92242,302.95204 a 6.1899842,6.1899842 0 1 1 6.18998,-6.19 6.1972699,6.1972699 0 0 1 -6.18998,6.19 z m 0,-11.14198 a 4.9519873,4.9519873 0 1 0 4.95197,4.95198 4.9576636,4.9576636 0 0 0 -4.95197,-4.95198 z"
     id="path122"
     inkscape:connector-curvature="0"
     style="fill:#a6bf26;stroke-width:0.61899841" />
  <rect
     x="564.2735"
     y="230.52921"
     width="1.2379968"
     height="53.813869"
     id="rect124"
     style="fill:#a6bf26;stroke-width:0.61899841" />
  <rect
     x="564.2735"
     y="308.90808"
     width="1.2379968"
     height="39.849838"
     id="rect126"
     style="fill:#a6bf26;stroke-width:0.61899841" />
  <path
     d="m 564.89245,302.95204 a 6.1899842,6.1899842 0 1 1 6.18998,-6.19 6.1972699,6.1972699 0 0 1 -6.18998,6.19 z m 0,-11.14198 a 4.9519873,4.9519873 0 1 0 4.95199,4.95198 4.9576636,4.9576636 0 0 0 -4.95199,-4.95198 z"
     id="path128"
     inkscape:connector-curvature="0"
     style="fill:#a6bf26;stroke-width:0.61899841" />
  <path
     d="m 524.65756,254.05116 a 6.1899842,6.1899842 0 1 1 6.18998,-6.18999 6.1970779,6.1970779 0 0 1 -6.18998,6.18999 z m 0,-11.14197 a 4.9519873,4.9519873 0 1 0 4.95198,4.95198 4.9576636,4.9576636 0 0 0 -4.95198,-4.95198 z"
     id="path130"
     inkscape:connector-curvature="0"
     style="fill:#a6bf26;stroke-width:0.61899841" />
  <path
     d="m 482.56566,325.23598 a 6.1899842,6.1899842 0 1 1 6.18999,-6.18999 6.1972699,6.1972699 0 0 1 -6.18999,6.18999 z m 0,-11.14197 a 4.9519873,4.9519873 0 1 0 4.95199,4.95198 4.9576636,4.9576636 0 0 0 -4.95199,-4.95198 z"
     id="path132"
     inkscape:connector-curvature="0"
     style="fill:#a6bf26;stroke-width:0.61899841" />
  <path
     d="m 482.56566,194.62731 a 6.1899842,6.1899842 0 1 1 6.18999,-6.18999 6.1970779,6.1970779 0 0 1 -6.18999,6.18999 z m 0,-11.14196 a 4.9519873,4.9519873 0 1 0 4.95199,4.95197 4.9576636,4.9576636 0 0 0 -4.95199,-4.95197 z"
     id="path136"
     inkscape:connector-curvature="0"
     style="fill:#a6bf26;stroke-width:0.61899841" />
  <path
     d="m 461.51972,173.58136 a 6.1899842,6.1899842 0 1 1 6.18997,-6.18999 6.1970779,6.1970779 0 0 1 -6.18997,6.18999 z"
     id="path140"
     inkscape:connector-curvature="0"
     style="fill:#a6bf26;stroke-width:0.61899841" />
  <path
     inkscape:connector-curvature="0"
     style="fill:#a6bf26;stroke-width:0.61899841"
     d="m 524.65756,176.67635 a 6.1899842,6.1899842 0 1 1 6.18998,-6.18998 6.1970779,6.1970779 0 0 1 -6.18998,6.18998 z m 0,-11.14197 a 4.9519873,4.9519873 0 1 0 4.95198,4.95199 4.9576636,4.9576636 0 0 0 -4.95198,-4.95199 z"
     id="path118-3" />
  <g
     id="g935"
     transform="matrix(0.61899842,0,0,0.61899842,-69.194566,-50.657034)">
    <circle
       transform="scale(-1,1)"
       id="circle16"
       r="53"
       cy="727.66669"
       cx="-971.1568"
       style="opacity:0.3;fill:#cccccc" />
    <circle
       transform="scale(-1,1)"
       id="circle18"
       r="30"
       cy="727.66669"
       cx="-971.1568"
       style="fill:#a6bf26" />
  </g>
  <path
     inkscape:connector-curvature="0"
     style="fill:#a6bf26;stroke-width:0.61899841"
     d="m 251.06025,299.85703 a 6.1899842,6.1899842 0 1 1 6.18999,-6.18998 6.1970779,6.1970779 0 0 1 -6.18999,6.18998 z"
     id="path106-1" />
  <path
     inkscape:connector-curvature="0"
     style="fill:#a6bf26;stroke-width:0.61899841"
     d="m 353.73972,138.80252 a 6.1899842,6.1899842 0 1 1 6.18998,-6.18999 6.1970779,6.1970779 0 0 1 -6.18998,6.18999 z m 0,-11.14198 a 4.9519873,4.9519873 0 1 0 4.952,4.95199 4.9576636,4.9576636 0 0 0 -4.952,-4.95199 z"
     id="path118-1" />
  <text
     xml:space="preserve"
     style="font-style:normal;font-variant:normal;font-weight:normal;font-stretch:normal;font-size:19.80794907px;line-height:1.25;font-family:'Glacial Indifference';-inkscape-font-specification:'Glacial Indifference, Normal';font-variant-ligatures:normal;font-variant-position:normal;font-variant-caps:normal;font-variant-numeric:normal;font-variant-alternates:normal;font-feature-settings:normal;text-indent:0;text-align:center;text-decoration:none;text-decoration-line:none;text-decoration-style:solid;text-decoration-color:#000000;letter-spacing:0px;word-spacing:0px;text-transform:none;writing-mode:lr-tb;direction:ltr;text-orientation:mixed;dominant-baseline:auto;baseline-shift:baseline;text-anchor:middle;white-space:normal;shape-padding:0;opacity:1;vector-effect:none;fill:#ffffff;fill-opacity:1;stroke:none;stroke-width:0.61899841;stroke-linecap:butt;stroke-linejoin:miter;stroke-miterlimit:4;stroke-dasharray:none;stroke-dashoffset:0;stroke-opacity:1"
     x="641.64587"
     y="392.33951"
     id="text912"><tspan
       sodipodi:role="line"
       x="641.64587"
       y="392.33951"
       id="tspan914"
       style="fill:#ffffff;fill-opacity:1;stroke-width:0.61899841">on your model</tspan><tspan
       sodipodi:role="line"
       x="641.64587"
       y="417.09946"
       id="tspan929"
       style="fill:#ffffff;fill-opacity:1;stroke-width:0.61899841">dynamics.</tspan></text>
  <rect
     x="440.16428"
     y="108.67046"
     width="1.2379968"
     height="240.08743"
     id="rect56-1"
     style="fill:#a6bf26;stroke-width:0.63291085" />
  <g
     id="g972"
     transform="matrix(0.61899842,0,0,0.61899842,-25.198891,-17.331952)">
    <circle
       style="opacity:0.3;fill:#cccccc"
       id="circle8"
       r="53"
       cy="169"
       cx="925.95984" />
    <circle
       style="fill:#a6bf26"
       id="circle10"
       r="30"
       cy="169"
       cx="925.95984" />
  </g>
  <text
     xml:space="preserve"
     style="font-style:normal;font-variant:normal;font-weight:normal;font-stretch:normal;font-size:19.80794907px;line-height:1.25;font-family:'Glacial Indifference';-inkscape-font-specification:'Glacial Indifference, Normal';font-variant-ligatures:normal;font-variant-position:normal;font-variant-caps:normal;font-variant-numeric:normal;font-variant-alternates:normal;font-feature-settings:normal;text-indent:0;text-align:center;text-decoration:none;text-decoration-line:none;text-decoration-style:solid;text-decoration-color:#000000;letter-spacing:0px;word-spacing:0px;text-transform:none;writing-mode:lr-tb;direction:ltr;text-orientation:mixed;dominant-baseline:auto;baseline-shift:baseline;text-anchor:middle;white-space:normal;shape-padding:0;opacity:1;vector-effect:none;fill:#ffffff;fill-opacity:1;stroke:none;stroke-width:0.61899841;stroke-linecap:butt;stroke-linejoin:miter;stroke-miterlimit:4;stroke-dasharray:none;stroke-dashoffset:0;stroke-opacity:1"
     x="548.46399"
     y="14.855962"
     id="text890"><tspan
       sodipodi:role="line"
       id="tspan888"
       x="548.46399"
       y="14.855962"
       style="fill:#ffffff;fill-opacity:1;stroke-width:0.61899841">Adaptive design</tspan><tspan
       sodipodi:role="line"
       x="548.46399"
       y="39.615894"
       id="tspan923"
       style="fill:#ffffff;fill-opacity:1;stroke-width:0.61899841">of experiments</tspan></text>
  <g
     id="g968"
     transform="matrix(0.61899842,0,0,0.61899842,80.756621,-54.965139)">
    <circle
       style="opacity:0.3;fill:#cccccc"
       id="circle12"
       r="53"
       cy="369"
       cx="96.959831" />
    <circle
       style="fill:#a6bf26"
       id="circle14"
       r="30"
       cy="369"
       cx="96.959831" />
  </g>
  <text
     xml:space="preserve"
     style="font-style:normal;font-variant:normal;font-weight:normal;font-stretch:normal;font-size:19.80794907px;line-height:1.25;font-family:'Glacial Indifference';-inkscape-font-specification:'Glacial Indifference, Normal';font-variant-ligatures:normal;font-variant-caps:normal;font-variant-numeric:normal;font-feature-settings:normal;text-align:center;letter-spacing:0px;word-spacing:0px;writing-mode:lr-tb;text-anchor:middle;fill:#ffffff;fill-opacity:1;stroke:none;stroke-width:0.61899841"
     x="44.666828"
     y="164.64064"
     id="text884"><tspan
       sodipodi:role="line"
       x="44.666828"
       y="164.64064"
       id="tspan886"
       style="fill:#ffffff;fill-opacity:1;stroke-width:0.61899841">to gain</tspan><tspan
       sodipodi:role="line"
       x="44.666828"
       y="189.40057"
       id="tspan931"
       style="fill:#ffffff;fill-opacity:1;stroke-width:0.61899841">knowledge</tspan></text>
  <polygon
     transform="matrix(0.37083042,0,0,0.98839334,77.517656,75.56843)"
     style="fill:#2f2e41"
     points="171,220 468,220 468,222 169,222 169,100 171,100 "
     id="polygon148-9-8" />
  <polygon
     transform="matrix(-0.29158165,0,0,0.6670867,597.80124,20.464445)"
     style="fill:#2f2e41"
     points="468,222 169,222 169,100 171,100 171,220 468,220 "
     id="polygon148-9-7" />
  <rect
     x="397.76288"
     y="318.51306"
     width="1.2379968"
     height="31.487143"
     id="rect58-3"
     style="fill:#a6bf26;stroke-width:0.401503" />
  <rect
     x="397.76288"
     y="374.7991"
     width="1.2379968"
     height="111.43938"
     id="rect60-9"
     style="fill:#a6bf26;stroke-width:0.61899841" />
  <path
     d="m 398.38188,368.62878 a 6.1899842,6.1899842 0 1 1 6.18998,-6.18998 6.1970779,6.1970779 0 0 1 -6.18998,6.18998 z m 0,-11.14198 a 4.9519873,4.9519873 0 1 0 4.95198,4.952 4.9576636,4.9576636 0 0 0 -4.95198,-4.952 z"
     id="path110-0"
     inkscape:connector-curvature="0"
     style="fill:#a6bf26;stroke-width:0.61899841" />
  <path
     inkscape:connector-curvature="0"
     style="fill:#a6bf26;stroke-width:0.61899841"
     d="m 420.04681,438.37517 a 6.1899842,6.1899842 0 1 1 6.18999,-6.18999 6.1970779,6.1970779 0 0 1 -6.18999,6.18999 z"
     id="path106-1-0" />
  <g
     id="g944"
     transform="matrix(0.8970354,0,0,0.8970354,0.7409291,9.3282774)">
    <rect
       style="fill:#a6bf26;stroke-width:0.69004905"
       id="rect124-8"
       height="59.990799"
       width="1.3800981"
       y="397.5585"
       x="466.74515" />
    <rect
       style="fill:#a6bf26;stroke-width:0.69004905"
       id="rect126-8"
       height="44.423931"
       width="1.3800981"
       y="484.93396"
       x="466.74515" />
    <path
       style="fill:#a6bf26;stroke-width:0.69004905"
       inkscape:connector-curvature="0"
       id="path128-5"
       d="m 467.43516,478.29427 a 6.9004905,6.9004905 0 1 1 6.90049,-6.9005 6.9086124,6.9086124 0 0 1 -6.90049,6.9005 z m 0,-12.42089 a 5.5203923,5.5203923 0 1 0 5.52039,5.52039 5.5267201,5.5267201 0 0 0 -5.52039,-5.52039 z" />
  </g>
  <polygon
     transform="matrix(-0.37787647,0,0,0.26592863,596.76371,373.6513)"
     style="fill:#2f2e41"
     points="169,100 171,100 171,220 468,220 468,222 169,222 "
     id="polygon148-9" />
</svg>
