<svg xmlns="http://www.w3.org/2000/svg" data-name="f4673761-b724-4a95-a095-d2125482816e" viewBox="0 0 923 749">
  <circle style="isolation:isolate" cx="870" cy="153" r="53" fill="#ccc" opacity=".3"/>
  <circle cx="870" cy="153" r="30" fill="#a6bf26"/>
  <circle style="isolation:isolate" cx="53" cy="618" r="53" fill="#ccc" opacity=".3"/>
  <circle cx="53" cy="618" r="30" fill="#a6bf26"/>
  <circle style="isolation:isolate" cx="125" cy="53" r="53" fill="#ccc" opacity=".3"/>
  <circle cx="125" cy="53" r="30" fill="#a6bf26"/>
  <path fill="#3f3d56" d="M821 384c0 178.34-127.91 326.81-297 358.67l-2 .37q-15.76 2.9-32 4.39c-.67.07-1.33.13-2 .18Q472.19 749 456 749h-2q-16.17-.07-32-1.56c-.67 0-1.33-.12-2-.19q-16.22-1.57-32-4.57l-2-.38C217.9 709.64 91 561.64 91 384 91 182.42 254.42 19 456 19s365 163.42 365 365z"/>
  <path fill="#a6bf26" d="M523 227.5h2V524h-2zM523 100.4h2v87.47h-2zM386 91.27h2V524h-2zM420 53h2v97.46h-2zM420 197h2v296.64h-2zM422 539.75v207.68c-.67 0-1.33-.12-2-.19V539.75zM454 21h2v275.35h-2zM456 334.52V749h-2V334.52zM488 53h2v382h-2zM488 476h2v214.17h-2zM490 735.53v11.9c-.67.07-1.33.13-2 .18v-12.08zM524 576v166.67l-2 .37V576zM388 576v166.67l-2-.38V576zM352 130h2v62.41h-2zM352 239.28h2V524h-2zM318 153h2v371h-2zM284 183h2v120.91h-2zM284 343.97h2V524h-2zM250 215h2v201.54h-2zM250 454h2v70h-2zM216 245h2v67.6h-2zM216 356.82h2V524h-2zM182 261h2v263h-2zM148 333h2v86.94h-2zM148 459.62h2V524h-2zM543.38 130h1.04v377h-1.04zM590 153h2v59.44h-2zM590 252.13h2V524h-2zM624 210h2v35h-2zM624 284.25h2v173.86h-2zM624 493.64h2V524h-2zM658 215h2v309h-2zM692 245h2v98.97h-2zM692 381.39h2V524h-2zM726 261h2v263h-2z"/>
  <path fill="#a6bf26" d="M387 577a10 10 0 1110-10 10 10 0 01-10 10zm0-18a8 8 0 108 8 8 8 0 00-8-8zM421 525a10 10 0 1110-10 10 10 0 01-10 10zm0-18a8 8 0 108 8 8 8 0 00-8-8zM524 577a10 10 0 1110-10 10 10 0 01-10 10zm0-18a8 8 0 108 8 8 8 0 00-8-8zM489 702a10 10 0 1010 10 10 10 0 00-10-10zm0 18a8 8 0 118-8 8 8 0 01-8 8zM489 464a10 10 0 1110-10 10 10 0 01-10 10zm0-18a8 8 0 108 8 8 8 0 00-8-8z"/>
  <path fill="none" stroke="#a6bf26" stroke-miterlimit="10" stroke-width="2" d="M455 325a10 10 0 1110-10 10 10 0 01-10 10z"/>
  <path fill="#a6bf26" d="M523 216a10 10 0 1110-10 10 10 0 01-10 10zm0-18a8 8 0 108 8 8 8 0 00-8-8zM285 334a10 10 0 1110-10 10 10 0 01-10 10zm0-18a8 8 0 108 8 8 8 0 00-8-8zM217 343a10 10 0 1110-10 10 10 0 01-10 10zm0-18a8 8 0 108 8 8 8 0 00-8-8zM251 445a10 10 0 1110-10 10 10 0 01-10 10zM524 101a10 10 0 1110-10 10 10 0 01-10 10zm0-18a8 8 0 108 8 8 8 0 00-8-8zM353 225a10 10 0 1110-10 10 10 0 01-10 10zm0-18a8 8 0 108 8 8 8 0 00-8-8zM319 154a10 10 0 1110-10 10 10 0 01-10 10zm0-18a8 8 0 108 8 8 8 0 00-8-8zM149 450a10 10 0 1110-10 10 10 0 01-10 10zm0-18a8 8 0 108 8 8 8 0 00-8-8zM757 333h2v86.94h-2zM757 459.62h2V524h-2zM758 450a10 10 0 1110-10 10 10 0 01-10 10zm0-18a8 8 0 108 8 8 8 0 00-8-8zM693 371a10 10 0 1110-10 10 10 0 01-10 10zm0-18a8 8 0 108 8 8 8 0 00-8-8zM625 486a10 10 0 1110-10 10 10 0 01-10 10zm0-18a8 8 0 108 8 8 8 0 00-8-8zM421 184a10 10 0 1110-10 10 10 0 01-10 10zM625 275a10 10 0 1110-10 10 10 0 01-10 10zm0-18a8 8 0 108 8 8 8 0 00-8-8zM693 246a10 10 0 1110-10 10 10 0 01-10 10z"/>
  <path fill="none" stroke="#a6bf26" stroke-miterlimit="10" stroke-width="2" d="M591 241a10 10 0 1110-10 10 10 0 01-10 10z"/>
  <path fill="#2f2e41" d="M871 241.02L691.98 238l.04-2L869 238.98V153h2v88.02zM421 175H122V53h2v120h297v2zM252 619H53v-2h197V434h2v185z"/>
</svg>
