<svg xmlns="http://www.w3.org/2000/svg" width="302" height="302" viewBox="0 0 302 302">
  <path fill="#3F3D56" d="M151.4 22C47.9 22 22 47.9 22 151.4s25.9 129.4 129.4 129.4S280.8 255 280.8 151.4 255 22 151.4 22z"/>
  <ellipse fill="#2F2E41" cx="151.4" cy="217.7" rx="110.5" ry="18.2"/>
  <path fill="#878696" d="M83.1 124.9V232c18.8 2.4 42.5 3.9 68.3 3.9 25.8 0 49.5-1.5 68.3-3.9V124.9H83.1z"/>
  <g stroke="#3F3D56" stroke-width="6.7996" stroke-miterlimit="10">
    <circle fill="#3F3D56" fill-opacity=".6" cx="127" cy="155.1" r="14.4"/>
    <circle fill="#3F3D56" fill-opacity=".6" cx="175.8" cy="155.1" r="14.4"/>
    <path fill="none" d="M140.7 155.1h21.4"/>
  </g>
  <path fill="#3F3D56" d="M137.7 203.5l1.5 1.8c6.7 6.7 17.6 6.7 24.4 0 .6-.6 1.1-1.2 1.5-1.8-3.1 2.8-8.1 4.7-13.7 4.7s-10.6-1.8-13.7-4.7z"/>
  <path fill="#FFF" d="M163.6 181l-6.1-6.1c-3.4-3.4-8.9-3.4-12.2 0l-6.1 6.1c-4.2 4.2-5.8 10.1-4.7 15.5.5 2.5 1.6 4.9 3.2 7.1 3.1 2.8 8.1 4.7 13.7 4.7 5.7 0 10.7-1.8 13.7-4.7 1.6-2.1 2.7-4.6 3.2-7.1 1.1-5.5-.5-11.3-4.7-15.5z" opacity=".5"/>
  <path fill="#3F3D56" d="M146.4 202c-2.8-2.8-2.8-7.3 0-10.1s7.3-2.8 10.1 0 2.8 7.3 0 10.1-7.3 2.8-10.1 0z"/>
  <g>
    <path fill="#A6BF26" d="M228.1 121.3h-8.4c-.3-19.2-10.7-36.2-26.7-47-3.6-2.5-7.5-4.6-11.6-6.4V102c0 1.6-1.3 2.8-2.8 2.8s-2.8-1.3-2.8-2.8V65.7c-3.6-1.2-7.4-2.2-11.2-2.8V78c0 4.6-3.8 8.4-8.4 8.4h-9.3c-4.6 0-8.4-3.8-8.4-8.4V62.9c-3.9.7-7.6 1.6-11.2 2.8V102c0 1.6-1.3 2.8-2.8 2.8-1.6 0-2.8-1.3-2.8-2.8V67.9c-4.1 1.8-8 3.9-11.6 6.4-16 10.9-26.4 27.9-26.7 47H72.8c-1.3 0-2.3 1-2.3 2.3s1 2.3 2.3 2.3h155.3c1.3 0 2.3-1 2.3-2.3s-1.1-2.3-2.3-2.3z"/>
    <path fill="#FFB500" d="M156.1 53c2.1 0 3.9 1.7 3.9 3.9V78c0 2.1-1.7 3.9-3.9 3.9h-9.3c-2.1 0-3.9-1.7-3.9-3.9V56.9c0-2.1 1.7-3.9 3.9-3.9h9.3"/>
  </g>
</svg>
