<?xml version="1.0" encoding="UTF-8"?>
<svg width="663px" height="459px" viewBox="0 0 663 459" version="1.1" xmlns="http://www.w3.org/2000/svg" xmlns:xlink="http://www.w3.org/1999/xlink">
    <!-- Generator: Sketch 55.2 (78181) - https://sketchapp.com -->
    <title>illustration</title>
    <desc>Created with Sketch.</desc>
    <defs>
        <linearGradient x1="100.000064%" y1="49.9723347%" x2="-0.00415045651%" y2="49.9723347%" id="linearGradient-1">
            <stop stop-color="#808080" stop-opacity="0.25" offset="0%"></stop>
            <stop stop-color="#808080" stop-opacity="0.12" offset="54%"></stop>
            <stop stop-color="#808080" stop-opacity="0.1" offset="100%"></stop>
        </linearGradient>
    </defs>
    <g id="maquette" stroke="none" stroke-width="1" fill="none" fill-rule="evenodd">
        <g id="Desktop-HD" transform="translate(-559.000000, -155.000000)">
            <g id="intro" transform="translate(0.000000, 44.000000)">
                <g id="illustration" transform="translate(559.000000, 86.000000)">
                    <g id="undraw_visual_data_b1wx" transform="translate(0.000000, 18.000000)">
                        <ellipse id="Oval" fill="#A6BF26" fill-rule="nonzero" opacity="0.1" cx="575" cy="456" rx="38" ry="10"></ellipse>
                        <path d="M637.470691,413.846738 C623.000427,425.864071 602.337129,430.861378 582.388412,433.954949 L579.053701,434.490375 C558.211758,437.583946 537.131621,439.249715 515.991936,440.261074 C504.677738,440.7965 493.36354,441.212942 482.049343,441.569893 L473.17663,441.80786 C461.683787,442.16481 450.131395,442.462269 438.579004,442.81922 C427.264806,443.116678 415.950608,443.414137 404.636411,443.711596 C390.166147,444.068546 375.636335,444.366005 361.166072,444.603972 C349.851874,444.782447 338.537676,444.901431 327.223478,444.960923 C312.753215,445.020414 298.223403,445.020414 283.75314,444.901431 C272.438942,444.782447 261.124744,444.603972 249.810546,444.306513 C235.340283,443.949563 220.810471,443.414137 206.340208,442.640744 C196.51472,442.16481 186.689233,441.569893 176.863745,440.915484 L172.397614,440.618025 C130.237341,437.583946 87.3624858,432.170197 50.5020205,414.91759 L49.4896975,414.441656 C49.0133102,414.203689 48.4773745,413.965722 48.0009873,413.727755 C41.2124686,410.5152 34.721692,406.707729 28.5882058,402.364831 C17.6908469,394.571412 8.69903713,385.112224 3.93516439,373.868284 C-3.50838677,356.199234 0.421808239,336.388482 8.93723077,319.135875 C17.4526533,301.883269 30.2555613,286.296431 41.272017,270.055183 C44.4876311,265.295843 47.5841484,260.358028 50.442472,255.30123 C68.3069948,223.532636 77.1797078,186.826228 58.4219589,156.187978 C55.9209257,152.261522 53.3007957,148.513542 50.442472,144.884545 C45.8572445,138.935371 41.2124686,132.986196 38.1159513,126.382612 C30.791497,111.033741 32.3397556,93.8406256 35.019434,77.4803949 C38.5923386,55.7064151 45.1426636,32.2666663 65.6273164,18.643056 C86.8860985,4.54351174 117.017594,5.25741272 143.397539,10.3142113 C184.366845,18.167122 222.239633,34.5868445 260.410163,49.4002898 C298.580694,64.213735 338.597225,77.7778536 380.578853,79.2056556 C389.570663,79.5031143 398.622021,79.2056556 407.613831,78.2537876 L407.613831,78.2537876 C419.583061,77.0044609 431.373646,74.5652992 442.806941,70.8768108 C459.361399,65.4630618 474.367598,57.2532005 485.50315,45.8902766 C509.441611,21.6176434 554.341111,19.7733992 586.735446,34.4083693 C617.641071,48.3889301 637.649336,78.0753123 636.160626,107.642711 C634.49327,140.60114 609.780681,167.669885 587.152285,195.452531 C584.413058,198.843561 581.673831,202.175099 579.053701,205.62562 C577.564991,207.529356 576.135829,209.433092 574.706667,211.336828 L574.706667,211.336828 C572.205634,214.727858 569.823698,218.118887 567.560858,221.509917 C556.008467,239.059983 547.790786,260.179553 555.770273,279.157421 C560.236404,289.746952 568.751827,297.897321 579.053701,304.976839 C602.098936,320.801644 633.838238,331.510159 648.129856,353.641089 C660.396828,372.73794 655.871149,398.557359 637.470691,413.846738 Z" id="Path" fill="#A6BF26" fill-rule="nonzero" opacity="0.1"></path>
                        <ellipse id="Oval" fill="#A6BF26" fill-rule="nonzero" cx="115" cy="446.5" rx="34" ry="6.5"></ellipse>
                        <ellipse id="Oval" fill="#FFFFFF" fill-rule="nonzero" cx="115" cy="444" rx="4" ry="5"></ellipse>
                        <ellipse id="Oval" fill="#FFFFFF" fill-rule="nonzero" cx="115" cy="437" rx="4" ry="5"></ellipse>
                        <ellipse id="Oval" fill="#FFFFFF" fill-rule="nonzero" cx="115" cy="431" rx="4" ry="5"></ellipse>
                        <ellipse id="Oval" fill="#FFFFFF" fill-rule="nonzero" cx="115" cy="425" rx="4" ry="5"></ellipse>
                        <ellipse id="Oval" fill="#FFFFFF" fill-rule="nonzero" cx="115" cy="418" rx="4" ry="5"></ellipse>
                        <ellipse id="Oval" fill="#FFFFFF" fill-rule="nonzero" cx="115" cy="412" rx="4" ry="5"></ellipse>
                        <ellipse id="Oval" fill="#FFFFFF" fill-rule="nonzero" cx="115" cy="406" rx="4" ry="5"></ellipse>
                        <path d="M129.868358,362.726084 C130.404658,362.009885 130.88137,361.293686 131.358082,360.577488 L120.989605,358.846674 L132.251916,358.966041 C134.456707,354.191384 134.575885,348.760211 132.609449,343.92587 L117.533446,351.744372 L131.417671,341.478858 C126.173843,332.407009 114.553999,329.303482 105.49648,334.555605 C96.4389599,339.807728 93.3403348,351.445956 98.5841619,360.517805 C99.0012845,361.293686 99.537585,362.009885 100.073886,362.726084 C99.2396403,363.800382 98.524573,364.934363 97.9286835,366.18771 L111.395785,373.23033 L97.0348494,368.395989 C95.0088252,374.483677 96.1410152,381.168198 100.073886,386.241271 C93.5786906,394.477555 95.0088252,406.414199 103.2321,412.919669 C111.455374,419.42514 123.373163,417.992743 129.868358,409.756459 C135.290952,402.892889 135.290952,393.164524 129.868358,386.300954 C135.290952,379.318018 135.290952,369.589654 129.868358,362.726084 L129.868358,362.726084 Z" id="Path" fill="#A6BF26" fill-rule="nonzero"></path>
                        <path d="M96.0218745,374.285709 C96.0218745,378.542949 97.4544482,382.740227 100.080833,386.09805 C93.5745611,394.372684 95.0071348,406.364908 103.244434,412.90067 C111.481732,419.436432 123.419846,417.997365 129.926119,409.722731 C135.35796,402.827202 135.35796,393.05354 129.926119,386.158011 C132.492813,382.800188 96.0218745,372.127109 96.0218745,374.285709 Z" id="Path" fill="#000000" fill-rule="nonzero" opacity="0.1"></path>
                        <path d="M206,308.20954 L206,442 C196.157895,441.526405 186.315789,440.934412 176.473684,440.28322 L172,439.987223 L172,308.20954 C172,305.308773 174.326316,303 177.249123,303 L177.249123,303 L200.750877,303 C203.673684,303 206,305.308773 206,308.20954 Z" id="Path" fill="#FFFFFF" fill-rule="nonzero"></path>
                        <path d="M250,443.404517 L250,217.240246 C250,214.322382 252.326316,212 255.249123,212 L255.249123,212 L278.750877,212 C281.673684,212 284,214.322382 284,217.240246 L284,217.240246 L284,444 L250,443.404517 Z" id="Path" fill="#FFFFFF" fill-rule="nonzero"></path>
                        <path d="M327,443 L327,264.209781 C327,261.30888 329.326316,259 332.249123,259 L332.249123,259 L355.750877,259 C358.673684,259 361,261.30888 361,264.209781 L361,264.209781 L361,442.644788 L327,443 Z" id="Path" fill="#FFFFFF" fill-rule="nonzero"></path>
                        <path d="M438,132.221179 L438,442.110026 C426.666667,442.406684 415.333333,442.703342 404,443 L404,132.221179 C404,129.313932 406.326316,127 409.249123,127 L409.249123,127 L432.750877,127 C435.673684,127 438,129.313932 438,132.221179 L438,132.221179 Z" id="Path" fill="#FFFFFF" fill-rule="nonzero"></path>
                        <path d="M515,194.230189 L515,439.692453 C503.666667,440.227358 492.333333,440.643396 481,441 L481,194.230189 C481,191.317925 483.326316,189 486.249123,189 L486.249123,189 L509.750877,189 C512.673684,189 515,191.317925 515,194.230189 L515,194.230189 Z" id="Path" fill="#FFFFFF" fill-rule="nonzero"></path>
                        <polyline id="Path" stroke="#FFFFFF" stroke-width="7" stroke-linecap="round" points="189 229 266.25 142.783784 343.5 186.189189 420.75 53 498 116.621622"></polyline>
                        <circle id="Oval" fill="#A6BF26" fill-rule="nonzero" cx="189.5" cy="229.5" r="16.5"></circle>
                        <circle id="Oval" fill="#A6BF26" fill-rule="nonzero" cx="266.5" cy="143.5" r="16.5"></circle>
                        <circle id="Oval" fill="#A6BF26" fill-rule="nonzero" cx="343.5" cy="186.5" r="16.5"></circle>
                        <circle id="Oval" fill="#A6BF26" fill-rule="nonzero" cx="421.5" cy="52.5" r="16.5"></circle>
                        <circle id="Oval" fill="#A6BF26" fill-rule="nonzero" cx="570.5" cy="195.5" r="16.5"></circle>
                        <ellipse id="Oval" fill="#A6BF26" fill-rule="nonzero" opacity="0.1" cx="139" cy="430" rx="11" ry="2"></ellipse>
                        <path d="M132,420.413086 C132,420.413086 138.141707,420.234237 140.053748,418.863059 C141.965789,417.491881 149.556011,415.882237 150.019536,418.088045 C150.483061,420.293853 159.290037,428.938236 152.337162,428.997853 C145.384286,429.057469 136.113785,427.865141 134.317625,426.732428 C132.521466,425.599716 132,420.413086 132,420.413086 Z" id="Path" fill="#A8A8A8" fill-rule="nonzero"></path>
                        <path d="M152.441495,429.242679 C145.472804,429.3056 136.239287,428.047176 134.38097,426.851673 C132.987231,425.907855 132.406507,422.57303 132.23229,421 L132,421 C132,421 132.406507,426.411225 134.264825,427.606728 C136.123142,428.802231 145.356659,430.060655 152.32535,429.997734 C154.357885,429.997734 155.054754,429.179758 154.996682,428.047176 C154.70632,428.802231 153.951378,429.242679 152.441495,429.242679 Z" id="Path" fill="#000000" fill-rule="nonzero" opacity="0.2"></path>
                        <ellipse id="Oval" fill="#A6BF26" fill-rule="nonzero" opacity="0.1" cx="632.5" cy="445.5" rx="20.5" ry="3.5"></ellipse>
                        <path d="M620,429.289189 C620,429.289189 631.564002,428.932232 635.045002,426.433539 C638.526003,423.934846 652.804005,420.960211 653.689005,424.946222 C654.574006,428.932232 671.035008,444.876276 657.996006,444.995261 C644.957004,445.114247 627.729001,442.972509 624.248001,440.830772 C620.767,438.689035 620,429.289189 620,429.289189 Z" id="Path" fill="#A8A8A8" fill-rule="nonzero"></path>
                        <path d="M657.273021,443.541067 C644.220031,443.662243 626.973546,441.481083 623.488811,439.299923 C620.830962,437.664053 619.767823,431.72645 619.413443,429 L619,429 C619,429 619.70876,438.572869 623.193495,440.754029 C626.67823,442.935189 643.924714,445.11635 656.977705,444.995174 C660.757756,444.995174 662.057149,443.601655 661.998085,441.54167 C661.525579,442.753426 660.048996,443.541067 657.273021,443.541067 Z" id="Path" fill="#000000" fill-rule="nonzero" opacity="0.2"></path>
                        <path d="M505.090803,205.283677 C505.209577,206.353655 505.625287,207.304747 506.278545,208.136952 C507.169351,209.088043 508.41648,209.563589 509.604222,210.158021 C512.573576,211.703545 514.889672,214.319047 516.018027,217.528981 C517.977801,223.294973 518.274736,229.417625 520.768994,235.005287 C523.263252,240.59295 526.232606,245.94284 528.429928,251.649389 C529.677057,254.918766 530.627251,258.247587 532.46825,261.219748 C533.359057,262.646385 534.487411,263.954136 535.793927,265.024114 C535.675153,267.104626 535.615766,269.185139 535.615766,271.265652 C536.447185,271.265652 537.219217,271.681754 537.634927,272.33563 C538.050636,272.989505 538.347572,273.762267 538.525733,274.594472 C539.357152,277.982736 538.347572,281.549329 539.060217,284.937593 C541.079378,294.389065 540.42612,304.137753 537.278604,313.232565 C536.447185,315.550851 535.437605,323.159583 536.328411,325.477869 C539.535314,325.180653 542.445281,327.142279 545.414635,328.45003 C545.652184,330.233327 545.533409,332.076066 544.998926,333.79992 C543.929958,336.95041 543.929958,340.338674 543.929958,343.667494 L544.048732,368.217544 C544.048732,371.308592 544.108119,374.459083 544.880151,377.490687 C545.770958,380.87895 547.611957,384.326657 547.55257,387.833807 C547.374409,395.383096 550.937634,402.575726 550.640699,410.065572 C550.581312,411.492209 550.40315,412.918846 550.224989,414.345483 C549.868667,418.14985 549.987441,421.954216 550.521925,425.758582 C551.590892,433.307871 554.441472,440.67883 553.728827,448.228119 C553.66944,448.763108 553.491279,449.416984 553.016182,449.595313 C553.610053,450.249189 554.263311,450.903064 554.857182,451.556939 C554.738408,451.794712 554.560247,451.973042 554.322698,452.091928 C553.610053,452.448588 552.838021,452.686361 552.065989,452.686361 C551.115796,452.686361 550.224989,452.983577 549.452957,453.518566 C548.918473,454.053555 548.502764,454.766873 548.38399,455.480192 C547.96828,456.966273 548.205828,458.630683 549.096635,459.938434 C549.631118,460.592309 550.343763,461.127298 551.115796,461.424514 C553.847602,462.613378 556.995117,461.72173 559.845697,460.889525 L571.069857,457.501262 C571.782502,457.382375 572.376373,457.025716 572.910856,456.55017 C573.148405,456.252954 573.326566,455.955738 573.385953,455.599078 C575.880211,456.193511 578.612017,455.480192 581.106274,454.70743 L592.330434,451.319167 C593.043079,451.20028 593.63695,450.843621 594.171434,450.368075 C594.587143,449.892529 594.765304,449.238654 594.64653,448.584778 C594.705917,448.525335 594.824692,448.525335 594.884079,448.465892 C595.715498,448.049789 596.665691,447.336471 596.48753,446.385379 C596.368756,445.790947 595.774885,445.434288 595.47795,444.899299 C595.240401,444.18598 595.418562,443.353775 595.893659,442.818786 C596.309369,442.224354 596.90324,441.748808 597.318949,441.094933 C598.625465,439.133306 597.734659,436.517805 597.259562,434.199519 C596.190595,429.265732 597.200175,424.034728 596.546917,419.041498 C596.309369,417.377088 595.893659,415.653234 595.596724,413.988824 C594.884079,410.006128 594.468369,406.023433 594.230821,401.981294 C593.815111,396.215301 592.21166,390.568195 593.102466,384.861646 C593.518176,381.532826 593.755724,378.144562 593.63695,374.756299 C593.696337,372.616343 593.63695,370.476387 593.340014,368.336431 C593.102466,366.731464 592.686756,365.18594 592.508595,363.580973 C592.389821,361.797677 592.330434,359.954937 592.389821,358.17164 C592.449208,354.129501 592.092886,350.146805 591.261466,346.223553 C590.073725,340.81422 587.817015,335.64266 586.866822,330.233327 C587.163757,330.29277 587.52008,330.352213 587.817015,330.471099 C587.876402,326.310074 584.194403,317.274704 582.887887,313.292009 C582.709726,312.816463 582.590952,312.281474 582.531565,311.805928 C582.590952,311.09261 582.709726,310.438734 582.887887,309.784859 C583.066048,308.358221 582.294016,306.991027 582.115855,305.56439 C582.056468,304.553855 582.115855,303.543321 582.353403,302.532786 C583.303597,297.182896 584.491338,291.951893 585.67908,286.661446 C586.213564,284.759263 586.391725,282.738193 586.213564,280.776567 C585.916629,278.636611 586.569886,276.556098 587.995177,274.951132 C588.52966,274.475586 588.94537,273.881154 589.301692,273.286721 C589.479854,272.751732 589.598628,272.216743 589.539241,271.622311 C589.539241,269.185139 589.182918,266.747967 588.470273,264.429681 C589.539241,262.527498 589.895563,260.209213 590.192499,258.009814 C590.845757,253.13547 591.499015,248.261126 591.499015,243.386781 C591.558402,240.77128 591.202079,238.155778 590.430047,235.659163 C589.895563,234.113639 589.182918,232.627559 588.410886,231.200921 C585.263371,225.197156 582.294016,218.836731 578.374468,213.308512 C577.186727,211.644102 577.958759,209.325816 578.018146,207.245303 C578.13692,204.748688 577.12734,202.370959 576.177146,200.052674 C575.70205,198.626036 574.930017,197.318286 573.920437,196.188864 C573.267179,195.475546 572.316986,195 571.307405,195 C570.17905,195.118886 569.16947,195.772762 568.516212,196.723853 C567.090922,198.68548 566.437664,201.182095 566.853374,203.619267 C567.269083,205.996996 568.278664,208.255838 569.882115,210.098578 C570.654147,211.04967 571.544953,211.881875 572.495147,212.595193 C573.504727,215.745684 574.454921,218.836731 575.464501,221.987222 C577.008565,226.980453 578.612017,231.91424 580.809339,236.610254 C581.462597,237.977448 582.175242,239.344642 582.234629,240.830723 C582.294016,242.43569 581.640758,243.981214 581.106274,245.526737 C579.97792,248.736671 579.324662,252.065492 579.205888,255.453755 C579.027726,255.513198 578.849565,255.632085 578.730791,255.750971 C576.830404,256.999279 576.29592,259.614781 574.336147,260.744202 C573.207792,261.398077 571.841889,261.338634 570.535373,261.63585 C570.416599,261.63585 570.297825,261.695293 570.17905,261.754737 C570.119663,261.516964 570.060276,261.279191 570.060276,261.041418 C570.060276,260.863088 570.060276,260.744202 570.060276,260.565872 C573.089018,258.901462 575.642662,256.46429 577.424275,253.551572 C577.780598,253.016583 578.077533,252.422151 578.315081,251.768276 C578.493243,250.995514 578.493243,250.222752 578.433856,249.44999 C578.315081,246.893931 577.958759,244.337873 577.364888,241.781814 C576.71163,239.285199 575.345727,237.026357 573.385953,235.302503 C572.43576,234.529742 571.307405,233.935309 570.297825,233.162548 C568.397438,231.617024 567.090922,229.358181 564.952987,228.22876 C562.102407,226.861566 558.657956,227.753214 556.876343,230.309273 C556.579408,230.903705 556.163698,231.379251 555.688601,231.795353 C555.332279,231.973683 554.916569,232.152013 554.560247,232.389786 C553.906989,232.924775 553.847602,233.935309 554.08515,234.708071 C554.500859,236.372481 554.738408,238.096335 554.738408,239.820188 C550.759473,244.456759 550.759473,251.29273 554.679021,255.988744 C554.679021,257.118165 554.679021,258.188143 554.619634,259.317565 C554.619634,259.555337 554.619634,259.733667 554.560247,259.97144 C553.847602,259.733667 553.253731,259.317565 552.778634,258.782576 C552.125376,257.95037 552.006602,256.702063 551.175183,256.048187 C550.581312,255.691528 549.928054,255.394312 549.215409,255.334869 C547.493183,254.918766 545.889732,254.146004 544.464442,253.076026 C543.395474,252.243821 542.207732,251.1144 540.960604,250.876627 C538.763281,246.715602 536.15025,242.792349 533.240282,239.10687 C532.527637,238.215221 531.814992,237.323573 531.221121,236.313038 C529.914605,234.054196 529.558283,231.438694 528.726864,229.001522 C526.470154,222.165552 520.828381,216.637332 519.462478,209.563589 C518.987381,207.007531 517.324543,204.748688 516.196188,202.370959 C515.424156,200.765992 514.592737,199.101582 513.10806,198.150491 C511.148286,196.961626 508.475867,197.496615 506.872416,199.101582 C505.447126,200.647106 504.734481,202.965392 505.090803,205.283677 Z M575.583275,445.85039 C574.87063,446.20705 574.098598,446.444823 573.326566,446.444823 C572.910856,446.504266 572.554534,446.563709 572.138824,446.623152 C572.02005,445.374845 571.901276,444.126537 571.841889,442.878229 C571.544953,438.83609 570.891695,434.853395 570.297825,430.811256 C569.644567,426.65023 569.347631,422.073102 567.922341,418.090406 C565.665632,411.611095 563.349535,404.894011 563.646471,397.998598 C563.705858,396.453074 563.884019,394.90755 564.002793,393.302583 C564.180955,389.438774 563.646471,385.515522 564.596664,381.770599 C565.012374,380.046745 565.725019,378.441778 566.021954,376.717925 C566.200116,375.172401 566.200116,373.567434 566.081341,372.021911 C565.843793,366.553134 566.259503,361.084358 567.447244,355.793911 C568.575599,357.220549 568.931922,359.122732 569.228857,360.906028 L571.485566,372.973002 C572.792082,380.165632 573.979824,387.774364 577.483662,394.134789 C577.008565,396.453074 576.474082,398.890246 577.305501,401.089645 C577.661823,402.040737 578.255694,402.872942 578.612017,403.824033 C579.205888,405.429 579.146501,407.212297 579.324662,408.876707 C579.740371,412.4433 581.165662,415.95045 580.096694,419.398157 C578.968339,422.96475 578.255694,426.590787 577.958759,430.33571 C577.899372,431.346245 577.780598,432.416222 577.602436,433.426757 C577.424275,434.318406 577.12734,435.210054 576.949178,436.161145 C576.71163,437.468896 576.771017,438.83609 577.12734,440.143841 C577.364888,440.85716 577.543049,441.629922 577.602436,442.402684 C577.602436,443.175445 576.652243,443.710434 575.939598,443.829321 C576.177146,444.126537 576.414695,444.36431 576.652243,444.661526 C576.29592,445.018185 575.998985,445.493731 575.583275,445.85039 Z" id="Shape" fill="url(#linearGradient-1)" fill-rule="nonzero"></path>
                        <path d="M551.999958,452.34329 C551.02049,452.34329 550.102239,452.653434 549.306421,453.211692 C548.75547,453.769951 548.326953,454.452266 548.20452,455.25864 C547.776002,456.809358 548.020869,458.484133 548.939121,459.848765 C549.490071,460.531081 550.224672,461.08934 551.02049,461.399483 C553.83646,462.640058 557.080948,461.709627 560.019352,460.841225 L571.589317,457.305588 C572.323918,457.18153 572.936086,456.809358 573.487036,456.313128 C574.160421,455.444726 574.160421,454.204152 573.548253,453.273721 C572.936086,452.405319 572.079051,451.723003 571.099583,451.288802 C567.487795,449.489969 563.44749,449.117796 559.529618,449.055768 C558.060416,449.055768 556.591214,448.683595 555.611746,449.862141 C555.060795,450.482428 555.183229,451.164744 554.387411,451.660974 C553.65281,452.095175 552.856992,452.34329 551.999958,452.34329 Z" id="Path" fill="#FFFFFF" fill-rule="nonzero"></path>
                        <path d="M573.999958,446.043378 C573.02049,446.043378 572.102239,446.331037 571.306421,446.848823 C570.75547,447.366609 570.326953,448.05699 570.20452,448.747372 C569.776002,450.185667 570.020869,451.796557 570.939121,453.004724 C571.490071,453.637574 572.224672,454.15536 573.02049,454.443019 C575.83646,455.593655 579.080948,454.730678 582.019352,453.925233 L593.589317,450.645921 C594.323918,450.530857 594.936086,450.185667 595.487036,449.725412 C596.160421,448.919967 596.160421,447.769332 595.548253,446.963886 C594.936086,446.158441 594.079051,445.525592 593.099583,445.122869 C589.487795,443.454447 585.44749,443.109257 581.468401,443.051725 C579.999199,443.051725 578.529997,442.706534 577.550529,443.799638 C576.999579,444.374956 577.122012,445.007806 576.326194,445.46806 C575.591593,445.870782 574.795776,446.043378 573.999958,446.043378 Z" id="Path" fill="#FFFFFF" fill-rule="nonzero"></path>
                        <path d="M564.626303,324.030344 C571.18811,323.373468 577.809031,323.19432 584.429953,323.4929 C584.843761,323.4929 585.316683,323.552616 585.730491,323.672048 C587.208375,324.269208 587.385721,326.18012 587.563068,327.732736 C588.154221,334.122349 590.932644,340.034233 592.292297,346.304413 C593.119913,350.245669 593.474605,354.246642 593.415489,358.247614 C593.356374,360.039094 593.356374,361.830574 593.53372,363.622054 C593.711066,365.234386 594.124874,366.787002 594.361335,368.399334 C594.597797,370.54911 594.716028,372.698886 594.656912,374.848663 C594.716028,378.192759 594.538681,381.596571 594.124874,384.940667 C593.238143,390.613687 594.834258,396.286708 595.248066,402.019444 C595.484527,406.020416 595.898335,410.081104 596.607719,414.022361 C596.962412,415.694409 597.317104,417.366457 597.553565,419.038505 C598.203834,424.054649 597.257989,429.249941 598.26295,434.20637 C598.735873,436.535294 599.622603,439.103082 598.322065,441.133426 C597.908258,441.730586 597.317104,442.208314 596.903296,442.86519 C596.430373,443.46235 596.253027,444.238658 596.489489,444.95525 C596.72595,445.492694 597.317104,445.85099 597.49445,446.44815 C597.730912,447.34389 596.785066,448.120198 595.898335,448.478494 C589.513875,451.404578 581.237723,449.374234 576.863185,443.76093 C577.631685,443.641498 578.518416,443.104054 578.518416,442.327746 C578.4593,441.551438 578.281954,440.834846 578.045493,440.118254 C577.690801,438.804502 577.631685,437.49075 577.868147,436.176998 C578.045493,435.281258 578.34107,434.385518 578.518416,433.489777 C578.695762,432.474605 578.813993,431.459433 578.873108,430.444261 C579.168685,426.741869 579.937185,423.099193 581.001261,419.575949 C582.065338,416.112421 580.587454,412.648892 580.232762,409.065932 C580.055415,407.393884 580.114531,405.602404 579.523377,403.990072 C579.168685,403.034616 578.577531,402.198592 578.222839,401.243136 C577.395224,399.033644 577.927262,396.585288 578.400185,394.31608 C574.912378,387.926467 573.730071,380.342535 572.429532,373.176615 L570.183148,361.113982 C569.828456,359.322502 569.473764,357.471306 568.409687,356.038122 C567.286495,361.352846 566.813572,366.846718 567.050034,372.280874 C567.168264,373.833491 567.168264,375.445823 566.990918,376.998439 C566.695341,378.730203 565.985957,380.342535 565.572149,382.074299 C564.685419,385.836407 565.217457,389.717947 564.980996,393.599488 C564.92188,395.152104 564.685419,396.70472 564.626303,398.257336 C564.330727,405.124676 566.636226,411.812868 568.88261,418.321913 C570.242264,422.322885 570.596956,426.801585 571.247225,430.981705 C571.838379,434.982678 572.488648,438.98365 572.784225,442.984622 C573.079802,446.687014 573.198032,450.687986 575.503532,453.61407 C573.434494,454.987539 571.247225,456.361007 568.823495,456.838735 C565.985957,457.316463 563.089304,456.719303 560.606458,455.226403 C558.123613,453.733502 555.936344,451.882306 554.103767,449.672814 C554.57669,449.493666 554.754036,448.777074 554.813152,448.299346 C555.522536,440.715414 552.684998,433.370345 551.620922,425.846129 C551.088883,422.084021 550.970653,418.262197 551.325345,414.440373 C551.443576,413.007188 551.680037,411.574004 551.739152,410.14082 C552.034729,402.67632 548.487807,395.450684 548.606038,387.986183 C548.665153,384.462939 546.832577,380.999411 545.945846,377.655315 C545.177346,374.669515 545.177346,371.504566 545.118231,368.399334 L545,343.915773 C545,340.631393 545,337.227581 546.064077,334.062633 C547.364615,330.300524 545.886731,326.000972 545.650269,322 C551.739152,323.851196 558.182728,324.627504 564.626303,324.030344 Z" id="Path" fill="#696791" fill-rule="nonzero"></path>
                        <path d="M542.568152,254.435128 C540.065967,249.340896 537.027599,244.542841 533.453049,240.100197 C532.738139,239.211669 532.023229,238.32314 531.42747,237.375376 C530.116802,235.183672 529.759347,232.577321 528.925285,230.148675 C526.661403,223.395857 521.001699,217.946214 519.631455,210.897219 C519.154848,208.350103 517.486724,206.158399 516.354784,203.788989 C515.580298,202.189637 514.746236,200.53105 513.25684,199.642522 C511.290837,198.457817 508.609925,198.990934 507.001377,200.590286 C505.39283,202.248873 504.737495,204.559047 505.09495,206.809987 C505.214102,207.816986 505.631133,208.823985 506.286467,209.594044 C507.180105,210.541808 508.431197,211.01569 509.622714,211.608042 C512.601506,213.148159 514.924963,215.75451 516.056904,218.893978 C518.022907,224.580562 518.320786,230.681793 520.822971,236.190671 C523.325156,241.699549 526.303948,247.030722 528.508254,252.65807 C529.759347,255.856774 530.71256,259.173948 532.559411,262.13571 C534.406262,265.097473 537.206326,267.585353 540.661725,268 C540.661725,265.867531 540.959604,263.735062 541.614938,261.661828 C542.329848,259.410889 543.700093,256.686067 542.568152,254.435128 Z" id="Path" fill="#A0616A" fill-rule="nonzero"></path>
                        <path d="M579.577787,258.668064 C579.397848,254.442582 580.057624,250.276614 581.497136,246.289187 C582.036952,244.801341 582.696729,243.253982 582.636749,241.587594 C582.576769,240.099749 581.857013,238.73093 581.197237,237.362112 C578.918011,232.66052 577.35854,227.720872 575.799069,222.781224 L572.800087,213.497066 C571.840413,212.7829 570.940718,211.949707 570.160983,211.056999 C568.541532,209.21207 567.521878,207.010059 567.102021,204.569992 C566.742143,202.189438 567.341939,199.689858 568.781451,197.725901 C569.441227,196.77368 570.460881,196.178541 571.600494,196 C572.620148,196 573.579822,196.476111 574.239598,197.190277 C575.199273,198.321039 575.979008,199.630344 576.518825,200.999162 C577.478499,203.260687 578.498153,205.641241 578.378194,208.140821 C578.318214,210.223806 577.538479,212.485331 578.738072,214.151718 C582.696729,219.626991 585.75569,225.935457 588.874632,231.946354 C589.654367,233.374686 590.374123,234.862531 590.91394,236.409891 C591.693675,238.909472 592.053553,241.52808 591.993574,244.087175 C591.993574,248.967309 591.333798,253.847443 590.674021,258.668064 C590.254164,261.703269 589.714347,264.97653 587.375141,267 C585.035935,264.024308 582.636749,261.048617 579.577787,258.668064 Z" id="Path" fill="#A0616A" fill-rule="nonzero"></path>
                        <circle id="Oval" fill="#A0616A" fill-rule="nonzero" cx="564.5" cy="248.5" r="12.5"></circle>
                        <path d="M570.411765,261.5438 C570.705882,263.719696 571.882353,265.60929 573.058824,267.498884 C573.764706,268.644093 574.647059,269.846562 576,270.018343 C572.470588,271.850677 568.764706,273.282187 564.941176,274.370135 C563.647059,274.770958 562.294118,275 560.882353,275 C559.705882,274.94274 558.588235,274.656437 557.529412,274.141094 C552.823529,272.136979 549.294118,268.128749 548,263.318873 C549.529412,263.376133 551.058824,263.261613 552.529412,262.97531 C553.411765,262.91805 554.176471,262.517227 554.764706,261.887362 C555.117647,261.314758 555.294118,260.627633 555.235294,259.997768 C555.294118,257.993653 555.294118,256.046799 555.235294,254.042684 C558.235294,253.870903 561.235294,254.214465 564.117647,255.130632 C565.294118,255.474195 566.470588,255.932278 567.647059,256.21858 C568.411765,256.390361 570.411765,256.21858 571,256.619403 C571.764706,257.192007 570.176471,260.112289 570.411765,261.5438 Z" id="Path" fill="#A0616A" fill-rule="nonzero"></path>
                        <path d="M565.106553,269.689044 C565.402904,266.327374 567.773708,263.505972 570.974294,262.725584 C572.218967,262.425435 573.641449,262.485465 574.767582,261.825137 C576.723495,260.7446 577.316196,258.043258 579.15357,256.842662 C580.990943,255.642065 583.658098,256.302393 585.317661,257.863169 C586.977224,259.423944 587.747736,261.645048 588.399707,263.806121 C589.407299,266.747583 589.94073,269.809104 590,272.930654 C590,273.470923 589.94073,274.071221 589.76292,274.611489 C589.407299,275.211788 588.992408,275.812086 588.458977,276.292324 C587.036494,277.91313 586.384523,280.014173 586.680874,282.175247 C586.858684,284.156231 586.680874,286.137215 586.147443,288.05817 C584.962041,293.340794 583.776638,298.623418 582.828317,303.966073 C582.591236,304.92655 582.531966,305.947057 582.591236,306.967564 C582.769046,308.40828 583.539558,309.788966 583.361748,311.229681 C583.183937,311.890009 583.065397,312.610367 583.006127,313.270695 C583.065397,313.810964 583.183937,314.291202 583.361748,314.771441 C584.72496,318.733409 588.340437,327.797912 588.281167,332 C581.939265,330.379195 572.693128,330.019016 566.173415,329.958986 C564.395312,329.958986 562.617209,330.019016 560.779835,330.199105 C556.512387,330.679344 552.126399,331.93997 547.977491,330.739374 C544.124934,329.658837 540.687268,326.537286 536.71617,326.957495 C535.827119,324.676362 536.893981,316.992544 537.664492,314.711411 C540.805808,305.586878 541.457779,295.741987 539.442595,286.317305 C538.731354,282.895605 539.738946,279.293816 538.909164,275.932145 C538.731354,275.151758 538.435004,274.37137 538.020113,273.711042 C537.545952,273.050714 536.834711,272.630505 536.004929,272.630505 C535.945659,267.227821 536.41982,261.765107 537.486682,256.482483 C537.901573,254.621558 538.672084,252.340425 540.568728,252.040276 C542.287561,251.740127 543.710043,253.180843 545.073256,254.261379 C546.495739,255.341916 548.096032,256.122304 549.814865,256.542513 C550.526106,256.602542 551.178077,256.902692 551.770779,257.262871 C552.60056,257.923199 552.7191,259.183825 553.371072,260.024242 C554.556474,261.524988 557.223629,261.404928 558.05341,263.085763 C558.231221,263.626032 558.409031,264.10627 558.527571,264.646539 C558.942462,265.667046 559.594433,266.567493 560.483485,267.227821 C561.787427,268.308358 563.38772,269.208805 565.106553,269.689044 Z" id="Path" fill="#F86D70" fill-rule="nonzero"></path>
                        <path d="M555.124855,235.065328 C554.892516,234.239222 554.950601,233.295101 555.589532,232.764033 C555.879955,232.528002 556.344633,232.409987 556.693141,232.173957 C557.157818,231.760904 557.56441,231.229836 557.854834,230.698768 C559.655458,228.161443 562.966283,227.276329 565.754346,228.633503 C567.845394,229.754647 569.123256,231.996934 570.981965,233.472123 C571.911319,234.239222 573.014927,234.829297 574.002367,235.596396 C575.91916,237.248608 577.255107,239.490895 577.894038,241.969213 C578.532969,244.44753 578.881477,246.984856 578.939562,249.522181 C579.055731,250.289279 578.997647,251.056377 578.823393,251.823476 C578.649139,252.472559 578.358715,253.062635 577.952123,253.593703 C576.035329,256.544081 573.479605,259.199421 570.343034,260.733618 C567.206462,262.267814 563.314791,262.503845 560.17822,260.910641 C559.887796,260.792625 559.597373,260.556595 559.423119,260.261557 C559.248865,259.848504 559.190781,259.376444 559.30695,258.904383 C559.481204,257.075149 559.132696,255.304922 558.319511,253.65271 C557.738664,252.472559 556.867394,251.46943 556.402717,250.230272 C555.996125,248.873098 555.763786,247.456916 555.879955,245.981727 C555.763786,242.323258 555.996125,238.664789 555.124855,235.065328 Z" id="Path" fill="#2D293D" fill-rule="nonzero"></path>
                    </g>
                </g>
            </g>
        </g>
    </g>
</svg>