<?xml version="1.0" encoding="UTF-8"?>
<svg width="52px" height="54px" viewBox="0 0 52 54" version="1.1" xmlns="http://www.w3.org/2000/svg" xmlns:xlink="http://www.w3.org/1999/xlink">
    <!-- Generator: Sketch 55.2 (78181) - https://sketchapp.com -->
    <title>news-3757_4bc71cc0-e75c-47f5-8840-6a0ff90d520d</title>
    <desc>Created with Sketch.</desc>
    <g id="maquette" stroke="none" stroke-width="1" fill="none" fill-rule="evenodd">
        <g id="Desktop-HD" transform="translate(-498.000000, -2478.000000)">
            <g id="Blog" transform="translate(218.000000, 2455.000000)">
                <g id="content" transform="translate(281.000000, 24.000000)">
                    <g id="news-3757_4bc71cc0-e75c-47f5-8840-6a0ff90d520d" transform="translate(0.000000, 0.281441)">
                        <path d="M13.3333333,44.0916667 C13.3333333,47.8379982 10.348565,50.875 6.66666667,50.875 C2.98476833,50.875 0,47.8379982 0,44.0916667 L0,6.78333333 L13.3333333,6.78333333 L13.3333333,44.0916667 Z" id="Path" fill="#DBF1FF" fill-rule="nonzero"></path>
                        <path d="M13.3333333,44.0916667 C13.3333333,47.8379982 10.348565,50.875 6.66666667,50.875 C2.98476833,50.875 0,47.8379982 0,44.0916667 L0,6.78333333 L13.3333333,6.78333333 L13.3333333,44.0916667 Z" id="Path" fill="#F2F2F2" fill-rule="nonzero" opacity="0.700497582"></path>
                        <path d="M6.66666667,50.875 L43.3333333,50.875 C47.0152317,50.875 50,47.8379982 50,44.0916667 L50,0 L13.3333333,0 L13.3333333,44.0916667 C13.3333333,47.8379982 10.348565,50.875 6.66666667,50.875" id="Path" fill="#F2F2F2" fill-rule="nonzero"></path>
                        <path d="M6.66666667,50.875 L43.3333333,50.875 C46.044987,50.869411 48.4831333,49.1931854 49.5,46.6354167 L12.8333333,46.6354167 C11.8164667,49.1931854 9.37832035,50.869411 6.66666667,50.875 Z" id="Path" fill="#000064" fill-rule="nonzero" opacity="0.15"></path>
                        <polygon id="Path" fill="#A6BF26" fill-rule="nonzero" points="33.3333333 13.5666667 43.3333333 13.5666667 43.3333333 27.1333333 33.3333333 27.1333333"></polygon>
                        <path d="M6.66666667,50.875 L43.3333333,50.875 C47.0152317,50.875 50,47.8379982 50,44.0916667 L50,0 L13.3333333,0 L13.3333333,6.78333333" id="Path" stroke="#3F3D56" stroke-width="2" stroke-linecap="round" stroke-linejoin="round"></path>
                        <path d="M13.3333333,44.0916667 C13.3333333,47.8379982 10.348565,50.875 6.66666667,50.875 C2.98476833,50.875 0,47.8379982 0,44.0916667 L0,6.78333333 L13.3333333,6.78333333 L13.3333333,44.0916667 Z M43.3333333,6.78333333 L20,6.78333333 L43.3333333,6.78333333 Z M43.3333333,33.9166667 L20,33.9166667 L43.3333333,33.9166667 Z M43.3333333,40.7 L20,40.7 L43.3333333,40.7 Z M33.3333333,13.5666667 L43.3333333,13.5666667 L43.3333333,27.1333333 L33.3333333,27.1333333 L33.3333333,13.5666667 Z M26.6666667,13.5666667 L21.6666667,13.5666667 L26.6666667,13.5666667 Z M26.6666667,20.35 L20,20.35 L26.6666667,20.35 Z M26.6666667,27.1333333 L20,27.1333333 L26.6666667,27.1333333 Z" id="Shape" stroke="#3F3D56" stroke-width="2" stroke-linecap="round" stroke-linejoin="round"></path>
                    </g>
                </g>
            </g>
        </g>
    </g>
</svg>