<?xml version="1.0" encoding="UTF-8"?>
<svg width="669px" height="535px" viewBox="0 0 669 535" version="1.1" xmlns="http://www.w3.org/2000/svg" xmlns:xlink="http://www.w3.org/1999/xlink">
    <!-- Generator: Sketch 55.2 (78181) - https://sketchapp.com -->
    <title>undraw_code_review_l1q9</title>
    <desc>Created with Sketch.</desc>
    <g id="maquette" stroke="none" stroke-width="1" fill="none" fill-rule="evenodd">
        <g id="Desktop-HD" transform="translate(-41.000000, -1786.000000)">
            <g id="How" transform="translate(0.000000, 1710.000000)">
                <g id="undraw_code_review_l1q9" transform="translate(41.000000, 76.000000)">
                    <path d="M340.705815,472.224523 C189.46766,460.729691 9.09245151,343.407435 18.2640723,222.586752 C27.4356931,101.766068 202.133232,-10.6833781 353.371387,0.811454259 C504.609542,12.3062866 591.646351,238.142258 582.47473,358.962941 C573.30311,479.721153 491.94397,483.781827 340.705815,472.224523 Z" id="Path" fill="#F2F2F2" fill-rule="nonzero"></path>
                    <ellipse id="Oval" fill="#3F3D56" fill-rule="nonzero" cx="352.899859" cy="471.319464" rx="316.100141" ry="19.3434415"></ellipse>
                    <ellipse id="Oval" fill="#000000" fill-rule="nonzero" opacity="0.1" cx="352.899859" cy="472.263047" rx="268.921016" ry="12.7383639"></ellipse>
                    <ellipse id="Oval" fill="#3F3D56" fill-rule="nonzero" cx="132.573343" cy="522.27292" rx="132.573343" ry="11.7947814"></ellipse>
                    <ellipse id="Oval" fill="#000000" fill-rule="nonzero" opacity="0.1" cx="132.573343" cy="522.744711" rx="112.75811" ry="7.54866008"></ellipse>
                    <rect id="Rectangle" fill="#3F3D56" fill-rule="nonzero" x="122.665726" y="101.906911" width="468.960508" height="367.997179"></rect>
                    <path d="M352.512871,151.916784 L236.391821,151.916784 C235.640634,151.916784 234.952045,151.287729 234.952045,150.532863 C234.952045,149.777997 235.578035,149.086037 236.329222,149.086037 C236.329222,149.086037 236.329222,149.086037 236.329222,149.086037 L352.450273,149.086037 C353.20146,149.086037 353.827449,149.715092 353.827449,150.532863 C353.952647,151.287729 353.326658,151.916784 352.512871,151.916784 Z" id="Path" fill="#F2F2F2" fill-rule="nonzero"></path>
                    <path d="M478.841065,167.014104 L295.840177,167.014104 C295.087603,167.014104 294.397743,166.398724 294.397743,165.598731 C294.397743,164.798737 295.024888,164.183357 295.840177,164.183357 L295.840177,164.183357 L478.841065,164.183357 C479.593638,164.183357 480.283498,164.798737 480.283498,165.598731 C480.283498,166.398724 479.656353,167.014104 478.841065,167.014104 Z" id="Path" fill="#F2F2F2" fill-rule="nonzero"></path>
                    <path d="M353.348569,182.111425 L237.334082,182.111425 C236.583584,182.111425 235.895628,181.496045 235.895628,180.696051 C235.895628,179.896057 236.521043,179.280677 237.334082,179.280677 L353.348569,179.280677 C354.099067,179.280677 354.787024,179.896057 354.787024,180.696051 C354.787024,181.496045 354.161609,182.111425 353.348569,182.111425 Z" id="Path" fill="#F2F2F2" fill-rule="nonzero"></path>
                    <path d="M478.845043,182.111425 L362.830556,182.111425 C362.080058,182.111425 361.392102,181.496045 361.392102,180.696051 C361.392102,179.896057 362.017517,179.280677 362.830556,179.280677 L478.845043,179.280677 C479.595541,179.280677 480.283498,179.896057 480.283498,180.696051 C480.283498,181.496045 479.658083,182.111425 478.845043,182.111425 Z" id="Path" fill="#F2F2F2" fill-rule="nonzero"></path>
                    <path d="M353.348569,198.152327 L237.334082,198.152327 C236.583584,198.152327 235.895628,197.536947 235.895628,196.736953 C235.895628,195.93696 236.521043,195.32158 237.334082,195.32158 L353.348569,195.32158 C354.099067,195.32158 354.787024,195.93696 354.787024,196.736953 C354.787024,197.536947 354.099067,198.152327 353.348569,198.152327 Z" id="Path" fill="#F2F2F2" fill-rule="nonzero"></path>
                    <path d="M353.348569,214.19323 L237.334082,214.19323 C236.583584,214.19323 235.895628,213.57785 235.895628,212.777856 C235.895628,211.977862 236.521043,211.362482 237.334082,211.362482 L353.348569,211.362482 C354.099067,211.362482 354.787024,211.977862 354.787024,212.777856 C354.787024,213.57785 354.161609,214.19323 353.348569,214.19323 Z" id="Path" fill="#F2F2F2" fill-rule="nonzero"></path>
                    <path d="M406.198371,151.916784 L373.200783,151.916784 C372.455075,151.916784 371.771509,151.301404 371.771509,150.50141 C371.771509,149.701417 372.392933,149.086037 373.200783,149.086037 L373.200783,149.086037 L406.198371,149.086037 C406.944079,149.086037 407.627645,149.701417 407.627645,150.50141 C407.627645,151.301404 407.006221,151.916784 406.198371,151.916784 Z" id="Path" fill="#F2F2F2" fill-rule="nonzero"></path>
                    <path d="M406.198371,198.152327 L373.200783,198.152327 C372.455075,198.152327 371.771509,197.536947 371.771509,196.736953 C371.771509,195.93696 372.392933,195.32158 373.200783,195.32158 L373.200783,195.32158 L406.198371,195.32158 C406.944079,195.32158 407.627645,195.93696 407.627645,196.736953 C407.627645,197.536947 407.006221,198.152327 406.198371,198.152327 Z" id="Path" fill="#F2F2F2" fill-rule="nonzero"></path>
                    <path d="M406.258139,213.249647 L373.203265,213.249647 C372.456262,213.249647 371.771509,212.620592 371.771509,211.865726 C371.771509,211.11086 372.394012,210.4189 373.141014,210.4189 C373.141014,210.4189 373.141014,210.4189 373.141014,210.4189 L406.195889,210.4189 C406.942892,210.4189 407.627645,211.047955 407.627645,211.802821 C407.627645,212.557687 407.067392,213.249647 406.258139,213.249647 C406.32039,213.249647 406.258139,213.249647 406.258139,213.249647 Z" id="Path" fill="#F2F2F2" fill-rule="nonzero"></path>
                    <path d="M461.867257,213.249647 L428.812382,213.249647 C428.06538,213.249647 427.442877,212.620592 427.442877,211.802821 C427.442877,211.047955 428.06538,210.4189 428.812382,210.4189 L461.867257,210.4189 C462.61426,210.4189 463.299013,211.047955 463.299013,211.802821 C463.299013,212.557687 462.67651,213.249647 461.867257,213.249647 C461.867257,213.249647 461.867257,213.249647 461.867257,213.249647 Z" id="Path" fill="#F2F2F2" fill-rule="nonzero"></path>
                    <path d="M269.378907,167.014104 L236.381319,167.014104 C235.635611,167.014104 234.952045,166.398724 234.952045,165.598731 C234.952045,164.798737 235.573469,164.183357 236.381319,164.183357 L236.381319,164.183357 L269.378907,164.183357 C270.124615,164.183357 270.808181,164.798737 270.808181,165.598731 C270.808181,166.398724 270.124615,167.014104 269.378907,167.014104 Z" id="Path" fill="#F2F2F2" fill-rule="nonzero"></path>
                    <path d="M353.411111,380.263752 L237.334082,380.263752 C236.583584,380.263752 235.895628,379.648372 235.895628,378.848378 C235.895628,378.109922 236.521043,377.433004 237.334082,377.433004 L237.334082,377.433004 L353.348569,377.433004 C354.099067,377.433004 354.787024,378.048384 354.787024,378.848378 C354.787024,379.648372 354.161609,380.263752 353.411111,380.263752 Z" id="Path" fill="#F2F2F2" fill-rule="nonzero"></path>
                    <path d="M352.405743,411.401975 L236.389743,411.401975 C235.63964,411.401975 234.952045,410.786595 234.952045,409.986601 C234.952045,409.248145 235.577131,408.571227 236.389743,408.571227 L236.389743,408.571227 L352.405743,408.571227 C353.155847,408.571227 353.843441,409.186607 353.843441,409.986601 C353.780933,410.786595 353.155847,411.401975 352.405743,411.401975 Z" id="Path" fill="#F2F2F2" fill-rule="nonzero"></path>
                    <path d="M352.404987,425.555712 L236.3905,425.555712 C235.640002,425.555712 234.952045,424.940332 234.952045,424.140339 C234.952045,423.401883 235.57746,422.724965 236.3905,422.724965 L236.3905,422.724965 L352.404987,422.724965 C353.155485,422.724965 353.843441,423.340345 353.843441,424.140339 C353.843441,424.878794 353.218026,425.555712 352.404987,425.555712 Z" id="Path" fill="#F2F2F2" fill-rule="nonzero"></path>
                    <path d="M401.480458,411.401975 L368.482871,411.401975 C367.737162,411.401975 367.053597,410.786595 367.053597,409.986601 C367.053597,409.248145 367.67502,408.571227 368.482871,408.571227 L401.480458,408.571227 C402.226166,408.571227 402.909732,409.186607 402.909732,409.986601 C402.84759,410.786595 402.226166,411.401975 401.480458,411.401975 L401.480458,411.401975 Z" id="Path" fill="#F2F2F2" fill-rule="nonzero"></path>
                    <path d="M401.480458,425.555712 L368.482871,425.555712 C367.737162,425.555712 367.053597,424.940332 367.053597,424.140339 C367.053597,423.401883 367.67502,422.724965 368.482871,422.724965 L401.480458,422.724965 C402.226166,422.724965 402.909732,423.340345 402.909732,424.140339 C402.84759,424.878794 402.226166,425.555712 401.480458,425.555712 L401.480458,425.555712 Z" id="Path" fill="#F2F2F2" fill-rule="nonzero"></path>
                    <path d="M457.151826,411.401975 L424.154239,411.401975 C423.408531,411.401975 422.724965,410.786595 422.724965,409.986601 C422.724965,409.248145 423.346388,408.571227 424.154239,408.571227 L457.151826,408.571227 C457.897534,408.571227 458.5811,409.186607 458.5811,409.986601 C458.5811,410.786595 457.959677,411.401975 457.151826,411.401975 Z" id="Path" fill="#F2F2F2" fill-rule="nonzero"></path>
                    <path d="M478.77835,394.417489 L295.840177,394.417489 C295.087603,394.417489 294.397743,393.80211 294.397743,393.002116 C294.397743,392.26366 295.024888,391.586742 295.840177,391.586742 L478.841065,391.586742 C479.593638,391.586742 480.283498,392.202122 480.283498,393.002116 C480.220783,393.80211 479.593638,394.417489 478.77835,394.417489 Z" id="Path" fill="#F2F2F2" fill-rule="nonzero"></path>
                    <path d="M269.378907,394.417489 L236.381319,394.417489 C235.635611,394.417489 234.952045,393.80211 234.952045,393.002116 C234.952045,392.26366 235.573469,391.586742 236.381319,391.586742 L236.381319,391.586742 L269.378907,391.586742 C270.124615,391.586742 270.808181,392.202122 270.808181,393.002116 C270.808181,393.80211 270.186757,394.417489 269.378907,394.417489 Z" id="Path" fill="#F2F2F2" fill-rule="nonzero"></path>
                    <path d="M478.77835,441.596615 L295.840177,441.596615 C295.087603,441.596615 294.397743,440.981235 294.397743,440.181241 C294.397743,439.442785 295.024888,438.765867 295.840177,438.765867 L478.841065,438.765867 C479.593638,438.765867 480.283498,439.381247 480.283498,440.181241 C480.220783,440.981235 479.593638,441.596615 478.77835,441.596615 L478.77835,441.596615 Z" id="Path" fill="#F2F2F2" fill-rule="nonzero"></path>
                    <path d="M269.378907,441.596615 L236.381319,441.596615 C235.635611,441.596615 234.952045,440.981235 234.952045,440.181241 C234.952045,439.442785 235.573469,438.765867 236.381319,438.765867 L236.381319,438.765867 L269.378907,438.765867 C270.124615,438.765867 270.808181,439.381247 270.808181,440.181241 C270.808181,440.981235 270.186757,441.596615 269.378907,441.596615 Z" id="Path" fill="#F2F2F2" fill-rule="nonzero"></path>
                    <circle id="Oval" fill="#A6BF26" fill-rule="nonzero" cx="135.875882" cy="111.342736" r="5.66149506"></circle>
                    <circle id="Oval" fill="#A6BF26" fill-rule="nonzero" cx="150.029619" cy="111.342736" r="5.66149506"></circle>
                    <circle id="Oval" fill="#A6BF26" fill-rule="nonzero" cx="165.126939" cy="111.342736" r="5.66149506"></circle>
                    <rect id="Rectangle" fill="#000000" fill-rule="nonzero" opacity="0.1" x="122.665726" y="119.834979" width="468.960508" height="1.88716502"></rect>
                    <path d="M76.6829942,468.797107 C75.0588464,469.6644 73.3722314,470.407794 71.5606819,470.96534 C68.3748535,471.832633 65.0016235,471.522885 61.8157951,472.266279 C60.5039834,472.576027 59.0672372,473.195522 58.6299667,474.434512 C58.3176305,475.363755 58.6299667,476.354947 59.00477,477.284189 C62.5654017,487.567807 64.6892873,498.532869 70.3113374,507.825295 C72.6850919,511.728114 75.6210514,515.259236 79.0567487,518.356711 C80.3685604,519.533751 81.8053066,520.648843 83.4919216,520.834691 C85.9906105,521.082489 88.1769634,519.285953 88.4892995,516.869923 C88.5517667,516.064579 88.4268323,515.259236 88.1144961,514.577791 C87.6147584,513.4627 86.67775,512.595407 86.0530778,511.542265 C85.3659383,510.179376 84.991135,508.692588 84.9286677,507.2058 C84.3664627,502.807385 83.8042577,498.223122 85.3659383,494.010556 C86.4278811,491.222828 88.3018978,488.806797 89.8635784,486.328817 C91.425259,483.850837 92.7370707,480.877261 92.4247346,477.965634 C92.1748657,475.9213 91.1753901,474.124765 90.1759145,472.328229 C89.1139717,470.593643 87.0525533,465.88548 84.9286677,465.265985 C82.7423149,464.64649 78.6194782,467.805915 76.6829942,468.797107 Z" id="Path" fill="#2F2E41" fill-rule="nonzero"></path>
                    <path d="M134.433878,504.018063 C134.495952,505.022236 134.30973,506.026409 133.99936,506.96782 C133.316545,508.725123 131.702619,509.917578 130.895657,511.612119 C129.716249,513.934268 130.274916,516.758504 131.019805,519.206175 C131.516397,520.775195 132.137138,522.406975 133.440693,523.348387 C134.558026,524.038756 135.799508,524.478081 137.165137,524.540842 C148.338468,526.109862 159.760096,525.231211 171.057575,525.545015 C173.106019,525.607776 175.278611,525.670537 177.078759,524.666364 C178.878907,523.662191 179.99624,521.088999 178.754759,519.394457 C177.637426,517.888198 175.464834,517.888198 173.664686,517.825437 C168.822909,517.574394 164.291502,515.691571 160.691207,512.428009 C160.008392,511.800401 159.387651,511.110033 158.891059,510.294142 C158.518615,509.603774 158.208244,508.850644 157.959948,508.097515 C156.346022,503.76702 154.4838,499.562047 152.311208,495.482595 C151.690468,494.352901 151.007653,493.160446 149.89032,492.532838 C149.083357,492.156273 148.152246,491.967991 147.283209,491.967991 C144.489876,491.779709 137.165137,490.838297 134.992545,493.034925 C132.882027,495.106031 134.433878,501.444871 134.433878,504.018063 Z" id="Path" fill="#2F2E41" fill-rule="nonzero"></path>
                    <ellipse id="Oval" fill="#FBBEBE" fill-rule="nonzero" transform="translate(151.732228, 235.293305) rotate(-85.935011) translate(-151.732228, -235.293305) " cx="151.732228" cy="235.293305" rx="18.1148447" ry="18.1113583"></ellipse>
                    <path d="M135.659399,250.023709 C134.61934,252.90862 132.845123,255.605384 130.214386,257.173271 L154.747532,262.315938 C153.829833,258.678442 153.768653,254.852799 154.380452,251.089872 C154.625172,250.211855 154.686352,249.271124 154.502812,248.330392 C154.013373,246.511644 152.055616,245.633627 150.220218,245.194619 C145.754084,244.128456 141.77739,243.564017 137.617156,241.557123 C136.393558,243.877595 136.577097,247.452375 135.659399,250.023709 Z" id="Path" fill="#FBBEBE" fill-rule="nonzero"></path>
                    <path d="M129.400724,251.791719 C134.851164,249.31252 141.178687,249.49846 146.50383,252.225579 C149.698916,253.899039 152.392812,256.440218 155.024059,258.919418 C157.46736,261.212677 160.035959,263.877816 160.161256,267.162756 C160.223905,268.774235 159.722715,270.323735 159.47212,271.935215 C158.532389,278.691033 161.97807,285.260912 168.117647,288.359911 C170.122406,291.64485 170.498299,295.611569 170.560948,299.454329 C170.686245,313.957645 166.050238,328.708882 169.370622,342.840319 C170.122406,346.187238 171.375381,349.410198 172.001869,352.757117 C172.878951,357.095716 172.816302,361.558275 173.254844,365.958854 C173.756034,370.731313 174.821062,375.379812 176.449929,379.904351 C175.384901,381.639791 173.066897,382.259591 171.062138,382.135631 C169.057378,382.011671 167.115267,381.143951 165.298453,380.214251 C156.464981,375.751692 148.320644,369.801613 139.173927,366.020834 C133.096999,363.479655 126.644179,361.930155 120.755197,359.017096 C114.866215,356.104036 109.415775,351.517517 107.598961,345.257539 C106.847176,342.530419 106.784527,339.67934 106.721879,336.89024 C106.533932,325.052063 106.345986,313.089926 108.977233,301.499668 C111.295237,291.27297 115.680649,281.542113 116.683029,271.129475 C116.996273,267.720576 116.996273,264.125736 118.938384,261.274657 C121.63228,257.245958 127.458613,256.254278 129.400724,251.791719 Z" id="Path" fill="#2F2E41" fill-rule="nonzero"></path>
                    <path d="M141.702321,235.467064 C142.780545,234.078641 144.873569,233.88931 146.586042,234.267971 C148.298516,234.646632 149.88414,235.593284 151.660039,235.908835 C152.484563,236.161276 153.309088,236.035056 154.006762,235.593284 C154.641012,235.025293 154.958136,234.204861 155.021561,233.321319 C155.655811,229.72404 155.782661,226.000541 155.465536,222.340151 C155.402111,221.83527 155.402111,221.330389 155.592386,220.825508 C156.036361,219.815745 157.368285,219.563305 158.446509,219.184644 C162.125156,217.985551 164.47188,214.388272 164.154755,210.601662 C164.154755,209.71812 163.774205,208.834578 163.076531,208.266587 C162.315431,207.635485 161.300632,207.635485 160.349257,207.635485 C155.402111,207.572375 150.454965,207.572375 145.507818,207.635485 C143.668494,207.635485 141.765746,207.698595 140.180122,208.582137 C139.038473,209.276349 138.150523,210.349222 137.072299,211.169654 C134.345026,213.378509 130.602954,213.82028 127.304856,214.956263 C125.655807,215.398034 124.197033,216.281576 122.991959,217.480669 C121.85031,218.742873 121.34291,220.636177 122.040585,222.150821 C122.421135,222.781923 122.801684,223.413024 123.245659,223.981016 C125.211833,227.136523 123.879909,231.175573 124.197033,234.835963 C124.577583,239.443004 131.427478,246.890002 136.0575,247.962875 C143.541645,249.79307 139.228748,238.496352 141.702321,235.467064 Z" id="Path" fill="#2F2E41" fill-rule="nonzero"></path>
                    <path d="M130.056192,435.717292 C130.497679,439.041684 131.128374,442.4288 130.939165,445.753191 C130.686887,450.457518 128.98401,454.973673 128.668662,459.678 C128.416384,463.190565 128.98401,466.703129 128.479454,470.215694 C128.164106,472.473771 127.407272,474.606399 126.965785,476.801752 C125.515186,484.077779 127.091924,491.604703 131.380652,497.688966 C131.696,498.190761 132.137486,498.629832 132.642042,498.943453 C133.146599,499.131626 133.714224,499.194351 134.21878,499.131626 C139.51662,499.006178 144.81446,498.567107 150.1123,497.688966 C150.490717,497.688966 150.869134,497.500793 151.121412,497.249895 C151.247551,497.061722 151.310621,496.873549 151.37369,496.622652 C152.319733,491.667427 150.1123,486.649478 149.544674,481.631528 C148.913979,476.237233 150.238439,470.842937 151.499829,465.574091 C152.067455,463.002392 152.824289,460.430693 153.707263,457.921718 C154.337958,456.22816 155.094792,454.597327 155.599348,452.841044 C156.356183,450.143897 156.860739,447.384025 156.986878,444.561428 C157.365295,440.107998 157.554504,435.717292 157.554504,431.263862 C157.680643,427.06133 157.302225,422.858797 156.482322,418.718989 C155.284001,413.512867 152.887359,408.620366 150.490717,403.853315 C149.229327,404.166936 147.967936,404.731456 146.958824,405.546872 C143.868417,407.554052 140.651872,409.310334 137.246117,410.878444 C134.975615,411.944758 130.623818,412.634726 129.173219,414.830079 C127.785689,416.962707 128.668662,421.353413 128.794802,423.674214 C129.110149,427.688574 129.488566,431.702933 130.056192,435.717292 Z" id="Path" fill="#2F2E41" fill-rule="nonzero"></path>
                    <path d="M130.056192,435.717292 C130.497679,439.041684 131.128374,442.4288 130.939165,445.753191 C130.686887,450.457518 128.98401,454.973673 128.668662,459.678 C128.416384,463.190565 128.98401,466.703129 128.479454,470.215694 C128.164106,472.473771 127.407272,474.606399 126.965785,476.801752 C125.515186,484.077779 127.091924,491.604703 131.380652,497.688966 C131.696,498.190761 132.137486,498.629832 132.642042,498.943453 C133.146599,499.131626 133.714224,499.194351 134.21878,499.131626 C139.51662,499.006178 144.81446,498.567107 150.1123,497.688966 C150.490717,497.688966 150.869134,497.500793 151.121412,497.249895 C151.247551,497.061722 151.310621,496.873549 151.37369,496.622652 C152.319733,491.667427 150.1123,486.649478 149.544674,481.631528 C148.913979,476.237233 150.238439,470.842937 151.499829,465.574091 C152.067455,463.002392 152.824289,460.430693 153.707263,457.921718 C154.337958,456.22816 155.094792,454.597327 155.599348,452.841044 C156.356183,450.143897 156.860739,447.384025 156.986878,444.561428 C157.365295,440.107998 157.554504,435.717292 157.554504,431.263862 C157.680643,427.06133 157.302225,422.858797 156.482322,418.718989 C155.284001,413.512867 152.887359,408.620366 150.490717,403.853315 C149.229327,404.166936 147.967936,404.731456 146.958824,405.546872 C143.868417,407.554052 140.651872,409.310334 137.246117,410.878444 C134.975615,411.944758 130.623818,412.634726 129.173219,414.830079 C127.785689,416.962707 128.668662,421.353413 128.794802,423.674214 C129.110149,427.688574 129.488566,431.702933 130.056192,435.717292 Z" id="Path" fill="#000000" fill-rule="nonzero" opacity="0.1"></path>
                    <path d="M107.536872,364.222849 C105.177859,370.750697 108.654299,377.780687 111.696184,383.994697 C119.207778,399.310033 124.422439,415.629653 129.637099,431.886505 C130.009575,433.079093 130.44413,434.459984 130.009575,435.652572 C129.637099,436.53132 129.016306,437.221766 128.271355,437.723908 C124.670756,440.48569 120.138968,441.427207 115.855497,442.870865 C111.758264,444.251756 107.785189,446.134789 104.122511,448.457197 C101.018546,450.402998 98.1628991,452.59987 95.2451725,454.859509 L86.0574376,461.952267 C85.4366447,462.328874 84.9400104,462.893784 84.5054554,463.458694 C83.6363453,464.839585 84.0088211,466.722618 84.4433761,468.291812 C85.6228826,472.560021 87.1127856,476.702693 88.9751642,480.719831 C89.2855607,481.59858 89.8442743,482.351793 90.5892258,482.853935 C92.0170494,483.607148 93.7552695,482.602864 94.8726968,481.410276 C95.990124,480.217689 96.9213133,478.648494 98.4732956,478.146352 C100.025278,477.64421 101.701419,478.271888 103.31548,478.020817 C105.92281,477.64421 107.66103,475.196267 109.523409,473.376002 C117.221241,465.781101 130.009575,466.283244 138.452358,459.567092 C139.693944,458.437272 140.93553,457.432988 142.301274,456.491471 C143.729098,455.612723 145.343159,455.173348 146.833062,454.420135 C151.36485,452.097727 154.158418,447.390145 155.710401,442.494259 C157.262383,437.598373 157.634859,432.514183 158.752286,427.492762 C159.310999,424.919283 160.055951,422.345804 160.304268,419.772326 C160.490506,417.324383 160.428427,414.87644 160.11803,412.428497 L157.076145,374.32846 C156.827828,371.252839 156.579511,368.114451 156.082876,365.03883 C147.0193,365.352669 138.017803,365.729276 128.954227,365.854811 C121.69095,366.043114 114.365594,366.545257 107.536872,364.222849 Z" id="Path" fill="#2F2E41" fill-rule="nonzero"></path>
                    <path d="M102.780904,373.045409 C104.02788,374.983634 107.020624,374.923064 109.078135,373.893383 C111.135646,372.863701 112.756715,371.046615 114.814226,370.016934 C117.619923,368.623835 120.862062,368.684404 124.041851,368.744974 C129.029757,368.866113 134.017663,369.047821 138.818522,370.319781 C143.744078,371.71288 148.544937,374.317369 153.657541,373.772243 C154.530424,373.651104 155.528005,373.408826 156.026796,372.681992 C156.33854,372.136867 156.463238,371.531171 156.400889,370.986046 L156.587935,366.625041 C156.712633,365.898207 156.587935,365.110803 156.213842,364.444538 C155.7774,363.899413 155.216261,363.414857 154.530424,363.172579 C147.235612,359.780686 138.943219,359.114421 130.900222,358.872143 C126.785199,358.751004 122.670177,358.690435 118.555155,358.690435 C115.063621,358.690435 110.886251,358.205878 107.519414,359.114421 C102.96795,360.386381 100.473998,369.471808 102.780904,373.045409 Z" id="Path" fill="#2F2E41" fill-rule="nonzero"></path>
                    <path d="M149.607315,255.53415 C140.035835,255.473036 131.402735,249.300582 121.831255,249.117242 C120.705199,249.056128 119.516584,249.239468 118.453086,249.667262 C117.139353,250.33951 116.263532,251.561778 115.262593,252.661819 C112.447451,255.656376 108.318578,257.245325 105.440878,260.178769 C102.688295,262.928872 101.186887,266.962357 102.250385,270.690275 C103.313882,274.418193 107.380197,277.168297 111.196278,276.312709 C112.697686,271.48475 115.88818,267.267924 120.142171,264.395594 C122.394284,262.989986 124.708955,261.828831 127.148744,260.789903 C131.465294,258.895387 136.219755,256.939758 140.72398,258.345367 C142.350506,258.956501 143.914474,259.812088 145.353324,260.789903 L152.860367,265.678976 C151.984545,262.378852 151.233841,258.650934 149.607315,255.53415 Z" id="Path" fill="#A6BF26" fill-rule="nonzero"></path>
                    <path d="M109.612173,274.183593 C108.363395,275.737227 110.174124,278.036606 109.861929,280.025258 C109.674612,281.33031 108.550712,282.386782 108.113639,283.629689 C107.614128,284.934742 107.863884,286.364085 107.739006,287.731283 C107.551689,288.725609 107.301934,289.719935 106.9273,290.652116 C106.115594,293.510802 105.553644,296.431635 105.241449,299.352467 L103.555599,311.78154 C103.243404,313.645901 103.118526,315.510263 103.056087,317.436769 C103.118526,318.866112 103.056087,320.295456 102.743893,321.662654 C102.369259,323.029852 101.557553,324.210614 100.995603,325.515667 C100.433653,326.820719 100.183897,328.374354 100.933164,329.555116 C98.4356074,331.605913 97.6863404,335.707507 99.4346301,338.379758 C99.7468247,338.814775 99.9965803,339.249793 100.183897,339.809101 C100.308775,340.4927 100.183897,341.238445 99.8717025,341.859898 L98.1858518,346.334365 C97.7487793,347.452981 97.6239015,349.255197 98.8102409,349.503778 C97.8112183,350.56025 97.0619513,351.741012 96.500001,353.10821 C96.0004897,354.475408 96.2502454,355.966897 97.1243902,357.147659 C97.5614626,357.520531 97.8736572,357.955548 98.1858518,358.452711 C98.3731685,359.13631 98.3107296,359.819909 98.0609739,360.441363 C97.5614626,362.430015 97.8736572,364.542957 98.9975577,366.220882 C100.121458,367.960953 102.181942,368.830988 104.242427,368.458115 C107.614128,367.712371 110.673635,366.531609 114.045336,367.153063 C121.35069,368.520261 128.718482,369.825314 135.836518,372.124692 C143.953577,374.672652 151.820881,378.46352 160.250134,379.271409 C160.812085,379.3957 161.374035,379.271409 161.873546,379.022828 C162.310619,378.58781 162.560374,378.090647 162.622813,377.469194 C163.496958,373.367599 164.371103,369.328151 165.245248,365.226556 C166.306709,360.689945 167.118415,356.153333 167.680365,351.554576 C167.99256,348.571598 168.054999,345.58862 168.117438,342.605643 L168.804266,318.866112 C169.116461,315.385972 168.679388,311.843686 167.43061,308.549981 L163.559397,296.245199 C161.374035,289.222772 156.254044,282.94609 154.443315,275.799373 C153.319415,271.262761 152.44527,266.415422 149.385763,262.873136 C145.015039,257.839362 137.45993,257.031472 130.778966,257.901507 C127.781898,258.274379 124.78483,258.957978 122.162396,260.511612 C119.165328,262.313828 116.979966,265.11037 114.794603,267.844766 C113.233631,270.081999 111.422902,271.94636 109.612173,274.183593 Z" id="Path" fill="#A6BF26" fill-rule="nonzero"></path>
                    <path d="M125.161885,344.805635 C125.729478,347.197173 126.864664,349.399906 127.558388,351.72851 C128.75664,355.630494 128.630508,359.847154 129.82876,363.749137 C130.333287,365.385453 131.027012,366.958834 131.405407,368.658085 C132.225263,372.560069 131.027012,376.587923 129.513431,380.301102 C127.999849,384.01428 126.170939,387.664523 125.666412,391.629442 C125.351082,394.398592 125.792544,397.608288 127.999849,399.370475 C130.270221,401.258531 133.486581,401.132661 136.387612,400.88092 C137.459732,400.88092 138.468786,400.629179 139.414774,400.251568 C141.62208,399.181669 142.568068,396.53839 143.135661,394.146851 C144.901506,386.091142 144.396979,377.720757 143.892451,369.476243 L142.568068,347.952396 C142.315804,343.798671 142.063541,339.582011 140.739157,335.617092 C140.297696,334.169582 139.47784,331.211626 138.153456,330.330533 C136.829073,329.386505 133.108186,329.386505 131.468473,329.32357 C123.837501,328.883023 123.963633,339.519076 125.161885,344.805635 Z" id="Path" fill="#FBBEBE" fill-rule="nonzero"></path>
                    <path d="M133.326584,264.657196 C131.742811,263.836611 129.778934,264.215343 128.258512,265.09905 C126.801442,266.109001 125.534424,267.308318 124.457459,268.760123 C121.099862,272.863049 117.488861,277.597194 117.995668,282.899437 C118.185721,284.856217 118.945932,286.749875 119.452739,288.706656 C121.733371,297.164996 119.199335,306.065189 119.51609,314.839139 C119.706142,319.888894 120.783107,324.875527 121.860072,329.799039 C122.113476,330.80899 122.43023,331.945185 123.443845,332.323916 C124.204055,332.576404 124.964266,332.260794 125.724477,331.945185 C131.236004,329.925283 137.381041,330.682746 142.195708,334.028209 C144.032884,333.08138 143.336024,329.988405 142.892568,328.031624 C141.688901,322.03504 143.336024,315.912212 145.299902,310.168115 C147.26378,304.424019 149.671114,298.679922 149.987868,292.557094 C150.367973,285.676802 148.087341,278.922755 145.806709,272.421195 C145.299902,270.96939 144.793095,269.517586 143.652779,268.507635 C142.702516,267.750171 141.562199,267.245196 140.358533,266.992708 C138.01455,266.235245 135.607216,265.856513 133.326584,264.657196 Z" id="Path" fill="#2F2E41" fill-rule="nonzero"></path>
                    <g id="icon" transform="translate(235.000000, 245.000000)">
                        <ellipse id="Oval" fill="#2F2E41" fill-rule="nonzero" cx="59.5" cy="88" rx="59.5" ry="10"></ellipse>
                        <path d="M23,38 L23,95.8918919 C33.0468521,97.1891892 45.7122987,98 59.5,98 C73.2877013,98 85.9531479,97.1891892 96,95.8918919 L96,38 L23,38 Z" id="Path" fill="#878696" fill-rule="nonzero"></path>
                        <g id="Group" transform="translate(39.000000, 46.000000)" stroke="#3F3D56" stroke-width="6.7996">
                            <ellipse id="Oval" fill-opacity="0.6" fill="#3F3D56" fill-rule="nonzero" cx="7.97468354" cy="8.05333333" rx="7.6556962" ry="7.68"></ellipse>
                            <ellipse id="Oval" fill-opacity="0.6" fill="#3F3D56" fill-rule="nonzero" cx="33.9189873" cy="8.05333333" rx="7.6556962" ry="7.68"></ellipse>
                            <path d="M15.2582278,8.05333333 L26.635443,8.05333333" id="Path"></path>
                        </g>
                        <path d="M52,80 L52.8211679,81.0549451 C56.4890511,84.981685 62.4562044,84.981685 66.1788321,81.0549451 C66.5072993,80.7032967 66.7810219,80.3516484 67,80 C65.3029197,81.6410256 62.5656934,82.7545788 59.5,82.7545788 C56.4343066,82.7545788 53.6970803,81.6996337 52,80 L52,80 Z" id="Path" fill="#3F3D56" fill-rule="nonzero"></path>
                        <path d="M66.223923,68.5716273 L62.8619615,65.3477051 C60.9880813,63.550765 57.9568046,63.550765 56.1380385,65.3477051 L52.776077,68.5716273 C50.4612838,70.7913769 49.5794579,73.9095967 50.1857132,76.7635605 C50.4612838,78.0848401 51.0675392,79.3532684 51.9493651,80.5159944 C53.657903,81.9958275 56.4136091,83 59.5,83 C62.641505,83 65.3972112,82.0486787 67.0506349,80.5159944 C67.9324608,79.4061196 68.5387162,78.0848401 68.8142868,76.7635605 C69.4205421,73.8567455 68.5387162,70.7913769 66.223923,68.5716273 Z" id="Path" fill="#FFFFFF" fill-rule="nonzero" opacity="0.5"></path>
                        <path d="M56.1748252,79.8251748 C54.6083916,78.2587413 54.6083916,75.7412587 56.1748252,74.1748252 C57.7412587,72.6083916 60.2587413,72.6083916 61.8251748,74.1748252 C63.3916084,75.7412587 63.3916084,78.2587413 61.8251748,79.8251748 C60.2587413,81.3916084 57.7412587,81.3916084 56.1748252,79.8251748 Z" id="Path" fill="#3F3D56" fill-rule="nonzero"></path>
                        <g id="Group" transform="translate(16.000000, 0.000000)" fill-rule="nonzero">
                            <path d="M84.4509317,36.4890411 L79.9639752,36.4890411 C79.8037267,26.2315068 74.2484472,17.1493151 65.7018634,11.3794521 C63.778882,10.0438356 61.6956522,8.92191781 59.5055901,7.96027397 L59.5055901,26.1780822 C59.5055901,27.0328767 58.8111801,27.6739726 58.0099379,27.6739726 C57.2086957,27.6739726 56.5142857,26.9794521 56.5142857,26.1780822 L56.5142857,6.78493151 C54.5913043,6.14383562 52.5614907,5.60958904 50.531677,5.2890411 L50.531677,13.3561644 C50.531677,15.8136986 48.5018634,17.8438356 46.0447205,17.8438356 L41.0770186,17.8438356 C38.6198758,17.8438356 36.5900621,15.8136986 36.5900621,13.3561644 L36.5900621,5.2890411 C34.5068323,5.6630137 32.5304348,6.14383562 30.6074534,6.78493151 L30.6074534,26.1780822 C30.6074534,27.0328767 29.9130435,27.6739726 29.1118012,27.6739726 C28.2571429,27.6739726 27.6161491,26.9794521 27.6161491,26.1780822 L27.6161491,7.96027397 C25.426087,8.92191781 23.3428571,10.0438356 21.4198758,11.3794521 C12.8732919,17.2027397 7.31801242,26.2849315 7.15776398,36.4890411 L1.49565217,36.4890411 C0.801242236,36.4890411 0.267080745,37.0232877 0.267080745,37.7178082 C0.267080745,38.4123288 0.801242236,38.9465753 1.49565217,38.9465753 L84.4509317,38.9465753 C85.1453416,38.9465753 85.6795031,38.4123288 85.6795031,37.7178082 C85.6795031,37.0232877 85.0919255,36.4890411 84.4509317,36.4890411 L84.4509317,36.4890411 Z" id="Path" fill="#A6BF26"></path>
                            <path d="M45.9913043,0 C47.1130435,0 48.0745342,0.908219178 48.0745342,2.08356164 L48.0745342,13.3561644 C48.0745342,14.4780822 47.1664596,15.439726 45.9913043,15.439726 L41.0236025,15.439726 C39.9018634,15.439726 38.9403727,14.5315068 38.9403727,13.3561644 L38.9403727,2.08356164 C38.9403727,0.961643836 39.8484472,0 41.0236025,0 L45.9913043,0" id="Path" fill="#FFB500"></path>
                        </g>
                    </g>
                </g>
            </g>
        </g>
    </g>
</svg>