<?xml version="1.0" encoding="UTF-8" standalone="no"?>
<svg
   xmlns:dc="http://purl.org/dc/elements/1.1/"
   xmlns:cc="http://creativecommons.org/ns#"
   xmlns:rdf="http://www.w3.org/1999/02/22-rdf-syntax-ns#"
   xmlns:svg="http://www.w3.org/2000/svg"
   xmlns="http://www.w3.org/2000/svg"
   xmlns:sodipodi="http://sodipodi.sourceforge.net/DTD/sodipodi-0.dtd"
   xmlns:inkscape="http://www.inkscape.org/namespaces/inkscape"
   version="1.1"
   x="0px"
   y="0px"
   viewBox="0 0 450 430"
   xml:space="preserve"
   id="svg12"
   sodipodi:docname="code.svg"
   inkscape:version="0.92.1 r15371"
   width="450"
   height="430"><metadata
     id="metadata18"><rdf:RDF><cc:Work
         rdf:about=""><dc:format>image/svg+xml</dc:format><dc:type
           rdf:resource="http://purl.org/dc/dcmitype/StillImage" /><dc:title></dc:title></cc:Work></rdf:RDF></metadata><defs
     id="defs16" /><sodipodi:namedview
     pagecolor="#ffffff"
     bordercolor="#666666"
     borderopacity="1"
     objecttolerance="10"
     gridtolerance="10"
     guidetolerance="10"
     inkscape:pageopacity="0"
     inkscape:pageshadow="2"
     inkscape:window-width="1859"
     inkscape:window-height="1176"
     id="namedview14"
     showgrid="false"
     inkscape:zoom="1.19198"
     inkscape:cx="-115.69108"
     inkscape:cy="76.126521"
     inkscape:window-x="61"
     inkscape:window-y="24"
     inkscape:window-maximized="1"
     inkscape:current-layer="g4622" /><g
     id="g4622"
     transform="translate(0,374)"><g
       id="g4492"
       transform="translate(-4.535091,-17.964919)"><path
         inkscape:connector-curvature="0"
         id="wheel2"
         d="m 266.46318,-143.36437 c -5.98948,-2.83712 -10.08755,-8.8266 -10.08755,-15.76178 0,-6.61996 3.78284,-12.92465 10.08755,-15.76178 1.26095,-0.63047 1.89142,-2.20666 1.57618,-3.46759 -1.26094,-4.09807 -2.83712,-8.19613 -5.04377,-12.2942 -0.63048,-1.26095 -2.20665,-1.89141 -3.46759,-1.26095 -6.30471,2.20666 -13.23991,0.63048 -17.96845,-4.09806 -4.72852,-4.72853 -6.30469,-11.97895 -4.09804,-18.28366 0.63046,-1.26095 0,-2.83712 -1.26096,-3.46759 -3.78283,-1.57618 -7.88089,-3.4676 -12.29418,-4.72854 -1.26094,-0.31527 -2.83712,0.31528 -3.4676,1.57617 -2.83712,5.98948 -8.82659,10.08754 -15.44654,10.08754 -6.61995,0 -12.60942,-3.78282 -15.44655,-10.08754 -0.63047,-1.26094 -2.20666,-1.8914 -3.4676,-1.57617 -4.09806,1.26094 -8.19613,2.83713 -11.97895,5.04377 -1.57618,0.94571 -1.89141,2.20665 -1.57618,3.78283 2.20665,6.30471 0.63047,13.55513 -4.09807,18.28366 -4.72852,4.72854 -11.66371,6.30472 -17.96843,4.09807 -1.26094,-0.63048 -2.83712,0 -3.46759,1.26094 -1.89141,3.4676 -3.78283,7.56566 -5.04377,11.97896 -0.31521,1.26095 0.31528,2.83712 1.57619,3.46759 5.98947,2.83712 10.08754,8.82659 10.08754,15.76179 0,6.61994 -3.78284,12.92466 -10.08754,15.76177 -1.26096,0.63047 -1.89142,2.20665 -1.57619,3.4676 1.26094,4.09806 2.83712,8.19613 5.04377,12.29419 0.63047,1.26094 2.20665,1.89141 3.46759,1.26094 6.30472,-2.20665 13.23991,-0.63047 17.96843,4.09806 4.72854,4.72854 6.30472,11.97896 4.09807,18.28368 -0.63048,1.26093 0,2.83712 1.26095,3.46758 3.78283,2.206654 7.88088,3.782831 11.97895,5.043777 0.31521,0 0.63047,0 0.9457,0 0.94572,0 2.20666,-0.630473 2.52189,-1.576184 2.83712,-5.989463 8.82659,-10.087533 15.44654,-10.087533 6.61996,0 12.60944,3.78283 15.44655,10.087533 0.63047,1.260951 2.20665,1.891417 3.46759,1.576184 4.09807,-1.260946 8.19614,-2.837123 11.97896,-5.043777 1.26095,-0.63046 1.89143,-2.20665 1.26095,-3.46758 -2.20665,-6.30472 -0.63048,-13.55514 4.09805,-18.28368 4.72854,-4.72853 11.66373,-6.30471 17.96845,-4.09806 1.26094,0.63047 2.83711,0 3.4676,-1.26094 2.20664,-3.78284 3.78282,-7.88089 5.04376,-12.29419 0.94571,-1.57618 0.31521,-3.15236 -0.94571,-3.78283 z m -61.47095,14.50084 c -16.7075,0 -30.26263,-13.55514 -30.26263,-30.26262 0,-16.70749 13.55513,-30.26263 30.26263,-30.26263 16.70749,0 30.26263,13.55514 30.26263,30.26263 0,16.70748 -13.55514,30.26262 -30.26263,30.26262 z"
         style="fill:#a6bf26;fill-opacity:1;stroke:none;stroke-width:3.15235639;stroke-opacity:1"
         inkscape:label="#path2" /><path
         inkscape:connector-curvature="0"
         id="wheel3"
         d="m 311.85712,-88.198124 c 0,-5.043779 2.52188,-9.457079 6.61995,-11.978966 -0.63048,-1.89141 -1.57618,-4.09806 -2.83712,-5.98948 -1.26095,-1.89141 -2.52188,-3.78282 -3.78283,-5.359 -4.09807,2.20665 -9.45708,2.20665 -13.55513,-0.31521 -4.4133,-2.52189 -6.9352,-6.93519 -7.25042,-11.66372 -4.09807,-0.63048 -8.51137,-0.94571 -12.92467,0 -0.31527,4.72853 -2.83712,9.14183 -7.25042,11.66372 -4.4133,2.52188 -9.45706,2.52188 -13.55513,0.31521 -2.83713,3.46759 -5.04377,7.25042 -6.61995,11.34848 3.78282,2.521887 6.61995,6.935187 6.61995,11.978966 0,5.043766 -2.52188,9.457065 -6.61995,11.978949 0.63047,1.891417 1.57618,4.098067 2.83712,5.989477 1.26095,1.891411 2.52188,3.782828 3.78283,5.359012 4.09807,-2.20665 9.45707,-2.20665 13.55513,0.315215 4.4133,2.52189 6.93518,6.935182 7.25042,11.663722 4.09807,0.630472 8.51136,0.945705 12.92467,0 0.31521,-4.72854 2.83712,-9.141832 7.25042,-11.663722 4.41329,-2.521883 9.45706,-2.521883 13.55513,-0.315215 2.83711,-3.467601 5.04377,-7.250422 6.61995,-11.348489 -3.78284,-2.521884 -6.61995,-6.935183 -6.61995,-11.978949 z m -21.75126,13.239893 c -7.25042,3.152356 -15.76178,-0.315275 -18.59891,-7.880894 -3.15235,-7.250416 0.31522,-15.761785 7.88089,-18.914135 7.25042,-3.15236 15.76179,0.31522 18.5989,7.880885 2.83713,7.250423 -0.63047,15.761789 -7.88088,18.914144 z"
         style="fill:#a6bf26;fill-opacity:1;stroke:none;stroke-width:3.15235639;stroke-opacity:1"
         inkscape:label="#path4" /><path
         d="m 278.13798,-253.81864 c 0,-5.04377 2.52188,-9.45706 6.61995,-11.97895 -0.63048,-1.89141 -1.57619,-4.09807 -2.83713,-5.98948 -1.26094,-1.89141 -2.52189,-3.78282 -3.78282,-5.35901 -4.09806,2.20666 -9.45708,2.20666 -13.55514,-0.31524 -4.41329,-2.5219 -6.93519,-6.93519 -7.25042,-11.66372 -4.09806,-0.63048 -8.51137,-0.94572 -12.92467,0 -0.31521,4.72853 -2.83712,9.14182 -7.25041,11.66372 -4.41331,2.52188 -9.45707,2.52188 -13.55513,0.31524 -2.83713,3.4676 -5.04377,7.25042 -6.61996,11.34849 3.78283,2.52189 6.61996,6.93519 6.61996,11.97895 0,5.04377 -2.52189,9.45707 -6.61996,11.97897 0.63048,1.89141 1.57619,4.09804 2.83713,5.98947 1.26094,1.89141 2.52188,3.78283 3.78283,5.35901 4.09806,-2.20665 9.45706,-2.20665 13.55513,0.31527 4.41329,2.52189 6.93517,6.93518 7.25041,11.66372 4.09808,0.63047 8.51137,0.94571 12.92467,0 0.31521,-4.72854 2.83713,-9.14183 7.25042,-11.66372 4.41329,-2.52189 9.45708,-2.52189 13.55514,-0.31527 2.83712,-3.4676 5.04376,-7.25044 6.61995,-11.34848 -3.78283,-2.5219 -6.61995,-6.9352 -6.61995,-11.97897 z m -21.75127,13.2399 c -7.25042,3.15236 -15.76178,-0.31527 -18.5989,-7.8809 -3.15235,-7.25041 0.31528,-15.76177 7.88089,-18.91413 7.25042,-3.15236 15.76179,0.31525 18.5989,7.88089 2.83712,7.25042 -0.63047,15.76179 -7.88089,18.91414 z"
         id="wheel1"
         inkscape:connector-curvature="0"
         style="fill:#a6bf26;fill-opacity:1;stroke:none;stroke-width:3.15235639;stroke-opacity:1"
         inkscape:label="#path4546" /><path
         style="fill:#a6bf26;fill-opacity:1;fill-rule:evenodd;stroke:none;stroke-width:4.27975893px;stroke-linecap:butt;stroke-linejoin:miter;stroke-opacity:1"
         d="m 84.371626,-271.03882 20.628084,18.72395 -51.094165,50.30077 51.094165,51.88753 -18.406598,18.40658 -67.91397,-70.29411 z"
         id="path4583"
         inkscape:connector-curvature="0"
         sodipodi:nodetypes="ccccccc" /><path
         sodipodi:nodetypes="ccccccc"
         inkscape:connector-curvature="0"
         id="path4592"
         d="m 374.69855,-131.66709 -20.62807,18.72394 51.09416,50.300771 -51.09416,51.887541 18.40658,18.4065883 67.91398,-70.2941293 z"
         style="fill:#a6bf26;fill-opacity:1;fill-rule:evenodd;stroke:none;stroke-width:4.27975893px;stroke-linecap:butt;stroke-linejoin:miter;stroke-opacity:1" /></g></g></svg>