<?xml version="1.0" encoding="UTF-8" standalone="no"?>
<svg
   xmlns:dc="http://purl.org/dc/elements/1.1/"
   xmlns:cc="http://creativecommons.org/ns#"
   xmlns:rdf="http://www.w3.org/1999/02/22-rdf-syntax-ns#"
   xmlns:svg="http://www.w3.org/2000/svg"
   xmlns="http://www.w3.org/2000/svg"
   xmlns:sodipodi="http://sodipodi.sourceforge.net/DTD/sodipodi-0.dtd"
   xmlns:inkscape="http://www.inkscape.org/namespaces/inkscape"
   version="1.1"
   x="0px"
   y="0px"
   viewBox="0 0 421.71191 251.42703"
   xml:space="preserve"
   id="svg12"
   width="421.71191"
   height="251.42703"
   inkscape:version="0.91 r13725"
   sodipodi:docname="code.svg"><sodipodi:namedview
     pagecolor="#ffffff"
     bordercolor="#666666"
     borderopacity="1"
     objecttolerance="10"
     gridtolerance="10"
     guidetolerance="10"
     inkscape:pageopacity="0"
     inkscape:pageshadow="2"
     inkscape:window-width="1855"
     inkscape:window-height="1056"
     id="namedview4147"
     showgrid="false"
     inkscape:zoom="2.0406086"
     inkscape:cx="248.20876"
     inkscape:cy="97.96726"
     inkscape:window-x="65"
     inkscape:window-y="24"
     inkscape:window-maximized="1"
     inkscape:current-layer="svg12"
     fit-margin-top="0"
     fit-margin-left="0"
     fit-margin-right="0"
     fit-margin-bottom="0" /><metadata
     id="metadata18"><rdf:RDF><cc:Work
         rdf:about=""><dc:format>image/svg+xml</dc:format><dc:type
           rdf:resource="http://purl.org/dc/dcmitype/StillImage" /><dc:title></dc:title></cc:Work></rdf:RDF></metadata><defs
     id="defs16" /><path
     inkscape:connector-curvature="0"
     id="wheel2"
     d="m 247.78404,152.01438 c -5.98948,-2.80907 -10.08755,-8.73932 -10.08755,-15.60592 0,-6.55449 3.78284,-12.79684 10.08755,-15.60591 1.26095,-0.62424 1.89142,-2.18484 1.57618,-3.4333 -1.26094,-4.05755 -2.83712,-8.11508 -5.04377,-12.17263 -0.63048,-1.2485 -2.20665,-1.87273 -3.46759,-1.2485 -6.30471,2.18486 -13.23991,0.62426 -17.96845,-4.057543 -4.72852,-4.681791 -6.30469,-11.860533 -4.09804,-18.102907 0.63046,-1.248481 0,-2.809075 -1.26096,-3.43331 -3.78283,-1.560594 -7.88089,-3.433311 -12.29418,-4.681782 -1.26094,-0.312152 -2.83712,0.312163 -3.4676,1.560584 -2.83712,5.930263 -8.82659,9.987808 -15.44654,9.987808 -6.61995,0 -12.60942,-3.745423 -15.44655,-9.987808 -0.63047,-1.248471 -2.20666,-1.872696 -3.4676,-1.560584 -4.09806,1.248471 -8.19613,2.809076 -11.97895,4.993895 -1.57618,0.936368 -1.89141,2.184839 -1.57618,3.745432 2.20665,6.242375 0.63047,13.421127 -4.09807,18.102915 -4.72852,4.6818 -11.66371,6.24239 -17.96843,4.05756 -1.26094,-0.62426 -2.83712,0 -3.46759,1.24848 -1.89141,3.43331 -3.78283,7.49084 -5.04377,11.8605 -0.31521,1.24848 0.31528,2.80906 1.57619,3.4333 5.98947,2.80906 10.08754,8.73931 10.08754,15.60593 0,6.55447 -3.78284,12.79685 -10.08754,15.6059 -1.26096,0.62424 -1.89142,2.18483 -1.57619,3.43331 1.26094,4.05754 2.83712,8.11508 5.04377,12.17262 0.63047,1.24847 2.20665,1.8727 3.46759,1.24847 6.30472,-2.18483 13.23991,-0.62424 17.96843,4.05753 4.72854,4.68178 6.30472,11.86051 4.09807,18.10288 -0.63048,1.24846 0,2.80907 1.26095,3.43329 3.78283,2.18484 7.88088,3.74542 11.97895,4.9939 0.31521,0 0.63047,0 0.9457,0 0.94572,0 2.20666,-0.62423 2.52189,-1.5606 2.83712,-5.93023 8.82659,-9.98778 15.44654,-9.98778 6.61996,0 12.60944,3.74543 15.44655,9.98778 0.63047,1.24849 2.20665,1.87272 3.46759,1.5606 4.09807,-1.24848 8.19614,-2.80906 11.97896,-4.9939 1.26095,-0.62422 1.89143,-2.18483 1.26095,-3.43329 -2.20665,-6.24237 -0.63048,-13.4211 4.09805,-18.10288 4.72854,-4.68177 11.66373,-6.24236 17.96845,-4.05753 1.26094,0.62423 2.83711,0 3.4676,-1.24847 2.20664,-3.74544 3.78282,-7.80296 5.04376,-12.17262 0.94571,-1.56059 0.31521,-3.12119 -0.94571,-3.74542 z m -61.47095,14.35744 c -16.7075,0 -30.26263,-13.42109 -30.26263,-29.96336 0,-16.54227 13.55513,-29.96337 30.26263,-29.96337 16.70749,0 30.26263,13.4211 30.26263,29.96337 0,16.54227 -13.55514,29.96336 -30.26263,29.96336 z"
     style="fill:#a6bf26;fill-opacity:1;stroke:none;stroke-width:3.15235639;stroke-opacity:1">
     <animateTransform
       attributeType="xml"
       attributeName="transform"
       type="rotate"
       from="360 186.31  136.72"
       to="0  186.31 136.72"
       dur="4s"
       repeatCount="1"
       restart="always"
       begin="0s"
       id="granderoue" /></path><path
     inkscape:connector-curvature="0"
     id="wheel3"
     d="m 293.17798,208.71813 c 0,-4.76067 2.52188,-8.92625 6.61995,-11.30659 -0.63048,-1.78525 -1.57618,-3.86804 -2.83712,-5.65329 -1.26095,-1.78525 -2.52188,-3.57049 -3.78283,-5.0582 -4.09807,2.08279 -9.45708,2.08279 -13.55513,-0.29752 -4.4133,-2.38034 -6.9352,-6.54592 -7.25042,-11.00904 -4.09807,-0.59509 -8.51137,-0.89263 -12.92467,0 -0.31527,4.46312 -2.83712,8.6287 -7.25042,11.00904 -4.4133,2.38033 -9.45706,2.38033 -13.55513,0.29752 -2.83713,3.27295 -5.04377,6.84345 -6.61995,10.71149 3.78282,2.38034 6.61995,6.54592 6.61995,11.30659 0,4.76066 -2.52188,8.92624 -6.61995,11.30658 0.63047,1.78524 1.57618,3.86803 2.83712,5.65328 1.26095,1.78524 2.52188,3.5705 3.78283,5.05821 4.09807,-2.08279 9.45707,-2.08279 13.55513,0.29752 4.4133,2.38034 6.93518,6.54591 7.25042,11.00904 4.09807,0.59508 8.51136,0.89263 12.92467,0 0.31521,-4.46313 2.83712,-8.6287 7.25042,-11.00904 4.41329,-2.38032 9.45706,-2.38032 13.55513,-0.29752 2.83711,-3.27297 5.04377,-6.84346 6.61995,-10.71149 -3.78284,-2.38034 -6.61995,-6.54592 -6.61995,-11.30658 z m -21.75126,12.49674 c -7.25042,2.97542 -15.76178,-0.29758 -18.59891,-7.43854 -3.15235,-6.84345 0.31522,-14.87708 7.88089,-17.85249 7.25042,-2.97542 15.76179,0.29753 18.5989,7.43854 2.83713,6.84345 -0.63047,14.87707 -7.88088,17.85249 z"
     style="fill:#a6bf26;fill-opacity:1;stroke:none;stroke-width:3.15235639;stroke-opacity:1"><animateTransform
       attributeType="xml"
       attributeName="transform"
       type="rotate"
       from="0 265.91 208.72"
       to="360  265.91 208.72"
       begin="granderoue.begin"
       dur="2s"
       repeatCount="2"
       id="petiterouebas" /></path><path
     inkscape:connector-curvature="0"
     d="m 259.45913,43.097576 c 0,-4.760656 2.52189,-8.926224 6.61998,-11.306557 -0.63048,-1.785243 -1.5762,-3.86804 -2.83714,-5.653284 -1.26095,-1.785243 -2.52191,-3.570485 -3.78284,-5.058202 -4.09808,2.082797 -9.45713,2.082797 -13.55521,-0.297545 -4.41331,-2.380345 -6.93522,-6.545915 -7.25045,-11.0090313 -4.09808,-0.5950915 -8.51141,-0.8926365 -12.92473,0 -0.31521,4.4631163 -2.83713,8.6286863 -7.25044,11.0090313 -4.41334,2.380324 -9.45712,2.380324 -13.5552,0.297545 -2.83714,3.272959 -5.04379,6.843446 -6.61999,10.711486 3.78285,2.380333 6.61999,6.54591 6.61999,11.306557 0,4.760658 -2.5219,8.926234 -6.61999,11.306577 0.63048,1.785243 1.5762,3.868013 2.83714,5.653274 1.26095,1.785243 2.5219,3.570496 3.78285,5.058201 4.09808,-2.082787 9.45711,-2.082787 13.5552,0.297574 4.41331,2.380333 6.9352,6.5459 7.25044,11.009023 4.0981,0.59508 8.51141,0.892625 12.92473,0 0.31521,-4.463123 2.83714,-8.62869 7.25045,-11.009023 4.41332,-2.380334 9.45713,-2.380334 13.55521,-0.297574 2.83713,-3.272958 5.04378,-6.843462 6.61998,-10.711475 -3.78285,-2.380343 -6.61998,-6.545919 -6.61998,-11.306577 z m -21.75137,12.496729 c -7.25046,2.975415 -15.76186,-0.297573 -18.59899,-7.438535 -3.15237,-6.843437 0.31528,-14.877044 7.88093,-17.852458 7.25045,-2.975415 15.76186,0.297555 18.59898,7.438526 2.83714,6.843446 -0.63047,14.877063 -7.88092,17.852467 z"
     id="wheel1"
     style="fill:#a6bf26;fill-opacity:1;stroke:none;stroke-width:3.15235639;stroke-opacity:1"><animateTransform
       attributeType="xml"
       attributeName="transform"
       type="rotate"
       from="0 232.24 43.067"
       to="360  232.24  43.067"
       dur="2s"
       begin="granderoue.begin"
       repeatCount="2"
       id="petiterouehaut" /></path><path
     inkscape:connector-curvature="0"
     style="fill:#a6bf26;fill-opacity:1;fill-rule:evenodd;stroke:none;stroke-width:4.27975893px;stroke-linecap:butt;stroke-linejoin:miter;stroke-opacity:1"
     d="M 65.692484,23.862101 86.320569,42.586051 35.226403,92.886852 86.320569,144.77444 67.91397,163.18102 0,92.886852 Z"
     id="path4583" /><path
     inkscape:connector-curvature="0"
     id="path4592"
     d="m 356.01941,85.267392 -20.62807,18.723998 51.09416,50.30078 -51.09416,51.88754 18.40658,18.40659 67.91398,-70.29413 z"
     style="fill:#a6bf26;fill-opacity:1;fill-rule:evenodd;stroke:none;stroke-width:4.27975893px;stroke-linecap:butt;stroke-linejoin:miter;stroke-opacity:1" /></svg>