<?xml version="1.0" encoding="UTF-8" standalone="no"?>
<svg
   xmlns:dc="http://purl.org/dc/elements/1.1/"
   xmlns:cc="http://creativecommons.org/ns#"
   xmlns:rdf="http://www.w3.org/1999/02/22-rdf-syntax-ns#"
   xmlns:svg="http://www.w3.org/2000/svg"
   xmlns="http://www.w3.org/2000/svg"
   xmlns:xlink="http://www.w3.org/1999/xlink"
   xmlns:sodipodi="http://sodipodi.sourceforge.net/DTD/sodipodi-0.dtd"
   xmlns:inkscape="http://www.inkscape.org/namespaces/inkscape"
   xml:space="preserve"
   version="1.1"
   style="clip-rule:evenodd;fill-rule:evenodd;image-rendering:optimizeQuality;shape-rendering:geometricPrecision;text-rendering:geometricPrecision"
   viewBox="0 0 902.88214 246.93217"
   x="0px"
   y="0px"
   id="svg14"
   sodipodi:docname="fileMapping.svg"
   inkscape:version="0.92.3 (2405546, 2018-03-11)"
   width="902.88214"
   height="246.93216"
   inkscape:export-filename="/home/mathieu/work/cogit/openmole/openmole/bin/org.openmole.site/jvm/src/main/resources/img/model/netlogoMapping.png"
   inkscape:export-xdpi="99.825119"
   inkscape:export-ydpi="99.825119"><metadata
   id="metadata18"><rdf:RDF><cc:Work
       rdf:about=""><dc:format>image/svg+xml</dc:format><dc:type
         rdf:resource="http://purl.org/dc/dcmitype/StillImage" /><dc:title></dc:title></cc:Work></rdf:RDF></metadata><sodipodi:namedview
   pagecolor="#ffffff"
   bordercolor="#666666"
   borderopacity="1"
   objecttolerance="10"
   gridtolerance="10"
   guidetolerance="10"
   inkscape:pageopacity="1"
   inkscape:pageshadow="2"
   inkscape:window-width="1920"
   inkscape:window-height="1025"
   id="namedview16"
   showgrid="false"
   inkscape:zoom="0.88943172"
   inkscape:cx="594.6978"
   inkscape:cy="104.85188"
   inkscape:window-x="0"
   inkscape:window-y="27"
   inkscape:window-maximized="1"
   inkscape:current-layer="g2034"
   fit-margin-top="10"
   fit-margin-left="11.1"
   fit-margin-right="10"
   fit-margin-bottom="10"
   inkscape:snap-others="false" /><defs
   id="defs4"><pattern
     inkscape:collect="always"
     xlink:href="#pattern1957"
     id="pattern1034"
     patternTransform="matrix(0.38171769,-0.51116395,0.08843369,0.46704261,382.30071,402.26743)" /><pattern
     inkscape:collect="always"
     xlink:href="#pattern1717"
     id="pattern1957"
     patternTransform="matrix(0.38171769,-0.51116395,0.08843369,0.46704261,372.86594,61.955532)" /><pattern
     inkscape:collect="always"
     xlink:href="#pattern1717"
     id="pattern1929"
     patternTransform="matrix(0.4401062,-0.47477597,0.10196073,0.43379547,-17.808634,62.118755)" /><pattern
     inkscape:collect="always"
     xlink:href="#pattern1711"
     id="pattern1717"
     patternTransform="matrix(0.38171769,-0.51116395,0.08843369,0.46704261,372.86594,61.955532)" /><pattern
     inkscape:collect="always"
     xlink:href="#pattern979"
     id="pattern1703"
     patternTransform="translate(-4.84375e-7,1.7431641e-6)" /><style
     type="text/css"
     id="style2">
   
    .fil0 {fill:black;fill-rule:nonzero}
   
  </style><pattern
     patternUnits="userSpaceOnUse"
     width="301.0015"
     height="133.89786"
     patternTransform="translate(62.556396,-131.71266)"
     id="pattern979"><rect
       ry="12.4899"
       y="1.5"
       x="1.5"
       height="130.89786"
       width="298.0015"
       id="rect951"
       style="opacity:1;fill:#ffcc00;fill-opacity:1;stroke:#7d7e7d;stroke-width:3;stroke-miterlimit:4;stroke-dasharray:none;stroke-dashoffset:0;stroke-opacity:1" /></pattern><pattern
     patternUnits="userSpaceOnUse"
     width="301.0015"
     height="133.89786"
     patternTransform="translate(62.556396,-131.71266)"
     id="pattern1700"><rect
       id="rect982"
       y="0"
       x="0"
       height="133.89786"
       width="301.0015"
       style="fill:url(#pattern1703);stroke:none" /></pattern><pattern
     patternUnits="userSpaceOnUse"
     width="603.66193"
     height="13.925306"
     patternTransform="translate(39.687119,-102.36205)"
     id="pattern1711"><rect
       y="0"
       x="0"
       height="6.9626522"
       width="603.66193"
       id="rect1707"
       style="opacity:1;fill:#000000;fill-opacity:1;stroke:none;stroke-width:3;stroke-miterlimit:4;stroke-dasharray:none;stroke-dashoffset:0;stroke-opacity:1" /><rect
       style="opacity:1;fill:#cccccc;fill-opacity:1;stroke:none;stroke-width:3;stroke-miterlimit:4;stroke-dasharray:none;stroke-dashoffset:0;stroke-opacity:1"
       id="rect1709"
       width="603.66193"
       height="6.9626522"
       x="0"
       y="6.9626541" /></pattern></defs>





<g
   id="g2034"
   transform="translate(-76.074623,11.511697)">



<rect
   style="opacity:1;fill:#ffcc00;fill-opacity:1;stroke:#ffcc00;stroke-width:3.04978609;stroke-miterlimit:4;stroke-dasharray:none;stroke-dashoffset:0;stroke-opacity:1"
   id="rect1621"
   width="89.828674"
   height="20.954914"
   x="567.15802"
   y="0.013195687"
   inkscape:export-filename="/tmp/oo.png"
   inkscape:export-xdpi="99.928093"
   inkscape:export-ydpi="99.928093" /><rect
   transform="matrix(0.99999858,-0.0016857,-0.02251709,0.99974646,0,0)"
   id="rect1715"
   y="21.501562"
   x="391.72873"
   height="122.98004"
   width="267.72891"
   style="opacity:0.2;fill:url(#pattern1957);stroke:#7d7e7d;stroke-width:0.71256936;stroke-opacity:1"
   inkscape:export-filename="/tmp/oo.png"
   inkscape:export-xdpi="99.928093"
   inkscape:export-ydpi="99.928093" /><rect
   y="20.835773"
   x="390.49689"
   height="122.49754"
   width="266.35742"
   id="rect1794"
   style="opacity:1;fill:none;fill-opacity:1;stroke:#ffcc00;stroke-width:3.43916178;stroke-miterlimit:4;stroke-dasharray:none;stroke-dashoffset:0;stroke-opacity:1"
   inkscape:export-filename="/tmp/oo.png"
   inkscape:export-xdpi="99.928093"
   inkscape:export-ydpi="99.928093" /><text
   style="font-weight:bold;font-size:0.02317198px;font-family:'Helvetica Neue', Helvetica, Arial-Unicode, Arial, Sans-serif;fill:#000000;stroke-width:0.0046344"
   id="text10"
   font-weight="bold"
   font-size="5px"
   y="225.39392"
   x="193.93929"
   inkscape:export-filename="/tmp/oo.png"
   inkscape:export-xdpi="99.928093"
   inkscape:export-ydpi="99.928093">Created by Olena Panasovska</text>

<text
   style="font-weight:bold;font-size:0.02317198px;font-family:'Helvetica Neue', Helvetica, Arial-Unicode, Arial, Sans-serif;fill:#000000;stroke-width:0.0046344"
   id="text12"
   font-weight="bold"
   font-size="5px"
   y="225.41541"
   x="193.93929"
   inkscape:export-filename="/tmp/oo.png"
   inkscape:export-xdpi="99.928093"
   inkscape:export-ydpi="99.928093">from the Noun Project</text>

<path
   style="fill:#000000;fill-rule:nonzero;stroke-width:0.0046344"
   inkscape:connector-curvature="0"
   id="path842"
   d="m 780.22063,133.52743 h 140.83014 c 0.15757,1.0381 0.4171,2.09011 0.83883,3.13285 0.54223,1.34398 1.33934,2.66478 2.50721,3.91607 0.47734,0.51442 1.18177,0.69516 1.82132,0.52832 v 0.16684 h 0.005 c 0.0463,0 0.0973,-0.005 0.14367,-0.005 l 33.52062,0.0742 c 2.71112,-0.0139 4.77806,-6.27498 5.9413,-16.39651 1.06127,-9.21782 1.71473,-21.92998 1.71473,-35.949042 0,-14.01906 -0.65346,-26.731221 -1.71473,-35.949043 -1.00103,-8.708037 -2.67405,-14.55665 -4.84759,-16.035024 -0.30587,-0.227085 -0.68125,-0.361483 -1.09371,-0.366117 -10.52936,-0.477343 -22.30074,-0.0093 -32.96913,-0.0139 -0.67198,-0.236355 -1.4552,-0.07415 -1.96962,0.481977 -1.67765,1.798147 -2.59062,3.721423 -3.06797,5.644699 -0.39856,1.598868 -0.49124,3.174564 -0.48198,4.657572 H 780.92506 c -1.21422,-6.905256 -2.98456,-10.992796 -5.17199,-11.0067 l -33.51135,-0.0093 c -0.088,-0.0139 -0.17147,-0.01854 -0.25953,-0.01854 -2.69258,0 -4.75489,6.279612 -5.91349,16.428948 -1.05201,9.213187 -1.70083,21.911448 -1.70083,35.907328 0,13.995892 0.64882,26.689512 1.70083,35.907342 0.8759,7.68846 2.27549,13.15706 4.069,15.35376 0.22709,0.85273 0.83419,1.36715 1.79815,1.36715 0.45417,0 0.83419,-0.11586 1.12616,-0.32904 10.84913,0.0278 21.8651,0.24562 32.69569,0.0881 0.40319,0 0.77858,-0.1344 1.07982,-0.35685 1.33007,-0.8898 2.47013,-3.41092 3.38774,-7.22039 z m 72.65812,-20.62772 c 0.25489,0 0.46344,-0.20854 0.46344,-0.46344 0,-0.25489 -0.20855,-0.46344 -0.46344,-0.46344 H 805.302 c -0.25489,0 -0.46344,0.20855 -0.46344,0.46344 0,0.2549 0.20855,0.46344 0.46344,0.46344 z m -10.78888,3.67972 c 0.25489,0 0.46344,-0.20855 0.46344,-0.46344 0,-0.2549 -0.20855,-0.46344 -0.46344,-0.46344 h -47.57675 c -0.2549,0 -0.46344,0.20854 -0.46344,0.46344 0,0.25489 0.20854,0.46344 0.46344,0.46344 z M 910.0209,65.568584 c 0.25489,0 0.46344,-0.208548 0.46344,-0.46344 0,-0.254892 -0.20855,-0.46344 -0.46344,-0.46344 h -47.57675 c -0.25489,0 -0.46344,0.208548 -0.46344,0.46344 0,0.254892 0.20855,0.46344 0.46344,0.46344 z m 10.78889,-3.679713 c 0.25489,0 0.46344,-0.208548 0.46344,-0.46344 0,-0.254892 -0.20855,-0.46344 -0.46344,-0.46344 h -47.57675 c -0.2549,0 -0.46344,0.208548 -0.46344,0.46344 0,0.254892 0.20854,0.46344 0.46344,0.46344 z M 812.69387,129.81991 H 780.9714 c 0.2688,-1.56643 0.50978,-3.27652 0.72297,-5.11175 1.06127,-9.21782 1.71472,-21.92998 1.71472,-35.949042 0,-14.01906 -0.65345,-26.731215 -1.71472,-35.949037 -0.0649,-0.574666 -0.1344,-1.135428 -0.20855,-1.682287 h 146.50265 c 0.0324,0 0.0602,0 0.088,0 0.0788,0.65345 0.15757,1.334707 0.24099,2.039136 1.02884,8.916585 1.67766,21.225548 1.70546,34.850688 0.005,2.0067 -0.005,-1.69619 -0.005,0.94078 0,1.7101 0,2.25696 0,2.37282 -0.0695,13.282192 -0.73224,25.234302 -1.7518,33.872832 -0.19928,1.69155 -0.38929,3.23481 -0.57467,4.62049 H 812.6846 Z m 112.11077,3.70752 h 2.37281 c -0.29197,1.88156 -0.54686,3.15602 -0.74614,3.71679 -0.47734,-0.64418 -0.83882,-1.29764 -1.10298,-1.96035 -0.23636,-0.5793 -0.4032,-1.16787 -0.51906,-1.75644 z m 2.80844,-86.107156 h -2.51647 c -0.005,-1.223482 0.0649,-2.507211 0.38002,-3.758499 0.21781,-0.861998 0.55149,-1.723996 1.06591,-2.562823 0.29197,1.079815 0.65808,3.262618 1.07054,6.321322 z m -150.14992,1.27446 c -0.0602,0.180741 -0.0927,0.375386 -0.0927,0.5793 0,0.370752 0.10659,0.713697 0.29197,1.00103 0.11586,0.931515 0.23172,1.918642 0.35221,2.956747 1.04274,9.064887 1.68229,21.624107 1.68229,35.527307 0,13.903202 -0.63955,26.467062 -1.68229,35.527312 -0.93151,8.10557 -1.7657,13.11999 -2.28012,13.11999 l -30.48045,-0.0834 c 1.11689,-2.84552 2.00669,-7.20649 2.63697,-12.70289 1.05201,-9.21319 1.70083,-21.91144 1.70083,-35.907332 0,-13.99589 -0.64882,-26.68951 -1.70083,-35.907331 -0.63028,-5.505668 -1.52471,-9.871272 -2.64161,-12.716794 l 30.48509,0.0093 c 0.40783,0.0046 1.01957,3.188467 1.72399,8.587543 z m -37.71938,4.537077 c 0.92224,-8.091662 1.74253,-13.110717 2.22914,-13.143158 h 0.0139 c 0.49124,0.07415 1.3069,5.079302 2.22451,13.138524 1.03347,9.055618 1.67302,21.600941 1.67302,35.485601 0,13.884662 -0.63955,26.429982 -1.67302,35.485602 -0.80175,7.01185 -1.52008,11.71113 -2.01596,12.8651 -0.0834,-0.009 -0.17148,-0.0139 -0.26417,-0.0139 -0.0602,0 -0.12049,0 -0.1761,0.005 -0.49588,-1.16787 -1.21422,-5.86252 -2.01133,-12.85583 -1.03347,-9.05562 -1.67302,-21.60094 -1.67302,-35.485602 0,-13.88466 0.63955,-26.429983 1.67302,-35.485601 z m 189.69989,84.341449 c 1.05201,-2.70649 1.90011,-6.8033 2.50721,-11.95675 1.02421,-8.70804 1.69156,-20.79919 1.76571,-34.280662 0.009,-1.69619 0.0139,-2.27549 0.0139,-2.38672 0,-1.27909 0,-0.24098 -0.005,0 v 0 c 0,-0.10195 0,-0.37075 -0.005,-0.94078 -0.0278,-13.81978 -0.68589,-26.277047 -1.71936,-35.267783 -0.61637,-5.366635 -1.49228,-9.630283 -2.58136,-12.420192 l 30.45264,0.0139 c 0.51442,0.0046 1.34398,5.019055 2.28013,13.124621 1.04274,9.064886 1.68229,21.624114 1.68229,35.527314 0,13.903202 -0.63955,26.467062 -1.68229,35.527312 -0.93152,8.10557 -1.76571,13.11999 -2.28013,13.11999 l -30.42483,-0.0695 z m 4.28219,-48.624132 c 0,0.0556 0,0.0695 0,0 z"
   class="fil0"
   inkscape:export-filename="/tmp/oo.png"
   inkscape:export-xdpi="99.928093"
   inkscape:export-ydpi="99.928093" /><path
   style="fill:#000000;stroke:#000000;stroke-width:3.71335864;stroke-linecap:butt;stroke-linejoin:miter;stroke-miterlimit:4;stroke-dasharray:11.14007584, 3.71335861;stroke-dashoffset:0;stroke-opacity:1"
   d="m 913.16286,88.863045 h 51.50483"
   id="path846"
   inkscape:connector-curvature="0"
   inkscape:export-filename="/tmp/oo.png"
   inkscape:export-xdpi="99.928093"
   inkscape:export-ydpi="99.928093" /><path
   inkscape:connector-curvature="0"
   id="path848"
   d="m 913.16286,88.863045 h 51.50483"
   style="fill:#000000;stroke:#000000;stroke-width:3.71335864;stroke-linecap:butt;stroke-linejoin:miter;stroke-miterlimit:4;stroke-dasharray:11.14007584, 3.71335861;stroke-dashoffset:0;stroke-opacity:1"
   inkscape:export-filename="/tmp/oo.png"
   inkscape:export-xdpi="99.928093"
   inkscape:export-ydpi="99.928093" /><flowRoot
   xml:space="preserve"
   id="flowRoot880-3"
   style="font-style:normal;font-weight:normal;font-size:21.33333397px;line-height:1.25;font-family:sans-serif;letter-spacing:0px;word-spacing:0px;clip-rule:evenodd;fill:#000000;fill-opacity:1;fill-rule:evenodd;stroke:none;image-rendering:optimizeQuality;shape-rendering:geometricPrecision;text-rendering:geometricPrecision"
   transform="matrix(0.63812751,0,0,0.63812751,569.16204,135.84232)"
   inkscape:export-filename="/tmp/oo.png"
   inkscape:export-xdpi="99.928093"
   inkscape:export-ydpi="99.928093"><flowRegion
     id="flowRegion876-5"><rect
       id="rect874-6"
       width="149.87823"
       height="62.449265"
       x="174.85794"
       y="-85.241554" /></flowRegion><flowPara
     id="flowPara878-2"
     style="font-style:normal;font-variant:normal;font-weight:normal;font-stretch:normal;font-family:'Glacial Indifference';-inkscape-font-specification:'Glacial Indifference'">outOM</flowPara></flowRoot><polygon
   style="fill:#333333;fill-opacity:1"
   transform="matrix(-0.31070111,-4.713467e-4,4.713467e-4,-0.31070111,672.67531,104.41034)"
   points="5,50 25.968,66.542 25.968,55.34 95,58.206 95,41.273 25.968,44.66 25.968,33.458 "
   id="polygon1784"
   inkscape:export-filename="/tmp/oo.png"
   inkscape:export-xdpi="99.928093"
   inkscape:export-ydpi="99.928093"
   inkscape:transform-center-x="7.8322467"
   inkscape:transform-center-y="-8.0004527" /><flowRoot
   transform="translate(132.56569,-6.2986506)"
   style="font-style:normal;font-weight:normal;font-size:21.33333397px;line-height:1.25;font-family:sans-serif;letter-spacing:0px;word-spacing:0px;fill:#000000;fill-opacity:1;stroke:none"
   id="flowRoot1786"
   xml:space="preserve"
   inkscape:export-filename="/tmp/oo.png"
   inkscape:export-xdpi="99.928093"
   inkscape:export-ydpi="99.928093"><flowRegion
     id="flowRegion1788"><rect
       y="-2.5551491"
       x="334.78702"
       height="27.570696"
       width="222.04257"
       id="rect1790" /></flowRegion><flowPara
     id="flowPara1792" /></flowRoot><flowRoot
   transform="matrix(0.63812751,0,0,0.63812751,366.90674,87.162128)"
   style="font-style:normal;font-weight:normal;font-size:21.33333397px;line-height:1.25;font-family:sans-serif;letter-spacing:0px;word-spacing:0px;clip-rule:evenodd;fill:#333333;fill-opacity:1;fill-rule:evenodd;stroke:none;image-rendering:optimizeQuality;shape-rendering:geometricPrecision;text-rendering:geometricPrecision"
   id="flowRoot1802"
   xml:space="preserve"
   inkscape:export-filename="/tmp/oo.png"
   inkscape:export-xdpi="99.928093"
   inkscape:export-ydpi="99.928093"><flowRegion
     style="fill:#333333;fill-opacity:1"
     id="flowRegion1798"><rect
       style="fill:#333333;fill-opacity:1"
       y="-85.241554"
       x="174.85794"
       height="62.449265"
       width="149.87823"
       id="rect1796" /></flowRegion><flowPara
     style="font-style:normal;font-variant:normal;font-weight:normal;font-stretch:normal;font-family:'Glacial Indifference';-inkscape-font-specification:'Glacial Indifference';fill:#333333;fill-opacity:1"
     id="flowPara1800">Model context</flowPara></flowRoot><flowRoot
   xml:space="preserve"
   id="flowRoot1812"
   style="font-style:normal;font-weight:normal;font-size:21.33333397px;line-height:1.25;font-family:sans-serif;letter-spacing:0px;word-spacing:0px;clip-rule:evenodd;fill:#333333;fill-opacity:1;fill-rule:evenodd;stroke:none;image-rendering:optimizeQuality;shape-rendering:geometricPrecision;text-rendering:geometricPrecision"
   transform="matrix(0.63812751,0,0,0.63812751,460.29444,57.560768)"
   inkscape:export-filename="/tmp/oo.png"
   inkscape:export-xdpi="99.928093"
   inkscape:export-ydpi="99.928093"><flowRegion
     id="flowRegion1808"
     style="fill:#333333;fill-opacity:1"><rect
       id="rect1806"
       width="149.87823"
       height="62.449265"
       x="174.85794"
       y="-85.241554"
       style="fill:#333333;fill-opacity:1" /></flowRegion><flowPara
     id="flowPara1810"
     style="font-style:normal;font-variant:normal;font-weight:normal;font-stretch:normal;font-family:'Glacial Indifference';-inkscape-font-specification:'Glacial Indifference';fill:#333333;fill-opacity:1">Netlogo Task</flowPara></flowRoot><g
   id="g1822"
   transform="translate(-33.434309,-7.6988588)"
   inkscape:export-filename="/tmp/oo.png"
   inkscape:export-xdpi="99.928093"
   inkscape:export-ydpi="99.928093" /><rect
   ry="11.066958"
   y="65.295692"
   x="487.61087"
   height="48.571651"
   width="70.810974"
   id="rect19"
   style="opacity:1;fill:#ffcc00;fill-opacity:1;stroke:none;stroke-width:18.73571968;stroke-miterlimit:4;stroke-dasharray:none;stroke-dashoffset:0;stroke-opacity:1"
   inkscape:export-filename="/tmp/oo.png"
   inkscape:export-xdpi="99.928093"
   inkscape:export-ydpi="99.928093" /><g
   transform="matrix(0.74321849,0,0,0.74321849,370.17291,144.77331)"
   id="g838"
   inkscape:export-filename="/tmp/oo.png"
   inkscape:export-xdpi="99.928093"
   inkscape:export-ydpi="99.928093"><flowRoot
     xml:space="preserve"
     id="flowRoot826"
     style="font-style:normal;font-weight:normal;font-size:21.33333397px;line-height:1.25;font-family:sans-serif;letter-spacing:0px;word-spacing:0px;fill:#000000;fill-opacity:1;stroke:none"><flowRegion
       id="flowRegion828"><rect
         id="rect830"
         width="149.87823"
         height="62.449265"
         x="174.85794"
         y="-85.241554" /></flowRegion><flowPara
       id="flowPara832"
       style="font-style:normal;font-variant:normal;font-weight:normal;font-stretch:normal;font-family:'Glacial Indifference';-inkscape-font-specification:'Glacial Indifference'">Model</flowPara></flowRoot></g><flowRoot
   xml:space="preserve"
   id="flowRoot1887"
   style="font-style:normal;font-weight:normal;font-size:21.33333397px;line-height:1.25;font-family:sans-serif;letter-spacing:0px;word-spacing:0px;clip-rule:evenodd;fill:#000000;fill-opacity:1;fill-rule:evenodd;stroke:none;image-rendering:optimizeQuality;shape-rendering:geometricPrecision;text-rendering:geometricPrecision"
   transform="matrix(0.81686073,0,0,0.81686073,87.190853,270.95082)"
   inkscape:export-filename="/tmp/oo.png"
   inkscape:export-xdpi="99.928093"
   inkscape:export-ydpi="99.928093"><flowRegion
     id="flowRegion1883"><rect
       id="rect1881"
       width="406.61096"
       height="25.515139"
       x="174.85794"
       y="-85.241554" /></flowRegion><flowPara
     id="flowPara1885"
     style="font-style:normal;font-variant:normal;font-weight:bold;font-stretch:normal;font-family:Courier;-inkscape-font-specification:'Courier Bold'">inOM mapped &quot;inNetlogo&quot;</flowPara></flowRoot><flowRoot
   transform="matrix(0.76340762,0,0,0.76340762,440.29919,265.8512)"
   style="font-style:normal;font-weight:normal;font-size:21.33333397px;line-height:1.25;font-family:sans-serif;letter-spacing:0px;word-spacing:0px;clip-rule:evenodd;fill:#000000;fill-opacity:1;fill-rule:evenodd;stroke:none;image-rendering:optimizeQuality;shape-rendering:geometricPrecision;text-rendering:geometricPrecision"
   id="flowRoot1895"
   xml:space="preserve"
   inkscape:export-filename="/tmp/oo.png"
   inkscape:export-xdpi="99.928093"
   inkscape:export-ydpi="99.928093"><flowRegion
     id="flowRegion1891"><rect
       y="-85.241554"
       x="174.85794"
       height="65.742821"
       width="503.1037"
       id="rect1889" /></flowRegion><flowPara
     style="font-style:normal;font-variant:normal;font-weight:bold;font-stretch:normal;font-size:22.70521355px;font-family:Courier;-inkscape-font-specification:'Courier Bold'"
     id="flowPara1893">&quot;outNetlogo&quot; mapped outOM</flowPara></flowRoot><path
   class="fil0"
   d="M 273.7154,133.52741 H 132.88526 c -0.15757,1.03811 -0.4171,2.09012 -0.83883,3.13286 -0.54222,1.34398 -1.33934,2.66478 -2.50721,3.91607 -0.47734,0.51442 -1.18177,0.69516 -1.82132,0.52832 v 0.16684 h -0.005 c -0.0464,0 -0.0973,-0.005 -0.14367,-0.005 l -33.520613,0.0742 c -2.711124,-0.0139 -4.778067,-6.27497 -5.941301,-16.3965 -1.061278,-9.21783 -1.714728,-21.92998 -1.714728,-35.949037 0,-14.01906 0.65345,-26.731221 1.714728,-35.949043 1.00103,-8.708037 2.674049,-14.55665 4.847582,-16.035024 0.305871,-0.227085 0.681257,-0.361483 1.093719,-0.366117 10.529353,-0.477343 22.300733,-0.0093 32.969123,-0.0139 0.67199,-0.236355 1.4552,-0.07415 1.96962,0.481977 1.67765,1.798147 2.59063,3.721423 3.06797,5.644699 0.39856,1.598868 0.49125,3.174564 0.48198,4.657572 h 140.4733 c 1.21421,-6.905256 2.98455,-10.992796 5.17199,-11.0067 l 33.51134,-0.0093 c 0.0881,-0.0139 0.17148,-0.01854 0.25953,-0.01854 2.69259,0 4.75489,6.279612 5.91349,16.428948 1.05201,9.213187 1.70083,21.911438 1.70083,35.907328 0,13.995887 -0.64882,26.689507 -1.70083,35.907327 -0.8759,7.68847 -2.27549,13.15706 -4.069,15.35377 -0.22709,0.85273 -0.83419,1.36715 -1.79815,1.36715 -0.45417,0 -0.83419,-0.11586 -1.12616,-0.32904 -10.84913,0.0278 -21.8651,0.24562 -32.69569,0.0881 -0.40319,0 -0.77858,-0.1344 -1.07981,-0.35685 -1.33008,-0.8898 -2.47014,-3.41092 -3.38775,-7.2204 z M 201.05728,112.8997 c -0.25489,0 -0.46344,-0.20855 -0.46344,-0.46344 0,-0.25489 0.20855,-0.46344 0.46344,-0.46344 h 47.57675 c 0.25489,0 0.46344,0.20855 0.46344,0.46344 0,0.25489 -0.20855,0.46344 -0.46344,0.46344 z m 10.78888,3.67971 c -0.25489,0 -0.46344,-0.20854 -0.46344,-0.46344 0,-0.25489 0.20855,-0.46344 0.46344,-0.46344 h 47.57676 c 0.25489,0 0.46344,0.20855 0.46344,0.46344 0,0.2549 -0.20855,0.46344 -0.46344,0.46344 z M 143.91513,65.568579 c -0.25489,0 -0.46344,-0.208548 -0.46344,-0.46344 0,-0.254892 0.20855,-0.46344 0.46344,-0.46344 h 47.57675 c 0.25489,0 0.46344,0.208548 0.46344,0.46344 0,0.254892 -0.20855,0.46344 -0.46344,0.46344 z m -10.78888,-3.679713 c -0.2549,0 -0.46344,-0.208548 -0.46344,-0.46344 0,-0.254892 0.20854,-0.46344 0.46344,-0.46344 H 180.703 c 0.25489,0 0.46344,0.208548 0.46344,0.46344 0,0.254892 -0.20855,0.46344 -0.46344,0.46344 z m 108.11591,67.931024 h 31.72247 c -0.26879,-1.56642 -0.50978,-3.27652 -0.72296,-5.11174 -1.06128,-9.21782 -1.71473,-21.92998 -1.71473,-35.949037 0,-14.01906 0.65345,-26.731215 1.71473,-35.949037 0.0649,-0.574666 0.13439,-1.135428 0.20854,-1.682287 H 125.94756 c -0.0324,0 -0.0602,0 -0.088,0 -0.0788,0.65345 -0.15757,1.334707 -0.24099,2.039136 -1.02884,8.916585 -1.67765,21.225548 -1.70546,34.850688 -0.005,2.00669 0.005,-1.69619 0.005,0.94078 0,1.71009 0,2.25695 0,2.37281 0.0695,13.282187 0.73224,25.234307 1.75181,33.872827 0.19928,1.69156 0.38929,3.23481 0.57466,4.6205 h 115.00727 z m -112.11077,3.70752 h -2.37281 c 0.29197,1.88157 0.54686,3.15603 0.74614,3.71679 0.47734,-0.64418 0.83883,-1.29763 1.10299,-1.96035 0.23635,-0.5793 0.40319,-1.16787 0.51905,-1.75644 z m -2.80844,-86.107141 h 2.51648 c 0.005,-1.223482 -0.0649,-2.507211 -0.38002,-3.758499 -0.21782,-0.861998 -0.5515,-1.723996 -1.06592,-2.562823 -0.29196,1.079815 -0.65808,3.262618 -1.07054,6.321322 z m 150.14992,1.27446 c 0.0602,0.180741 0.0927,0.375386 0.0927,0.5793 0,0.370752 -0.10659,0.713697 -0.29197,1.00103 -0.11586,0.931515 -0.23172,1.918642 -0.35221,2.956747 -1.04274,9.064887 -1.68229,21.624107 -1.68229,35.527307 0,13.903197 0.63955,26.467057 1.68229,35.527307 0.93151,8.10557 1.76571,13.11999 2.28012,13.11999 l 30.48045,-0.0834 c -1.11689,-2.84552 -2.00669,-7.20649 -2.63697,-12.70289 -1.05201,-9.21319 -1.70083,-21.91145 -1.70083,-35.907327 0,-13.99589 0.64882,-26.68951 1.70083,-35.907331 0.63028,-5.505668 1.52472,-9.871272 2.64161,-12.716794 l -30.48509,0.0093 c -0.40782,0.0046 -1.01956,3.188467 -1.72399,8.587543 z m 37.71938,4.537077 c -0.92224,-8.091662 -1.74253,-13.110717 -2.22914,-13.143158 h -0.0139 c -0.49124,0.07415 -1.3069,5.079302 -2.22451,13.138524 -1.03347,9.055618 -1.67302,21.600931 -1.67302,35.485601 0,13.884657 0.63955,26.429977 1.67302,35.485597 0.80175,7.01184 1.52009,11.71113 2.01597,12.86509 0.0834,-0.009 0.17147,-0.0139 0.26416,-0.0139 0.0602,0 0.12049,0 0.1761,0.005 0.49589,-1.16787 1.21422,-5.86251 2.01133,-12.85582 1.03348,-9.05562 1.67302,-21.60094 1.67302,-35.485597 0,-13.88467 -0.63954,-26.429983 -1.67302,-35.485601 z M 124.49236,137.57325 c -1.05201,-2.70649 -1.9001,-6.8033 -2.50721,-11.95676 -1.0242,-8.70803 -1.69156,-20.79918 -1.76571,-34.280647 -0.009,-1.69619 -0.0139,-2.27549 -0.0139,-2.38672 0,-1.27909 0,-0.24099 0.005,0 v 0 c 0,-0.10196 0,-0.37075 0.005,-0.94078 0.0278,-13.81978 0.68589,-26.277047 1.71936,-35.267783 0.61638,-5.366635 1.49228,-9.630283 2.58136,-12.420192 l -30.45264,0.0139 c -0.514419,0.0046 -1.343976,5.019055 -2.280125,13.124621 -1.04274,9.064886 -1.682287,21.624114 -1.682287,35.527314 0,13.903197 0.639547,26.467047 1.682287,35.527307 0.931514,8.10556 1.765706,13.11998 2.280125,13.11998 l 30.42483,-0.0695 z m -4.28219,-48.624127 c 0,0.0556 0,0.0695 0,0 z"
   id="path6"
   inkscape:connector-curvature="0"
   style="fill:#000000;fill-rule:nonzero;stroke-width:0.0046344"
   inkscape:export-filename="/tmp/oo.png"
   inkscape:export-xdpi="99.928093"
   inkscape:export-ydpi="99.928093" /><path
   inkscape:connector-curvature="0"
   id="path25"
   d="M 140.77317,88.863049 H 89.268343"
   style="fill:#000000;stroke:#000000;stroke-width:3.71335864;stroke-linecap:butt;stroke-linejoin:miter;stroke-miterlimit:4;stroke-dasharray:11.14007584, 3.71335861;stroke-dashoffset:0;stroke-opacity:1"
   inkscape:export-filename="/tmp/oo.png"
   inkscape:export-xdpi="99.928093"
   inkscape:export-ydpi="99.928093" /><path
   style="fill:#000000;stroke:#000000;stroke-width:3.71335864;stroke-linecap:butt;stroke-linejoin:miter;stroke-miterlimit:4;stroke-dasharray:11.14007584, 3.71335861;stroke-dashoffset:0;stroke-opacity:1"
   d="M 140.77317,88.863049 H 89.268343"
   id="path834"
   inkscape:connector-curvature="0"
   inkscape:export-filename="/tmp/oo.png"
   inkscape:export-xdpi="99.928093"
   inkscape:export-ydpi="99.928093" /><flowRoot
   xml:space="preserve"
   id="flowRoot1820"
   style="font-style:normal;font-weight:normal;font-size:21.33333397px;line-height:1.25;font-family:sans-serif;letter-spacing:0px;word-spacing:0px;clip-rule:evenodd;fill:#000000;fill-opacity:1;fill-rule:evenodd;stroke:none;image-rendering:optimizeQuality;shape-rendering:geometricPrecision;text-rendering:geometricPrecision"
   transform="matrix(0.63812751,0,0,0.63812751,307.57128,134.61712)"
   inkscape:export-xdpi="99"
   inkscape:export-ydpi="99"><flowRegion
     id="flowRegion1816"><rect
       id="rect1814"
       width="149.87823"
       height="62.449265"
       x="174.85794"
       y="-85.241554" /></flowRegion><flowPara
     id="flowPara1818"
     style="font-style:normal;font-variant:normal;font-weight:normal;font-stretch:normal;font-family:'Glacial Indifference';-inkscape-font-specification:'Glacial Indifference'">inNetlogo</flowPara></flowRoot><flowRoot
   transform="matrix(0.63812751,0,0,0.63812751,220.0746,135.84233)"
   style="font-style:normal;font-weight:normal;font-size:21.33333397px;line-height:1.25;font-family:sans-serif;letter-spacing:0px;word-spacing:0px;clip-rule:evenodd;fill:#000000;fill-opacity:1;fill-rule:evenodd;stroke:none;image-rendering:optimizeQuality;shape-rendering:geometricPrecision;text-rendering:geometricPrecision"
   id="flowRoot1834"
   xml:space="preserve"
   inkscape:export-filename="/tmp/oo.png"
   inkscape:export-xdpi="99.928093"
   inkscape:export-ydpi="99.928093"><flowRegion
     id="flowRegion1830"><rect
       y="-85.241554"
       x="174.85794"
       height="62.449265"
       width="149.87823"
       id="rect1828" /></flowRegion><flowPara
     style="font-style:normal;font-variant:normal;font-weight:normal;font-stretch:normal;font-family:'Glacial Indifference';-inkscape-font-specification:'Glacial Indifference'"
     id="flowPara1832">inOM</flowPara></flowRoot><polygon
   inkscape:transform-center-y="-8.0004527"
   inkscape:transform-center-x="7.8322467"
   inkscape:export-ydpi="99.928093"
   inkscape:export-xdpi="99.928093"
   inkscape:export-filename="/tmp/oo.png"
   id="polygon1836"
   points="25.968,55.34 95,58.206 95,41.273 25.968,44.66 25.968,33.458 5,50 25.968,66.542 "
   transform="matrix(-0.31070111,-4.713467e-4,4.713467e-4,-0.31070111,409.25566,104.41034)"
   style="fill:#333333;fill-opacity:1" /><flowRoot
   xml:space="preserve"
   id="flowRoot1937"
   style="font-style:normal;font-weight:normal;font-size:21.33333397px;line-height:1.25;font-family:sans-serif;letter-spacing:0px;word-spacing:0px;clip-rule:evenodd;fill:#000000;fill-opacity:1;fill-rule:evenodd;stroke:none;image-rendering:optimizeQuality;shape-rendering:geometricPrecision;text-rendering:geometricPrecision"
   transform="matrix(0.63812751,0,0,0.63812751,61.235719,136.25073)"
   inkscape:export-filename="/tmp/oo.png"
   inkscape:export-xdpi="99.928093"
   inkscape:export-ydpi="99.928093"><flowRegion
     id="flowRegion1933"><rect
       id="rect1931"
       width="149.87823"
       height="62.449265"
       x="174.85794"
       y="-85.241554" /></flowRegion><flowPara
     id="flowPara1935"
     style="font-style:normal;font-variant:normal;font-weight:normal;font-stretch:normal;font-family:'Glacial Indifference';-inkscape-font-specification:'Glacial Indifference'">OM dataflow</flowPara></flowRoot><flowRoot
   transform="matrix(0.63812751,0,0,0.63812751,694.20437,136.25073)"
   style="font-style:normal;font-weight:normal;font-size:21.33333397px;line-height:1.25;font-family:sans-serif;letter-spacing:0px;word-spacing:0px;clip-rule:evenodd;fill:#000000;fill-opacity:1;fill-rule:evenodd;stroke:none;image-rendering:optimizeQuality;shape-rendering:geometricPrecision;text-rendering:geometricPrecision"
   id="flowRoot1945"
   xml:space="preserve"
   inkscape:export-filename="/tmp/oo.png"
   inkscape:export-xdpi="99.928093"
   inkscape:export-ydpi="99.928093"><flowRegion
     id="flowRegion1941"><rect
       y="-85.241554"
       x="174.85794"
       height="62.449265"
       width="149.87823"
       id="rect1939" /></flowRegion><flowPara
     style="font-style:normal;font-variant:normal;font-weight:normal;font-stretch:normal;font-family:'Glacial Indifference';-inkscape-font-specification:'Glacial Indifference'"
     id="flowPara1943">OM dataflow</flowPara></flowRoot><rect
   inkscape:export-ydpi="99.928093"
   inkscape:export-xdpi="99.928093"
   inkscape:export-filename="/tmp/oo.png"
   y="340.2229"
   x="591.87854"
   height="20.954914"
   width="66.880051"
   id="rect897"
   style="opacity:1;fill:#ffcc00;fill-opacity:1;stroke:#ffcc00;stroke-width:2.63154125;stroke-miterlimit:4;stroke-dasharray:none;stroke-dashoffset:0;stroke-opacity:1" /><rect
   inkscape:export-ydpi="99.928093"
   inkscape:export-xdpi="99.928093"
   inkscape:export-filename="/tmp/oo.png"
   style="opacity:0.2;fill:url(#pattern1034);stroke:#7d7e7d;stroke-width:0.71256936;stroke-opacity:1"
   width="267.72891"
   height="122.98004"
   x="401.16351"
   y="361.81345"
   id="rect899"
   transform="matrix(0.99999858,-0.0016857,-0.02251709,0.99974646,0,0)" /><rect
   inkscape:export-ydpi="99.928093"
   inkscape:export-xdpi="99.928093"
   inkscape:export-filename="/tmp/oo.png"
   style="opacity:1;fill:none;fill-opacity:1;stroke:#ffcc00;stroke-width:3.43916178;stroke-miterlimit:4;stroke-dasharray:none;stroke-dashoffset:0;stroke-opacity:1"
   id="rect901"
   width="266.35742"
   height="122.49754"
   x="392.2688"
   y="361.04547" /><text
   inkscape:export-ydpi="99.928093"
   inkscape:export-xdpi="99.928093"
   inkscape:export-filename="/tmp/oo.png"
   x="195.71121"
   y="565.60364"
   font-size="5px"
   font-weight="bold"
   id="text903"
   style="font-weight:bold;font-size:0.02317198px;font-family:'Helvetica Neue', Helvetica, Arial-Unicode, Arial, Sans-serif;fill:#000000;stroke-width:0.0046344">Created by Olena Panasovska</text>
<text
   inkscape:export-ydpi="99.928093"
   inkscape:export-xdpi="99.928093"
   inkscape:export-filename="/tmp/oo.png"
   x="195.71121"
   y="565.62512"
   font-size="5px"
   font-weight="bold"
   id="text905"
   style="font-weight:bold;font-size:0.02317198px;font-family:'Helvetica Neue', Helvetica, Arial-Unicode, Arial, Sans-serif;fill:#000000;stroke-width:0.0046344">from the Noun Project</text>
<path
   inkscape:export-ydpi="99.928093"
   inkscape:export-xdpi="99.928093"
   inkscape:export-filename="/tmp/oo.png"
   style="fill:#000000;fill-rule:nonzero;stroke-width:0.0046344"
   inkscape:connector-curvature="0"
   id="path907"
   d="M 272.90698,502.92322 H 132.07684 c -0.15757,1.03811 -0.4171,2.09012 -0.83883,3.13286 -0.54222,1.34398 -1.33934,2.66478 -2.50721,3.91607 -0.47734,0.51442 -1.18177,0.69516 -1.82132,0.52832 v 0.16684 h -0.005 c -0.0464,0 -0.0973,-0.005 -0.14367,-0.005 l -33.520618,0.0742 c -2.711124,-0.0139 -4.778067,-6.27497 -5.941301,-16.3965 -1.061278,-9.21783 -1.714728,-21.92998 -1.714728,-35.94904 0,-14.01906 0.65345,-26.73123 1.714728,-35.94905 1.00103,-8.70804 2.674049,-14.55665 4.847582,-16.03502 0.305871,-0.22709 0.681257,-0.36149 1.093719,-0.36612 10.529358,-0.47734 22.300738,-0.009 32.969128,-0.0139 0.67199,-0.23635 1.4552,-0.0742 1.96962,0.48198 1.67765,1.79814 2.59063,3.72142 3.06797,5.6447 0.39856,1.59886 0.49125,3.17456 0.48198,4.65757 h 140.4733 c 1.21421,-6.90526 2.98455,-10.9928 5.17199,-11.0067 l 33.51134,-0.009 c 0.0881,-0.0139 0.17148,-0.0185 0.25953,-0.0185 2.69259,0 4.75489,6.27961 5.91349,16.42895 1.05201,9.21318 1.70083,21.91144 1.70083,35.90733 0,13.99589 -0.64882,26.68951 -1.70083,35.90733 -0.8759,7.68847 -2.27549,13.15706 -4.069,15.35377 -0.22709,0.85273 -0.83419,1.36715 -1.79815,1.36715 -0.45417,0 -0.83419,-0.11586 -1.12616,-0.32904 -10.84913,0.0278 -21.8651,0.24562 -32.69569,0.0881 -0.40319,0 -0.77858,-0.1344 -1.07981,-0.35685 -1.33008,-0.8898 -2.47014,-3.41092 -3.38775,-7.2204 z m -72.65812,-20.62771 c -0.25489,0 -0.46344,-0.20855 -0.46344,-0.46344 0,-0.25489 0.20855,-0.46344 0.46344,-0.46344 h 47.57675 c 0.25489,0 0.46344,0.20855 0.46344,0.46344 0,0.25489 -0.20855,0.46344 -0.46344,0.46344 z m 10.78888,3.67971 c -0.25489,0 -0.46344,-0.20854 -0.46344,-0.46344 0,-0.25489 0.20855,-0.46344 0.46344,-0.46344 h 47.57676 c 0.25489,0 0.46344,0.20855 0.46344,0.46344 0,0.2549 -0.20855,0.46344 -0.46344,0.46344 z m -67.93103,-51.01084 c -0.25489,0 -0.46344,-0.20855 -0.46344,-0.46344 0,-0.25489 0.20855,-0.46344 0.46344,-0.46344 h 47.57675 c 0.25489,0 0.46344,0.20855 0.46344,0.46344 0,0.25489 -0.20855,0.46344 -0.46344,0.46344 z m -10.78888,-3.67971 c -0.2549,0 -0.46344,-0.20855 -0.46344,-0.46344 0,-0.25489 0.20854,-0.46344 0.46344,-0.46344 h 47.57675 c 0.25489,0 0.46344,0.20855 0.46344,0.46344 0,0.25489 -0.20855,0.46344 -0.46344,0.46344 z m 108.11591,67.93103 h 31.72247 c -0.26879,-1.56642 -0.50978,-3.27652 -0.72296,-5.11174 -1.06128,-9.21782 -1.71473,-21.92998 -1.71473,-35.94904 0,-14.01906 0.65345,-26.73122 1.71473,-35.94904 0.0649,-0.57467 0.13439,-1.13543 0.20854,-1.68229 H 125.13914 c -0.0324,0 -0.0602,0 -0.088,0 -0.0788,0.65345 -0.15757,1.33471 -0.24099,2.03914 -1.02884,8.91658 -1.67765,21.22555 -1.70546,34.85069 -0.005,2.00669 0.005,-1.69619 0.005,0.94078 0,1.71009 0,2.25695 0,2.37281 0.0695,13.28219 0.73224,25.23431 1.75181,33.87283 0.19928,1.69156 0.38929,3.23481 0.57466,4.6205 h 115.00727 z m -112.11077,3.70752 h -2.37281 c 0.29197,1.88157 0.54686,3.15603 0.74614,3.71679 0.47734,-0.64418 0.83883,-1.29763 1.10299,-1.96035 0.23635,-0.5793 0.40319,-1.16787 0.51905,-1.75644 z m -2.80844,-86.10715 h 2.51648 c 0.005,-1.22348 -0.0649,-2.50721 -0.38002,-3.7585 -0.21782,-0.862 -0.5515,-1.72399 -1.06592,-2.56282 -0.29196,1.07981 -0.65808,3.26262 -1.07054,6.32132 z m 150.14992,1.27446 c 0.0602,0.18074 0.0927,0.37539 0.0927,0.5793 0,0.37075 -0.10659,0.7137 -0.29197,1.00103 -0.11586,0.93152 -0.23172,1.91864 -0.35221,2.95675 -1.04274,9.06488 -1.68229,21.62411 -1.68229,35.52731 0,13.9032 0.63955,26.46706 1.68229,35.52731 0.93151,8.10557 1.76571,13.11999 2.28012,13.11999 l 30.48045,-0.0834 c -1.11689,-2.84552 -2.00669,-7.20649 -2.63697,-12.70289 -1.05201,-9.21319 -1.70083,-21.91145 -1.70083,-35.90733 0,-13.99589 0.64882,-26.68952 1.70083,-35.90734 0.63028,-5.50566 1.52472,-9.87127 2.64161,-12.71679 l -30.48509,0.009 c -0.40782,0.005 -1.01956,3.18847 -1.72399,8.58754 z m 37.71938,4.53708 c -0.92224,-8.09166 -1.74253,-13.11072 -2.22914,-13.14316 h -0.0139 c -0.49124,0.0742 -1.3069,5.0793 -2.22451,13.13852 -1.03347,9.05562 -1.67302,21.60094 -1.67302,35.48561 0,13.88466 0.63955,26.42998 1.67302,35.4856 0.80175,7.01184 1.52009,11.71113 2.01597,12.86509 0.0834,-0.009 0.17147,-0.0139 0.26416,-0.0139 0.0602,0 0.12049,0 0.1761,0.005 0.49589,-1.16787 1.21422,-5.86251 2.01133,-12.85582 1.03348,-9.05562 1.67302,-21.60094 1.67302,-35.4856 0,-13.88467 -0.63954,-26.42999 -1.67302,-35.48561 z m -189.69989,84.34145 c -1.05201,-2.70649 -1.9001,-6.8033 -2.50721,-11.95676 -1.0242,-8.70803 -1.69156,-20.79918 -1.76571,-34.28065 -0.009,-1.69619 -0.0139,-2.27549 -0.0139,-2.38672 0,-1.27909 0,-0.24099 0.005,0 v 0 c 0,-0.10196 0,-0.37075 0.005,-0.94078 0.0278,-13.81978 0.68589,-26.27705 1.71936,-35.26779 0.61638,-5.36663 1.49228,-9.63028 2.58136,-12.42019 l -30.452645,0.0139 c -0.514419,0.005 -1.343976,5.01905 -2.280125,13.12462 -1.04274,9.06489 -1.682287,21.62412 -1.682287,35.52732 0,13.9032 0.639547,26.46705 1.682287,35.52731 0.931514,8.10556 1.765706,13.11998 2.280125,13.11998 l 30.424835,-0.0695 z m -4.28219,-48.62413 c 0,0.0556 0,0.0695 0,0 z"
   class="fil0" /><rect
   inkscape:export-ydpi="99.928093"
   inkscape:export-xdpi="99.928093"
   inkscape:export-filename="/tmp/oo.png"
   style="opacity:1;fill:#ffffff;fill-opacity:1;stroke:none;stroke-width:2.26546574;stroke-miterlimit:4;stroke-dasharray:none;stroke-dashoffset:0;stroke-opacity:1"
   id="rect909"
   width="53.444496"
   height="167.30183"
   x="79.84655"
   y="370.67136" /><path
   inkscape:export-ydpi="99.928093"
   inkscape:export-xdpi="99.928093"
   inkscape:export-filename="/tmp/oo.png"
   style="fill:#000000;stroke:#000000;stroke-width:3.71335864;stroke-linecap:butt;stroke-linejoin:miter;stroke-miterlimit:4;stroke-dasharray:11.14007584, 3.71335861;stroke-dashoffset:0;stroke-opacity:1"
   d="M 139.96475,418.66742 H 88.459918"
   id="path911"
   inkscape:connector-curvature="0" /><path
   inkscape:export-ydpi="99.928093"
   inkscape:export-xdpi="99.928093"
   inkscape:export-filename="/tmp/oo.png"
   inkscape:connector-curvature="0"
   id="path913"
   d="M 139.96475,501.06705 H 88.459918"
   style="fill:#000000;stroke:#000000;stroke-width:3.71335864;stroke-linecap:butt;stroke-linejoin:miter;stroke-miterlimit:4;stroke-dasharray:11.14007584, 3.71335861;stroke-dashoffset:0;stroke-opacity:1" /><path
   inkscape:export-ydpi="99.928093"
   inkscape:export-xdpi="99.928093"
   inkscape:export-filename="/tmp/oo.png"
   class="fil0"
   d="M 781.99256,501.4516 H 922.8227 c 0.15757,1.0381 0.4171,2.09011 0.83883,3.13285 0.54223,1.34398 1.33934,2.66478 2.50721,3.91607 0.47734,0.51442 1.18177,0.69516 1.82132,0.52832 v 0.16684 h 0.005 c 0.0463,0 0.0973,-0.005 0.14367,-0.005 l 33.52062,0.0742 c 2.71112,-0.0139 4.77806,-6.27498 5.9413,-16.39651 1.06127,-9.21782 1.71473,-21.92998 1.71473,-35.94904 0,-14.01906 -0.65346,-26.73122 -1.71473,-35.94905 -1.00103,-8.70803 -2.67405,-14.55665 -4.84759,-16.03502 -0.30587,-0.22708 -0.68125,-0.36148 -1.09371,-0.36612 -10.52936,-0.47734 -22.30074,-0.009 -32.96913,-0.0139 -0.67198,-0.23635 -1.4552,-0.0742 -1.96962,0.48198 -1.67765,1.79815 -2.59062,3.72142 -3.06797,5.6447 -0.39856,1.59887 -0.49124,3.17456 -0.48198,4.65757 H 782.69699 c -1.21422,-6.90525 -2.98456,-10.99279 -5.17199,-11.0067 l -33.51135,-0.009 c -0.088,-0.0139 -0.17147,-0.0185 -0.25953,-0.0185 -2.69258,0 -4.75489,6.27961 -5.91349,16.42895 -1.05201,9.21319 -1.70083,21.91145 -1.70083,35.90733 0,13.99589 0.64882,26.68951 1.70083,35.90734 0.8759,7.68846 2.27549,13.15706 4.069,15.35376 0.22709,0.85273 0.83419,1.36715 1.79815,1.36715 0.45417,0 0.83419,-0.11586 1.12616,-0.32904 10.84913,0.0278 21.8651,0.24562 32.69569,0.0881 0.40319,0 0.77858,-0.1344 1.07982,-0.35685 1.33007,-0.8898 2.47013,-3.41092 3.38774,-7.22039 z m 72.65812,-20.62772 c 0.25489,0 0.46344,-0.20854 0.46344,-0.46344 0,-0.25489 -0.20855,-0.46344 -0.46344,-0.46344 h -47.57675 c -0.25489,0 -0.46344,0.20855 -0.46344,0.46344 0,0.2549 0.20855,0.46344 0.46344,0.46344 z m -10.78888,3.67972 c 0.25489,0 0.46344,-0.20855 0.46344,-0.46344 0,-0.2549 -0.20855,-0.46344 -0.46344,-0.46344 h -47.57675 c -0.2549,0 -0.46344,0.20854 -0.46344,0.46344 0,0.25489 0.20854,0.46344 0.46344,0.46344 z m 67.93103,-51.01085 c 0.25489,0 0.46344,-0.20854 0.46344,-0.46344 0,-0.25489 -0.20855,-0.46344 -0.46344,-0.46344 h -47.57675 c -0.25489,0 -0.46344,0.20855 -0.46344,0.46344 0,0.2549 0.20855,0.46344 0.46344,0.46344 z m 10.78889,-3.67971 c 0.25489,0 0.46344,-0.20855 0.46344,-0.46344 0,-0.25489 -0.20855,-0.46344 -0.46344,-0.46344 h -47.57675 c -0.2549,0 -0.46344,0.20855 -0.46344,0.46344 0,0.25489 0.20854,0.46344 0.46344,0.46344 z M 814.4658,497.74408 h -31.72247 c 0.2688,-1.56643 0.50978,-3.27652 0.72297,-5.11175 1.06127,-9.21782 1.71472,-21.92998 1.71472,-35.94904 0,-14.01906 -0.65345,-26.73122 -1.71472,-35.94904 -0.0649,-0.57467 -0.1344,-1.13543 -0.20855,-1.68229 H 929.7604 c 0.0324,0 0.0602,0 0.088,0 0.0788,0.65345 0.15757,1.33471 0.24099,2.03914 1.02884,8.91658 1.67766,21.22555 1.70546,34.85069 0.005,2.0067 -0.005,-1.69619 -0.005,0.94078 0,1.7101 0,2.25696 0,2.37282 -0.0695,13.28219 -0.73224,25.2343 -1.7518,33.87283 -0.19928,1.69155 -0.38929,3.23481 -0.57467,4.62049 H 814.45653 Z m 112.11077,3.70752 h 2.37281 c -0.29197,1.88156 -0.54686,3.15602 -0.74614,3.71679 -0.47734,-0.64418 -0.83882,-1.29764 -1.10298,-1.96035 -0.23636,-0.5793 -0.4032,-1.16787 -0.51906,-1.75644 z m 2.80844,-86.10716 h -2.51647 c -0.005,-1.22348 0.0649,-2.50721 0.38002,-3.7585 0.21781,-0.86199 0.55149,-1.72399 1.06591,-2.56282 0.29197,1.07982 0.65808,3.26262 1.07054,6.32132 z m -150.14992,1.27446 c -0.0602,0.18074 -0.0927,0.37539 -0.0927,0.5793 0,0.37076 0.10659,0.7137 0.29197,1.00103 0.11586,0.93152 0.23172,1.91865 0.35221,2.95675 1.04274,9.06489 1.68229,21.62411 1.68229,35.52731 0,13.9032 -0.63955,26.46706 -1.68229,35.52731 -0.93151,8.10557 -1.7657,13.11999 -2.28012,13.11999 l -30.48045,-0.0834 c 1.11689,-2.84552 2.00669,-7.20649 2.63697,-12.70289 1.05201,-9.21319 1.70083,-21.91144 1.70083,-35.90733 0,-13.99589 -0.64882,-26.68951 -1.70083,-35.90733 -0.63028,-5.50567 -1.52471,-9.87128 -2.64161,-12.7168 l 30.48509,0.009 c 0.40783,0.005 1.01957,3.18847 1.72399,8.58755 z m -37.71938,4.53708 c 0.92224,-8.09166 1.74253,-13.11072 2.22914,-13.14316 h 0.0139 c 0.49124,0.0742 1.3069,5.0793 2.22451,13.13853 1.03347,9.05561 1.67302,21.60094 1.67302,35.4856 0,13.88466 -0.63955,26.42998 -1.67302,35.4856 -0.80175,7.01185 -1.52008,11.71113 -2.01596,12.8651 -0.0834,-0.009 -0.17148,-0.0139 -0.26417,-0.0139 -0.0602,0 -0.12049,0 -0.1761,0.005 -0.49588,-1.16787 -1.21422,-5.86252 -2.01133,-12.85583 -1.03347,-9.05562 -1.67302,-21.60094 -1.67302,-35.4856 0,-13.88466 0.63955,-26.42999 1.67302,-35.4856 z m 189.69989,84.34145 c 1.05201,-2.70649 1.90011,-6.8033 2.50721,-11.95675 1.02421,-8.70804 1.69156,-20.79919 1.76571,-34.28066 0.009,-1.69619 0.0139,-2.27549 0.0139,-2.38672 0,-1.27909 0,-0.24098 -0.005,0 v 0 c 0,-0.10195 0,-0.37075 -0.005,-0.94078 -0.0278,-13.81978 -0.68589,-26.27705 -1.71936,-35.26779 -0.61637,-5.36663 -1.49228,-9.63028 -2.58136,-12.42019 l 30.45264,0.0139 c 0.51442,0.005 1.34398,5.01906 2.28013,13.12462 1.04274,9.06489 1.68229,21.62412 1.68229,35.52732 0,13.9032 -0.63955,26.46706 -1.68229,35.52731 -0.93152,8.10557 -1.76571,13.11999 -2.28013,13.11999 l -30.42483,-0.0695 z m 4.28219,-48.62413 c 0,0.0556 0,0.0695 0,0 z"
   id="path915"
   inkscape:connector-curvature="0"
   style="fill:#000000;fill-rule:nonzero;stroke-width:0.0046344" /><rect
   inkscape:export-ydpi="99.928093"
   inkscape:export-xdpi="99.928093"
   inkscape:export-filename="/tmp/oo.png"
   transform="scale(-1,1)"
   y="369.19974"
   x="-980.7287"
   height="167.30183"
   width="59.120193"
   id="rect917"
   style="opacity:1;fill:#ffffff;fill-opacity:1;stroke:none;stroke-width:2.38272524;stroke-miterlimit:4;stroke-dasharray:none;stroke-dashoffset:0;stroke-opacity:1" /><path
   inkscape:export-ydpi="99.928093"
   inkscape:export-xdpi="99.928093"
   inkscape:export-filename="/tmp/oo.png"
   inkscape:connector-curvature="0"
   id="path919"
   d="m 914.93479,417.19579 h 51.50483"
   style="fill:#000000;stroke:#000000;stroke-width:3.71335864;stroke-linecap:butt;stroke-linejoin:miter;stroke-miterlimit:4;stroke-dasharray:11.14007584, 3.71335861;stroke-dashoffset:0;stroke-opacity:1" /><path
   inkscape:export-ydpi="99.928093"
   inkscape:export-xdpi="99.928093"
   inkscape:export-filename="/tmp/oo.png"
   style="fill:#000000;stroke:#000000;stroke-width:3.71335864;stroke-linecap:butt;stroke-linejoin:miter;stroke-miterlimit:4;stroke-dasharray:11.14007584, 3.71335861;stroke-dashoffset:0;stroke-opacity:1"
   d="m 914.93479,499.59543 h 51.50483"
   id="path921"
   inkscape:connector-curvature="0" /><flowRoot
   inkscape:export-ydpi="99.928093"
   inkscape:export-xdpi="99.928093"
   inkscape:export-filename="/tmp/oo.png"
   transform="matrix(0.63812751,0,0,0.63812751,570.93397,501.71425)"
   style="font-style:normal;font-weight:normal;font-size:21.33333397px;line-height:1.25;font-family:sans-serif;letter-spacing:0px;word-spacing:0px;clip-rule:evenodd;fill:#000000;fill-opacity:1;fill-rule:evenodd;stroke:none;image-rendering:optimizeQuality;shape-rendering:geometricPrecision;text-rendering:geometricPrecision"
   id="flowRoot929"
   xml:space="preserve"><flowRegion
     id="flowRegion925"><rect
       y="-85.241554"
       x="174.85794"
       height="62.449265"
       width="149.87823"
       id="rect923" /></flowRegion><flowPara
     style="font-style:normal;font-variant:normal;font-weight:normal;font-stretch:normal;font-family:'Glacial Indifference';-inkscape-font-specification:'Glacial Indifference'"
     id="flowPara927">outOM</flowPara></flowRoot><polygon
   inkscape:transform-center-y="-8.0004527"
   inkscape:transform-center-x="7.8322467"
   inkscape:export-ydpi="99.928093"
   inkscape:export-xdpi="99.928093"
   inkscape:export-filename="/tmp/oo.png"
   id="polygon931"
   points="95,58.206 95,41.273 25.968,44.66 25.968,33.458 5,50 25.968,66.542 25.968,55.34 "
   transform="matrix(-0.31070111,-4.713467e-4,4.713467e-4,-0.31070111,674.44724,470.28227)"
   style="fill:#333333;fill-opacity:1" /><flowRoot
   inkscape:export-ydpi="99.928093"
   inkscape:export-xdpi="99.928093"
   inkscape:export-filename="/tmp/oo.png"
   xml:space="preserve"
   id="flowRoot939"
   style="font-style:normal;font-weight:normal;font-size:21.33333397px;line-height:1.25;font-family:sans-serif;letter-spacing:0px;word-spacing:0px;clip-rule:evenodd;fill:#333333;fill-opacity:1;fill-rule:evenodd;stroke:none;image-rendering:optimizeQuality;shape-rendering:geometricPrecision;text-rendering:geometricPrecision"
   transform="matrix(0.63812751,0,0,0.63812751,368.67867,427.37184)"><flowRegion
     id="flowRegion935"
     style="fill:#333333;fill-opacity:1"><rect
       id="rect933"
       width="149.87823"
       height="62.449265"
       x="174.85794"
       y="-85.241554"
       style="fill:#333333;fill-opacity:1" /></flowRegion><flowPara
     id="flowPara937"
     style="font-style:normal;font-variant:normal;font-weight:normal;font-stretch:normal;font-family:'Glacial Indifference';-inkscape-font-specification:'Glacial Indifference';fill:#333333;fill-opacity:1">Model context</flowPara></flowRoot><flowRoot
   inkscape:export-ydpi="99.928093"
   inkscape:export-xdpi="99.928093"
   inkscape:export-filename="/tmp/oo.png"
   transform="matrix(0.63812751,0,0,0.63812751,488.06637,397.77048)"
   style="font-style:normal;font-weight:normal;font-size:21.33333397px;line-height:1.25;font-family:sans-serif;letter-spacing:0px;word-spacing:0px;clip-rule:evenodd;fill:#1a1a1a;fill-opacity:1;fill-rule:evenodd;stroke:none;image-rendering:optimizeQuality;shape-rendering:geometricPrecision;text-rendering:geometricPrecision"
   id="flowRoot947"
   xml:space="preserve"><flowRegion
     style="fill:#1a1a1a;fill-opacity:1"
     id="flowRegion943"><rect
       style="fill:#1a1a1a;fill-opacity:1"
       y="-85.241554"
       x="174.85794"
       height="62.449265"
       width="149.87823"
       id="rect941" /></flowRegion><flowPara
     style="font-style:normal;font-variant:normal;font-weight:normal;font-stretch:normal;font-family:'Glacial Indifference';-inkscape-font-specification:'Glacial Indifference';fill:#1a1a1a;fill-opacity:1"
     id="flowPara945">OM Task</flowPara></flowRoot><rect
   inkscape:export-ydpi="99.928093"
   inkscape:export-xdpi="99.928093"
   inkscape:export-filename="/tmp/oo.png"
   style="opacity:1;fill:#ffcc00;fill-opacity:1;stroke:none;stroke-width:18.73571968;stroke-miterlimit:4;stroke-dasharray:none;stroke-dashoffset:0;stroke-opacity:1"
   id="rect949"
   width="70.810974"
   height="48.571651"
   x="489.38278"
   y="405.5054"
   ry="11.066958" /><g
   inkscape:export-ydpi="99.928093"
   inkscape:export-xdpi="99.928093"
   inkscape:export-filename="/tmp/oo.png"
   id="g960"
   transform="matrix(0.74321849,0,0,0.74321849,371.94484,484.98302)"><flowRoot
     style="font-style:normal;font-weight:normal;font-size:21.33333397px;line-height:1.25;font-family:sans-serif;letter-spacing:0px;word-spacing:0px;fill:#000000;fill-opacity:1;stroke:none"
     id="flowRoot958"
     xml:space="preserve"><flowRegion
       id="flowRegion954"><rect
         y="-85.241554"
         x="174.85794"
         height="62.449265"
         width="149.87823"
         id="rect952" /></flowRegion><flowPara
       style="font-style:normal;font-variant:normal;font-weight:normal;font-stretch:normal;font-family:'Glacial Indifference';-inkscape-font-specification:'Glacial Indifference'"
       id="flowPara956">Model</flowPara></flowRoot></g><g
   inkscape:export-ydpi="99.928093"
   inkscape:export-xdpi="99.928093"
   inkscape:export-filename="/tmp/oo.png"
   id="g974"
   transform="translate(134.33762,331.91106)"><g
     transform="translate(5.2484269e-6,0.59979181)"
     id="g970"><flowRoot
       transform="matrix(0.63812751,0,0,0.63812751,344.14053,166.65206)"
       style="font-style:normal;font-weight:normal;font-size:21.33333397px;line-height:1.25;font-family:sans-serif;letter-spacing:0px;word-spacing:0px;fill:#000000;fill-opacity:1;stroke:none"
       id="flowRoot968"
       xml:space="preserve"><flowRegion
         id="flowRegion964"><rect
           y="-85.241554"
           x="174.85794"
           height="62.449265"
           width="149.87823"
           id="rect962" /></flowRegion><flowPara
         style="font-style:normal;font-variant:normal;font-weight:normal;font-stretch:normal;font-family:'Glacial Indifference';-inkscape-font-specification:'Glacial Indifference'"
         id="flowPara966">out.txt</flowPara></flowRoot></g><path
     inkscape:connector-curvature="0"
     style="clip-rule:evenodd;fill:#000000;fill-rule:evenodd;stroke-width:0.03883372;image-rendering:optimizeQuality;shape-rendering:geometricPrecision;text-rendering:geometricPrecision"
     d="m 489.34492,79.445134 -8.35702,-8.357011 c -0.233,-0.233003 -0.54756,-0.365037 -0.87764,-0.365037 h -16.49657 c -0.68736,0 -1.24268,0.555312 -1.24268,1.24267 v 32.309664 c 0,0.68736 0.55532,1.24268 1.24268,1.24268 h 24.85358 c 0.68736,0 1.24269,-0.55532 1.24269,-1.24268 V 80.326658 c 0,-0.330079 -0.13204,-0.648522 -0.36504,-0.881524 z m -2.50089,1.452387 h -7.30851 v -7.308507 z m 0.0698,21.824549 H 465.16698 V 73.519112 h 11.72779 v 8.388089 c 0,0.900931 0.73007,1.631015 1.63101,1.631015 h 8.38809 z M 475.72976,92.236969 h -7.14541 c -0.17087,0 -0.31067,0.139803 -0.31067,0.310673 v 1.864021 c 0,0.17087 0.1398,0.31067 0.31067,0.31067 h 7.14541 c 0.17087,0 0.31066,-0.1398 0.31066,-0.31067 v -1.864021 c 0,-0.17087 -0.13979,-0.310673 -0.31066,-0.310673 z m -7.45608,-4.970718 v 1.864017 c 0,0.17087 0.1398,0.310674 0.31067,0.310674 h 14.91215 c 0.17087,0 0.31067,-0.139804 0.31067,-0.310674 v -1.864017 c 0,-0.17087 -0.1398,-0.310674 -0.31067,-0.310674 h -14.91215 c -0.17087,0 -0.31067,0.139804 -0.31067,0.310674 z"
     id="path972" /></g><polygon
   style="fill:#333333;fill-opacity:1"
   transform="matrix(-0.31070111,-4.713467e-4,4.713467e-4,-0.31070111,586.97549,445.33853)"
   points="95,41.273 25.968,44.66 25.968,33.458 5,50 25.968,66.542 25.968,55.34 95,58.206 "
   id="polygon976"
   inkscape:export-filename="/tmp/oo.png"
   inkscape:export-xdpi="99.928093"
   inkscape:export-ydpi="99.928093"
   inkscape:transform-center-x="7.8322467"
   inkscape:transform-center-y="-8.0004527" /><g
   inkscape:export-ydpi="99.928093"
   inkscape:export-xdpi="99.928093"
   inkscape:export-filename="/tmp/oo.png"
   id="g988"
   transform="translate(130.33762,333.91106)"><flowRoot
     xml:space="preserve"
     id="flowRoot984"
     style="font-style:normal;font-weight:normal;font-size:21.33333397px;line-height:1.25;font-family:sans-serif;letter-spacing:0px;word-spacing:0px;clip-rule:evenodd;fill:#000000;fill-opacity:1;fill-rule:evenodd;stroke:none;image-rendering:optimizeQuality;shape-rendering:geometricPrecision;text-rendering:geometricPrecision"
     transform="matrix(0.63812751,0,0,0.63812751,182.42524,165.25185)"><flowRegion
       id="flowRegion980"><rect
         id="rect978"
         width="149.87823"
         height="62.449265"
         x="174.85794"
         y="-85.241554" /></flowRegion><flowPara
       id="flowPara982"
       style="font-style:normal;font-variant:normal;font-weight:normal;font-stretch:normal;font-family:'Glacial Indifference';-inkscape-font-specification:'Glacial Indifference'">in.txt</flowPara></flowRoot><path
     id="path986"
     d="m 323.34492,77.445134 -8.35702,-8.357011 c -0.233,-0.233003 -0.54756,-0.365037 -0.87764,-0.365037 h -16.49657 c -0.68736,0 -1.24268,0.555312 -1.24268,1.24267 v 32.309664 c 0,0.68736 0.55532,1.24268 1.24268,1.24268 h 24.85358 c 0.68736,0 1.24269,-0.55532 1.24269,-1.24268 V 78.326658 c 0,-0.330079 -0.13204,-0.648522 -0.36504,-0.881524 z m -2.50089,1.452387 h -7.30851 v -7.308507 z m 0.0698,21.824549 H 299.16698 V 71.519112 h 11.72779 v 8.388089 c 0,0.900931 0.73007,1.631015 1.63101,1.631015 h 8.38809 z M 309.72976,90.236969 h -7.14541 c -0.17087,0 -0.31067,0.139803 -0.31067,0.310673 v 1.864021 c 0,0.17087 0.1398,0.31067 0.31067,0.31067 h 7.14541 c 0.17087,0 0.31066,-0.1398 0.31066,-0.31067 v -1.864021 c 0,-0.17087 -0.13979,-0.310673 -0.31066,-0.310673 z m -7.45608,-4.970718 v 1.864017 c 0,0.17087 0.1398,0.310674 0.31067,0.310674 h 14.91215 c 0.17087,0 0.31067,-0.139804 0.31067,-0.310674 v -1.864017 c 0,-0.17087 -0.1398,-0.310674 -0.31067,-0.310674 h -14.91215 c -0.17087,0 -0.31067,0.139804 -0.31067,0.310674 z"
     style="clip-rule:evenodd;fill:#000000;fill-rule:evenodd;stroke-width:0.03883372;image-rendering:optimizeQuality;shape-rendering:geometricPrecision;text-rendering:geometricPrecision"
     inkscape:connector-curvature="0" /></g><polygon
   inkscape:transform-center-y="-8.0004527"
   inkscape:transform-center-x="7.8322467"
   inkscape:export-ydpi="99.928093"
   inkscape:export-xdpi="99.928093"
   inkscape:export-filename="/tmp/oo.png"
   id="polygon990"
   points="25.968,55.34 95,58.206 95,41.273 25.968,44.66 25.968,33.458 5,50 25.968,66.542 "
   transform="matrix(-0.31070111,-4.713467e-4,4.713467e-4,-0.31070111,494.97549,445.33853)"
   style="fill:#333333;fill-opacity:1" /><flowRoot
   inkscape:export-ydpi="99.928093"
   inkscape:export-xdpi="99.928093"
   inkscape:export-filename="/tmp/oo.png"
   xml:space="preserve"
   id="flowRoot998"
   style="font-style:normal;font-weight:normal;font-size:21.33333397px;line-height:1.25;font-family:sans-serif;letter-spacing:0px;word-spacing:0px;clip-rule:evenodd;fill:#000000;fill-opacity:1;fill-rule:evenodd;stroke:none;image-rendering:optimizeQuality;shape-rendering:geometricPrecision;text-rendering:geometricPrecision"
   transform="matrix(0.63812751,0,0,0.63812751,219.26618,501.71425)"><flowRegion
     id="flowRegion994"><rect
       id="rect992"
       width="149.87823"
       height="62.449265"
       x="174.85794"
       y="-85.241554" /></flowRegion><flowPara
     id="flowPara996"
     style="font-style:normal;font-variant:normal;font-weight:normal;font-stretch:normal;font-family:'Glacial Indifference';-inkscape-font-specification:'Glacial Indifference'">inOM</flowPara></flowRoot><polygon
   style="fill:#333333;fill-opacity:1"
   transform="matrix(-0.31070111,-4.713467e-4,4.713467e-4,-0.31070111,408.44724,470.28227)"
   points="25.968,44.66 25.968,33.458 5,50 25.968,66.542 25.968,55.34 95,58.206 95,41.273 "
   id="polygon1000"
   inkscape:export-filename="/tmp/oo.png"
   inkscape:export-xdpi="99.928093"
   inkscape:export-ydpi="99.928093"
   inkscape:transform-center-x="7.8322467"
   inkscape:transform-center-y="-8.0004527" /><flowRoot
   inkscape:export-ydpi="99.928093"
   inkscape:export-xdpi="99.928093"
   inkscape:export-filename="/tmp/oo.png"
   transform="matrix(0.81686073,0,0,0.81686073,54.717909,614.32507)"
   style="font-style:normal;font-weight:normal;font-size:21.33333397px;line-height:1.25;font-family:sans-serif;letter-spacing:0px;word-spacing:0px;clip-rule:evenodd;fill:#000000;fill-opacity:1;fill-rule:evenodd;stroke:none;image-rendering:optimizeQuality;shape-rendering:geometricPrecision;text-rendering:geometricPrecision"
   id="flowRoot1008"
   xml:space="preserve"><flowRegion
     id="flowRegion1004"><rect
       y="-85.241554"
       x="174.85794"
       height="38.428574"
       width="342.04376"
       id="rect1002" /></flowRegion><flowPara
     style="font-style:normal;font-variant:normal;font-weight:bold;font-stretch:normal;font-family:Courier;-inkscape-font-specification:'Courier Bold'"
     id="flowPara1006">inputFiles(inOM, &quot;in.txt&quot;)</flowPara></flowRoot><flowRoot
   inkscape:export-ydpi="99.928093"
   inkscape:export-xdpi="99.928093"
   inkscape:export-filename="/tmp/oo.png"
   xml:space="preserve"
   id="flowRoot1016"
   style="font-style:normal;font-weight:normal;font-size:21.33333397px;line-height:1.25;font-family:sans-serif;letter-spacing:0px;word-spacing:0px;clip-rule:evenodd;fill:#000000;fill-opacity:1;fill-rule:evenodd;stroke:none;image-rendering:optimizeQuality;shape-rendering:geometricPrecision;text-rendering:geometricPrecision"
   transform="matrix(0.76340762,0,0,0.76340762,472.07112,610.06091)"><flowRegion
     id="flowRegion1012"><rect
       id="rect1010"
       width="503.1037"
       height="65.742821"
       x="174.85794"
       y="-85.241554" /></flowRegion><flowPara
     id="flowPara1014"
     style="font-style:normal;font-variant:normal;font-weight:bold;font-stretch:normal;font-size:22.70521355px;font-family:Courier;-inkscape-font-specification:'Courier Bold'">outputFiles(&quot;out.txt&quot;, outOM)</flowPara></flowRoot><flowRoot
   inkscape:export-ydpi="99.928093"
   inkscape:export-xdpi="99.928093"
   inkscape:export-filename="/tmp/oo.png"
   transform="matrix(0.63812751,0,0,0.63812751,12.427294,507.32716)"
   style="font-style:normal;font-weight:normal;font-size:21.33333397px;line-height:1.25;font-family:sans-serif;letter-spacing:0px;word-spacing:0px;clip-rule:evenodd;fill:#000000;fill-opacity:1;fill-rule:evenodd;stroke:none;image-rendering:optimizeQuality;shape-rendering:geometricPrecision;text-rendering:geometricPrecision"
   id="flowRoot1024"
   xml:space="preserve"><flowRegion
     id="flowRegion1020"><rect
       y="-85.241554"
       x="174.85794"
       height="62.449265"
       width="149.87823"
       id="rect1018" /></flowRegion><flowPara
     style="font-style:normal;font-variant:normal;font-weight:normal;font-stretch:normal;font-family:'Glacial Indifference';-inkscape-font-specification:'Glacial Indifference'"
     id="flowPara1022">OM dataflow</flowPara></flowRoot><flowRoot
   inkscape:export-ydpi="99.928093"
   inkscape:export-xdpi="99.928093"
   inkscape:export-filename="/tmp/oo.png"
   xml:space="preserve"
   id="flowRoot1032"
   style="font-style:normal;font-weight:normal;font-size:21.33333397px;line-height:1.25;font-family:sans-serif;letter-spacing:0px;word-spacing:0px;clip-rule:evenodd;fill:#000000;fill-opacity:1;fill-rule:evenodd;stroke:none;image-rendering:optimizeQuality;shape-rendering:geometricPrecision;text-rendering:geometricPrecision"
   transform="matrix(0.63812751,0,0,0.63812751,735.9763,505.52071)"><flowRegion
     id="flowRegion1028"><rect
       id="rect1026"
       width="149.87823"
       height="62.449265"
       x="174.85794"
       y="-85.241554" /></flowRegion><flowPara
     id="flowPara1030"
     style="font-style:normal;font-variant:normal;font-weight:normal;font-stretch:normal;font-family:'Glacial Indifference';-inkscape-font-specification:'Glacial Indifference'">OM dataflow</flowPara></flowRoot><rect
   y="16.461641"
   x="86.074623"
   height="167.30183"
   width="57.075874"
   id="rect832"
   style="opacity:1;fill:#ffffff;fill-opacity:1;stroke:none;stroke-width:2.3411665;stroke-miterlimit:4;stroke-dasharray:none;stroke-dashoffset:0;stroke-opacity:1"
   inkscape:export-filename="/tmp/oo.png"
   inkscape:export-xdpi="99.928093"
   inkscape:export-ydpi="99.928093" /><flowRoot
   transform="matrix(0.63812751,0,0,0.63812751,455.57128,134.61712)"
   style="font-style:normal;font-weight:normal;font-size:21.33333397px;line-height:1.25;font-family:sans-serif;letter-spacing:0px;word-spacing:0px;clip-rule:evenodd;fill:#000000;fill-opacity:1;fill-rule:evenodd;stroke:none;image-rendering:optimizeQuality;shape-rendering:geometricPrecision;text-rendering:geometricPrecision"
   id="flowRoot1081"
   xml:space="preserve"
   inkscape:export-xdpi="99"
   inkscape:export-ydpi="99"><flowRegion
     id="flowRegion1077"><rect
       y="-85.241554"
       x="174.85794"
       height="62.449265"
       width="149.87823"
       id="rect1075" /></flowRegion><flowPara
     style="font-style:normal;font-variant:normal;font-weight:normal;font-stretch:normal;font-family:'Glacial Indifference';-inkscape-font-specification:'Glacial Indifference'"
     id="flowPara1079">outNetlogo</flowPara></flowRoot><rect
   style="opacity:1;fill:#ffffff;fill-opacity:1;stroke:none;stroke-width:2.38272524;stroke-miterlimit:4;stroke-dasharray:none;stroke-dashoffset:0;stroke-opacity:1"
   id="rect844"
   width="59.120193"
   height="167.30183"
   x="-968.95679"
   y="10.990015"
   transform="scale(-1,1)"
   inkscape:export-filename="/tmp/oo.png"
   inkscape:export-xdpi="99.928093"
   inkscape:export-ydpi="99.928093" /><flowRoot
   xml:space="preserve"
   id="flowRoot1083"
   style="font-style:normal;font-weight:normal;font-size:21.33333397px;line-height:1.25;font-family:sans-serif;letter-spacing:0px;word-spacing:0px;fill:#000000;fill-opacity:1;stroke:none"
   transform="translate(68.074623,-11.302575)"><flowRegion
     id="flowRegion1085"><rect
       id="rect1087"
       width="79.113586"
       height="29.535738"
       x="406.11639"
       y="249.88759" /></flowRegion><flowPara
     id="flowPara1089"></flowPara></flowRoot><flowRoot
   xml:space="preserve"
   id="flowRoot1091"
   style="font-style:normal;font-weight:normal;font-size:21.33333397px;line-height:1.25;font-family:sans-serif;letter-spacing:0px;word-spacing:0px;fill:#000000;fill-opacity:1;stroke:none"
   transform="translate(68.074623,-11.302575)"><flowRegion
     id="flowRegion1093"><rect
       id="rect1095"
       width="125.52689"
       height="88.607216"
       x="409.28094"
       y="247.77789" /></flowRegion><flowPara
     id="flowPara1097"></flowPara></flowRoot><flowRoot
   xml:space="preserve"
   id="flowRoot1099"
   style="font-style:normal;font-weight:normal;font-size:21.33333397px;line-height:1.25;font-family:sans-serif;letter-spacing:0px;word-spacing:0px;fill:#000000;fill-opacity:1;stroke:none"
   transform="translate(68.074623,-11.302575)"><flowRegion
     id="flowRegion1101"><rect
       id="rect1103"
       width="13.713021"
       height="52.74239"
       x="412.4455"
       y="247.77789" /></flowRegion><flowPara
     id="flowPara1105"></flowPara></flowRoot><flowRoot
   xml:space="preserve"
   id="flowRoot1107"
   style="font-style:normal;font-weight:normal;font-size:21.33333397px;line-height:1.25;font-family:sans-serif;letter-spacing:0px;word-spacing:0px;fill:#000000;fill-opacity:1;stroke:none"><flowRegion
     id="flowRegion1109"><rect
       id="rect1111"
       width="19.514685"
       height="30.063162"
       x="407.43497"
       y="247.25046" /></flowRegion><flowPara
     id="flowPara1113"></flowPara></flowRoot><flowRoot
   xml:space="preserve"
   id="flowRoot1115"
   style="font-style:normal;font-weight:normal;font-size:21.33333397px;line-height:1.25;font-family:sans-serif;letter-spacing:0px;word-spacing:0px;fill:#000000;fill-opacity:1;stroke:none"
   transform="translate(68.074623,-11.302575)"><flowRegion
     id="flowRegion1117"><rect
       id="rect1119"
       width="0"
       height="32.700283"
       x="408.2261"
       y="250.94243" /></flowRegion><flowPara
     id="flowPara1121"></flowPara></flowRoot></g></svg>