<?xml version="1.0" encoding="UTF-8" standalone="no"?>
<svg
   xmlns:dc="http://purl.org/dc/elements/1.1/"
   xmlns:cc="http://creativecommons.org/ns#"
   xmlns:rdf="http://www.w3.org/1999/02/22-rdf-syntax-ns#"
   xmlns:svg="http://www.w3.org/2000/svg"
   xmlns="http://www.w3.org/2000/svg"
   xmlns:sodipodi="http://sodipodi.sourceforge.net/DTD/sodipodi-0.dtd"
   xmlns:inkscape="http://www.inkscape.org/namespaces/inkscape"
   width="258.79999"
   height="258.79999"
   viewBox="0 0 258.79999 258.79999"
   version="1.1"
   id="svg28"
   sodipodi:docname="icon.svg"
   inkscape:version="0.92.5 (2060ec1f9f, 2020-04-08)">
  <metadata
     id="metadata34">
    <rdf:RDF>
      <cc:Work
         rdf:about="">
        <dc:format>image/svg+xml</dc:format>
        <dc:type
           rdf:resource="http://purl.org/dc/dcmitype/StillImage" />
        <dc:title></dc:title>
      </cc:Work>
    </rdf:RDF>
  </metadata>
  <defs
     id="defs32" />
  <sodipodi:namedview
     pagecolor="#ffffff"
     bordercolor="#666666"
     borderopacity="1"
     objecttolerance="10"
     gridtolerance="10"
     guidetolerance="10"
     inkscape:pageopacity="0"
     inkscape:pageshadow="2"
     inkscape:window-width="640"
     inkscape:window-height="480"
     id="namedview30"
     showgrid="false"
     inkscape:zoom="0.78145695"
     inkscape:cx="-153.75593"
     inkscape:cy="63.7"
     inkscape:current-layer="svg28" />
  <path
     d="M 129.4,0 C 25.9,0 0,25.9 0,129.4 0,232.9 25.9,258.8 129.4,258.8 232.9,258.8 258.8,233 258.8,129.4 258.8,25.8 233,0 129.4,0 Z"
     id="path2"
     inkscape:connector-curvature="0"
     style="fill:#3f3d56" />
  <ellipse
     cx="129.39999"
     cy="195.7"
     rx="110.5"
     ry="18.200001"
     id="ellipse4"
     style="fill:#2f2e41" />
  <path
     d="M 61.1,102.9 V 210 c 18.8,2.4 42.5,3.9 68.3,3.9 25.8,0 49.5,-1.5 68.3,-3.9 V 102.9 Z"
     id="path6"
     inkscape:connector-curvature="0"
     style="fill:#878696" />
  <g
     stroke-miterlimit="10"
     id="g14"
     style="stroke:#3f3d56;stroke-width:6.79960012;stroke-miterlimit:10"
     transform="translate(-22,-22)">
    <circle
       cx="127"
       cy="155.10001"
       r="14.4"
       id="circle8"
       style="fill:#3f3d56;fill-opacity:0.6" />
    <circle
       cx="175.8"
       cy="155.10001"
       r="14.4"
       id="circle10"
       style="fill:#3f3d56;fill-opacity:0.6" />
    <path
       d="m 140.7,155.1 h 21.4"
       id="path12"
       inkscape:connector-curvature="0"
       style="fill:none" />
  </g>
  <path
     d="m 115.7,181.5 1.5,1.8 c 6.7,6.7 17.6,6.7 24.4,0 0.6,-0.6 1.1,-1.2 1.5,-1.8 -3.1,2.8 -8.1,4.7 -13.7,4.7 -5.6,0 -10.6,-1.8 -13.7,-4.7 z"
     id="path16"
     inkscape:connector-curvature="0"
     style="fill:#3f3d56" />
  <path
     d="m 141.6,159 -6.1,-6.1 c -3.4,-3.4 -8.9,-3.4 -12.2,0 l -6.1,6.1 c -4.2,4.2 -5.8,10.1 -4.7,15.5 0.5,2.5 1.6,4.9 3.2,7.1 3.1,2.8 8.1,4.7 13.7,4.7 5.7,0 10.7,-1.8 13.7,-4.7 1.6,-2.1 2.7,-4.6 3.2,-7.1 1.1,-5.5 -0.5,-11.3 -4.7,-15.5 z"
     id="path18"
     inkscape:connector-curvature="0"
     style="opacity:0.5;fill:#ffffff" />
  <path
     d="m 124.4,180 c -2.8,-2.8 -2.8,-7.3 0,-10.1 2.8,-2.8 7.3,-2.8 10.1,0 2.8,2.8 2.8,7.3 0,10.1 -2.8,2.8 -7.3,2.8 -10.1,0 z"
     id="path20"
     inkscape:connector-curvature="0"
     style="fill:#3f3d56" />
  <g
     id="g26"
     transform="translate(-22,-22)">
    <path
       d="m 228.1,121.3 h -8.4 C 219.4,102.1 209,85.1 193,74.3 189.4,71.8 185.5,69.7 181.4,67.9 V 102 c 0,1.6 -1.3,2.8 -2.8,2.8 -1.5,0 -2.8,-1.3 -2.8,-2.8 V 65.7 c -3.6,-1.2 -7.4,-2.2 -11.2,-2.8 V 78 c 0,4.6 -3.8,8.4 -8.4,8.4 h -9.3 c -4.6,0 -8.4,-3.8 -8.4,-8.4 V 62.9 c -3.9,0.7 -7.6,1.6 -11.2,2.8 V 102 c 0,1.6 -1.3,2.8 -2.8,2.8 -1.6,0 -2.8,-1.3 -2.8,-2.8 V 67.9 c -4.1,1.8 -8,3.9 -11.6,6.4 -16,10.9 -26.4,27.9 -26.7,47 H 72.8 c -1.3,0 -2.3,1 -2.3,2.3 0,1.3 1,2.3 2.3,2.3 h 155.3 c 1.3,0 2.3,-1 2.3,-2.3 0,-1.3 -1.1,-2.3 -2.3,-2.3 z"
       id="path22"
       inkscape:connector-curvature="0"
       style="fill:#a6bf26" />
    <path
       d="m 156.1,53 c 2.1,0 3.9,1.7 3.9,3.9 V 78 c 0,2.1 -1.7,3.9 -3.9,3.9 h -9.3 c -2.1,0 -3.9,-1.7 -3.9,-3.9 V 56.9 c 0,-2.1 1.7,-3.9 3.9,-3.9 h 9.3"
       id="path24"
       inkscape:connector-curvature="0"
       style="fill:#ffb500" />
  </g>
</svg>
