<?xml version="1.0" encoding="UTF-8" standalone="no"?>
<svg
   xmlns:dc="http://purl.org/dc/elements/1.1/"
   xmlns:cc="http://creativecommons.org/ns#"
   xmlns:rdf="http://www.w3.org/1999/02/22-rdf-syntax-ns#"
   xmlns:svg="http://www.w3.org/2000/svg"
   xmlns="http://www.w3.org/2000/svg"
   xmlns:sodipodi="http://sodipodi.sourceforge.net/DTD/sodipodi-0.dtd"
   xmlns:inkscape="http://www.inkscape.org/namespaces/inkscape"
   width="659.40002"
   height="161.29999"
   x="0px"
   y="0px"
   viewBox="0 0 659.4 161.29999"
   version="1.1"
   id="svg38"
   sodipodi:docname="logo-dark-full-nobg.svg"
   inkscape:version="0.92.5 (2060ec1f9f, 2020-04-08)">
  <metadata
     id="metadata44">
    <rdf:RDF>
      <cc:Work
         rdf:about="">
        <dc:format>image/svg+xml</dc:format>
        <dc:type
           rdf:resource="http://purl.org/dc/dcmitype/StillImage" />
        <dc:title />
      </cc:Work>
    </rdf:RDF>
  </metadata>
  <defs
     id="defs42" />
  <sodipodi:namedview
     pagecolor="#ffffff"
     bordercolor="#666666"
     borderopacity="1"
     objecttolerance="10"
     gridtolerance="10"
     guidetolerance="10"
     inkscape:pageopacity="0"
     inkscape:pageshadow="2"
     inkscape:window-width="1920"
     inkscape:window-height="1016"
     id="namedview40"
     showgrid="false"
     inkscape:zoom="1.3116449"
     inkscape:cx="214.64448"
     inkscape:cy="-1.9988059"
     inkscape:window-x="0"
     inkscape:window-y="27"
     inkscape:window-maximized="1"
     inkscape:current-layer="svg38" />
  <g
     id="g855"
     transform="translate(-75.899994,-54.6)">
    <g
       style="fill:#ffffff"
       id="g6">
      <path
         inkscape:connector-curvature="0"
         id="path4"
         d="m 377.4,186.2 h 2.9 v -4.6 h 1.9 v 4.6 h 2.9 v 1.7 h -2.9 v 10 h -1.9 v -10 h -2.9 z m 10.2,11.8 v -20.1 h 1.9 v 10.3 c 0.4,-0.7 0.9,-1.2 1.5,-1.6 0.6,-0.4 1.4,-0.7 2.2,-0.7 0.8,0 1.5,0.1 2,0.4 0.5,0.3 1,0.6 1.3,1 0.7,0.8 1.1,1.9 1.1,3.3 v 7.4 h -1.9 v -7.4 c 0,-0.8 -0.2,-1.4 -0.5,-2 -0.3,-0.5 -0.9,-0.8 -1.7,-0.8 -0.8,0 -1.5,0.1 -2,0.4 -0.5,0.3 -0.9,0.6 -1.2,1.1 -0.6,0.9 -0.8,2.1 -0.8,3.7 v 4.9 h -1.9 z m 25.1,-5.2 h -10.3 c 0.2,1 0.7,1.8 1.5,2.5 0.8,0.7 1.7,1 2.7,1 0.7,0 1.3,-0.2 1.9,-0.5 0.6,-0.3 1.1,-0.7 1.5,-1.3 h 2.1 c -0.5,1.1 -1.3,2 -2.3,2.7 -1,0.7 -2,1 -3.1,1 -1.1,0 -1.9,-0.2 -2.7,-0.5 -0.7,-0.3 -1.4,-0.8 -2,-1.3 -1.2,-1.2 -1.8,-2.6 -1.8,-4.3 0,-1.7 0.6,-3.1 1.8,-4.3 1.2,-1.2 2.7,-1.8 4.3,-1.8 1.6,0 3.1,0.6 4.3,1.7 1.2,1.2 1.9,2.6 1.9,4.2 v 0.9 z m -3.4,-4.1 c -0.8,-0.6 -1.7,-1 -2.7,-1 -1.5,0 -2.7,0.7 -3.6,2.1 -0.3,0.4 -0.5,0.9 -0.6,1.4 h 8.3 c -0.1,-1 -0.6,-1.8 -1.4,-2.5 z m 28.7,1.8 c 0,-1.2 -0.4,-2.1 -1.1,-2.6 -0.3,-0.2 -0.7,-0.3 -1.2,-0.3 -0.6,0 -1.1,0.2 -1.6,0.5 -0.5,0.3 -0.9,0.7 -1.1,1.2 l -0.3,0.6 v 7.9 h -1.9 v -7.4 c 0,-1.2 -0.4,-2.1 -1.1,-2.6 -0.3,-0.2 -0.7,-0.3 -1.2,-0.3 -0.6,0 -1.1,0.2 -1.6,0.5 -0.5,0.3 -0.9,0.7 -1.1,1.2 -0.4,0.7 -0.6,1.5 -0.7,2.4 v 6 H 423 v -11.8 h 1.9 v 1.9 c 0.4,-0.6 0.8,-1.1 1.3,-1.5 0.6,-0.4 1.3,-0.7 2.2,-0.7 0.8,0 1.5,0.1 2,0.4 0.5,0.3 0.9,0.6 1.2,1 0.2,0.3 0.4,0.5 0.5,0.8 0.4,-0.6 0.8,-1.2 1.4,-1.6 0.6,-0.4 1.3,-0.7 2.2,-0.7 0.8,0 1.5,0.1 2,0.4 0.5,0.3 0.9,0.6 1.2,1 0.7,0.8 1,1.9 1,3.3 v 7.4 H 438 Z m 15.1,5.9 c -1.2,1.2 -2.7,1.8 -4.3,1.8 -1.7,0 -3.1,-0.6 -4.3,-1.8 -1.2,-1.2 -1.8,-2.6 -1.8,-4.3 0,-1.7 0.6,-3.1 1.8,-4.3 1.2,-1.2 2.7,-1.8 4.3,-1.8 1.7,0 3.1,0.6 4.3,1.8 1.2,1.2 1.8,2.7 1.8,4.3 0,1.6 -0.6,3.1 -1.8,4.3 z m -1.3,-7.4 c -0.8,-0.8 -1.8,-1.3 -3,-1.3 -1.2,0 -2.2,0.4 -3,1.3 -0.8,0.8 -1.3,1.8 -1.3,3 0,1.2 0.4,2.2 1.3,3 0.8,0.8 1.8,1.3 3,1.3 1.2,0 2.2,-0.4 3,-1.3 0.8,-0.8 1.3,-1.8 1.3,-3 0,-1.2 -0.4,-2.2 -1.3,-3 z m 15.7,9 v -2 c -0.1,0.1 -0.2,0.3 -0.3,0.4 -1.1,1.2 -2.5,1.9 -4.1,1.9 -1.6,0 -3,-0.6 -4.1,-1.9 -1.1,-1.2 -1.6,-2.6 -1.6,-4.3 0,-1.6 0.5,-3.1 1.6,-4.3 1.1,-1.2 2.5,-1.9 4.1,-1.9 1.6,0 3,0.6 4.1,1.9 0.1,0.1 0.2,0.3 0.3,0.4 v -10.3 h 1.9 V 198 Z m -1.2,-8.9 c -0.8,-0.9 -1.8,-1.3 -3,-1.3 -1.2,0 -2.2,0.4 -3,1.3 -0.8,0.9 -1.2,1.8 -1.2,3 0,1.2 0.4,2.1 1.2,3 0.8,0.9 1.8,1.3 3,1.3 1.2,0 2.2,-0.4 3,-1.3 0.8,-0.9 1.2,-1.8 1.2,-3 0,-1.2 -0.4,-2.2 -1.2,-3 z m 18.6,3.7 h -10.3 c 0.2,1 0.7,1.8 1.5,2.5 0.8,0.7 1.7,1 2.7,1 0.7,0 1.3,-0.2 1.9,-0.5 0.6,-0.3 1.1,-0.7 1.5,-1.3 h 2.1 c -0.5,1.1 -1.3,2 -2.3,2.7 -1,0.7 -2,1 -3.1,1 -1.1,0 -1.9,-0.2 -2.7,-0.5 -0.7,-0.3 -1.4,-0.8 -2,-1.3 -1.2,-1.2 -1.8,-2.6 -1.8,-4.3 0,-1.7 0.6,-3.1 1.8,-4.3 1.2,-1.2 2.7,-1.8 4.3,-1.8 1.6,0 3.1,0.6 4.3,1.7 1.2,1.2 1.9,2.6 1.9,4.2 v 0.9 z m -3.5,-4.1 c -0.8,-0.6 -1.7,-1 -2.7,-1 -1.5,0 -2.7,0.7 -3.6,2.1 -0.3,0.4 -0.5,0.9 -0.6,1.4 h 8.3 c -0.1,-1 -0.6,-1.8 -1.4,-2.5 z m 6.6,9.3 v -20.1 h 1.9 V 198 Z m 24.6,-5.2 h -10.3 c 0.2,1 0.7,1.8 1.5,2.5 0.8,0.7 1.7,1 2.7,1 0.7,0 1.3,-0.2 1.9,-0.5 0.6,-0.3 1.1,-0.7 1.5,-1.3 h 2.1 c -0.5,1.1 -1.3,2 -2.3,2.7 -1,0.7 -2,1 -3.1,1 -1.1,0 -1.9,-0.2 -2.7,-0.5 -0.7,-0.3 -1.4,-0.8 -2,-1.3 -1.2,-1.2 -1.8,-2.6 -1.8,-4.3 0,-1.7 0.6,-3.1 1.8,-4.3 1.2,-1.2 2.7,-1.8 4.3,-1.8 1.6,0 3.1,0.6 4.3,1.7 1.2,1.2 1.9,2.6 1.9,4.2 v 0.9 z m -3.5,-4.1 c -0.8,-0.6 -1.7,-1 -2.7,-1 -1.5,0 -2.7,0.7 -3.6,2.1 -0.3,0.4 -0.5,0.9 -0.6,1.4 h 8.3 c -0.1,-1 -0.6,-1.8 -1.4,-2.5 z m 10.5,4.7 -2.9,4.6 h -2.4 l 4.1,-5.9 -4.1,-5.9 h 2.4 l 2.9,4.5 2.9,-4.5 h 2.4 l -4.1,5.9 4.1,5.9 h -2.4 z m 8,11.2 v -18.4 h 1.9 v 2 c 0.1,-0.1 0.2,-0.3 0.3,-0.4 1.1,-1.2 2.5,-1.9 4.1,-1.9 1.6,0 3,0.6 4.1,1.9 1.1,1.2 1.6,2.6 1.6,4.3 0,1.6 -0.5,3.1 -1.6,4.3 -1.1,1.2 -2.5,1.9 -4.1,1.9 -1.6,0 -3,-0.6 -4.1,-1.9 -0.1,-0.1 -0.2,-0.3 -0.3,-0.4 v 8.7 h -1.9 z m 9,-15.5 c -0.8,-0.9 -1.8,-1.3 -3,-1.3 -1.2,0 -2.2,0.4 -3,1.3 -0.8,0.9 -1.2,1.8 -1.2,3 0,1.2 0.4,2.1 1.2,3 0.8,0.9 1.8,1.3 3,1.3 1.2,0 2.2,-0.4 3,-1.3 0.8,-0.9 1.2,-1.8 1.2,-3 0,-1.2 -0.4,-2.2 -1.2,-3 z m 6.3,8.9 v -20.1 h 1.9 V 198 Z m 15.5,-1.6 c -1.2,1.2 -2.7,1.8 -4.3,1.8 -1.7,0 -3.1,-0.6 -4.3,-1.8 -1.2,-1.2 -1.8,-2.6 -1.8,-4.3 0,-1.7 0.6,-3.1 1.8,-4.3 1.2,-1.2 2.7,-1.8 4.3,-1.8 1.6,0 3.1,0.6 4.3,1.8 1.2,1.2 1.8,2.7 1.8,4.3 0,1.6 -0.6,3.1 -1.8,4.3 z m -1.3,-7.4 c -0.8,-0.8 -1.8,-1.3 -3,-1.3 -1.2,0 -2.2,0.4 -3,1.3 -0.8,0.8 -1.3,1.8 -1.3,3 0,1.2 0.4,2.2 1.3,3 0.8,0.8 1.8,1.3 3,1.3 1.2,0 2.2,-0.4 3,-1.3 0.8,-0.8 1.3,-1.8 1.3,-3 0,-1.2 -0.4,-2.2 -1.3,-3 z m 11,-1 c -0.5,0 -0.9,0.1 -1.3,0.4 -0.3,0.3 -0.6,0.6 -0.9,1 -0.4,0.8 -0.7,1.6 -0.7,2.6 v 5.9 h -1.9 v -11.8 h 1.9 v 2.4 l 0.1,-0.5 c 0.6,-1.5 1.6,-2.2 2.9,-2.2 0.4,0 0.8,0.1 1.2,0.2 v 2.4 c -0.3,-0.2 -0.8,-0.4 -1.3,-0.4 z m 13,10 v -2 c -0.1,0.1 -0.2,0.3 -0.3,0.4 -1.1,1.2 -2.5,1.9 -4.1,1.9 -1.6,0 -3,-0.6 -4.1,-1.9 -1.1,-1.2 -1.6,-2.6 -1.6,-4.3 0,-1.6 0.5,-3.1 1.6,-4.3 1.1,-1.2 2.5,-1.9 4.1,-1.9 1.6,0 3,0.6 4.1,1.9 0.1,0.1 0.2,0.3 0.3,0.4 v -2 H 583 V 198 Z m -1.2,-8.9 c -0.8,-0.9 -1.8,-1.3 -3,-1.3 -1.2,0 -2.2,0.4 -3,1.3 -0.8,0.9 -1.2,1.8 -1.2,3 0,1.2 0.4,2.1 1.2,3 0.8,0.9 1.8,1.3 3,1.3 1.2,0 2.2,-0.4 3,-1.3 0.8,-0.9 1.2,-1.8 1.2,-3 0,-1.2 -0.4,-2.2 -1.2,-3 z m 5.6,-2.9 h 2.9 v -4.6 h 1.9 v 4.6 h 2.9 v 1.7 h -2.9 v 10 h -1.9 v -10 h -2.9 z m 12.6,-3.2 c 0,0.3 -0.1,0.6 -0.3,0.8 -0.2,0.2 -0.5,0.3 -0.8,0.3 -0.3,0 -0.6,-0.1 -0.8,-0.3 -0.2,-0.2 -0.3,-0.5 -0.3,-0.8 0,-0.3 0.1,-0.6 0.3,-0.8 0.2,-0.2 0.5,-0.3 0.8,-0.3 0.3,0 0.6,0.1 0.8,0.3 0.1,0.2 0.3,0.4 0.3,0.8 z m -2.2,15 v -11.8 h 1.9 V 198 Z m 15.7,-1.6 c -1.2,1.2 -2.7,1.8 -4.3,1.8 -1.7,0 -3.1,-0.6 -4.3,-1.8 -1.2,-1.2 -1.8,-2.6 -1.8,-4.3 0,-1.7 0.6,-3.1 1.8,-4.3 1.2,-1.2 2.7,-1.8 4.3,-1.8 1.6,0 3.1,0.6 4.3,1.8 1.2,1.2 1.8,2.7 1.8,4.3 0,1.6 -0.6,3.1 -1.8,4.3 z m -1.3,-7.4 c -0.8,-0.8 -1.8,-1.3 -3,-1.3 -1.2,0 -2.2,0.4 -3,1.3 -0.8,0.8 -1.3,1.8 -1.3,3 0,1.2 0.4,2.2 1.3,3 0.8,0.8 1.8,1.3 3,1.3 1.2,0 2.2,-0.4 3,-1.3 0.8,-0.8 1.3,-1.8 1.3,-3 0,-1.2 -0.5,-2.2 -1.3,-3 z m 14.5,1.6 c 0,-0.8 -0.2,-1.4 -0.5,-2 -0.3,-0.5 -0.9,-0.8 -1.7,-0.8 -0.8,0 -1.5,0.2 -2,0.5 -0.5,0.3 -0.9,0.7 -1.2,1.2 -0.6,0.9 -0.8,2.1 -0.8,3.6 v 4.9 h -1.9 v -11.8 h 1.9 v 2 c 0.4,-0.7 0.9,-1.2 1.5,-1.6 0.6,-0.4 1.4,-0.7 2.2,-0.7 0.8,0 1.5,0.1 2,0.4 0.5,0.3 1,0.6 1.3,1 0.7,0.8 1.1,1.9 1.1,3.3 v 7.4 h -1.9 z m 16.2,6.2 c 1.7,0 2.6,-0.6 2.6,-1.9 0,-0.7 -0.6,-1.3 -1.8,-1.7 -0.5,-0.2 -1.1,-0.3 -1.7,-0.5 -0.6,-0.1 -1.2,-0.3 -1.7,-0.6 -0.6,-0.3 -1.1,-0.6 -1.4,-1.1 -0.3,-0.4 -0.5,-0.9 -0.5,-1.5 0,-1.2 0.4,-2.1 1.2,-2.7 0.8,-0.6 1.8,-0.9 2.9,-0.9 1.1,0 2.1,0.2 2.8,0.7 0.8,0.5 1.3,1.3 1.5,2.5 h -2 c -0.2,-0.7 -0.5,-1.1 -0.9,-1.3 -0.4,-0.2 -0.9,-0.3 -1.5,-0.3 -0.6,0 -1.1,0.1 -1.5,0.4 -0.4,0.3 -0.6,0.6 -0.6,1.2 0,0.5 0.2,0.9 0.5,1.2 0.3,0.2 0.8,0.4 1.3,0.6 0.5,0.2 1.1,0.3 1.7,0.4 0.6,0.1 1.2,0.3 1.7,0.6 1.2,0.6 1.8,1.5 1.8,2.8 0,1.3 -0.5,2.2 -1.4,2.8 -0.5,0.3 -1,0.5 -1.5,0.7 -0.5,0.2 -1.1,0.2 -1.8,0.2 -2.7,0 -4.3,-1.2 -4.7,-3.6 h 2 c 0.2,0.8 0.5,1.3 1,1.6 0.6,0.2 1.2,0.4 2,0.4 z m 16.9,-0.4 c -1.2,1.2 -2.7,1.8 -4.3,1.8 -1.7,0 -3.1,-0.6 -4.3,-1.8 -1.2,-1.2 -1.8,-2.6 -1.8,-4.3 0,-1.7 0.6,-3.1 1.8,-4.3 1.2,-1.2 2.7,-1.8 4.3,-1.8 1.6,0 3.1,0.6 4.3,1.8 1.2,1.2 1.8,2.7 1.8,4.3 0,1.6 -0.6,3.1 -1.8,4.3 z m -1.3,-7.4 c -0.8,-0.8 -1.8,-1.3 -3,-1.3 -1.2,0 -2.2,0.4 -3,1.3 -0.8,0.8 -1.3,1.8 -1.3,3 0,1.2 0.4,2.2 1.3,3 0.8,0.8 1.8,1.3 3,1.3 1.2,0 2.2,-0.4 3,-1.3 0.8,-0.8 1.3,-1.8 1.3,-3 -0.1,-1.2 -0.5,-2.2 -1.3,-3 z m 11,-9.4 c -0.6,0 -1,0.1 -1.2,0.4 -0.2,0.3 -0.3,0.6 -0.3,1 v 5.1 h 3.1 v 1.7 h -3.1 v 10 h -1.9 v -10 h -2.4 v -1.7 h 2.4 v -4.5 c 0,-1.2 0.3,-2.1 0.8,-2.8 0.6,-0.7 1.5,-1 2.8,-1 h 1.3 v 1.7 h -1.5 z m 3,6.6 h 2.9 v -4.6 h 1.9 v 4.6 h 2.9 v 1.7 h -2.9 v 10 h -1.9 v -10 h -2.9 z m 17.9,3.8 -3.8,9.5 -5.6,-13.3 h 2.1 l 3.5,9.1 3.8,-9.7 3.8,9.7 3.5,-9.1 h 2.1 l -5.6,13.3 z m 21.1,8 v -2 c -0.1,0.1 -0.2,0.3 -0.3,0.4 -1.1,1.2 -2.5,1.9 -4.1,1.9 -1.6,0 -3,-0.6 -4.1,-1.9 -1.1,-1.2 -1.6,-2.6 -1.6,-4.3 0,-1.6 0.5,-3.1 1.6,-4.3 1.1,-1.2 2.5,-1.9 4.1,-1.9 1.6,0 3,0.6 4.1,1.9 0.1,0.1 0.2,0.3 0.3,0.4 v -2 h 1.9 V 198 Z m -1.2,-8.9 c -0.8,-0.9 -1.8,-1.3 -3,-1.3 -1.2,0 -2.2,0.4 -3,1.3 -0.8,0.9 -1.2,1.8 -1.2,3 0,1.2 0.4,2.1 1.2,3 0.8,0.9 1.8,1.3 3,1.3 1.2,0 2.2,-0.4 3,-1.3 0.8,-0.9 1.2,-1.8 1.2,-3 0,-1.2 -0.4,-2.2 -1.2,-3 z m 11.7,-1.1 c -0.5,0 -0.9,0.1 -1.3,0.4 -0.3,0.3 -0.6,0.6 -0.9,1 -0.4,0.8 -0.7,1.6 -0.7,2.6 v 5.9 h -1.9 v -11.8 h 1.9 v 2.4 l 0.1,-0.5 c 0.6,-1.5 1.6,-2.2 2.9,-2.2 0.4,0 0.8,0.1 1.2,0.2 v 2.4 c -0.3,-0.2 -0.8,-0.4 -1.3,-0.4 z m 15.2,4.8 H 725 c 0.2,1 0.7,1.8 1.5,2.5 0.8,0.7 1.7,1 2.7,1 0.7,0 1.3,-0.2 1.9,-0.5 0.6,-0.3 1.1,-0.7 1.5,-1.3 h 2.1 c -0.5,1.1 -1.3,2 -2.3,2.7 -1,0.7 -2,1 -3.1,1 -1,0 -1.9,-0.2 -2.7,-0.5 -0.7,-0.3 -1.4,-0.8 -2,-1.3 -1.2,-1.2 -1.8,-2.6 -1.8,-4.3 0,-1.7 0.6,-3.1 1.8,-4.3 1.2,-1.2 2.7,-1.8 4.3,-1.8 1.6,0 3.1,0.6 4.3,1.7 1.2,1.2 1.9,2.6 1.9,4.2 v 0.9 z m -3.5,-4.1 c -0.8,-0.6 -1.7,-1 -2.7,-1 -1.5,0 -2.7,0.7 -3.6,2.1 -0.3,0.4 -0.5,0.9 -0.6,1.4 h 8.3 c -0.1,-1 -0.6,-1.8 -1.4,-2.5 z" />
    </g>
    <path
       style="fill:#ffffff"
       inkscape:connector-curvature="0"
       id="path8"
       d="m 313.1,169.3 c -16.6,0 -30.9,-14.3 -30.9,-30.9 0,-16.6 14.3,-30.9 30.9,-30.9 16.6,0 30.9,14.3 30.9,30.9 0.1,16.6 -14.3,30.9 -30.9,30.9 z m 0,-48.6 c -9.3,0 -17.7,8.4 -17.7,17.7 0,9.3 8.4,17.8 17.7,17.8 9.3,0 17.7,-8.5 17.7,-17.8 0,-9.3 -8.4,-17.7 -17.7,-17.7 z m 39.3,69.8 v -61 h 13.3 v 4.8 c 3.4,-4.2 8.3,-5.7 13.3,-5.7 11,0 19.3,9.6 19.3,20.4 0,10.8 -8.3,20.3 -19.3,20.3 -5,0 -10.7,-1.6 -13.3,-5.6 v 26.8 z M 375,158.7 c 5.3,0 9.3,-4.6 9.3,-9.7 0,-5.1 -4,-9.7 -9.3,-9.7 -5.3,0 -9.3,4.6 -9.3,9.7 0,5.1 4,9.7 9.3,9.7 z m 73.8,-8.1 h -30.2 c 0,4.5 3.2,9.3 8.4,9.3 4.7,0 7.6,-3.1 7.7,-5.9 h 13.5 c -2.3,10.2 -10.6,15.4 -20.9,15.4 -13.4,0 -22.7,-8 -22.7,-20.3 0,-12.2 9.6,-20.4 22.7,-20.4 11.8,0 21.6,7.1 21.6,19.5 0,0.7 -0.1,1.6 -0.1,2.4 z m -12.6,-6.3 c 0,0 -0.6,-7.2 -8.7,-7.2 -8.3,0 -8.7,7.2 -8.7,7.2 z m 61,24.2 h -13.3 v -22.1 c 0,-4.6 -1.8,-7.1 -5.9,-7.1 -4.1,0 -7.4,4.4 -7.4,9.7 v 19.4 h -13.3 v -39 h 13.3 v 4.8 c 2.7,-3.4 6.8,-5.7 11.9,-5.7 10.4,0 14.7,7.2 14.7,17.8 z" />
    <path
       style="fill:#a6bf26"
       inkscape:connector-curvature="0"
       id="path10"
       d="m 566.8,168.5 -7.1,-41.4 -11.7,41.4 h -13 l -11.8,-41.5 -7.1,41.4 h -14.6 l 11.7,-60.1 H 529 l 12.5,42.1 12.5,-42.1 h 15.7 l 11.7,60.1 h -14.6 z m 49,0.8 c -16.6,0 -30.9,-14.3 -30.9,-30.9 0,-16.6 14.3,-30.9 30.9,-30.9 16.6,0 30.9,14.3 30.9,30.9 0,16.6 -14.3,30.9 -30.9,30.9 z m 0,-48.6 c -9.3,0 -17.7,8.4 -17.7,17.7 0,9.3 8.4,17.8 17.7,17.8 9.3,0 17.7,-8.5 17.7,-17.8 0,-9.3 -8.4,-17.7 -17.7,-17.7 z m 39.3,-12.3 h 13.3 v 48.1 H 690 v 12 h -34.8 v -60.1 z m 78,60.1 h -34.8 v -60.1 h 34.8 v 12 h -21.6 v 11.9 h 20.7 v 12 h -20.7 v 12.1 h 21.6 z" />
  </g>
  <g
     id="g962"
     transform="matrix(0.88195384,0,0,0.88195384,0.05781122,0.00990848)">
    <ellipse
       id="ellipse918"
       ry="18.17"
       rx="110.55"
       cy="164.66"
       cx="110.55"
       style="fill:#12122d" />
    <path
       id="path920"
       d="M 42.26,71.91 V 179 c 18.8,2.43 42.51,3.88 68.29,3.88 25.78,0 49.45,-1.5 68.29,-3.88 V 72 Z"
       inkscape:connector-curvature="0"
       style="fill:#b3b3c6" />
    <g
       id="g928"
       stroke-miterlimit="10"
       style="stroke:#3f3d56;stroke-width:6.80000019;stroke-miterlimit:10">
      <circle
         id="circle922"
         r="14.39"
         cy="102.07"
         cx="86.129997"
         style="fill:#3f3d56;fill-opacity:0.6" />
      <circle
         id="circle924"
         r="14.39"
         cy="102.07"
         cx="134.96001"
         style="fill:#3f3d56;fill-opacity:0.6" />
      <path
         id="path926"
         d="m 99.84,102.07 h 21.41"
         inkscape:connector-curvature="0"
         style="fill:none" />
    </g>
    <path
       id="path930"
       d="m 96.81,150.54 a 17.65,17.65 0 0 0 1.55,1.81 17.23,17.23 0 0 0 24.37,0 16.48,16.48 0 0 0 1.55,-1.81 c -3.08,2.83 -8.08,4.68 -13.73,4.68 -5.65,0 -10.66,-1.85 -13.74,-4.68 z"
       inkscape:connector-curvature="0"
       style="fill:#3f3d56" />
    <path
       id="path932"
       d="m 122.73,128 -6.07,-6.07 a 8.64,8.64 0 0 0 -12.23,0 L 98.36,128 a 17.22,17.22 0 0 0 -4.73,15.5 17,17 0 0 0 3.18,7.07 c 3.08,2.83 8.08,4.68 13.74,4.68 5.66,0 10.65,-1.85 13.73,-4.68 A 17.18,17.18 0 0 0 122.73,128 Z"
       inkscape:connector-curvature="0"
       style="fill:#ffffff" />
    <rect
       id="rect934"
       transform="rotate(45,110.54084,143.95752)"
       rx="7.1300001"
       y="136.83"
       x="103.42"
       height="14.25"
       width="14.25"
       style="fill:#3f3d56" />
    <g
       id="g940">
      <path
         id="path936"
         d="m 187.19,68.28 h -8.38 c -0.33,-19.16 -10.72,-36.15 -26.72,-47 A 70.42,70.42 0 0 0 140.47,14.9 V 49 a 2.83,2.83 0 0 1 -5.66,0 V 12.72 A 75,75 0 0 0 123.58,9.89 V 25 a 8.41,8.41 0 0 1 -8.4,8.4 h -9.27 A 8.41,8.41 0 0 1 97.51,25 V 9.89 A 74.88,74.88 0 0 0 86.29,12.72 V 49 a 2.84,2.84 0 0 1 -5.67,0 V 14.88 A 70.83,70.83 0 0 0 69,21.26 C 53,32.13 42.61,49.12 42.29,68.26 H 31.93 a 2.27,2.27 0 0 0 0,4.54 h 155.26 a 2.27,2.27 0 1 0 0,-4.54 z"
         inkscape:connector-curvature="0"
         style="fill:#a6bf26" />
      <path
         id="path938"
         d="m 115.18,0 a 3.86,3.86 0 0 1 3.87,3.86 V 25 a 3.87,3.87 0 0 1 -3.87,3.87 h -9.27 A 3.86,3.86 0 0 1 102.05,25 V 3.86 A 3.86,3.86 0 0 1 105.91,0 h 9.27"
         inkscape:connector-curvature="0"
         style="fill:#ffb500" />
    </g>
  </g>
</svg>
