<?xml version="1.0" encoding="UTF-8" standalone="no"?>
<svg
   xmlns:dc="http://purl.org/dc/elements/1.1/"
   xmlns:cc="http://creativecommons.org/ns#"
   xmlns:rdf="http://www.w3.org/1999/02/22-rdf-syntax-ns#"
   xmlns:svg="http://www.w3.org/2000/svg"
   xmlns="http://www.w3.org/2000/svg"
   xmlns:sodipodi="http://sodipodi.sourceforge.net/DTD/sodipodi-0.dtd"
   xmlns:inkscape="http://www.inkscape.org/namespaces/inkscape"
   width="659.40002"
   height="161.29999"
   x="0px"
   y="0px"
   viewBox="0 0 659.4 161.29999"
   version="1.1"
   id="svg38"
   sodipodi:docname="logo-dark-full-nobg.svg"
   inkscape:version="0.92.5 (2060ec1f9f, 2020-04-08)">
  <metadata
     id="metadata44">
    <rdf:RDF>
      <cc:Work
         rdf:about="">
        <dc:format>image/svg+xml</dc:format>
        <dc:type
           rdf:resource="http://purl.org/dc/dcmitype/StillImage" />
        <dc:title></dc:title>
      </cc:Work>
    </rdf:RDF>
  </metadata>
  <defs
     id="defs42" />
  <sodipodi:namedview
     pagecolor="#ffffff"
     bordercolor="#666666"
     borderopacity="1"
     objecttolerance="10"
     gridtolerance="10"
     guidetolerance="10"
     inkscape:pageopacity="0"
     inkscape:pageshadow="2"
     inkscape:window-width="1920"
     inkscape:window-height="1016"
     id="namedview40"
     showgrid="false"
     inkscape:zoom="1.3116449"
     inkscape:cx="358.73836"
     inkscape:cy="-1.9988059"
     inkscape:window-x="0"
     inkscape:window-y="27"
     inkscape:window-maximized="1"
     inkscape:current-layer="svg38" />
  <g
     id="g875"
     transform="translate(-75.899994,-54.6)">
    <g
       id="g855">
      <g
         id="g6"
         style="fill:#ffffff">
        <path
           d="m 377.4,186.2 h 2.9 v -4.6 h 1.9 v 4.6 h 2.9 v 1.7 h -2.9 v 10 h -1.9 v -10 h -2.9 z m 10.2,11.8 v -20.1 h 1.9 v 10.3 c 0.4,-0.7 0.9,-1.2 1.5,-1.6 0.6,-0.4 1.4,-0.7 2.2,-0.7 0.8,0 1.5,0.1 2,0.4 0.5,0.3 1,0.6 1.3,1 0.7,0.8 1.1,1.9 1.1,3.3 v 7.4 h -1.9 v -7.4 c 0,-0.8 -0.2,-1.4 -0.5,-2 -0.3,-0.5 -0.9,-0.8 -1.7,-0.8 -0.8,0 -1.5,0.1 -2,0.4 -0.5,0.3 -0.9,0.6 -1.2,1.1 -0.6,0.9 -0.8,2.1 -0.8,3.7 v 4.9 h -1.9 z m 25.1,-5.2 h -10.3 c 0.2,1 0.7,1.8 1.5,2.5 0.8,0.7 1.7,1 2.7,1 0.7,0 1.3,-0.2 1.9,-0.5 0.6,-0.3 1.1,-0.7 1.5,-1.3 h 2.1 c -0.5,1.1 -1.3,2 -2.3,2.7 -1,0.7 -2,1 -3.1,1 -1.1,0 -1.9,-0.2 -2.7,-0.5 -0.7,-0.3 -1.4,-0.8 -2,-1.3 -1.2,-1.2 -1.8,-2.6 -1.8,-4.3 0,-1.7 0.6,-3.1 1.8,-4.3 1.2,-1.2 2.7,-1.8 4.3,-1.8 1.6,0 3.1,0.6 4.3,1.7 1.2,1.2 1.9,2.6 1.9,4.2 v 0.9 z m -3.4,-4.1 c -0.8,-0.6 -1.7,-1 -2.7,-1 -1.5,0 -2.7,0.7 -3.6,2.1 -0.3,0.4 -0.5,0.9 -0.6,1.4 h 8.3 c -0.1,-1 -0.6,-1.8 -1.4,-2.5 z m 28.7,1.8 c 0,-1.2 -0.4,-2.1 -1.1,-2.6 -0.3,-0.2 -0.7,-0.3 -1.2,-0.3 -0.6,0 -1.1,0.2 -1.6,0.5 -0.5,0.3 -0.9,0.7 -1.1,1.2 l -0.3,0.6 v 7.9 h -1.9 v -7.4 c 0,-1.2 -0.4,-2.1 -1.1,-2.6 -0.3,-0.2 -0.7,-0.3 -1.2,-0.3 -0.6,0 -1.1,0.2 -1.6,0.5 -0.5,0.3 -0.9,0.7 -1.1,1.2 -0.4,0.7 -0.6,1.5 -0.7,2.4 v 6 H 423 v -11.8 h 1.9 v 1.9 c 0.4,-0.6 0.8,-1.1 1.3,-1.5 0.6,-0.4 1.3,-0.7 2.2,-0.7 0.8,0 1.5,0.1 2,0.4 0.5,0.3 0.9,0.6 1.2,1 0.2,0.3 0.4,0.5 0.5,0.8 0.4,-0.6 0.8,-1.2 1.4,-1.6 0.6,-0.4 1.3,-0.7 2.2,-0.7 0.8,0 1.5,0.1 2,0.4 0.5,0.3 0.9,0.6 1.2,1 0.7,0.8 1,1.9 1,3.3 v 7.4 H 438 Z m 15.1,5.9 c -1.2,1.2 -2.7,1.8 -4.3,1.8 -1.7,0 -3.1,-0.6 -4.3,-1.8 -1.2,-1.2 -1.8,-2.6 -1.8,-4.3 0,-1.7 0.6,-3.1 1.8,-4.3 1.2,-1.2 2.7,-1.8 4.3,-1.8 1.7,0 3.1,0.6 4.3,1.8 1.2,1.2 1.8,2.7 1.8,4.3 0,1.6 -0.6,3.1 -1.8,4.3 z m -1.3,-7.4 c -0.8,-0.8 -1.8,-1.3 -3,-1.3 -1.2,0 -2.2,0.4 -3,1.3 -0.8,0.8 -1.3,1.8 -1.3,3 0,1.2 0.4,2.2 1.3,3 0.8,0.8 1.8,1.3 3,1.3 1.2,0 2.2,-0.4 3,-1.3 0.8,-0.8 1.3,-1.8 1.3,-3 0,-1.2 -0.4,-2.2 -1.3,-3 z m 15.7,9 v -2 c -0.1,0.1 -0.2,0.3 -0.3,0.4 -1.1,1.2 -2.5,1.9 -4.1,1.9 -1.6,0 -3,-0.6 -4.1,-1.9 -1.1,-1.2 -1.6,-2.6 -1.6,-4.3 0,-1.6 0.5,-3.1 1.6,-4.3 1.1,-1.2 2.5,-1.9 4.1,-1.9 1.6,0 3,0.6 4.1,1.9 0.1,0.1 0.2,0.3 0.3,0.4 v -10.3 h 1.9 V 198 Z m -1.2,-8.9 c -0.8,-0.9 -1.8,-1.3 -3,-1.3 -1.2,0 -2.2,0.4 -3,1.3 -0.8,0.9 -1.2,1.8 -1.2,3 0,1.2 0.4,2.1 1.2,3 0.8,0.9 1.8,1.3 3,1.3 1.2,0 2.2,-0.4 3,-1.3 0.8,-0.9 1.2,-1.8 1.2,-3 0,-1.2 -0.4,-2.2 -1.2,-3 z m 18.6,3.7 h -10.3 c 0.2,1 0.7,1.8 1.5,2.5 0.8,0.7 1.7,1 2.7,1 0.7,0 1.3,-0.2 1.9,-0.5 0.6,-0.3 1.1,-0.7 1.5,-1.3 h 2.1 c -0.5,1.1 -1.3,2 -2.3,2.7 -1,0.7 -2,1 -3.1,1 -1.1,0 -1.9,-0.2 -2.7,-0.5 -0.7,-0.3 -1.4,-0.8 -2,-1.3 -1.2,-1.2 -1.8,-2.6 -1.8,-4.3 0,-1.7 0.6,-3.1 1.8,-4.3 1.2,-1.2 2.7,-1.8 4.3,-1.8 1.6,0 3.1,0.6 4.3,1.7 1.2,1.2 1.9,2.6 1.9,4.2 v 0.9 z m -3.5,-4.1 c -0.8,-0.6 -1.7,-1 -2.7,-1 -1.5,0 -2.7,0.7 -3.6,2.1 -0.3,0.4 -0.5,0.9 -0.6,1.4 h 8.3 c -0.1,-1 -0.6,-1.8 -1.4,-2.5 z m 6.6,9.3 v -20.1 h 1.9 V 198 Z m 24.6,-5.2 h -10.3 c 0.2,1 0.7,1.8 1.5,2.5 0.8,0.7 1.7,1 2.7,1 0.7,0 1.3,-0.2 1.9,-0.5 0.6,-0.3 1.1,-0.7 1.5,-1.3 h 2.1 c -0.5,1.1 -1.3,2 -2.3,2.7 -1,0.7 -2,1 -3.1,1 -1.1,0 -1.9,-0.2 -2.7,-0.5 -0.7,-0.3 -1.4,-0.8 -2,-1.3 -1.2,-1.2 -1.8,-2.6 -1.8,-4.3 0,-1.7 0.6,-3.1 1.8,-4.3 1.2,-1.2 2.7,-1.8 4.3,-1.8 1.6,0 3.1,0.6 4.3,1.7 1.2,1.2 1.9,2.6 1.9,4.2 v 0.9 z m -3.5,-4.1 c -0.8,-0.6 -1.7,-1 -2.7,-1 -1.5,0 -2.7,0.7 -3.6,2.1 -0.3,0.4 -0.5,0.9 -0.6,1.4 h 8.3 c -0.1,-1 -0.6,-1.8 -1.4,-2.5 z m 10.5,4.7 -2.9,4.6 h -2.4 l 4.1,-5.9 -4.1,-5.9 h 2.4 l 2.9,4.5 2.9,-4.5 h 2.4 l -4.1,5.9 4.1,5.9 h -2.4 z m 8,11.2 v -18.4 h 1.9 v 2 c 0.1,-0.1 0.2,-0.3 0.3,-0.4 1.1,-1.2 2.5,-1.9 4.1,-1.9 1.6,0 3,0.6 4.1,1.9 1.1,1.2 1.6,2.6 1.6,4.3 0,1.6 -0.5,3.1 -1.6,4.3 -1.1,1.2 -2.5,1.9 -4.1,1.9 -1.6,0 -3,-0.6 -4.1,-1.9 -0.1,-0.1 -0.2,-0.3 -0.3,-0.4 v 8.7 h -1.9 z m 9,-15.5 c -0.8,-0.9 -1.8,-1.3 -3,-1.3 -1.2,0 -2.2,0.4 -3,1.3 -0.8,0.9 -1.2,1.8 -1.2,3 0,1.2 0.4,2.1 1.2,3 0.8,0.9 1.8,1.3 3,1.3 1.2,0 2.2,-0.4 3,-1.3 0.8,-0.9 1.2,-1.8 1.2,-3 0,-1.2 -0.4,-2.2 -1.2,-3 z m 6.3,8.9 v -20.1 h 1.9 V 198 Z m 15.5,-1.6 c -1.2,1.2 -2.7,1.8 -4.3,1.8 -1.7,0 -3.1,-0.6 -4.3,-1.8 -1.2,-1.2 -1.8,-2.6 -1.8,-4.3 0,-1.7 0.6,-3.1 1.8,-4.3 1.2,-1.2 2.7,-1.8 4.3,-1.8 1.6,0 3.1,0.6 4.3,1.8 1.2,1.2 1.8,2.7 1.8,4.3 0,1.6 -0.6,3.1 -1.8,4.3 z m -1.3,-7.4 c -0.8,-0.8 -1.8,-1.3 -3,-1.3 -1.2,0 -2.2,0.4 -3,1.3 -0.8,0.8 -1.3,1.8 -1.3,3 0,1.2 0.4,2.2 1.3,3 0.8,0.8 1.8,1.3 3,1.3 1.2,0 2.2,-0.4 3,-1.3 0.8,-0.8 1.3,-1.8 1.3,-3 0,-1.2 -0.4,-2.2 -1.3,-3 z m 11,-1 c -0.5,0 -0.9,0.1 -1.3,0.4 -0.3,0.3 -0.6,0.6 -0.9,1 -0.4,0.8 -0.7,1.6 -0.7,2.6 v 5.9 h -1.9 v -11.8 h 1.9 v 2.4 l 0.1,-0.5 c 0.6,-1.5 1.6,-2.2 2.9,-2.2 0.4,0 0.8,0.1 1.2,0.2 v 2.4 c -0.3,-0.2 -0.8,-0.4 -1.3,-0.4 z m 13,10 v -2 c -0.1,0.1 -0.2,0.3 -0.3,0.4 -1.1,1.2 -2.5,1.9 -4.1,1.9 -1.6,0 -3,-0.6 -4.1,-1.9 -1.1,-1.2 -1.6,-2.6 -1.6,-4.3 0,-1.6 0.5,-3.1 1.6,-4.3 1.1,-1.2 2.5,-1.9 4.1,-1.9 1.6,0 3,0.6 4.1,1.9 0.1,0.1 0.2,0.3 0.3,0.4 v -2 H 583 V 198 Z m -1.2,-8.9 c -0.8,-0.9 -1.8,-1.3 -3,-1.3 -1.2,0 -2.2,0.4 -3,1.3 -0.8,0.9 -1.2,1.8 -1.2,3 0,1.2 0.4,2.1 1.2,3 0.8,0.9 1.8,1.3 3,1.3 1.2,0 2.2,-0.4 3,-1.3 0.8,-0.9 1.2,-1.8 1.2,-3 0,-1.2 -0.4,-2.2 -1.2,-3 z m 5.6,-2.9 h 2.9 v -4.6 h 1.9 v 4.6 h 2.9 v 1.7 h -2.9 v 10 h -1.9 v -10 h -2.9 z m 12.6,-3.2 c 0,0.3 -0.1,0.6 -0.3,0.8 -0.2,0.2 -0.5,0.3 -0.8,0.3 -0.3,0 -0.6,-0.1 -0.8,-0.3 -0.2,-0.2 -0.3,-0.5 -0.3,-0.8 0,-0.3 0.1,-0.6 0.3,-0.8 0.2,-0.2 0.5,-0.3 0.8,-0.3 0.3,0 0.6,0.1 0.8,0.3 0.1,0.2 0.3,0.4 0.3,0.8 z m -2.2,15 v -11.8 h 1.9 V 198 Z m 15.7,-1.6 c -1.2,1.2 -2.7,1.8 -4.3,1.8 -1.7,0 -3.1,-0.6 -4.3,-1.8 -1.2,-1.2 -1.8,-2.6 -1.8,-4.3 0,-1.7 0.6,-3.1 1.8,-4.3 1.2,-1.2 2.7,-1.8 4.3,-1.8 1.6,0 3.1,0.6 4.3,1.8 1.2,1.2 1.8,2.7 1.8,4.3 0,1.6 -0.6,3.1 -1.8,4.3 z m -1.3,-7.4 c -0.8,-0.8 -1.8,-1.3 -3,-1.3 -1.2,0 -2.2,0.4 -3,1.3 -0.8,0.8 -1.3,1.8 -1.3,3 0,1.2 0.4,2.2 1.3,3 0.8,0.8 1.8,1.3 3,1.3 1.2,0 2.2,-0.4 3,-1.3 0.8,-0.8 1.3,-1.8 1.3,-3 0,-1.2 -0.5,-2.2 -1.3,-3 z m 14.5,1.6 c 0,-0.8 -0.2,-1.4 -0.5,-2 -0.3,-0.5 -0.9,-0.8 -1.7,-0.8 -0.8,0 -1.5,0.2 -2,0.5 -0.5,0.3 -0.9,0.7 -1.2,1.2 -0.6,0.9 -0.8,2.1 -0.8,3.6 v 4.9 h -1.9 v -11.8 h 1.9 v 2 c 0.4,-0.7 0.9,-1.2 1.5,-1.6 0.6,-0.4 1.4,-0.7 2.2,-0.7 0.8,0 1.5,0.1 2,0.4 0.5,0.3 1,0.6 1.3,1 0.7,0.8 1.1,1.9 1.1,3.3 v 7.4 h -1.9 z m 16.2,6.2 c 1.7,0 2.6,-0.6 2.6,-1.9 0,-0.7 -0.6,-1.3 -1.8,-1.7 -0.5,-0.2 -1.1,-0.3 -1.7,-0.5 -0.6,-0.1 -1.2,-0.3 -1.7,-0.6 -0.6,-0.3 -1.1,-0.6 -1.4,-1.1 -0.3,-0.4 -0.5,-0.9 -0.5,-1.5 0,-1.2 0.4,-2.1 1.2,-2.7 0.8,-0.6 1.8,-0.9 2.9,-0.9 1.1,0 2.1,0.2 2.8,0.7 0.8,0.5 1.3,1.3 1.5,2.5 h -2 c -0.2,-0.7 -0.5,-1.1 -0.9,-1.3 -0.4,-0.2 -0.9,-0.3 -1.5,-0.3 -0.6,0 -1.1,0.1 -1.5,0.4 -0.4,0.3 -0.6,0.6 -0.6,1.2 0,0.5 0.2,0.9 0.5,1.2 0.3,0.2 0.8,0.4 1.3,0.6 0.5,0.2 1.1,0.3 1.7,0.4 0.6,0.1 1.2,0.3 1.7,0.6 1.2,0.6 1.8,1.5 1.8,2.8 0,1.3 -0.5,2.2 -1.4,2.8 -0.5,0.3 -1,0.5 -1.5,0.7 -0.5,0.2 -1.1,0.2 -1.8,0.2 -2.7,0 -4.3,-1.2 -4.7,-3.6 h 2 c 0.2,0.8 0.5,1.3 1,1.6 0.6,0.2 1.2,0.4 2,0.4 z m 16.9,-0.4 c -1.2,1.2 -2.7,1.8 -4.3,1.8 -1.7,0 -3.1,-0.6 -4.3,-1.8 -1.2,-1.2 -1.8,-2.6 -1.8,-4.3 0,-1.7 0.6,-3.1 1.8,-4.3 1.2,-1.2 2.7,-1.8 4.3,-1.8 1.6,0 3.1,0.6 4.3,1.8 1.2,1.2 1.8,2.7 1.8,4.3 0,1.6 -0.6,3.1 -1.8,4.3 z m -1.3,-7.4 c -0.8,-0.8 -1.8,-1.3 -3,-1.3 -1.2,0 -2.2,0.4 -3,1.3 -0.8,0.8 -1.3,1.8 -1.3,3 0,1.2 0.4,2.2 1.3,3 0.8,0.8 1.8,1.3 3,1.3 1.2,0 2.2,-0.4 3,-1.3 0.8,-0.8 1.3,-1.8 1.3,-3 -0.1,-1.2 -0.5,-2.2 -1.3,-3 z m 11,-9.4 c -0.6,0 -1,0.1 -1.2,0.4 -0.2,0.3 -0.3,0.6 -0.3,1 v 5.1 h 3.1 v 1.7 h -3.1 v 10 h -1.9 v -10 h -2.4 v -1.7 h 2.4 v -4.5 c 0,-1.2 0.3,-2.1 0.8,-2.8 0.6,-0.7 1.5,-1 2.8,-1 h 1.3 v 1.7 h -1.5 z m 3,6.6 h 2.9 v -4.6 h 1.9 v 4.6 h 2.9 v 1.7 h -2.9 v 10 h -1.9 v -10 h -2.9 z m 17.9,3.8 -3.8,9.5 -5.6,-13.3 h 2.1 l 3.5,9.1 3.8,-9.7 3.8,9.7 3.5,-9.1 h 2.1 l -5.6,13.3 z m 21.1,8 v -2 c -0.1,0.1 -0.2,0.3 -0.3,0.4 -1.1,1.2 -2.5,1.9 -4.1,1.9 -1.6,0 -3,-0.6 -4.1,-1.9 -1.1,-1.2 -1.6,-2.6 -1.6,-4.3 0,-1.6 0.5,-3.1 1.6,-4.3 1.1,-1.2 2.5,-1.9 4.1,-1.9 1.6,0 3,0.6 4.1,1.9 0.1,0.1 0.2,0.3 0.3,0.4 v -2 h 1.9 V 198 Z m -1.2,-8.9 c -0.8,-0.9 -1.8,-1.3 -3,-1.3 -1.2,0 -2.2,0.4 -3,1.3 -0.8,0.9 -1.2,1.8 -1.2,3 0,1.2 0.4,2.1 1.2,3 0.8,0.9 1.8,1.3 3,1.3 1.2,0 2.2,-0.4 3,-1.3 0.8,-0.9 1.2,-1.8 1.2,-3 0,-1.2 -0.4,-2.2 -1.2,-3 z m 11.7,-1.1 c -0.5,0 -0.9,0.1 -1.3,0.4 -0.3,0.3 -0.6,0.6 -0.9,1 -0.4,0.8 -0.7,1.6 -0.7,2.6 v 5.9 h -1.9 v -11.8 h 1.9 v 2.4 l 0.1,-0.5 c 0.6,-1.5 1.6,-2.2 2.9,-2.2 0.4,0 0.8,0.1 1.2,0.2 v 2.4 c -0.3,-0.2 -0.8,-0.4 -1.3,-0.4 z m 15.2,4.8 H 725 c 0.2,1 0.7,1.8 1.5,2.5 0.8,0.7 1.7,1 2.7,1 0.7,0 1.3,-0.2 1.9,-0.5 0.6,-0.3 1.1,-0.7 1.5,-1.3 h 2.1 c -0.5,1.1 -1.3,2 -2.3,2.7 -1,0.7 -2,1 -3.1,1 -1,0 -1.9,-0.2 -2.7,-0.5 -0.7,-0.3 -1.4,-0.8 -2,-1.3 -1.2,-1.2 -1.8,-2.6 -1.8,-4.3 0,-1.7 0.6,-3.1 1.8,-4.3 1.2,-1.2 2.7,-1.8 4.3,-1.8 1.6,0 3.1,0.6 4.3,1.7 1.2,1.2 1.9,2.6 1.9,4.2 v 0.9 z m -3.5,-4.1 c -0.8,-0.6 -1.7,-1 -2.7,-1 -1.5,0 -2.7,0.7 -3.6,2.1 -0.3,0.4 -0.5,0.9 -0.6,1.4 h 8.3 c -0.1,-1 -0.6,-1.8 -1.4,-2.5 z"
           id="path4"
           inkscape:connector-curvature="0" />
      </g>
      <path
         d="m 313.1,169.3 c -16.6,0 -30.9,-14.3 -30.9,-30.9 0,-16.6 14.3,-30.9 30.9,-30.9 16.6,0 30.9,14.3 30.9,30.9 0.1,16.6 -14.3,30.9 -30.9,30.9 z m 0,-48.6 c -9.3,0 -17.7,8.4 -17.7,17.7 0,9.3 8.4,17.8 17.7,17.8 9.3,0 17.7,-8.5 17.7,-17.8 0,-9.3 -8.4,-17.7 -17.7,-17.7 z m 39.3,69.8 v -61 h 13.3 v 4.8 c 3.4,-4.2 8.3,-5.7 13.3,-5.7 11,0 19.3,9.6 19.3,20.4 0,10.8 -8.3,20.3 -19.3,20.3 -5,0 -10.7,-1.6 -13.3,-5.6 v 26.8 z M 375,158.7 c 5.3,0 9.3,-4.6 9.3,-9.7 0,-5.1 -4,-9.7 -9.3,-9.7 -5.3,0 -9.3,4.6 -9.3,9.7 0,5.1 4,9.7 9.3,9.7 z m 73.8,-8.1 h -30.2 c 0,4.5 3.2,9.3 8.4,9.3 4.7,0 7.6,-3.1 7.7,-5.9 h 13.5 c -2.3,10.2 -10.6,15.4 -20.9,15.4 -13.4,0 -22.7,-8 -22.7,-20.3 0,-12.2 9.6,-20.4 22.7,-20.4 11.8,0 21.6,7.1 21.6,19.5 0,0.7 -0.1,1.6 -0.1,2.4 z m -12.6,-6.3 c 0,0 -0.6,-7.2 -8.7,-7.2 -8.3,0 -8.7,7.2 -8.7,7.2 z m 61,24.2 h -13.3 v -22.1 c 0,-4.6 -1.8,-7.1 -5.9,-7.1 -4.1,0 -7.4,4.4 -7.4,9.7 v 19.4 h -13.3 v -39 h 13.3 v 4.8 c 2.7,-3.4 6.8,-5.7 11.9,-5.7 10.4,0 14.7,7.2 14.7,17.8 z"
         id="path8"
         inkscape:connector-curvature="0"
         style="fill:#ffffff" />
      <path
         d="m 566.8,168.5 -7.1,-41.4 -11.7,41.4 h -13 l -11.8,-41.5 -7.1,41.4 h -14.6 l 11.7,-60.1 H 529 l 12.5,42.1 12.5,-42.1 h 15.7 l 11.7,60.1 h -14.6 z m 49,0.8 c -16.6,0 -30.9,-14.3 -30.9,-30.9 0,-16.6 14.3,-30.9 30.9,-30.9 16.6,0 30.9,14.3 30.9,30.9 0,16.6 -14.3,30.9 -30.9,30.9 z m 0,-48.6 c -9.3,0 -17.7,8.4 -17.7,17.7 0,9.3 8.4,17.8 17.7,17.8 9.3,0 17.7,-8.5 17.7,-17.8 0,-9.3 -8.4,-17.7 -17.7,-17.7 z m 39.3,-12.3 h 13.3 v 48.1 H 690 v 12 h -34.8 v -60.1 z m 78,60.1 h -34.8 v -60.1 h 34.8 v 12 h -21.6 v 11.9 h 20.7 v 12 h -20.7 v 12.1 h 21.6 z"
         id="path10"
         inkscape:connector-curvature="0"
         style="fill:#a6bf26" />
    </g>
    <g
       id="g36">
      <ellipse
         id="ellipse12"
         ry="16"
         rx="97.5"
         cy="199.89999"
         cx="173.39999"
         style="fill:#2f2e41" />
      <path
         id="path14"
         d="m 113.2,118 v 94.4 c 16.6,2.1 37.5,3.4 60.3,3.4 22.7,0 43.7,-1.3 60.3,-3.4 V 118 Z"
         inkscape:connector-curvature="0"
         style="fill:#878696" />
      <g
         id="g22"
         stroke-miterlimit="10"
         style="stroke:#3f3d56;stroke-width:6;stroke-miterlimit:10">
        <circle
           id="circle16"
           r="12.7"
           cy="144.7"
           cx="151.89999"
           style="fill:#3f3d56;fill-opacity:0.6" />
        <circle
           id="circle18"
           r="12.7"
           cy="144.7"
           cx="195"
           style="fill:#3f3d56;fill-opacity:0.6" />
        <path
           id="path20"
           d="m 164,144.7 h 18.9"
           inkscape:connector-curvature="0"
           style="fill:none" />
      </g>
      <path
         id="path24"
         d="m 161.3,187.4 c 0.4,0.6 0.9,1.1 1.4,1.6 5.9,5.9 15.6,5.9 21.5,0 0.5,-0.5 0.9,-1 1.4,-1.6 -2.7,2.5 -7.1,4.1 -12.1,4.1 -5.1,0.1 -9.5,-1.6 -12.2,-4.1 z"
         inkscape:connector-curvature="0"
         style="fill:#3f3d56" />
      <path
         id="path26"
         d="m 184.2,167.5 -5.4,-5.4 c -3,-3 -7.8,-3 -10.8,0 l -5.4,5.4 c -3.7,3.7 -5.1,8.9 -4.2,13.7 0.4,2.2 1.4,4.4 2.8,6.2 2.7,2.5 7.1,4.1 12.1,4.1 5,0 9.4,-1.6 12.1,-4.1 1.4,-1.9 2.4,-4 2.8,-6.2 1.1,-4.8 -0.3,-10 -4,-13.7 z"
         inkscape:connector-curvature="0"
         style="opacity:0.5;fill:#ffffff" />
      <path
         id="path28"
         d="m 169,186.1 c -2.5,-2.5 -2.5,-6.4 0,-8.9 2.5,-2.5 6.4,-2.5 8.9,0 2.5,2.5 2.5,6.4 0,8.9 -2.5,2.4 -6.5,2.4 -8.9,0 z"
         inkscape:connector-curvature="0"
         style="fill:#3f3d56" />
      <g
         id="g34">
        <path
           id="path30"
           d="m 241,114.8 h -7.4 C 233.3,97.9 224.1,82.9 210,73.3 c -3.2,-2.2 -6.6,-4.1 -10.3,-5.6 v 30.1 c 0,1.4 -1.1,2.5 -2.5,2.5 -1.4,0 -2.5,-1.1 -2.5,-2.5 v -32 c -3.2,-1.1 -6.5,-1.9 -9.9,-2.5 v 13.4 c 0,4.1 -3.3,7.4 -7.4,7.4 h -8.2 c -4.1,0 -7.4,-3.3 -7.4,-7.4 V 63.3 c -3.4,0.6 -6.7,1.4 -9.9,2.5 v 32.1 c 0,1.4 -1.1,2.5 -2.5,2.5 -1.4,0 -2.5,-1.1 -2.5,-2.5 V 67.7 c -3.6,1.6 -7.1,3.5 -10.3,5.6 -14.1,9.6 -23.3,24.6 -23.6,41.5 h -9 c -1.1,0 -2,0.9 -2,2 0,1.1 0.9,2 2,2 h 137 c 1.1,0 2,-0.9 2,-2 0,-1.1 -0.8,-2 -2,-2 z"
           inkscape:connector-curvature="0"
           style="fill:#a6bf26" />
        <path
           id="path32"
           d="m 177.5,54.6 c 1.9,0 3.4,1.5 3.4,3.4 v 18.7 c 0,1.9 -1.5,3.4 -3.4,3.4 h -8.2 c -1.9,0 -3.4,-1.5 -3.4,-3.4 V 58 c 0,-1.9 1.5,-3.4 3.4,-3.4 h 8.2"
           inkscape:connector-curvature="0"
           style="fill:#ffb500" />
      </g>
    </g>
  </g>
</svg>
