<svg xmlns="http://www.w3.org/2000/svg" width="825.9px" height="301.9px" x="0px" y="0px" viewBox="0 0 825.9 301.9">
  <path fill="#3F3D56" d="M0 0h825.9v301.9H0z"/>
  <g fill="#FFF">
    <path d="M377.4 186.2h2.9v-4.6h1.9v4.6h2.9v1.7h-2.9v10h-1.9v-10h-2.9v-1.7zM387.6 198v-20.1h1.9v10.3c.4-.7.9-1.2 1.5-1.6.6-.4 1.4-.7 2.2-.7s1.5.1 2 .4 1 .6 1.3 1c.7.8 1.1 1.9 1.1 3.3v7.4h-1.9v-7.4c0-.8-.2-1.4-.5-2-.3-.5-.9-.8-1.7-.8-.8 0-1.5.1-2 .4s-.9.6-1.2 1.1c-.6.9-.8 2.1-.8 3.7v4.9h-1.9zM412.7 192.8h-10.3c.2 1 .7 1.8 1.5 2.5s1.7 1 2.7 1c.7 0 1.3-.2 1.9-.5.6-.3 1.1-.7 1.5-1.3h2.1c-.5 1.1-1.3 2-2.3 2.7-1 .7-2 1-3.1 1s-1.9-.2-2.7-.5c-.7-.3-1.4-.8-2-1.3-1.2-1.2-1.8-2.6-1.8-4.3 0-1.7.6-3.1 1.8-4.3 1.2-1.2 2.7-1.8 4.3-1.8 1.6 0 3.1.6 4.3 1.7 1.2 1.2 1.9 2.6 1.9 4.2v.9zm-3.4-4.1c-.8-.6-1.7-1-2.7-1-1.5 0-2.7.7-3.6 2.1-.3.4-.5.9-.6 1.4h8.3c-.1-1-.6-1.8-1.4-2.5zM438 190.5c0-1.2-.4-2.1-1.1-2.6-.3-.2-.7-.3-1.2-.3-.6 0-1.1.2-1.6.5s-.9.7-1.1 1.2l-.3.6v7.9h-1.9v-7.4c0-1.2-.4-2.1-1.1-2.6-.3-.2-.7-.3-1.2-.3-.6 0-1.1.2-1.6.5s-.9.7-1.1 1.2c-.4.7-.6 1.5-.7 2.4v6H423v-11.8h1.9v1.9c.4-.6.8-1.1 1.3-1.5.6-.4 1.3-.7 2.2-.7.8 0 1.5.1 2 .4.5.3.9.6 1.2 1 .2.3.4.5.5.8.4-.6.8-1.2 1.4-1.6.6-.4 1.3-.7 2.2-.7.8 0 1.5.1 2 .4.5.3.9.6 1.2 1 .7.8 1 1.9 1 3.3v7.4H438v-7zM453.1 196.4c-1.2 1.2-2.7 1.8-4.3 1.8-1.7 0-3.1-.6-4.3-1.8-1.2-1.2-1.8-2.6-1.8-4.3 0-1.7.6-3.1 1.8-4.3 1.2-1.2 2.7-1.8 4.3-1.8 1.7 0 3.1.6 4.3 1.8 1.2 1.2 1.8 2.7 1.8 4.3 0 1.6-.6 3.1-1.8 4.3zm-1.3-7.4c-.8-.8-1.8-1.3-3-1.3s-2.2.4-3 1.3c-.8.8-1.3 1.8-1.3 3s.4 2.2 1.3 3c.8.8 1.8 1.3 3 1.3s2.2-.4 3-1.3c.8-.8 1.3-1.8 1.3-3s-.4-2.2-1.3-3zM467.5 198v-2c-.1.1-.2.3-.3.4-1.1 1.2-2.5 1.9-4.1 1.9s-3-.6-4.1-1.9c-1.1-1.2-1.6-2.6-1.6-4.3 0-1.6.5-3.1 1.6-4.3 1.1-1.2 2.5-1.9 4.1-1.9s3 .6 4.1 1.9c.1.1.2.3.3.4v-10.3h1.9V198h-1.9zm-1.2-8.9c-.8-.9-1.8-1.3-3-1.3s-2.2.4-3 1.3c-.8.9-1.2 1.8-1.2 3s.4 2.1 1.2 3c.8.9 1.8 1.3 3 1.3s2.2-.4 3-1.3c.8-.9 1.2-1.8 1.2-3s-.4-2.2-1.2-3zM484.9 192.8h-10.3c.2 1 .7 1.8 1.5 2.5s1.7 1 2.7 1c.7 0 1.3-.2 1.9-.5.6-.3 1.1-.7 1.5-1.3h2.1c-.5 1.1-1.3 2-2.3 2.7s-2 1-3.1 1-1.9-.2-2.7-.5c-.7-.3-1.4-.8-2-1.3-1.2-1.2-1.8-2.6-1.8-4.3 0-1.7.6-3.1 1.8-4.3 1.2-1.2 2.7-1.8 4.3-1.8 1.6 0 3.1.6 4.3 1.7 1.2 1.2 1.9 2.6 1.9 4.2v.9zm-3.5-4.1c-.8-.6-1.7-1-2.7-1-1.5 0-2.7.7-3.6 2.1-.3.4-.5.9-.6 1.4h8.3c-.1-1-.6-1.8-1.4-2.5zM488 198v-20.1h1.9V198H488zM512.6 192.8h-10.3c.2 1 .7 1.8 1.5 2.5s1.7 1 2.7 1c.7 0 1.3-.2 1.9-.5.6-.3 1.1-.7 1.5-1.3h2.1c-.5 1.1-1.3 2-2.3 2.7s-2 1-3.1 1-1.9-.2-2.7-.5c-.7-.3-1.4-.8-2-1.3-1.2-1.2-1.8-2.6-1.8-4.3 0-1.7.6-3.1 1.8-4.3 1.2-1.2 2.7-1.8 4.3-1.8 1.6 0 3.1.6 4.3 1.7 1.2 1.2 1.9 2.6 1.9 4.2v.9zm-3.5-4.1c-.8-.6-1.7-1-2.7-1-1.5 0-2.7.7-3.6 2.1-.3.4-.5.9-.6 1.4h8.3c-.1-1-.6-1.8-1.4-2.5zM519.6 193.4l-2.9 4.6h-2.4l4.1-5.9-4.1-5.9h2.4l2.9 4.5 2.9-4.5h2.4l-4.1 5.9 4.1 5.9h-2.4l-2.9-4.6zM527.6 204.6v-18.4h1.9v2c.1-.1.2-.3.3-.4 1.1-1.2 2.5-1.9 4.1-1.9 1.6 0 3 .6 4.1 1.9 1.1 1.2 1.6 2.6 1.6 4.3 0 1.6-.5 3.1-1.6 4.3-1.1 1.2-2.5 1.9-4.1 1.9-1.6 0-3-.6-4.1-1.9-.1-.1-.2-.3-.3-.4v8.7h-1.9zm9-15.5c-.8-.9-1.8-1.3-3-1.3s-2.2.4-3 1.3c-.8.9-1.2 1.8-1.2 3s.4 2.1 1.2 3c.8.9 1.8 1.3 3 1.3s2.2-.4 3-1.3c.8-.9 1.2-1.8 1.2-3s-.4-2.2-1.2-3zM542.9 198v-20.1h1.9V198h-1.9zM558.4 196.4c-1.2 1.2-2.7 1.8-4.3 1.8-1.7 0-3.1-.6-4.3-1.8-1.2-1.2-1.8-2.6-1.8-4.3 0-1.7.6-3.1 1.8-4.3 1.2-1.2 2.7-1.8 4.3-1.8s3.1.6 4.3 1.8c1.2 1.2 1.8 2.7 1.8 4.3 0 1.6-.6 3.1-1.8 4.3zm-1.3-7.4c-.8-.8-1.8-1.3-3-1.3s-2.2.4-3 1.3c-.8.8-1.3 1.8-1.3 3s.4 2.2 1.3 3c.8.8 1.8 1.3 3 1.3s2.2-.4 3-1.3c.8-.8 1.3-1.8 1.3-3s-.4-2.2-1.3-3zM568.1 188c-.5 0-.9.1-1.3.4-.3.3-.6.6-.9 1-.4.8-.7 1.6-.7 2.6v5.9h-1.9v-11.8h1.9v2.4l.1-.5c.6-1.5 1.6-2.2 2.9-2.2.4 0 .8.1 1.2.2v2.4c-.3-.2-.8-.4-1.3-.4zM581.1 198v-2c-.1.1-.2.3-.3.4-1.1 1.2-2.5 1.9-4.1 1.9-1.6 0-3-.6-4.1-1.9-1.1-1.2-1.6-2.6-1.6-4.3 0-1.6.5-3.1 1.6-4.3 1.1-1.2 2.5-1.9 4.1-1.9 1.6 0 3 .6 4.1 1.9.1.1.2.3.3.4v-2h1.9V198h-1.9zm-1.2-8.9c-.8-.9-1.8-1.3-3-1.3s-2.2.4-3 1.3c-.8.9-1.2 1.8-1.2 3s.4 2.1 1.2 3c.8.9 1.8 1.3 3 1.3s2.2-.4 3-1.3c.8-.9 1.2-1.8 1.2-3s-.4-2.2-1.2-3zM585.5 186.2h2.9v-4.6h1.9v4.6h2.9v1.7h-2.9v10h-1.9v-10h-2.9v-1.7zM598.1 183c0 .3-.1.6-.3.8-.2.2-.5.3-.8.3s-.6-.1-.8-.3c-.2-.2-.3-.5-.3-.8s.1-.6.3-.8c.2-.2.5-.3.8-.3s.6.1.8.3c.1.2.3.4.3.8zm-2.2 15v-11.8h1.9V198h-1.9zM611.6 196.4c-1.2 1.2-2.7 1.8-4.3 1.8-1.7 0-3.1-.6-4.3-1.8-1.2-1.2-1.8-2.6-1.8-4.3 0-1.7.6-3.1 1.8-4.3 1.2-1.2 2.7-1.8 4.3-1.8s3.1.6 4.3 1.8c1.2 1.2 1.8 2.7 1.8 4.3 0 1.6-.6 3.1-1.8 4.3zm-1.3-7.4c-.8-.8-1.8-1.3-3-1.3s-2.2.4-3 1.3c-.8.8-1.3 1.8-1.3 3s.4 2.2 1.3 3c.8.8 1.8 1.3 3 1.3s2.2-.4 3-1.3c.8-.8 1.3-1.8 1.3-3s-.5-2.2-1.3-3zM624.8 190.6c0-.8-.2-1.4-.5-2-.3-.5-.9-.8-1.7-.8-.8 0-1.5.2-2 .5s-.9.7-1.2 1.2c-.6.9-.8 2.1-.8 3.6v4.9h-1.9v-11.8h1.9v2c.4-.7.9-1.2 1.5-1.6.6-.4 1.4-.7 2.2-.7s1.5.1 2 .4 1 .6 1.3 1c.7.8 1.1 1.9 1.1 3.3v7.4h-1.9v-7.4zM641 196.8c1.7 0 2.6-.6 2.6-1.9 0-.7-.6-1.3-1.8-1.7-.5-.2-1.1-.3-1.7-.5-.6-.1-1.2-.3-1.7-.6-.6-.3-1.1-.6-1.4-1.1-.3-.4-.5-.9-.5-1.5 0-1.2.4-2.1 1.2-2.7.8-.6 1.8-.9 2.9-.9 1.1 0 2.1.2 2.8.7.8.5 1.3 1.3 1.5 2.5h-2c-.2-.7-.5-1.1-.9-1.3-.4-.2-.9-.3-1.5-.3s-1.1.1-1.5.4c-.4.3-.6.6-.6 1.2 0 .5.2.9.5 1.2.3.2.8.4 1.3.6.5.2 1.1.3 1.7.4.6.1 1.2.3 1.7.6 1.2.6 1.8 1.5 1.8 2.8 0 1.3-.5 2.2-1.4 2.8-.5.3-1 .5-1.5.7-.5.2-1.1.2-1.8.2-2.7 0-4.3-1.2-4.7-3.6h2c.2.8.5 1.3 1 1.6.6.2 1.2.4 2 .4zM657.9 196.4c-1.2 1.2-2.7 1.8-4.3 1.8-1.7 0-3.1-.6-4.3-1.8-1.2-1.2-1.8-2.6-1.8-4.3 0-1.7.6-3.1 1.8-4.3 1.2-1.2 2.7-1.8 4.3-1.8s3.1.6 4.3 1.8c1.2 1.2 1.8 2.7 1.8 4.3 0 1.6-.6 3.1-1.8 4.3zm-1.3-7.4c-.8-.8-1.8-1.3-3-1.3s-2.2.4-3 1.3c-.8.8-1.3 1.8-1.3 3s.4 2.2 1.3 3c.8.8 1.8 1.3 3 1.3s2.2-.4 3-1.3c.8-.8 1.3-1.8 1.3-3-.1-1.2-.5-2.2-1.3-3zM667.6 179.6c-.6 0-1 .1-1.2.4-.2.3-.3.6-.3 1v5.1h3.1v1.7h-3.1v10h-1.9v-10h-2.4v-1.7h2.4v-4.5c0-1.2.3-2.1.8-2.8.6-.7 1.5-1 2.8-1h1.3v1.7h-1.5zM670.6 186.2h2.9v-4.6h1.9v4.6h2.9v1.7h-2.9v10h-1.9v-10h-2.9v-1.7zM688.5 190l-3.8 9.5-5.6-13.3h2.1l3.5 9.1 3.8-9.7 3.8 9.7 3.5-9.1h2.1l-5.6 13.3-3.8-9.5zM709.6 198v-2c-.1.1-.2.3-.3.4-1.1 1.2-2.5 1.9-4.1 1.9-1.6 0-3-.6-4.1-1.9-1.1-1.2-1.6-2.6-1.6-4.3 0-1.6.5-3.1 1.6-4.3 1.1-1.2 2.5-1.9 4.1-1.9 1.6 0 3 .6 4.1 1.9.1.1.2.3.3.4v-2h1.9V198h-1.9zm-1.2-8.9c-.8-.9-1.8-1.3-3-1.3s-2.2.4-3 1.3c-.8.9-1.2 1.8-1.2 3s.4 2.1 1.2 3c.8.9 1.8 1.3 3 1.3s2.2-.4 3-1.3c.8-.9 1.2-1.8 1.2-3s-.4-2.2-1.2-3zM720.1 188c-.5 0-.9.1-1.3.4-.3.3-.6.6-.9 1-.4.8-.7 1.6-.7 2.6v5.9h-1.9v-11.8h1.9v2.4l.1-.5c.6-1.5 1.6-2.2 2.9-2.2.4 0 .8.1 1.2.2v2.4c-.3-.2-.8-.4-1.3-.4zM735.3 192.8H725c.2 1 .7 1.8 1.5 2.5s1.7 1 2.7 1c.7 0 1.3-.2 1.9-.5.6-.3 1.1-.7 1.5-1.3h2.1c-.5 1.1-1.3 2-2.3 2.7-1 .7-2 1-3.1 1-1 0-1.9-.2-2.7-.5-.7-.3-1.4-.8-2-1.3-1.2-1.2-1.8-2.6-1.8-4.3 0-1.7.6-3.1 1.8-4.3 1.2-1.2 2.7-1.8 4.3-1.8 1.6 0 3.1.6 4.3 1.7 1.2 1.2 1.9 2.6 1.9 4.2v.9zm-3.5-4.1c-.8-.6-1.7-1-2.7-1-1.5 0-2.7.7-3.6 2.1-.3.4-.5.9-.6 1.4h8.3c-.1-1-.6-1.8-1.4-2.5z"/>
  </g>
  <path fill="#FFF" d="M313.1 169.3c-16.6 0-30.9-14.3-30.9-30.9 0-16.6 14.3-30.9 30.9-30.9 16.6 0 30.9 14.3 30.9 30.9.1 16.6-14.3 30.9-30.9 30.9zm0-48.6c-9.3 0-17.7 8.4-17.7 17.7s8.4 17.8 17.7 17.8c9.3 0 17.7-8.5 17.7-17.8s-8.4-17.7-17.7-17.7zM352.4 190.5v-61h13.3v4.8c3.4-4.2 8.3-5.7 13.3-5.7 11 0 19.3 9.6 19.3 20.4 0 10.8-8.3 20.3-19.3 20.3-5 0-10.7-1.6-13.3-5.6v26.8h-13.3zm22.6-31.8c5.3 0 9.3-4.6 9.3-9.7s-4-9.7-9.3-9.7-9.3 4.6-9.3 9.7 4 9.7 9.3 9.7zM448.8 150.6h-30.2c0 4.5 3.2 9.3 8.4 9.3 4.7 0 7.6-3.1 7.7-5.9h13.5c-2.3 10.2-10.6 15.4-20.9 15.4-13.4 0-22.7-8-22.7-20.3 0-12.2 9.6-20.4 22.7-20.4 11.8 0 21.6 7.1 21.6 19.5 0 .7-.1 1.6-.1 2.4zm-12.6-6.3s-.6-7.2-8.7-7.2c-8.3 0-8.7 7.2-8.7 7.2h17.4zM497.2 168.5h-13.3v-22.1c0-4.6-1.8-7.1-5.9-7.1s-7.4 4.4-7.4 9.7v19.4h-13.3v-39h13.3v4.8c2.7-3.4 6.8-5.7 11.9-5.7 10.4 0 14.7 7.2 14.7 17.8v22.2z"/>
  <path fill="#A6BF26" d="M566.8 168.5l-7.1-41.4-11.7 41.4h-13L523.2 127l-7.1 41.4h-14.6l11.7-60.1H529l12.5 42.1 12.5-42.1h15.7l11.7 60.1h-14.6zM615.8 169.3c-16.6 0-30.9-14.3-30.9-30.9 0-16.6 14.3-30.9 30.9-30.9 16.6 0 30.9 14.3 30.9 30.9 0 16.6-14.3 30.9-30.9 30.9zm0-48.6c-9.3 0-17.7 8.4-17.7 17.7s8.4 17.8 17.7 17.8c9.3 0 17.7-8.5 17.7-17.8s-8.4-17.7-17.7-17.7zM655.1 108.4h13.3v48.1H690v12h-34.8v-60.1zM733.1 168.5h-34.8v-60.1h34.8v12h-21.6v11.9h20.7v12h-20.7v12.1h21.6v12.1z"/>
  <g>
    <ellipse cx="173.4" cy="199.9" fill="#2F2E41" rx="97.5" ry="16"/>
    <path fill="#878696" d="M113.2 118v94.4c16.6 2.1 37.5 3.4 60.3 3.4 22.7 0 43.7-1.3 60.3-3.4V118H113.2z"/>
    <g stroke="#3F3D56" stroke-miterlimit="10" stroke-width="6">
      <circle cx="151.9" cy="144.7" r="12.7" fill="#3F3D56" fill-opacity="0.6"/>
      <circle cx="195" cy="144.7" r="12.7" fill="#3F3D56" fill-opacity="0.6"/>
      <path fill="none" d="M164 144.7h18.9"/>
    </g>
    <path fill="#3F3D56" d="M161.3 187.4c.4.6.9 1.1 1.4 1.6 5.9 5.9 15.6 5.9 21.5 0 .5-.5.9-1 1.4-1.6-2.7 2.5-7.1 4.1-12.1 4.1-5.1.1-9.5-1.6-12.2-4.1z"/>
    <path fill="#FFF" d="M184.2 167.5l-5.4-5.4c-3-3-7.8-3-10.8 0l-5.4 5.4c-3.7 3.7-5.1 8.9-4.2 13.7.4 2.2 1.4 4.4 2.8 6.2 2.7 2.5 7.1 4.1 12.1 4.1s9.4-1.6 12.1-4.1c1.4-1.9 2.4-4 2.8-6.2 1.1-4.8-.3-10-4-13.7z" opacity="0.5"/>
    <path fill="#3F3D56" d="M169 186.1c-2.5-2.5-2.5-6.4 0-8.9s6.4-2.5 8.9 0 2.5 6.4 0 8.9c-2.5 2.4-6.5 2.4-8.9 0z"/>
    <g>
      <path fill="#A6BF26" d="M241 114.8h-7.4c-.3-16.9-9.5-31.9-23.6-41.5-3.2-2.2-6.6-4.1-10.3-5.6v30.1c0 1.4-1.1 2.5-2.5 2.5s-2.5-1.1-2.5-2.5v-32c-3.2-1.1-6.5-1.9-9.9-2.5v13.4c0 4.1-3.3 7.4-7.4 7.4h-8.2c-4.1 0-7.4-3.3-7.4-7.4V63.3c-3.4.6-6.7 1.4-9.9 2.5v32.1c0 1.4-1.1 2.5-2.5 2.5s-2.5-1.1-2.5-2.5V67.7c-3.6 1.6-7.1 3.5-10.3 5.6-14.1 9.6-23.3 24.6-23.6 41.5h-9c-1.1 0-2 .9-2 2s.9 2 2 2h137c1.1 0 2-.9 2-2s-.8-2-2-2z"/>
      <path fill="#FFB500" d="M177.5 54.6c1.9 0 3.4 1.5 3.4 3.4v18.7c0 1.9-1.5 3.4-3.4 3.4h-8.2c-1.9 0-3.4-1.5-3.4-3.4V58c0-1.9 1.5-3.4 3.4-3.4h8.2"/>
    </g>
  </g>
</svg>