<svg xmlns="http://www.w3.org/2000/svg" viewBox="0 0 221.09 182.83">
  <ellipse cx="110.55" cy="164.66" fill="#2f2e41" rx="110.55" ry="18.17"/>
  <path fill="#878696" d="M42.26 71.91V179c18.8 2.43 42.51 3.88 68.29 3.88s49.45-1.5 68.29-3.88V72z"/>
  <g stroke="#3f3d56" stroke-miterlimit="10" stroke-width="6.8">
    <circle cx="86.13" cy="102.07" r="14.39" fill="#3f3d56" fill-opacity=".6"/>
    <circle cx="134.96" cy="102.07" r="14.39" fill="#3f3d56" fill-opacity=".6"/>
    <path fill="none" d="M99.84 102.07h21.41"/>
  </g>
  <path fill="#3f3d56" d="M96.81 150.54a17.65 17.65 0 001.55 1.81 17.23 17.23 0 0024.37 0 16.48 16.48 0 001.55-1.81c-3.08 2.83-8.08 4.68-13.73 4.68s-10.66-1.85-13.74-4.68z"/>
  <path fill="#fff" d="M122.73 128l-6.07-6.07a8.64 8.64 0 00-12.23 0L98.36 128a17.22 17.22 0 00-4.73 15.5 17 17 0 003.18 7.07c3.08 2.83 8.08 4.68 13.74 4.68s10.65-1.85 13.73-4.68a17.18 17.18 0 00-1.55-22.57z" opacity=".5"/>
  <rect width="14.25" height="14.25" x="103.42" y="136.83" fill="#3f3d56" rx="7.13" transform="rotate(45 110.54 143.958)"/>
  <g>
    <path fill="#a6bf26" d="M187.19 68.28h-8.38c-.33-19.16-10.72-36.15-26.72-47a70.42 70.42 0 00-11.62-6.38V49a2.83 2.83 0 01-5.66 0V12.72a75 75 0 00-11.23-2.83V25a8.41 8.41 0 01-8.4 8.4h-9.27a8.41 8.41 0 01-8.4-8.4V9.89a74.88 74.88 0 00-11.22 2.83V49a2.84 2.84 0 01-5.67 0V14.88A70.83 70.83 0 0069 21.26c-16 10.87-26.39 27.86-26.71 47H31.93a2.27 2.27 0 000 4.54h155.26a2.27 2.27 0 100-4.54z"/>
    <path fill="#ffb500" d="M115.18 0a3.86 3.86 0 013.87 3.86V25a3.87 3.87 0 01-3.87 3.87h-9.27a3.86 3.86 0 01-3.86-3.87V3.86A3.86 3.86 0 01105.91 0h9.27"/>
  </g>
</svg>
