<?xml version="1.0" encoding="UTF-8" standalone="no"?>
<!-- Created with Inkscape (http://www.inkscape.org/) -->

<svg
   xmlns:dc="http://purl.org/dc/elements/1.1/"
   xmlns:cc="http://creativecommons.org/ns#"
   xmlns:rdf="http://www.w3.org/1999/02/22-rdf-syntax-ns#"
   xmlns:svg="http://www.w3.org/2000/svg"
   xmlns="http://www.w3.org/2000/svg"
   xmlns:xlink="http://www.w3.org/1999/xlink"
   xmlns:sodipodi="http://sodipodi.sourceforge.net/DTD/sodipodi-0.dtd"
   xmlns:inkscape="http://www.inkscape.org/namespaces/inkscape"
   width="82.70327mm"
   height="85.338486mm"
   viewBox="0 0 82.70327 85.338486"
   version="1.1"
   id="svg8"
   sodipodi:docname="openmole.svg"
   inkscape:version="0.92.1 r15371">
  <sodipodi:namedview
     pagecolor="#ffffff"
     bordercolor="#666666"
     borderopacity="1"
     objecttolerance="10"
     gridtolerance="10"
     guidetolerance="10"
     inkscape:pageopacity="0"
     inkscape:pageshadow="2"
     inkscape:window-width="1855"
     inkscape:window-height="1176"
     id="namedview30"
     showgrid="false"
     inkscape:zoom="4.5337032"
     inkscape:cx="168.04691"
     inkscape:cy="157.56183"
     inkscape:window-x="65"
     inkscape:window-y="24"
     inkscape:window-maximized="1"
     inkscape:current-layer="layer1" />
  <defs
     id="defs2">
    <linearGradient
       xlink:href="#linearGradient3734"
       id="linearGradient3740"
       x1="280.31732"
       y1="590.72247"
       x2="338.40109"
       y2="574.56006"
       gradientUnits="userSpaceOnUse"
       gradientTransform="matrix(0.31555581,0,0,0.31555581,51.507286,-46.562545)" />
    <linearGradient
       id="linearGradient3734">
      <stop
         style="stop-color:#000000;stop-opacity:1;"
         offset="0"
         id="stop3736" />
      <stop
         style="stop-color:#000000;stop-opacity:0;"
         offset="1"
         id="stop3738" />
    </linearGradient>
    <linearGradient
       xlink:href="#linearGradient3726"
       id="linearGradient3732"
       x1="100.56425"
       y1="515.65198"
       x2="283.92621"
       y2="410.09103"
       gradientUnits="userSpaceOnUse"
       gradientTransform="matrix(0.31555581,0,0,0.31555581,51.507287,-46.420003)" />
    <linearGradient
       id="linearGradient3726">
      <stop
         style="stop-color:#afc42a;stop-opacity:1;"
         offset="0"
         id="stop3728" />
      <stop
         style="stop-color:#afc42a;stop-opacity:0;"
         offset="1"
         id="stop3730" />
    </linearGradient>
    <linearGradient
       xlink:href="#linearGradient4544"
       id="linearGradient4550"
       x1="69.612473"
       y1="778.55316"
       x2="489.6077"
       y2="530.26868"
       gradientUnits="userSpaceOnUse"
       gradientTransform="matrix(0.26458333,0,0,0.26458333,60.123577,-49.238243)" />
    <linearGradient
       id="linearGradient4544">
      <stop
         style="stop-color:#565656;stop-opacity:1;"
         offset="0"
         id="stop4546" />
      <stop
         style="stop-color:#565656;stop-opacity:0;"
         offset="1"
         id="stop4548" />
    </linearGradient>
    <linearGradient
       xlink:href="#linearGradient3726"
       id="linearGradient3724"
       x1="129.87415"
       y1="684.20636"
       x2="347.34958"
       y2="577.63531"
       gradientUnits="userSpaceOnUse"
       gradientTransform="matrix(0.31555581,0,0,0.31555581,51.507287,-46.420003)" />
    <filter
       style="color-interpolation-filters:sRGB"
       id="filter6238"
       x="-0.48387"
       width="1.9677401"
       y="-0.40409669"
       height="1.8081934">
      <feGaussianBlur
         stdDeviation="22.254834"
         id="feGaussianBlur6240" />
    </filter>
  </defs>
  <metadata
     id="metadata5">
    <rdf:RDF>
      <cc:Work
         rdf:about="">
        <dc:format>image/svg+xml</dc:format>
        <dc:type
           rdf:resource="http://purl.org/dc/dcmitype/StillImage" />
      </cc:Work>
    </rdf:RDF>
  </metadata>
  <g
     id="layer1"
     transform="translate(-65.993604,-90.289097)">
    <path
       style="fill:url(#linearGradient3724);fill-opacity:1;fill-rule:evenodd;stroke:#000000;stroke-width:0.31555581px;stroke-linecap:butt;stroke-linejoin:miter;stroke-opacity:1"
       d="m 87.796197,172.05892 8.227,1.80318 11.833343,0.56349 10.93175,-0.90159 h 7.6635 c -1.21713,-0.57038 -2.41977,-1.1717 -3.60635,-1.80318 -1.53043,-0.81446 -3.03415,-1.6791 -4.50794,-2.59206 l -4.62064,-2.14127 9.69207,-2.47937 3.83175,-0.3381 -3.49365,-3.04286 -5.40953,-2.25397 4.28254,-1.69047 3.26826,0.11269 3.26826,1.35239 0.67619,-0.6762 -1.29604,-1.91587 -3.55,-3.7754 -4.95873,-3.6627 -9.07223,1.85952 -6.14207,2.02858 -3.60635,2.31032 -3.155563,2.87381 c -1.220949,1.46847 -2.423195,2.9525 -3.60635,4.45159 -1.261545,1.59841 -2.501384,3.21396 -3.71906,4.84604 l -4.22619,3.6627 z"
       id="path3702" />
    <ellipse
       style="opacity:1;fill:#2d2d2d;fill-opacity:1;stroke:none;stroke-width:0.1175257;stroke-linecap:square;stroke-linejoin:miter;stroke-miterlimit:4;stroke-dasharray:none;stroke-dashoffset:0;stroke-opacity:1"
       id="nose"
       cx="140.8735"
       cy="138.79126"
       rx="2.9452784"
       ry="3.0500989" />
    <path
       style="fill:url(#linearGradient4550);fill-opacity:1;fill-rule:evenodd;stroke:#000000;stroke-width:0.31555581px;stroke-linecap:butt;stroke-linejoin:miter;stroke-opacity:1"
       d="m 83.701997,171.54311 -6.69395,-3.1876 c -1.44879,-2.08016 -2.831025,-4.20667 -4.14388,-6.37518 -0.853642,-1.41001 -1.677956,-2.83777 -2.47223,-4.28205 l -1.95055,-10.26136 1.39457,-11.03705 3.66573,-6.45488 8.12837,-8.92527 10.27964,-4.52117 1.57778,-0.39444 c 0.844674,-0.11689 1.689928,-0.2296 2.53572,-0.3381 1.537006,-0.19718 3.076222,-0.38053 4.620643,-0.50714 1.61388,-0.1323 3.23242,-0.20255 4.84603,-0.3381 0.73384,-0.0617 2.60454,-0.18052 3.33562,-0.16703 1.22088,0.15535 1.54985,0.24308 2.70781,0.33608 7.30725,1.85114 9.80617,2.2863 14.35498,4.22619 l 5.57858,3.43731 6.70556,7.49445 2.25397,4.1135 0.0512,0.89068 1.00611,0.21446 0.75825,0.4582 0.59671,0.61501 0.37378,0.70994 0.14126,0.44627 c 0.31619,0.49885 0.13689,1.78422 -0.23782,2.45353 l -3.14034,2.77699 -2.25397,2.59207 -5.18413,2.31032 -11.1008,0.45079 -9.18493,1.85953 -7.5508,2.42302 -5.071433,3.49365 -2.70477,2.76112 c -0.977592,1.43467 -1.992332,2.84403 -3.04286,4.22619 -0.930214,1.22386 -1.888486,2.4264 -2.87381,3.60635 l -4.62064,4.45159 z"
       id="path3694"
       inkscape:connector-curvature="0"
       sodipodi:nodetypes="cccccccccccccccccccccccccccccccccccccc" />
    <path
       style="fill:url(#linearGradient3732);fill-opacity:1;fill-rule:evenodd;stroke:#000000;stroke-width:0.31555581px;stroke-linecap:butt;stroke-linejoin:miter;stroke-opacity:1"
       d="m 80.554247,121.1791 2.11178,-11.35581 4.73573,-5.77792 6.31112,-2.59207 2.98651,-0.73254 2.19762,-0.0563 4.676993,2.25397 3.7754,3.83175 1.40873,2.36667 1.18385,4.49134 -0.21429,1.03335 -0.76277,-0.0769 c -0.32442,0.006 -0.52198,-0.0446 -0.96775,-0.0406 -0.3288,0.003 -0.9157,0.0591 -1.15478,0.0705 -2.87312,0.16647 -5.24894,0.23616 -7.830402,0.51444 l -5.218951,0.63841 c -0.705258,0.11769 -3.646006,1.27306 -4.244956,1.50402 -0.450242,0.18953 -0.944082,0.34617 -1.849423,0.76551 -1.056603,0.48941 -2.160771,0.9989 -2.447771,1.12723 -0.796183,0.35601 -1.676533,0.64476 -3.083083,1.31318 l -0.739067,0.9437 z"
       id="path3698"
       inkscape:connector-curvature="0"
       sodipodi:nodetypes="ccccccccccccsccccssccc" />
    <ellipse
       style="opacity:1;fill:#ffffff;fill-opacity:1;stroke:none;stroke-width:0.13229166;stroke-linecap:square;stroke-linejoin:miter;stroke-miterlimit:4;stroke-dasharray:none;stroke-dashoffset:0;stroke-opacity:1"
       id="path3706"
       cx="91.228966"
       cy="124.27475"
       rx="3.6018081"
       ry="3.3809552" />
    <path
       style="fill:#b7cb3d;fill-opacity:1;fill-rule:evenodd;stroke:#000000;stroke-width:0.31555581px;stroke-linecap:butt;stroke-linejoin:miter;stroke-opacity:1"
       d="m 108.87082,108.15886 9.69208,-2.70476 v 2.47937 l -0.2254,2.36666 c 0.0731,0.75152 0.14826,1.50285 0.2254,2.25397 0.0733,0.71395 0.14845,1.42771 0.22539,2.14128 l -1.35238,0.33809 c -1.15782,-0.29168 -2.32284,-0.55475 -3.49365,-0.78889 -1.30826,-0.26163 -2.62375,-0.48714 -3.94445,-0.67619 z"
       id="path4635" />
    <path
       style="fill:#fff6d5;fill-rule:evenodd;stroke:none;stroke-width:0.26458332px;stroke-linecap:butt;stroke-linejoin:miter;stroke-opacity:1"
       d="m 119.23909,105.39775 -0.67619,1.74683 c -0.0705,0.99463 -0.12689,1.99026 -0.16905,2.9865 -0.023,0.54455 -0.0418,1.08928 -0.0564,1.63413 l 0.39445,2.59207 0.16905,0.61984 0.67619,0.16905 0.0278,-0.45079 0.14842,-1.21906 0.83805,-5.7119 -0.50714,-1.80318 z"
       id="path4651"
       inkscape:connector-curvature="0"
       sodipodi:nodetypes="cccccccccccc" />
    <path
       style="fill:#080808;fill-opacity:1;stroke-width:0.26458332"
       d="m 94.719524,174.50231 c -4.602275,-0.85953 -10.315705,-2.16916 -10.961449,-2.5224 -0.530678,-0.2903 0.163654,-0.99555 2.89254,-0.9008 2.092509,0.0727 8.075684,1.73155 9.454883,2.08025 4.893812,1.2373 14.474372,0.32922 19.488622,-0.57398 1.50512,-0.27111 3.76084,-0.49293 5.01268,-0.49293 h 2.2761 l -1.01893,-0.76251 c -1.88069,-1.40741 -5.61733,-3.03012 -8.67945,-3.76923 -0.79641,-0.19223 -1.45367,-0.48264 -1.4606,-0.64535 -0.007,-0.16271 0.84437,-0.50068 1.89176,-0.75106 1.04739,-0.25038 3.2356,-0.87584 4.86269,-1.38992 1.62708,-0.51408 3.94093,-1.04142 5.14188,-1.17186 l 2.18355,-0.23716 -1.44144,-1.03542 c -2.06693,-1.48472 -3.55127,-2.08245 -5.66039,-2.2794 -1.57224,-0.14682 -1.85069,-0.25883 -1.85069,-0.74447 0,-2.27839 5.67285,-3.90125 9.63004,-2.75492 0.96776,0.28034 1.92596,0.64656 2.12934,0.81381 0.20339,0.16725 0.36978,0.18795 0.36977,0.046 -7e-5,-0.5858 -4.24492,-5.1857 -5.7497,-6.23063 -2.20962,-1.53437 -4.0841,-3.47253 -1.83434,-2.04212 2.52932,1.60814 7.00311,5.75419 9.07382,8.86568 1.93434,2.90656 2.23468,3.76033 1.04967,2.98388 -0.39311,-0.25757 -0.78599,-0.654 -0.87309,-0.88095 -0.0871,-0.22695 -0.7306,-0.7058 -1.43004,-1.06411 -1.53743,-0.78758 -6.32742,-1.1344 -7.78005,-0.56331 l -0.8875,0.34893 1.12337,0.38951 c 1.3854,0.48036 2.72255,1.35759 5.32322,3.49223 1.105,0.90699 2.38943,1.73261 2.85429,1.83471 0.46864,0.10292 0.90894,0.42933 0.98824,0.7326 0.20085,0.76804 -1.05899,0.96072 -2.25425,0.34476 -1.41643,-0.72994 -6.30762,-0.63286 -8.62654,0.17121 -0.97625,0.33851 -2.40734,0.78003 -3.18021,0.98115 -0.77287,0.20113 -1.40376,0.44823 -1.402,0.54911 0.002,0.10088 1.03348,0.56665 2.29271,1.03503 1.25923,0.46839 3.42107,1.58598 4.80409,2.48353 2.34903,1.52448 5.34779,2.63729 6.00774,2.22942 0.13999,-0.0865 0.21004,0.157 0.15569,0.54116 -0.11015,0.77832 -0.43856,0.80653 -4.56739,0.39225 -1.91719,-0.19237 -5.54228,0.0307 -16.97939,1.04496 -5.29426,0.46948 -10.093423,-0.12261 -12.369246,-0.54765 z m -10.961449,-2.51875 c -4.31515,-1.12496 -6.378889,-2.39187 -8.578329,-4.95011 -1.03505,-1.20391 -2.17322,-2.52173 -2.52926,-2.92851 -2.40434,-2.74695 -4.67285,-7.54048 -5.93775,-12.54693 -0.72235,-2.85905 -0.79844,-3.60325 -0.66538,-6.50834 0.23856,-5.20843 1.30764,-8.52303 4.34989,-13.48642 2.71565,-4.43056 4.47937,-6.46387 8.00039,-9.22326 l 1.63181,-1.27883 -0.34195,-1.33125 c -0.53923,-2.09932 -0.11882,-5.70667 0.99985,-8.57918 1.33629,-3.43132 3.42423,-6.17227 5.98891,-7.86194 2.10323,-2.13644 7.369034,-3.528084 9.673964,-3.623513 1.486724,-0.399482 4.27992,0.840023 6.5053,2.279463 1.52475,0.98624 5.41659,4.82926 5.41659,5.34864 0,0.51898 3.75742,-0.35052 6.89753,-1.59615 1.92249,-0.76262 3.71968,-1.34521 3.99375,-1.29466 0.65246,0.12034 1.78238,1.92782 1.63433,3.69798 -0.0765,1.9765 -0.85507,5.88908 -1.12069,7.00982 -0.38978,0.49499 -0.74592,0.1645 -0.59543,-0.77943 0.27383,-1.71763 1.18737,-6.50874 0.93652,-7.69167 -0.5834,-2.75078 -1.51284,0.0758 -1.29625,3.94213 0.0859,1.53345 0.66044,3.28264 0.77239,3.81144 0.18445,0.87131 0.13797,0.96124 -0.49567,0.95912 -0.18072,-4.7e-4 -0.79935,-0.0157 -1.59556,-0.15029 -0.89803,-0.15182 -2.02477,-0.43587 -3.05696,-0.65063 -1.94736,-0.40516 -4.14034,-0.89388 -4.4709,-0.79263 -0.73672,-1.21006 -1.2242,-3.95224 -2.1894,-5.70465 -0.84999,-1.48564 -2.96325,-3.8919 -4.29501,-4.89051 -2.78223,-2.08627 -6.912673,-2.48451 -7.979319,-1.82843 -7.461014,1.43063 -12.198001,7.31035 -13.720912,13.50564 -1.897499,12.52812 7.933756,-0.98226 -2.349533,8.82653 -1.25361,1.32167 -2.65137,2.76612 -3.10612,3.2099 -1.43807,1.4034 -5.47379,8.94781 -6.30486,11.78638 -0.67497,2.30538 -1.2972,6.34688 -1.29807,8.43126 -9.5e-4,2.29716 1.1652,7.07793 2.63612,10.80701 1.09723,2.78167 3.430299,6.38353 4.406379,7.21384 1.32344,1.12579 5.439261,4.34686 6.833771,4.91501 l 1.60068,0.65214 1.35765,-0.65203 c 1.85208,-0.88948 5.32098,-3.92949 8.14228,-7.84846 4.340265,-6.02892 7.943614,-9.03747 13.289834,-11.09612 4.99539,-1.92356 14.82786,-3.87224 19.4955,-3.86379 5.69848,0.0103 8.57268,-0.73859 11.35793,-2.81486 1.76772,-1.31776 1.67902,-2.08538 0.62919,-2.49091 -0.88711,-0.34268 -1.34582,-1.18793 -1.4209,-1.92184 -0.18039,-1.76352 -0.37446,-2.5815 1.01421,-3.97014 1.35876,-1.35875 1.87955,-1.16092 2.94888,-0.91975 1.27417,0.28738 1.97789,0.99997 2.61401,2.23008 0.88163,1.7049 0.12293,4.51911 -1.9009,4.97385 -0.62253,0.16649 -1.15944,0.73631 -1.7276,1.44558 -0.30322,0.65028 -0.87533,1.24796 -1.88251,1.99181 -3.15407,2.32943 -4.41199,2.63307 -11.56057,2.79056 -5.22401,0.11509 -7.14207,0.37151 -13.90418,1.85882 -3.18837,0.70128 -8.62024,2.93144 -10.62599,4.36273 -2.242229,1.60001 -4.391809,3.79806 -5.770289,5.90037 -3.197596,3.66767 -7.859495,12.29818 -12.407366,11.32513 z m 57.730145,-31.22469 c 1.17557,-0.44696 1.41504,-1.01089 1.41504,-2.21219 0,-1.57508 -1.20217,-2.28264 -2.20818,-2.32407 -0.80204,0.0463 -1.11469,-0.0573 -2.00571,1.47765 -1.18212,2.03636 0.63695,3.88055 2.79885,3.05861 z m -23.37008,-26.22228 c 0.37255,-0.14296 0.37171,-0.3243 -0.006,-1.40521 -0.41882,-1.19697 -0.3793,-3.31763 0.11273,-6.04836 0.20612,-1.14399 -0.0895,-1.20416 -1.81684,-0.36979 -0.65083,0.31437 -1.30853,0.48325 -1.64495,0.58163 -0.85401,0.2648 -4.05539,1.40242 -4.6844,1.98843 -0.58755,0.54739 -0.5892,0.59263 -0.0837,2.29551 0.37975,1.27922 0.63814,1.55912 1.01,1.71158 0.30978,0.0948 0.16269,0.0659 1.04206,0.21068 1.46643,0.0702 5.17011,1.37282 6.07159,1.03554 z m 21.88165,20.88073 c -0.10321,-0.46679 -0.25463,-1.13625 -0.25463,-1.13625 -0.15332,-0.39101 -0.36223,-1.06236 -0.4511,-1.43347 -0.10358,-0.43255 -1.18815,-1.68842 -1.95934,-2.81072 -3.02333,-4.39977 -3.53369,-5.0164 -5.28117,-6.3807 -1.93926,-1.51404 -2.59303,-1.91356 -6.03143,-3.68582 -3.27435,-1.6877 -8.11153,-3.03642 -11.62039,-3.9423 -1.39496,-0.36014 -2.57998,-0.65029 -3.37341,-0.86393 -1.62881,-0.45413 -3.56741,-0.82759 0.32926,-0.47193 4.50132,0.75388 12.05934,2.63501 16.99772,5.30823 1.89733,1.02706 5.32563,3.64771 6.29665,4.81328 3.67006,4.40533 5.30623,6.73124 5.84052,8.30263 0.3181,0.93557 0.4562,2.0658 0.41387,2.0658 -0.0423,0 -0.0964,0.62081 -0.31991,0.12398 z m -51.155104,-8.384 c -1.078,-0.84796 -1.55165,-2.01844 -1.44746,-3.57693 0.10522,-1.57399 0.64029,-2.12651 2.67998,-2.76741 1.85468,-0.58277 3.28221,-0.21826 4.15072,1.05986 0.40242,0.59221 0.776084,1.09796 0.776084,1.31385 0.268995,0.96599 0.09823,2.1935 -0.622426,3.263 -1.175613,1.49507 -4.091078,1.8449 -5.536898,0.70763 z m 5.00577,-1.09204 c 0.158275,-0.29816 0.356296,-0.38546 0.557959,-1.40839 0.15684,-0.6589 0.122976,-0.93232 6.41e-4,-1.42628 -0.168211,-0.88829 -0.5941,-1.2815 -1.81006,-1.79158 -1.32727,-0.55676 -2.8034,-0.29556 -3.61685,0.63999 -0.477605,0.39144 -1.045249,0.82712 -0.943498,2.88376 0.668437,1.10342 0.900208,1.9787 2.068948,2.22496 1.37402,0.28951 2.59342,-0.0762 3.74292,-1.12246 z m -4.06694,0.223 c -0.42436,-0.36609 -0.750472,-0.6319 -0.887522,-1.24201 -0.22716,-1.01133 -0.304768,-1.70755 0.496632,-2.38188 1.02291,-0.86072 2.03266,-0.93858 3.2034,-0.24701 1.33347,0.78771 1.61136,1.73319 0.86454,2.94157 -1.06811,1.72825 -2.36967,2.0572 -3.67705,0.92933 z m 51.621954,-3.97715 c -1.38303,-0.57693 -2.91396,-1.15669 -3.40209,-1.28836 -2.04712,-0.55219 -13.13418,-4.50845 -14.49584,-5.17264 -1.38889,-0.67747 -1.41598,-0.71126 -0.44375,-0.55368 1.67028,0.27074 12.791,4.16549 16.52995,5.7892 3.86334,1.67773 4.43434,1.91729 5.0659,2.12535 0.29483,0.0971 0.24519,0.14668 -0.14792,0.14765 -0.32542,0.001 -1.72323,-0.47058 -3.10625,-1.04752 z m -15.62602,-7.79385 c -1.19107,-0.12493 -2.25607,-0.32503 -2.36667,-0.44465 -0.25207,-0.27266 5.35074,0.0885 6.75101,0.43523 0.9599,0.23765 0.91674,0.25563 -0.59167,0.24646 -0.89489,-0.005 -2.60159,-0.1121 -3.79267,-0.23704 z m 0.5385,-2.13868 c 0.14366,-0.15741 1.20354,-0.29988 4.88126,-0.65614 0.97625,-0.0946 2.17438,-0.0457 2.6625,0.1085 0.73965,0.23373 0.51788,0.28504 -1.33125,0.30799 -1.22031,0.0151 -3.15063,0.11172 -4.28959,0.21463 -1.13896,0.10291 -2.00427,0.11417 -1.92292,0.025 z m -3.10625,-2.01568 c 0.48813,-0.14814 2.21876,-0.33212 3.84584,-0.40886 l 2.95833,-0.13953 -2.95833,0.41794 c -1.62708,0.22987 -3.35771,0.41386 -3.84584,0.40886 l -0.8875,-0.009 0.8875,-0.26933 z m 8.06491,-0.77655 c 0.368,-0.0708 0.9005,-0.0681 1.18334,0.006 0.28285,0.074 -0.0182,0.13194 -0.66907,0.12866 -0.65084,-0.003 -0.88225,-0.0639 -0.51427,-0.13463 z m -6.73366,-1.11691 c 1.22031,-0.23344 3.32703,-0.68398 4.68158,-1.00121 1.35456,-0.31723 2.38119,-0.49513 2.2814,-0.39534 -0.32253,0.32253 -5.57851,1.50389 -7.40673,1.66477 -1.75396,0.15435 -1.7487,0.15117 0.44375,-0.26822 z m -1.83047,-1.24261 c 0.21356,-0.0855 0.46871,-0.075 0.56702,0.0234 0.0983,0.0983 -0.0764,0.16822 -0.38828,0.15537 -0.34464,-0.0142 -0.41473,-0.0843 -0.17874,-0.17873 z m 2.12631,-0.57967 c 1.93098,-0.61999 3.95344,-0.98252 3.61978,-0.64887 -0.37195,0.37196 -3.28513,1.13427 -4.21145,1.10203 -0.55115,-0.0192 -0.40041,-0.13464 0.59167,-0.45316 z m 1.09343,-2.30553 c 1.49628,-0.71512 3.02722,-1.39035 3.40208,-1.50052 0.65866,-0.19357 0.66168,-0.1865 0.0899,0.21034 -0.91392,0.63428 -5.29844,2.6032 -5.78189,2.59642 -0.23684,-0.003 0.79362,-0.59114 2.2899,-1.30624 z m -1.03335,-2.70063 c 1.09539,-0.72165 2.06368,-1.31209 2.15175,-1.31209 0.0881,0 1.25721,-0.709579 2.59809,-1.576857 1.34087,-0.867275 2.63764,-1.666013 2.8817,-1.774971 0.24406,-0.10896 1.50875,-0.870497 2.81042,-1.692306 2.17774,-1.374924 9.11311,-5.014201 9.55556,-5.014201 0.40226,0 -1.21978,0.967036 -3.70852,2.210959 -1.42608,0.712779 -4.78944,2.6328 -7.47413,4.266707 -2.68469,1.633911 -5.61344,3.394449 -6.50833,3.912329 -0.8949,0.51788 -1.89556,1.18165 -2.2237,1.47504 -0.51213,0.45791 -3.24517,2.03915 -3.52449,2.03915 -0.0528,0 -0.093,0.0636 -0.31631,-0.21168 0.8853,-0.72885 2.85474,-1.78316 3.75796,-2.32208 z"
       id="path3692"
       inkscape:connector-curvature="0"
       sodipodi:nodetypes="sssscsccccscccccscccccccsccccsccccccccccccscccssccccscccssccccccccscccccccccccccccsscccccccccsscccccscscccccccccccccsscccscccccsccccccsccccccccccccccccccccccsccccccccccccscccscccccccccccccsccccscccccccccccccscccsccccsc" />
    <path
       style="fill:#feffac;fill-opacity:1;fill-rule:evenodd;stroke:none;stroke-width:1px;stroke-linecap:butt;stroke-linejoin:miter;stroke-opacity:1;filter:url(#filter6238)"
       d="M 56.181833,109.64427 160.0546,53.411602 163.7958,185.5869 53.411603,146.50904 l 2.77023,-36.86477 z"
       id="halo"
       transform="matrix(0.20707315,0,0,0.20707316,108.18308,83.601845)" />
    <ellipse
       style="opacity:1;fill:#000000;fill-opacity:1;stroke:none;stroke-width:0.77258068;stroke-miterlimit:4;stroke-dasharray:none;stroke-opacity:1"
       id="path65"
       cx="140.67412"
       cy="138.9669"
       rx="2.6154275"
       ry="3.1608396" />
  </g>
</svg>
