<?xml version="1.0" encoding="UTF-8" standalone="no"?>
<!-- Created with Inkscape (http://www.inkscape.org/) -->

<svg
   xmlns:dc="http://purl.org/dc/elements/1.1/"
   xmlns:cc="http://creativecommons.org/ns#"
   xmlns:rdf="http://www.w3.org/1999/02/22-rdf-syntax-ns#"
   xmlns:svg="http://www.w3.org/2000/svg"
   xmlns="http://www.w3.org/2000/svg"
   xmlns:xlink="http://www.w3.org/1999/xlink"
   xmlns:sodipodi="http://sodipodi.sourceforge.net/DTD/sodipodi-0.dtd"
   xmlns:inkscape="http://www.inkscape.org/namespaces/inkscape"
   width="82.70327mm"
   height="85.338486mm"
   viewBox="0 0 82.70327 85.338486"
   version="1.1"
   id="svg8"
   inkscape:version="0.92.1 r15371"
   sodipodi:docname="openmole.svg">
  <defs
     id="defs2">
    <linearGradient
       inkscape:collect="always"
       xlink:href="#linearGradient3734"
       id="linearGradient3740"
       x1="280.31732"
       y1="590.72247"
       x2="338.40109"
       y2="574.56006"
       gradientUnits="userSpaceOnUse"
       gradientTransform="matrix(0.31555581,0,0,0.31555581,51.507286,-46.562545)" />
    <linearGradient
       inkscape:collect="always"
       id="linearGradient3734">
      <stop
         style="stop-color:#000000;stop-opacity:1;"
         offset="0"
         id="stop3736" />
      <stop
         style="stop-color:#000000;stop-opacity:0;"
         offset="1"
         id="stop3738" />
    </linearGradient>
    <inkscape:path-effect
       effect="spiro"
       id="path-effect4653"
       is_visible="true" />
    <inkscape:path-effect
       effect="spiro"
       id="path-effect4637"
       is_visible="true" />
    <linearGradient
       inkscape:collect="always"
       xlink:href="#linearGradient3726"
       id="linearGradient3732"
       x1="100.56425"
       y1="515.65198"
       x2="283.92621"
       y2="410.09103"
       gradientUnits="userSpaceOnUse"
       gradientTransform="matrix(0.31555581,0,0,0.31555581,51.507287,-46.420003)" />
    <linearGradient
       inkscape:collect="always"
       id="linearGradient3726">
      <stop
         style="stop-color:#afc42a;stop-opacity:1;"
         offset="0"
         id="stop3728" />
      <stop
         style="stop-color:#afc42a;stop-opacity:0;"
         offset="1"
         id="stop3730" />
    </linearGradient>
    <inkscape:path-effect
       effect="spiro"
       id="path-effect3700"
       is_visible="true" />
    <linearGradient
       inkscape:collect="always"
       xlink:href="#linearGradient4544"
       id="linearGradient4550"
       x1="69.612473"
       y1="778.55316"
       x2="489.6077"
       y2="530.26868"
       gradientUnits="userSpaceOnUse"
       gradientTransform="matrix(0.26458333,0,0,0.26458333,60.123577,-49.238243)" />
    <linearGradient
       inkscape:collect="always"
       id="linearGradient4544">
      <stop
         style="stop-color:#565656;stop-opacity:1;"
         offset="0"
         id="stop4546" />
      <stop
         style="stop-color:#565656;stop-opacity:0;"
         offset="1"
         id="stop4548" />
    </linearGradient>
    <inkscape:path-effect
       effect="spiro"
       id="path-effect3696"
       is_visible="true" />
    <linearGradient
       inkscape:collect="always"
       xlink:href="#linearGradient3726"
       id="linearGradient3724"
       x1="129.87415"
       y1="684.20636"
       x2="347.34958"
       y2="577.63531"
       gradientUnits="userSpaceOnUse"
       gradientTransform="matrix(0.31555581,0,0,0.31555581,51.507287,-46.420003)" />
    <inkscape:path-effect
       effect="spiro"
       id="path-effect3704"
       is_visible="true" />
    <inkscape:path-effect
       effect="spiro"
       id="path-effect3753"
       is_visible="true" />
    <filter
       inkscape:collect="always"
       style="color-interpolation-filters:sRGB"
       id="filter6238"
       x="-0.48387"
       width="1.9677401"
       y="-0.40409669"
       height="1.8081934">
      <feGaussianBlur
         inkscape:collect="always"
         stdDeviation="22.254834"
         id="feGaussianBlur6240" />
    </filter>
  </defs>
  <sodipodi:namedview
     id="base"
     pagecolor="#ffffff"
     bordercolor="#666666"
     borderopacity="1.0"
     inkscape:pageopacity="0.0"
     inkscape:pageshadow="2"
     inkscape:zoom="4.836622"
     inkscape:cx="164.55988"
     inkscape:cy="161.26958"
     inkscape:document-units="mm"
     inkscape:current-layer="layer1"
     showgrid="false"
     fit-margin-top="0"
     fit-margin-left="0"
     fit-margin-right="0"
     fit-margin-bottom="0"
     inkscape:window-width="3070"
     inkscape:window-height="1752"
     inkscape:window-x="130"
     inkscape:window-y="48"
     inkscape:window-maximized="1" />
  <metadata
     id="metadata5">
    <rdf:RDF>
      <cc:Work
         rdf:about="">
        <dc:format>image/svg+xml</dc:format>
        <dc:type
           rdf:resource="http://purl.org/dc/dcmitype/StillImage" />
        <dc:title />
      </cc:Work>
    </rdf:RDF>
  </metadata>
  <g
     inkscape:label="Calque 1"
     inkscape:groupmode="layer"
     id="layer1"
     transform="translate(-65.993604,-90.289097)">
    <path
       style="fill:url(#linearGradient3724);fill-opacity:1;fill-rule:evenodd;stroke:#000000;stroke-width:0.31555581px;stroke-linecap:butt;stroke-linejoin:miter;stroke-opacity:1;opacity:0.5"
       d="m 87.796197,172.05892 8.227,1.80318 11.833343,0.56349 10.93175,-0.90159 h 7.6635 c -1.21713,-0.57038 -2.41977,-1.1717 -3.60635,-1.80318 -1.53043,-0.81446 -3.03415,-1.6791 -4.50794,-2.59206 l -4.62064,-2.14127 9.69207,-2.47937 3.83175,-0.3381 -3.49365,-3.04286 -5.40953,-2.25397 4.28254,-1.69047 3.26826,0.11269 3.26826,1.35239 0.67619,-0.6762 -1.29604,-1.91587 -3.55,-3.7754 -4.95873,-3.6627 -9.07223,1.85952 -6.14207,2.02858 -3.60635,2.31032 -3.155563,2.87381 c -1.220949,1.46847 -2.423195,2.9525 -3.60635,4.45159 -1.261545,1.59841 -2.501384,3.21396 -3.71906,4.84604 l -4.22619,3.6627 z"
       id="path3702"
       inkscape:path-effect="#path-effect3704"
       inkscape:original-d="m 87.796197,172.05892 8.227,1.80318 11.833343,0.56349 10.93175,-0.90159 h 7.6635 l -3.60635,-1.80318 -4.50794,-2.59206 -4.62064,-2.14127 9.69207,-2.47937 3.83175,-0.3381 -3.49365,-3.04286 -5.40953,-2.25397 4.28254,-1.69047 3.26826,0.11269 3.26826,1.35239 0.67619,-0.6762 -1.29604,-1.91587 -3.55,-3.7754 -4.95873,-3.6627 -9.07223,1.85952 -6.14207,2.02858 -3.60635,2.31032 -3.155563,2.87381 -3.60635,4.45159 -3.71906,4.84604 -4.22619,3.6627 z"
       inkscape:connector-curvature="0"
       inkscape:export-filename="/tmp/openmole.png"
       inkscape:export-xdpi="51.029999"
       inkscape:export-ydpi="51.029999" />
    <path
       style="fill:url(#linearGradient4550);fill-opacity:1;fill-rule:evenodd;stroke:#000000;stroke-width:0.31555581px;stroke-linecap:butt;stroke-linejoin:miter;stroke-opacity:1;opacity:0.5"
       d="m 83.701997,171.54311 -6.69395,-3.1876 c -1.44879,-2.08016 -2.831025,-4.20667 -4.14388,-6.37518 -0.853642,-1.41001 -1.677956,-2.83777 -2.47223,-4.28205 l -1.95055,-10.26136 1.39457,-11.03705 3.66573,-6.45488 8.12837,-8.92527 10.27964,-4.52117 1.57778,-0.39444 c 0.844674,-0.11689 1.689928,-0.2296 2.53572,-0.3381 1.537006,-0.19718 3.076222,-0.38053 4.620643,-0.50714 1.61388,-0.1323 3.23242,-0.20255 4.84603,-0.3381 0.73384,-0.0617 1.46654,-0.13679 2.19762,-0.22539 1.14793,0.11158 2.29393,0.24308 3.4373,0.39444 1.5645,0.2071 3.12409,0.45138 4.67699,0.73254 l 10.08652,3.49365 5.57858,3.43731 6.70556,7.49445 2.25397,4.1135 0.56349,1.23968 -1.01429,7.3254 -2.25397,2.59207 -5.18413,2.31032 -11.1008,0.45079 -9.18493,1.85953 -7.5508,2.42302 -5.071433,3.49365 -2.70477,2.76112 c -0.977592,1.43467 -1.992332,2.84403 -3.04286,4.22619 -0.930214,1.22386 -1.888486,2.4264 -2.87381,3.60635 l -4.62064,4.45159 z"
       id="path3694"
       inkscape:path-effect="#path-effect3696"
       inkscape:original-d="m 83.701997,171.54311 -6.69395,-3.1876 -4.14388,-6.37518 -2.47223,-4.28205 -1.95055,-10.26136 1.39457,-11.03705 3.66573,-6.45488 8.12837,-8.92527 10.27964,-4.52117 1.57778,-0.39444 2.53572,-0.3381 4.620643,-0.50714 4.84603,-0.3381 2.19762,-0.22539 3.4373,0.39444 4.67699,0.73254 10.08652,3.49365 5.57858,3.43731 6.70556,7.49445 2.25397,4.1135 0.56349,1.23968 -1.01429,7.3254 -2.25397,2.59207 -5.18413,2.31032 -11.1008,0.45079 -9.18493,1.85953 -7.5508,2.42302 -5.071433,3.49365 -2.70477,2.76112 -3.04286,4.22619 -2.87381,3.60635 -4.62064,4.45159 z"
       inkscape:connector-curvature="0"
       inkscape:export-filename="/tmp/openmole.png"
       inkscape:export-xdpi="51.029999"
       inkscape:export-ydpi="51.029999" />
    <path
       style="fill:url(#linearGradient3732);fill-opacity:1;fill-rule:evenodd;stroke:#000000;stroke-width:0.31555581px;stroke-linecap:butt;stroke-linejoin:miter;stroke-opacity:1;opacity:0.5"
       d="m 80.554247,121.1791 2.11178,-11.35581 4.73573,-5.77792 6.31112,-2.59207 2.98651,-0.73254 2.19762,-0.0563 4.676993,2.25397 3.7754,3.83175 1.40873,2.36667 1.57777,4.56429 -0.33809,1.23968 -1.97222,-0.16905 c -0.56371,0.0111 -1.12728,0.0299 -1.69048,0.0563 -1.18444,0.0555 -2.367,0.14479 -3.55,0.2254 -1.61436,0.11001 -3.229813,0.20393 -4.846043,0.28175 l -4.73334,0.78889 c -0.603129,0.21982 -1.20422,0.44523 -1.80317,0.67619 -2.442135,0.94171 -4.848662,1.97577 -7.21271,3.09921 l -2.76111,1.52143 z"
       id="path3698"
       inkscape:path-effect="#path-effect3700"
       inkscape:original-d="m 80.554247,121.1791 c 0.0797,-0.19923 2.11178,-11.35581 2.11178,-11.35581 l 4.73573,-5.77792 6.31112,-2.59207 2.98651,-0.73254 2.19762,-0.0563 4.676993,2.25397 3.7754,3.83175 1.40873,2.36667 1.57777,4.56429 -0.33809,1.23968 -1.97222,-0.16905 -1.69048,0.0563 -3.55,0.2254 -4.846043,0.28175 -4.73334,0.78889 -1.80317,0.67619 -7.21271,3.09921 -2.76111,1.52143 z"
       inkscape:connector-curvature="0"
       inkscape:export-filename="/tmp/openmole.png"
       inkscape:export-xdpi="51.029999"
       inkscape:export-ydpi="51.029999" />
    <ellipse
       style="opacity:0.5;fill:#ffffff;fill-opacity:1;stroke:none;stroke-width:0.13229166;stroke-linecap:square;stroke-linejoin:miter;stroke-miterlimit:4;stroke-dasharray:none;stroke-dashoffset:0;stroke-opacity:1"
       id="path3706"
       cx="91.228966"
       cy="124.27475"
       rx="3.6018081"
       ry="3.3809552"
       inkscape:export-filename="/tmp/openmole.png"
       inkscape:export-xdpi="51.029999"
       inkscape:export-ydpi="51.029999" />
    <ellipse
       style="opacity:0.5;fill:#000000;fill-opacity:1;stroke:none;stroke-width:0.13229166;stroke-linecap:square;stroke-linejoin:miter;stroke-miterlimit:4;stroke-dasharray:none;stroke-dashoffset:0;stroke-opacity:1"
       id="nose"
       cx="141.41753"
       cy="138.52943"
       rx="4"
       ry="2.8456371"
       inkscape:export-filename="/tmp/openmole.png"
       inkscape:export-xdpi="51.029999"
       inkscape:export-ydpi="51.029999" />
    <path
       style="fill:#b7cb3d;fill-opacity:1;fill-rule:evenodd;stroke:#000000;stroke-width:0.31555581px;stroke-linecap:butt;stroke-linejoin:miter;stroke-opacity:1;opacity:0.5"
       d="m 108.87082,108.15886 9.69208,-2.70476 v 2.47937 l -0.2254,2.36666 c 0.0731,0.75152 0.14826,1.50285 0.2254,2.25397 0.0733,0.71395 0.14845,1.42771 0.22539,2.14128 l -1.35238,0.33809 c -1.15782,-0.29168 -2.32284,-0.55475 -3.49365,-0.78889 -1.30826,-0.26163 -2.62375,-0.48714 -3.94445,-0.67619 z"
       id="path4635"
       inkscape:path-effect="#path-effect4637"
       inkscape:original-d="m 108.87082,108.15886 9.69208,-2.70476 v 2.47937 l -0.2254,2.36666 0.2254,2.25397 0.22539,2.14128 -1.35238,0.33809 -3.49365,-0.78889 -3.94445,-0.67619 z"
       inkscape:connector-curvature="0"
       inkscape:export-filename="/tmp/openmole.png"
       inkscape:export-xdpi="51.029999"
       inkscape:export-ydpi="51.029999" />
    <path
       style="fill:#fff6d5;fill-rule:evenodd;stroke:none;stroke-width:0.26458332px;stroke-linecap:butt;stroke-linejoin:miter;stroke-opacity:1;opacity:0.5"
       d="m 119.23909,105.39775 -0.67619,1.74683 c -0.0705,0.99463 -0.12689,1.99026 -0.16905,2.9865 -0.023,0.54455 -0.0418,1.08928 -0.0564,1.63413 l 0.39445,2.59207 0.16905,0.61984 0.67619,0.16905 0.45079,-0.45079 0.16905,-1.23969 0.39444,-5.69127 -0.50714,-1.80318 z"
       id="path4651"
       inkscape:path-effect="#path-effect4653"
       inkscape:original-d="m 119.23909,105.39775 -0.67619,1.74683 -0.16905,2.9865 -0.0564,1.63413 0.39445,2.59207 0.16905,0.61984 0.67619,0.16905 0.45079,-0.45079 0.16905,-1.23969 0.39444,-5.69127 -0.50714,-1.80318 z"
       inkscape:connector-curvature="0"
       inkscape:export-filename="/tmp/openmole.png"
       inkscape:export-xdpi="51.029999"
       inkscape:export-ydpi="51.029999" />
    <path
       style="fill:url(#linearGradient3740);fill-opacity:1;stroke-width:0.26458332;opacity:0.5"
       d="m 97.030431,175.34827 c -4.602275,-0.48814 -9.466675,-2.09067 -9.466675,-3.11869 0,-1.06872 1.85133,-1.22326 5.02917,-0.41981 4.893815,1.2373 17.986944,1.67881 23.001194,0.77561 1.50512,-0.27111 3.76084,-0.49293 5.01268,-0.49293 l 2.2761,0 -1.01893,-0.76251 c -1.88069,-1.40741 -5.61733,-3.03012 -8.67945,-3.76923 -0.79641,-0.19223 -1.45367,-0.48264 -1.4606,-0.64535 -0.007,-0.16271 0.84437,-0.50068 1.89176,-0.75106 1.04739,-0.25038 3.2356,-0.87584 4.86269,-1.38992 1.62708,-0.51408 3.94093,-1.04142 5.14188,-1.17186 l 2.18355,-0.23716 -1.44144,-1.03542 c -2.06693,-1.48472 -3.55127,-2.08245 -5.66039,-2.2794 -1.57224,-0.14682 -1.85069,-0.25883 -1.85069,-0.74447 0,-2.27839 5.67285,-3.90125 9.63004,-2.75492 0.96776,0.28034 1.92596,0.64656 2.12934,0.81381 0.20339,0.16725 0.36978,0.18795 0.36977,0.046 -7e-5,-0.5858 -4.24492,-5.1857 -5.7497,-6.23063 -2.20962,-1.53437 -2.08269,-1.86315 0.16707,-0.43274 2.52932,1.60814 5.0017,4.14481 7.07241,7.2563 1.93434,2.90656 2.23468,3.76033 1.04967,2.98388 -0.39311,-0.25757 -0.78599,-0.654 -0.87309,-0.88095 -0.0871,-0.22695 -0.7306,-0.7058 -1.43004,-1.06411 -1.53743,-0.78758 -6.32742,-1.1344 -7.78005,-0.56331 l -0.8875,0.34893 1.12337,0.38951 c 1.3854,0.48036 2.72255,1.35759 5.32322,3.49223 1.105,0.90699 2.38943,1.73261 2.85429,1.83471 0.46864,0.10292 0.90894,0.42933 0.98824,0.7326 0.20085,0.76804 -1.05899,0.96072 -2.25425,0.34476 -1.41643,-0.72994 -6.30762,-0.63286 -8.62654,0.17121 -0.97625,0.33851 -2.40734,0.78003 -3.18021,0.98115 -0.77287,0.20113 -1.40376,0.44823 -1.402,0.54911 0.002,0.10088 1.03348,0.56665 2.29271,1.03503 1.25923,0.46839 3.42107,1.58598 4.80409,2.48353 2.34903,1.52448 5.34779,2.63729 6.00774,2.22942 0.13999,-0.0865 0.21004,0.157 0.15569,0.54116 -0.11015,0.77832 -0.43856,0.80653 -4.56739,0.39225 -1.91719,-0.19237 -5.54228,0.0307 -16.97939,1.04496 -5.29426,0.46948 -7.756079,0.5425 -10.058339,0.29831 z M 83.569996,171.7771 c -4.31515,-1.12496 -6.19081,-2.18541 -8.39025,-4.74365 -1.03505,-1.20391 -2.17322,-2.52173 -2.52926,-2.92851 -2.40434,-2.74695 -4.67285,-7.54048 -5.93775,-12.54693 -0.72235,-2.85905 -0.79844,-3.60325 -0.66538,-6.50834 0.23856,-5.20843 1.30764,-8.52303 4.34989,-13.48642 2.71565,-4.43056 4.47937,-6.46387 8.00039,-9.22326 l 1.63181,-1.27883 -0.34195,-1.33125 c -0.53923,-2.09932 -0.11882,-5.70667 0.99985,-8.57918 1.33629,-3.43132 3.42423,-6.17227 5.98891,-7.86194 1.22879,-0.80957 7.1,-2.84587 7.1,-2.46247 0,0.14634 0.19551,0.26608 0.43447,0.26608 0.25227,0 0.36736,-0.17488 0.27443,-0.41703 -0.16337,-0.42574 0.11211,-0.55989 1.880765,-0.915887 1.28261,-0.258172 4.264219,0.745817 6.489599,2.185257 1.52475,0.98624 5.41659,4.82926 5.41659,5.34864 0,0.51898 3.75742,-0.35052 6.89753,-1.59615 1.92249,-0.76262 3.71968,-1.34521 3.99375,-1.29466 0.65246,0.12034 1.57605,2.0413 1.75813,3.65671 0.21231,1.88365 -0.20513,5.62085 -0.69771,6.2464 -0.38978,0.49499 -0.41298,0.45148 -0.26249,-0.49245 0.27383,-1.71763 0.30765,-5.99103 0.0568,-7.17396 -0.5834,-2.75078 -1.51284,0.0758 -1.29625,3.94213 0.0859,1.53345 0.24778,3.22074 0.35973,3.74954 0.18445,0.87131 0.13797,0.96124 -0.49567,0.95912 -0.38456,-10e-4 -2.2925,-0.33385 -4.23986,-0.73902 -1.94736,-0.40516 -3.81111,-0.65382 -4.14167,-0.55257 -0.33056,0.10126 -0.51272,0.0904 -0.4048,-0.0242 0.28662,-0.30429 -1.0625,-4.08298 -2.11383,-5.92051 -0.84999,-1.48564 -2.96325,-3.8919 -4.29501,-4.89051 -2.78223,-2.08627 -6.268929,-3.11255 -6.958749,-2.04824 -0.0851,0.13127 -0.9514,0.36699 -1.925155,0.52381 -6.36647,1.02528 -11.36571,6.13879 -12.97176,13.26825 -0.44815,1.98942 -0.66727,6.00619 -0.32763,6.00619 0.0836,0 1.38157,-0.63996 2.88437,-1.42213 3.38715,-1.76292 7.2493,-3.26352 8.88779,-3.45326 1.21984,-0.14126 1.22324,-0.13915 0.205,0.12721 -2.29483,0.60029 -6.21595,2.20714 -8.81446,3.61209 -2.16388,1.16997 -3.23556,1.99886 -5.02917,3.88982 -1.25361,1.32167 -2.65137,2.76612 -3.10612,3.2099 -1.43807,1.4034 -5.47379,8.94781 -6.30486,11.78638 -0.67497,2.30538 -1.2972,6.34688 -1.29807,8.43126 -9.5e-4,2.29716 1.1652,7.07793 2.63612,10.80701 1.09723,2.78167 4.07597,7.97103 5.05205,8.80134 1.32344,1.12579 4.79359,3.28853 6.1881,3.85668 l 1.60068,0.65214 1.35765,-0.65203 c 1.85208,-0.88948 5.32098,-4.45866 8.14228,-8.37763 4.340265,-6.02892 7.943614,-9.03747 13.289834,-11.09612 4.99539,-1.92356 14.82786,-3.87224 19.4955,-3.86379 5.69848,0.0103 8.89366,-0.76777 11.67891,-2.84404 1.76772,-1.31776 1.94163,-1.73522 0.8918,-2.14075 -0.88711,-0.34268 -1.92941,-1.50891 -2.00449,-2.24282 -0.18039,-1.76352 0.0382,-2.3339 1.42687,-3.72254 1.35876,-1.35875 1.46689,-1.40852 2.53622,-1.16735 1.27417,0.28738 2.12256,0.96132 2.75868,2.19143 0.88163,1.7049 -0.66369,4.61612 -2.74588,5.17299 -0.62253,0.16649 -0.926,0.48828 -1.12942,1.19755 -0.1865,0.65028 -0.7732,1.3355 -1.78038,2.07935 -3.15407,2.32943 -4.41199,2.63307 -11.56057,2.79056 -5.22401,0.11509 -7.14207,0.37151 -13.90418,1.85882 -3.18837,0.70128 -8.62024,2.93144 -10.62599,4.36273 -2.242229,1.60001 -4.391809,3.79806 -5.770289,5.90037 -5.851675,8.92441 -9.308175,11.97566 -12.595415,11.11868 z m 57.918224,-31.01823 c 1.17557,-0.44696 1.69225,-1.17138 1.69225,-2.37268 0,-1.57508 -0.95414,-2.74951 -2.01851,-2.48456 -0.94794,0.23597 -1.35314,0.71973 -2.01073,2.40054 -0.85788,2.19276 0.17509,3.27864 2.33699,2.4567 z m -23.37008,-26.22228 c 0.37255,-0.14296 0.37171,-0.3243 -0.006,-1.40521 -0.41882,-1.19697 -0.3793,-3.31763 0.11273,-6.04836 0.20612,-1.14399 -0.0895,-1.20416 -1.81684,-0.36979 -0.65083,0.31437 -1.39106,0.5761 -1.64495,0.58163 -0.79211,0.0172 -4.05539,1.40242 -4.6844,1.98843 -0.58755,0.54739 -0.5892,0.59263 -0.0837,2.29551 0.37975,1.27922 0.66909,1.76029 1.09769,1.82506 0.3201,0.0484 1.3142,0.16434 2.20909,0.25773 2.43267,0.25386 3.53815,0.48479 3.71865,0.77685 0.18702,0.30261 0.49393,0.33004 1.09822,0.0982 z m 22.15556,19.59613 c -0.35378,-0.37658 -0.64323,-0.82621 -0.64323,-0.99919 0,-0.17298 -0.20106,-0.48136 -0.44679,-0.68531 -0.24574,-0.20394 -1.07777,-1.28904 -1.84896,-2.41134 -3.02333,-4.39977 -3.53369,-5.0164 -5.28117,-6.3807 -1.93926,-1.51404 -2.59303,-1.91356 -6.03143,-3.68582 -4.57608,-2.35865 -6.63571,-3.14278 -9.61459,-3.66036 -0.48813,-0.0848 -1.61969,-0.30849 -2.51459,-0.49707 -2.72045,-0.57325 -0.58295,-0.62162 2.75631,-0.0624 4.50132,0.75388 6.76767,1.57668 11.70605,4.2499 1.89733,1.02706 5.32563,3.64771 6.29665,4.81328 3.67006,4.40533 5.30623,6.73124 5.84052,8.30263 0.3181,0.93557 0.54374,1.70105 0.50141,1.70105 -0.0423,0 -0.3664,-0.30812 -0.72018,-0.6847 z m -51.429014,-7.0994 c -1.078,-0.84796 -1.55165,-2.01844 -1.44746,-3.57693 0.10522,-1.57399 0.64029,-2.12651 2.67998,-2.76741 1.85468,-0.58277 3.28221,-0.21826 4.15072,1.05986 0.40242,0.59221 0.731675,1.25339 0.731675,1.46928 0,0.22169 0.14885,0.30054 0.342,0.18117 0.55392,-0.34234 0.0801,1.83065 -0.610665,2.80079 -1.06459,1.49507 -4.40043,1.97051 -5.84625,0.83324 z m 5.00577,-1.09204 c 0.71928,-0.6547 0.78193,-0.85176 0.5395,-1.69705 -0.17623,-0.61449 -0.16943,-1.02114 0.0191,-1.13762 0.431315,-0.26656 -0.5941,-1.2815 -1.81006,-1.79158 -1.32727,-0.55676 -2.8034,-0.29556 -3.61685,0.63999 -0.34099,0.39217 -0.71606,0.65366 -0.83348,0.58109 -0.34708,-0.21451 -0.57809,1.91222 -0.28391,2.61354 0.4908,1.17003 1.0741,1.66783 2.24284,1.91409 1.37402,0.28951 2.59342,-0.0762 3.74292,-1.12246 z m -4.06694,0.223 c -0.42436,-0.36609 -0.8837,-1.16481 -1.02075,-1.77492 -0.22716,-1.01133 -0.17154,-1.17464 0.62986,-1.84897 1.02291,-0.86072 2.03266,-0.93858 3.2034,-0.24701 1.33347,0.78771 1.61136,1.73319 0.86454,2.94157 -1.06811,1.72825 -2.36967,2.0572 -3.67705,0.92933 z m 57.171824,-1.98412 c -1.48921,-0.53083 -2.3602,-1.12311 -1.11237,-0.75642 0.96936,0.28486 3.19147,1.28969 2.81042,1.27086 -0.16271,-0.008 -0.92683,-0.23954 -1.69805,-0.51444 z m -5.54987,-1.99303 c -1.38303,-0.57693 -2.91396,-1.15669 -3.40209,-1.28836 -2.04712,-0.55219 -13.13418,-4.50845 -14.49584,-5.17264 -1.38889,-0.67747 -1.41598,-0.71126 -0.44375,-0.55368 1.67028,0.27074 12.791,4.16549 16.52995,5.7892 3.86334,1.67773 4.43434,1.91729 5.0659,2.12535 0.29483,0.0971 0.24519,0.14668 -0.14792,0.14765 -0.32542,0.001 -1.72323,-0.47058 -3.10625,-1.04752 z m -46.002119,-6.61587 c 0.65083,-0.13462 1.64927,-0.23712 2.21875,-0.22779 l 1.03542,0.017 -1.18334,0.24476 c -0.65083,0.13463 -1.64927,0.23713 -2.21875,0.2278 l -1.035425,-0.017 1.183345,-0.24476 z m 4.36354,-0.48278 c 0.284749,-0.0744 0.750689,-0.0744 1.035429,0 0.28474,0.0744 0.0518,0.13529 -0.51771,0.13529 -0.569489,0 -0.802459,-0.0609 -0.517719,-0.13529 z m 9.289839,-0.10632 c -0.78877,-0.13236 -1.51369,-0.32022 -1.61094,-0.41747 -0.29153,-0.29153 4.20494,0.16458 4.50944,0.45743 0.33412,0.32132 -0.84214,0.3051 -2.8985,-0.04 z m -6.10963,-0.29382 c 2.37967,-0.32896 3.84584,-0.32423 3.84584,0.0124 0,0.1789 -1.08161,0.27937 -2.73646,0.25418 -2.56178,-0.039 -2.6326,-0.056 -1.10938,-0.26658 z m 22.83235,-0.2951 c -1.19107,-0.12493 -2.25607,-0.32503 -2.36667,-0.44465 -0.25207,-0.27266 5.35074,0.0885 6.75101,0.43523 0.9599,0.23765 0.91674,0.25563 -0.59167,0.24646 -0.89489,-0.005 -2.60159,-0.1121 -3.79267,-0.23704 z m 0.5385,-2.13868 c 0.14366,-0.15741 1.20354,-0.29988 4.88126,-0.65614 0.97625,-0.0946 2.17438,-0.0457 2.6625,0.1085 0.73965,0.23373 0.51788,0.28504 -1.33125,0.30799 -1.22031,0.0151 -3.15063,0.11172 -4.28959,0.21463 -1.13896,0.10291 -2.00427,0.11417 -1.92292,0.025 z m -3.10625,-2.01568 c 0.48813,-0.14814 2.21876,-0.33212 3.84584,-0.40886 l 2.95833,-0.13953 -2.95833,0.41794 c -1.62708,0.22987 -3.35771,0.41386 -3.84584,0.40886 l -0.8875,-0.009 0.8875,-0.26933 z m 8.06491,-0.77655 c 0.368,-0.0708 0.9005,-0.0681 1.18334,0.006 0.28285,0.074 -0.0182,0.13194 -0.66907,0.12866 -0.65084,-0.003 -0.88225,-0.0639 -0.51427,-0.13463 z m -6.73366,-1.11691 c 1.22031,-0.23344 3.32703,-0.68398 4.68158,-1.00121 1.35456,-0.31723 2.38119,-0.49513 2.2814,-0.39534 -0.32253,0.32253 -5.57851,1.50389 -7.40673,1.66477 -1.75396,0.15435 -1.7487,0.15117 0.44375,-0.26822 z m -1.83047,-1.24261 c 0.21356,-0.0855 0.46871,-0.075 0.56702,0.0234 0.0983,0.0983 -0.0764,0.16822 -0.38828,0.15537 -0.34464,-0.0142 -0.41473,-0.0843 -0.17874,-0.17873 z m 2.12631,-0.57967 c 1.93098,-0.61999 3.95344,-0.98252 3.61978,-0.64887 -0.37195,0.37196 -3.28513,1.13427 -4.21145,1.10203 -0.55115,-0.0192 -0.40041,-0.13464 0.59167,-0.45316 z m 1.09343,-2.30553 c 1.49628,-0.71512 3.02722,-1.39035 3.40208,-1.50052 0.65866,-0.19357 0.66168,-0.1865 0.0899,0.21034 -0.91392,0.63428 -5.29844,2.6032 -5.78189,2.59642 -0.23684,-0.003 0.79362,-0.59114 2.2899,-1.30624 z m -4.97701,-0.66741 c -0.2233,-0.2753 -0.25077,-0.40747 -0.0611,-0.29372 0.49494,0.29673 1.72484,-0.23748 4.00476,-1.7395 1.09539,-0.72165 2.06368,-1.31209 2.15175,-1.31209 0.0881,0 1.25721,-0.709579 2.59809,-1.576857 1.34087,-0.867275 2.63764,-1.666013 2.8817,-1.774971 0.24406,-0.10896 1.50875,-0.870497 2.81042,-1.692306 2.17774,-1.374924 9.11311,-5.014201 9.55556,-5.014201 0.40226,0 -1.21978,0.967036 -3.70852,2.210959 -1.42608,0.712779 -4.78944,2.6328 -7.47413,4.266707 -2.68469,1.633911 -5.61344,3.394449 -6.50833,3.912329 -0.8949,0.51788 -1.89556,1.18165 -2.2237,1.47504 -0.51213,0.45791 -3.24517,2.03915 -3.52449,2.03915 -0.0528,0 -0.27875,-0.22525 -0.50206,-0.50054 z"
       id="path3692"
       inkscape:connector-curvature="0"
       inkscape:export-filename="/tmp/openmole.png"
       inkscape:export-xdpi="51.029999"
       inkscape:export-ydpi="51.029999" />
    <path
       style="fill:#feffac;fill-opacity:1;fill-rule:evenodd;stroke:none;stroke-width:1px;stroke-linecap:butt;stroke-linejoin:miter;stroke-opacity:1;filter:url(#filter6238);opacity:0.5"
       d="M 56.181833,109.64427 160.0546,53.411602 163.7958,185.5869 53.411603,146.50904 Z"
       id="halo"
       inkscape:path-effect="#path-effect3753"
       inkscape:original-d="M 56.181833,109.64427 160.0546,53.411602 163.7958,185.5869 53.411603,146.50904 Z"
       inkscape:connector-curvature="0"
       inkscape:export-filename="/tmp/openmole.png"
       inkscape:export-xdpi="51.029999"
       inkscape:export-ydpi="51.029999"
       sodipodi:nodetypes="ccccc"
       transform="matrix(0.20707315,0,0,0.20707316,108.18308,83.601845)" />
  </g>
</svg>
