<?xml version="1.0" encoding="UTF-8" standalone="no"?>
<svg
   xmlns:dc="http://purl.org/dc/elements/1.1/"
   xmlns:cc="http://creativecommons.org/ns#"
   xmlns:rdf="http://www.w3.org/1999/02/22-rdf-syntax-ns#"
   xmlns:svg="http://www.w3.org/2000/svg"
   xmlns="http://www.w3.org/2000/svg"
   xmlns:sodipodi="http://sodipodi.sourceforge.net/DTD/sodipodi-0.dtd"
   xmlns:inkscape="http://www.inkscape.org/namespaces/inkscape"
   viewBox="0 0 32.218727 20.273695"
   version="1.1"
   x="0px"
   y="0px"
   id="svg2"
   inkscape:version="0.91 r13725"
   sodipodi:docname="development.svg"
   width="32.218727"
   height="20.273695">
  <metadata
     id="metadata16">
    <rdf:RDF>
      <cc:Work
         rdf:about="">
        <dc:format>image/svg+xml</dc:format>
        <dc:type
           rdf:resource="http://purl.org/dc/dcmitype/StillImage" />
        <dc:title></dc:title>
      </cc:Work>
    </rdf:RDF>
  </metadata>
  <defs
     id="defs14" />
  <sodipodi:namedview
     pagecolor="#ffffff"
     bordercolor="#666666"
     borderopacity="1"
     objecttolerance="10"
     gridtolerance="10"
     guidetolerance="10"
     inkscape:pageopacity="0"
     inkscape:pageshadow="2"
     inkscape:window-width="1855"
     inkscape:window-height="1056"
     id="namedview12"
     showgrid="false"
     fit-margin-top="2"
     fit-margin-left="2"
     fit-margin-right="2"
     fit-margin-bottom="2"
     inkscape:zoom="5.9"
     inkscape:cx="25.031354"
     inkscape:cy="12.308976"
     inkscape:window-x="65"
     inkscape:window-y="24"
     inkscape:window-maximized="1"
     inkscape:current-layer="svg2" />
  <path
     inkscape:connector-curvature="0"
     id="path6"
     d="m 11.667014,2.0022251 c -1.137914,0.052 -2.198469,0.943609 -2.2988285,2.162109 -0.076374,0.4138 -0.00713,0.797647 0.1269532,1.123047 l -3.7265626,0 c -0.2761309,2.8e-5 -0.4999724,0.223869 -0.5,0.5 l 0,3.767578 c -1.1192098,-0.428 -2.5086414,0.01001 -3.0234374,1.1914059 -0.7202485,1.410901 0.2258225,3.21841 1.8046874,3.41211 0.4191805,0.066 0.8325143,-0.01005 1.21875,-0.15625 l 0,3.769531 c 2.76e-5,0.276131 0.2238691,0.499972 0.5,0.5 l 4.6503909,0 c 0.457211,-0.0011 0.673243,-0.564588 0.333984,-0.871094 -0.649164,-0.5863 -0.452367,-1.868628 0.341797,-2.236328 0.01198,-0.006 0.02371,-0.01255 0.03516,-0.01953 0.730105,-0.4111 1.829274,0.109741 1.982422,0.931641 0.0011,0.0072 0.0024,0.01435 0.0039,0.02148 0.104962,0.4525 -0.05117,0.987141 -0.384766,1.306641 -0.3257,0.311682 -0.105103,0.861305 0.345703,0.861328 l 4.597656,0 c 0.02772,0.005 0.05582,0.0076 0.08398,0.0078 l 4.65039,0 c 0.458168,6.53e-4 0.675906,-0.563945 0.335938,-0.871094 -0.649164,-0.586199 -0.45432,-1.870581 0.339844,-2.238281 0.01198,-0.006 0.02371,-0.01255 0.03516,-0.01953 0.730104,-0.4111 1.829274,0.109741 1.982422,0.931641 0.0018,0.0072 0.0038,0.01437 0.0059,0.02148 0.104963,0.4525 -0.05117,0.987141 -0.384766,1.306641 -0.3257,0.311682 -0.105103,0.861305 0.345703,0.861328 l 4.56836,0 c 0.09593,0.01321 0.193638,-0.0017 0.28125,-0.04297 l 0.01367,-0.0098 c 0.209093,-0.0998 0.322251,-0.330153 0.273437,-0.55664 l 0,-4.550781 c -2.2e-5,-0.450806 -0.549646,-0.671404 -0.861328,-0.345704 -0.299794,0.3125 -0.782514,0.47485 -1.208984,0.40625 -0.0065,-1.27e-4 -0.01302,-1.27e-4 -0.01953,0 -0.855692,-0.1 -1.440962,-1.221921 -1.041016,-1.982422 0.0063,-0.01149 0.01218,-0.02321 0.01758,-0.03516 0.351303,-0.8228 1.648272,-1.02274 2.242188,-0.36914 0.307149,0.339966 0.871745,0.122229 0.871093,-0.335938 l 0,-4.4257809 -0.128906,0.107422 c 0.306766,-0.317337 0.08196,-0.8475 -0.359413,-0.8476 l -3.757812,0 c 0.428032,-1.118999 -0.0065,-2.507843 -1.185547,-3.027343 -0.358377,-0.1838 -0.741211,-0.265147 -1.117188,-0.248047 -1.136503,0.051 -2.194241,0.942103 -2.296875,2.158203 -0.0777,0.4154 -0.0095,0.800453 0.125,1.126953 l -3.675781,0 c -0.02778,-0.0043 -0.05587,-0.0063 -0.08398,-0.0059 l -3.757812,0 c 0.42803,-1.119 -0.0045,-2.507844 -1.183594,-3.027344 -0.358881,-0.1844 -0.740594,-0.265147 -1.117187,-0.248047 l 0,-0.0039 z m 0.04492,1.019531 c 0.217856,-0.01725 0.433935,0.01762 0.626953,0.119141 0.01145,0.007 0.02318,0.01349 0.03516,0.01953 0.823015,0.3544 1.020954,1.656453 0.367188,2.251953 -0.336354,0.307447 -0.119756,0.867833 0.335937,0.869141 l 4.181641,0 0,3.273437 c -1.117265,-0.4263 -2.503091,0.01 -3.019532,1.1874999 -0.724075,1.4114 0.222373,3.222116 1.802735,3.416016 0.418269,0.065 0.831234,3e-6 1.216797,-0.154297 l 0,3.261719 -3.314454,0 c 0.173046,-0.4405 0.253287,-0.90946 0.146485,-1.38086 -0.290862,-1.5197 -2.073049,-2.363587 -3.431641,-1.617187 -1.1380866,0.538801 -1.5595442,1.901054 -1.1386737,3.001954 l -3.2519532,0 0,-4.160156 c -2.28e-5,-0.450806 -0.5496464,-0.671403 -0.8613281,-0.345703 -0.2997939,0.3125 -0.7825142,0.47485 -1.2089843,0.40625 -0.00716,-1.54e-4 -0.014324,-1.54e-4 -0.021484,0 -0.8556901,-0.1 -1.4390077,-1.221922 -1.0390625,-1.982422 0.00566,-0.01151 0.01087,-0.02324 0.015625,-0.03516 0.3513037,-0.822799 1.6502259,-1.02274 2.2441406,-0.36914 0.3071489,0.339968 0.8717465,0.12223 0.8710937,-0.335938 l 0,-4.1582029 4.1035155,0 c 0.413783,3.32e-4 0.648903,-0.473366 0.398437,-0.802734 -0.198089,-0.2598 -0.481778,-0.882044 -0.425781,-1.152344 0.0042,-0.02258 0.0068,-0.04542 0.0078,-0.06836 0.04371,-0.664125 0.705806,-1.192382 1.359375,-1.244141 z m 11.992187,0.002 c 0.217856,-0.01725 0.433935,0.01762 0.626953,0.119141 l 0,-0.0039 c 0.01149,0.0063 0.02321,0.01218 0.03516,0.01758 0.823015,0.3544 1.019001,1.656453 0.365234,2.251953 -0.337054,0.308092 -0.118757,0.86961 0.33789,0.86914 l 4.136719,0 0,3.277344 c -1.117679,-0.4266 -2.505411,0.01 -3.021484,1.1874999 -0.723683,1.4114 0.222536,3.222116 1.802734,3.416016 0.419124,0.066 0.832557,-0.01005 1.21875,-0.15625 l 0,3.265625 -3.269531,0 c 0.173045,-0.4405 0.253286,-0.909459 0.146484,-1.380859 -0.290862,-1.519756 -2.073049,-2.363643 -3.431641,-1.617243 -1.138568,0.539 -1.560427,1.902806 -1.138672,3.003906 l -3.253906,0 0,-4.162109 c -0.0018,-0.448457 -0.547498,-0.667961 -0.859375,-0.345703 -0.299794,0.3125 -0.782514,0.47485 -1.208985,0.40625 -0.0072,-1.54e-4 -0.01432,-1.54e-4 -0.02148,0 -0.85569,-0.1 -1.440961,-1.221922 -1.041016,-1.982422 0.0063,-0.01149 0.01218,-0.02321 0.01758,-0.03516 0.351304,-0.8228 1.650226,-1.022741 2.244141,-0.369141 0.307447,0.336354 0.867833,0.119756 0.869141,-0.335937 l 0,-4.1582039 4.105468,0 c 0.412882,-0.0013 0.646409,-0.474083 0.396485,-0.802734 -0.198089,-0.2598 -0.481778,-0.882044 -0.425781,-1.152344 0.0048,-0.02253 0.0081,-0.04537 0.0098,-0.06836 0.04371,-0.664125 0.705807,-1.192381 1.359375,-1.244141 z"
     style="color:#000000;font-style:normal;font-variant:normal;font-weight:normal;font-stretch:normal;font-size:medium;line-height:normal;font-family:sans-serif;text-indent:0;text-align:start;text-decoration:none;text-decoration-line:none;text-decoration-style:solid;text-decoration-color:#000000;letter-spacing:normal;word-spacing:normal;text-transform:none;direction:ltr;block-progression:tb;writing-mode:lr-tb;baseline-shift:baseline;text-anchor:start;white-space:normal;clip-rule:nonzero;display:inline;overflow:visible;visibility:visible;opacity:1;isolation:auto;mix-blend-mode:normal;color-interpolation:sRGB;color-interpolation-filters:linearRGB;solid-color:#000000;solid-opacity:1;fill:#ffffff;fill-opacity:1;fill-rule:nonzero;stroke:none;stroke-width:0.99999994;stroke-linecap:round;stroke-linejoin:round;stroke-miterlimit:4;stroke-dasharray:none;stroke-dashoffset:0;stroke-opacity:1;color-rendering:auto;image-rendering:auto;shape-rendering:auto;text-rendering:auto;enable-background:accumulate"
     sodipodi:nodetypes="ccccccccccccccccccccccccccccccccccccccccccccccccccccccccccccccccccccccccccccccccccccccccccccccccccccccccccccccccccccccc" />
</svg>
