<?xml version="1.0" encoding="UTF-8" standalone="no"?>
<svg
   xmlns:dc="http://purl.org/dc/elements/1.1/"
   xmlns:cc="http://creativecommons.org/ns#"
   xmlns:rdf="http://www.w3.org/1999/02/22-rdf-syntax-ns#"
   xmlns:svg="http://www.w3.org/2000/svg"
   xmlns="http://www.w3.org/2000/svg"
   xmlns:sodipodi="http://sodipodi.sourceforge.net/DTD/sodipodi-0.dtd"
   xmlns:inkscape="http://www.inkscape.org/namespaces/inkscape"
   width="258.79999"
   height="258.79999"
   viewBox="0 0 258.79999 258.79999"
   version="1.1"
   id="svg28"
   sodipodi:docname="icon.svg"
   inkscape:export-filename="/home/helene/Documents/OpenMOLE/logo/png/icon.png"
   inkscape:export-xdpi="300"
   inkscape:export-ydpi="300"
   inkscape:version="0.92.5 (2060ec1f9f, 2020-04-08)">
  <metadata
     id="metadata34">
    <rdf:RDF>
      <cc:Work
         rdf:about="">
        <dc:format>image/svg+xml</dc:format>
        <dc:type
           rdf:resource="http://purl.org/dc/dcmitype/StillImage" />
      </cc:Work>
    </rdf:RDF>
  </metadata>
  <defs
     id="defs32" />
  <sodipodi:namedview
     pagecolor="#ffffff"
     bordercolor="#666666"
     borderopacity="1"
     objecttolerance="10"
     gridtolerance="10"
     guidetolerance="10"
     inkscape:pageopacity="0"
     inkscape:pageshadow="2"
     inkscape:window-width="640"
     inkscape:window-height="480"
     id="namedview30"
     showgrid="false"
     inkscape:zoom="1.5629139"
     inkscape:cx="-67.93956"
     inkscape:cy="67.550265"
     inkscape:current-layer="svg28" />
  <path
     d="M 129.4,0 C 25.9,0 0,25.9 0,129.4 0,232.9 25.9,258.8 129.4,258.8 232.9,258.8 258.8,233 258.8,129.4 258.8,25.8 233,0 129.4,0 Z"
     id="path2"
     inkscape:connector-curvature="0"
     style="fill:#3f3d56" />
  <g
     id="g1819"
     transform="matrix(0.99954769,0,0,0.99954769,18.9,38.001366)">
    <ellipse
       id="ellipse2"
       ry="18.17"
       rx="110.55"
       cy="164.66"
       cx="110.55"
       style="fill:#12122d" />
    <path
       id="path4"
       d="M 42.26,71.91 V 179 c 18.8,2.43 42.51,3.88 68.29,3.88 25.78,0 49.45,-1.5 68.29,-3.88 V 72 Z"
       inkscape:connector-curvature="0"
       style="fill:#b3b3c6" />
    <g
       id="g12"
       stroke-miterlimit="10"
       style="stroke:#3f3d56;stroke-width:6.80000019;stroke-miterlimit:10">
      <circle
         id="circle6"
         r="14.39"
         cy="102.07"
         cx="86.129997"
         style="fill:#3f3d56;fill-opacity:0.6" />
      <circle
         id="circle8-1"
         r="14.39"
         cy="102.07"
         cx="134.96001"
         style="fill:#3f3d56;fill-opacity:0.6" />
      <path
         id="path10"
         d="m 99.84,102.07 h 21.41"
         inkscape:connector-curvature="0"
         style="fill:none" />
    </g>
    <path
       id="path14"
       d="m 96.81,150.54 a 17.65,17.65 0 0 0 1.55,1.81 17.23,17.23 0 0 0 24.37,0 16.48,16.48 0 0 0 1.55,-1.81 c -3.08,2.83 -8.08,4.68 -13.73,4.68 -5.65,0 -10.66,-1.85 -13.74,-4.68 z"
       inkscape:connector-curvature="0"
       style="fill:#3f3d56" />
    <path
       id="path16-7"
       d="m 122.73,128 -6.07,-6.07 a 8.64,8.64 0 0 0 -12.23,0 L 98.36,128 a 17.22,17.22 0 0 0 -4.73,15.5 17,17 0 0 0 3.18,7.07 c 3.08,2.83 8.08,4.68 13.74,4.68 5.66,0 10.65,-1.85 13.73,-4.68 A 17.18,17.18 0 0 0 122.73,128 Z"
       inkscape:connector-curvature="0"
       style="fill:#ffffff" />
    <rect
       id="rect18"
       transform="rotate(45,110.54084,143.95752)"
       rx="7.1300001"
       y="136.83"
       x="103.42"
       height="14.25"
       width="14.25"
       style="fill:#3f3d56" />
    <g
       id="g24">
      <path
         id="path20-8"
         d="m 187.19,68.28 h -8.38 c -0.33,-19.16 -10.72,-36.15 -26.72,-47 A 70.42,70.42 0 0 0 140.47,14.9 V 49 a 2.83,2.83 0 0 1 -5.66,0 V 12.72 A 75,75 0 0 0 123.58,9.89 V 25 a 8.41,8.41 0 0 1 -8.4,8.4 h -9.27 A 8.41,8.41 0 0 1 97.51,25 V 9.89 A 74.88,74.88 0 0 0 86.29,12.72 V 49 a 2.84,2.84 0 0 1 -5.67,0 V 14.88 A 70.83,70.83 0 0 0 69,21.26 C 53,32.13 42.61,49.12 42.29,68.26 H 31.93 a 2.27,2.27 0 0 0 0,4.54 h 155.26 a 2.27,2.27 0 1 0 0,-4.54 z"
         inkscape:connector-curvature="0"
         style="fill:#a6bf26" />
      <path
         id="path22-5"
         d="m 115.18,0 a 3.86,3.86 0 0 1 3.87,3.86 V 25 a 3.87,3.87 0 0 1 -3.87,3.87 h -9.27 A 3.86,3.86 0 0 1 102.05,25 V 3.86 A 3.86,3.86 0 0 1 105.91,0 h 9.27"
         inkscape:connector-curvature="0"
         style="fill:#ffb500" />
    </g>
  </g>
</svg>
