<?xml version="1.0" encoding="UTF-8" standalone="no"?>
<!-- Created with Inkscape (http://www.inkscape.org/) -->

<svg
   xmlns:dc="http://purl.org/dc/elements/1.1/"
   xmlns:cc="http://creativecommons.org/ns#"
   xmlns:rdf="http://www.w3.org/1999/02/22-rdf-syntax-ns#"
   xmlns:svg="http://www.w3.org/2000/svg"
   xmlns="http://www.w3.org/2000/svg"
   xmlns:sodipodi="http://sodipodi.sourceforge.net/DTD/sodipodi-0.dtd"
   xmlns:inkscape="http://www.inkscape.org/namespaces/inkscape"
   width="86mm"
   height="38mm"
   viewBox="0 0 86.000011 38"
   version="1.1"
   id="svg4853"
   inkscape:version="0.92.1 r15371"
   sodipodi:docname="GAmultiID.svg">
  <defs
     id="defs4847">
    <inkscape:path-effect
       effect="spiro"
       id="path-effect5520"
       is_visible="true" />
  </defs>
  <sodipodi:namedview
     id="base"
     pagecolor="#ffffff"
     bordercolor="#666666"
     borderopacity="1.0"
     inkscape:pageopacity="0.0"
     inkscape:pageshadow="2"
     inkscape:zoom="2.8284271"
     inkscape:cx="68.817665"
     inkscape:cy="44.69169"
     inkscape:document-units="mm"
     inkscape:current-layer="layer1"
     showgrid="false"
     fit-margin-top="2"
     fit-margin-left="2"
     fit-margin-right="2"
     fit-margin-bottom="2"
     inkscape:window-width="1859"
     inkscape:window-height="1176"
     inkscape:window-x="61"
     inkscape:window-y="24"
     inkscape:window-maximized="1" />
  <metadata
     id="metadata4850">
    <rdf:RDF>
      <cc:Work
         rdf:about="">
        <dc:format>image/svg+xml</dc:format>
        <dc:type
           rdf:resource="http://purl.org/dc/dcmitype/StillImage" />
        <dc:title />
      </cc:Work>
    </rdf:RDF>
  </metadata>
  <g
     inkscape:label="Calque 1"
     inkscape:groupmode="layer"
     id="layer1"
     transform="translate(19.848411,-110.22477)">
    <rect
       style="fill:#e6e6e6;fill-rule:evenodd;stroke:#2f2f3b;stroke-width:0.21845914px;stroke-linecap:butt;stroke-linejoin:miter;stroke-opacity:1"
       id="rect4574"
       width="81.78154"
       height="33.78154"
       x="-17.739182"
       y="112.334"
       ry="0.55312234" />
    <g
       transform="matrix(0.13437877,0,0,0.17275544,41.983125,123.54413)"
       id="g6"
       style="fill:#2f2f3b;fill-opacity:1" />
    <g
       id="g5496"
       transform="translate(-327.67244,10.156242)" />
    <g
       transform="matrix(0.0125685,0,0,0.0125685,38.977237,112.97705)"
       id="g5101"
       style="fill:#22222f;fill-opacity:0.94117647">
      <path
         inkscape:connector-curvature="0"
         style="fill:#22222f;fill-opacity:0.94117647"
         d="m 426.60182,332.28423 c -12.435,-0.553 -25.18,1.316 -37.576,5.939 l -225.217,83.153 c -49.649,18.433 -74.975001,73.688 -56.729,123.276 l 83.154,225.095 c 18.494,49.65 73.688,75.034 123.275,56.85 l 56.729,-21.213 v -189.822 c -1.8,1.055 -3.655,1.86 -5.455,2.667 -20.046,7.385 -42.071,-2.622 -49.456,-22.668 -7.385,-19.797 2.622,-41.948 22.667,-49.334 11.358,-4.158 23.476,-2.688 32.971,3.394 2.11,-18.742 8.559,-35.829 18.303,-50.91 -7.944,-4.158 -14.29,-11.122 -17.455,-20.121 -7.447,-19.984 2.559,-41.887 22.667,-49.334 19.736,-7.386 41.707,2.689 49.092,22.424 14.771,-6.578 31.41,-10.303 48.85,-10.303 h 36.97 l -17.091,-46.426 c -13.871,-37.423 -48.395,-61.009 -85.699,-62.667 z m 65.82,135.76 c -53.001,0 -95.881,42.88 -95.881,95.881 v 240.005 c 0,53.001 42.88,95.88 95.881,95.88 h 240.005 c 53.001,0 96.001,-42.879 96.001,-95.88 v -240.005 c 0,-53.001 -43,-95.881 -96.001,-95.881 z m -258.551,23.758 c 14.947,0.652 28.886,10.057 34.425,25.092 7.385,19.798 -2.87,41.954 -22.668,49.091 -20.045,7.448 -41.948,-2.559 -49.334,-22.667 -7.385,-19.797 2.5,-41.955 22.546,-49.092 4.95,-1.846 10.048,-2.641 15.031,-2.424 z m 293.824,69.577 c 9.829,0 19.674,3.794 27.152,11.273 15.019,15.019 15.019,39.347 0,54.304 -14.956,15.019 -39.285,15.019 -54.304,0 -14.957,-14.957 -14.957,-39.285 0,-54.304 7.51,-7.479 17.323,-11.273 27.152,-11.273 z m 84.123,84.123 c 9.837,0 19.643,3.794 27.152,11.273 14.957,15.019 14.957,39.285 0,54.304 -15.019,15.019 -39.285,15.019 -54.304,0 -14.957,-14.957 -14.957,-39.285 0,-54.304 7.51,-7.479 17.315,-11.273 27.152,-11.273 z m -317.34,9.819 c 14.93,0.709 28.765,10.121 34.304,24.97 7.385,19.735 -2.932,41.949 -22.667,49.334 -20.046,7.385 -42.07,-2.81 -49.456,-22.546 -7.385,-19.798 2.743,-42.07 22.789,-49.456 4.949,-1.846 10.054,-2.539 15.03,-2.302 z m 401.463,74.304 c 9.829,0 19.642,3.794 27.152,11.273 14.957,15.019 14.957,39.347 0,54.304 -15.019,15.019 -39.347,15.019 -54.304,0 -15.019,-14.957 -15.019,-39.285 0,-54.304 7.478,-7.479 17.323,-11.273 27.152,-11.273 z"
         id="path5099" />
    </g>
    <rect
       style="fill:#ffffff;fill-opacity:1;fill-rule:evenodd;stroke:#2f2f3b;stroke-width:0.41205972;stroke-linecap:butt;stroke-linejoin:miter;stroke-miterlimit:4;stroke-dasharray:none;stroke-opacity:1"
       id="rect5095"
       width="7.7021041"
       height="5.7964873"
       x="44.53241"
       y="134.48897"
       ry="0.64627987" />
    <g
       style="fill:#ff7f2a;fill-opacity:1"
       transform="matrix(0.65199321,0,0,0.65199321,126.29413,107.53576)"
       id="g5113">
      <path
         inkscape:transform-center-y="1.2695303"
         inkscape:transform-center-x="0.86862599"
         sodipodi:nodetypes="sccsccssscsssscss"
         style="fill:#ff7f2a;fill-opacity:1;stroke-width:0.07052927"
         id="path5107"
         d="m -133.08548,42.623619 0.27666,0.50071 c 0.0261,0.0472 0.0821,0.0819 0.13603,0.0842 l 2.51264,0.10678 c 0.0539,0.002 0.0734,-0.0291 0.0445,-0.0719 l -1.21347,-2.20575 c -0.0261,-0.0472 -0.0821,-0.0819 -0.13603,-0.0842 l -0.57154,-0.0243 c -0.0539,-0.002 -0.0774,0.0291 -0.0473,0.0764 l 0.63682,1.15258 -3.78489,-2.34269 c -0.056,-0.0347 -0.10991,-0.037 -0.12939,-0.006 l -0.21142,0.34159 c -0.0195,0.0315 0.007,0.0787 0.0627,0.11334 l 3.78489,2.34269 -1.31563,-0.0559 c -0.0432,-0.002 -0.0654,0.0341 -0.0445,0.0719 z"
         inkscape:connector-curvature="0" />
      <path
         inkscape:connector-curvature="0"
         d="m -133.08548,48.946216 0.27666,-0.50071 c 0.0261,-0.0472 0.0821,-0.0819 0.13603,-0.0842 l 2.51264,-0.10678 c 0.0539,-0.002 0.0734,0.0291 0.0445,0.0719 l -1.21347,2.20575 c -0.0261,0.0472 -0.0821,0.0819 -0.13603,0.0842 l -0.57154,0.0243 c -0.0539,0.002 -0.0774,-0.0291 -0.0473,-0.0764 l 0.63682,-1.15258 -3.78489,2.34269 c -0.056,0.0347 -0.10991,0.037 -0.12939,0.006 l -0.21142,-0.34159 c -0.0195,-0.0315 0.007,-0.0787 0.0627,-0.11334 l 3.78489,-2.34269 -1.31563,0.0559 c -0.0432,0.002 -0.0654,-0.0341 -0.0445,-0.0719 z"
         id="path5109"
         style="fill:#ff7f2a;fill-opacity:1;stroke-width:0.07052927"
         sodipodi:nodetypes="sccsccssscsssscss"
         inkscape:transform-center-x="0.86862599"
         inkscape:transform-center-y="-1.2695258" />
      <path
         inkscape:connector-curvature="0"
         d="m -132.99978,46.51027 0.49565,0.285616 c 0.0467,0.02691 0.11262,0.02767 0.15998,0.0018 l 2.2061,-1.207419 c 0.0472,-0.02615 0.0478,-0.06285 9.3e-4,-0.08455 l -2.17896,-1.260938 c -0.0468,-0.02691 -0.11262,-0.02767 -0.15997,-0.0018 l -0.50182,0.274637 c -0.0472,0.02615 -0.0512,0.06492 -0.001,0.08985 l 1.14093,0.657467 -4.45098,-0.04895 c -0.0659,-7.57e-4 -0.11321,0.02514 -0.11386,0.06175 l -0.004,0.4017 c -4.1e-4,0.03704 0.0467,0.06375 0.11226,0.06461 l 4.45097,0.04895 -1.15512,0.632218 c -0.038,0.02062 -0.0384,0.063 -9.3e-4,0.08455 z"
         id="path5111"
         style="fill:#ff7f2a;fill-opacity:1;stroke-width:0.07052927"
         sodipodi:nodetypes="sccsccssscsssscss"
         inkscape:transform-center-x="-0.0025937598"
         inkscape:transform-center-y="1.5900491" />
    </g>
    <g
       style="fill:#7e8b00;fill-opacity:1;stroke:none;stroke-opacity:1"
       transform="matrix(0.65199321,0,0,0.65199321,126.29413,107.3615)"
       id="g5123">
      <g
         style="fill:#7e8b00;fill-opacity:1;stroke:none;stroke-opacity:1"
         id="g5121"
         transform="translate(2.1166667)">
        <path
           inkscape:transform-center-y="1.2695213"
           inkscape:transform-center-x="0.86862641"
           sodipodi:nodetypes="sccsccssscsssscss"
           style="fill:#7e8b00;fill-opacity:1;stroke-width:0.07052927;stroke:none;stroke-opacity:1"
           id="path5115"
           d="m -108.51286,51.357606 0.27666,0.50071 c 0.0261,0.0472 0.0821,0.0819 0.13603,0.0842 l 2.51264,0.10678 c 0.0539,0.002 0.0734,-0.0291 0.0445,-0.0719 l -1.21346,-2.20575 c -0.0261,-0.0472 -0.0821,-0.0819 -0.13604,-0.0842 l -0.57154,-0.0243 c -0.0539,-0.002 -0.0774,0.0291 -0.0473,0.0764 l 0.63683,1.15258 -3.7849,-2.34269 c -0.056,-0.0347 -0.10991,-0.037 -0.12939,-0.006 l -0.21142,0.34159 c -0.0195,0.0315 0.007,0.0787 0.0627,0.11334 l 3.78489,2.34269 -1.31563,-0.0559 c -0.0432,-0.002 -0.0654,0.0341 -0.0445,0.0719 z"
           inkscape:connector-curvature="0" />
        <path
           inkscape:connector-curvature="0"
           d="m -108.51286,40.746766 0.27666,-0.50071 c 0.0261,-0.0472 0.0821,-0.0819 0.13603,-0.0842 l 2.51264,-0.10678 c 0.0539,-0.002 0.0734,0.0291 0.0445,0.0719 l -1.21346,2.20575 c -0.0261,0.0472 -0.0821,0.0819 -0.13604,0.0842 l -0.57154,0.0243 c -0.0539,0.002 -0.0774,-0.0291 -0.0473,-0.0764 l 0.63683,-1.15258 -3.7849,2.34269 c -0.056,0.0347 -0.10991,0.037 -0.12939,0.006 l -0.21142,-0.34159 c -0.0195,-0.0315 0.007,-0.0787 0.0627,-0.11334 l 3.78489,-2.34269 -1.31563,0.0559 c -0.0432,0.002 -0.0654,-0.0341 -0.0445,-0.0719 z"
           id="path5117"
           style="fill:#7e8b00;fill-opacity:1;stroke-width:0.07052927;stroke:none;stroke-opacity:1"
           sodipodi:nodetypes="sccsccssscsssscss"
           inkscape:transform-center-x="0.86862641"
           inkscape:transform-center-y="-1.2695168" />
        <path
           inkscape:connector-curvature="0"
           d="m -107.59962,47.568604 0.49565,0.285616 c 0.0467,0.02691 0.11262,0.02767 0.15998,0.0018 l 2.2061,-1.207419 c 0.0472,-0.02615 0.0478,-0.06285 9.3e-4,-0.08455 l -2.17896,-1.260938 c -0.0468,-0.02691 -0.11262,-0.02767 -0.15997,-0.0018 l -0.50182,0.274637 c -0.0472,0.02615 -0.0512,0.06492 -0.001,0.08985 l 1.14093,0.657467 -4.45098,-0.04895 c -0.0659,-7.57e-4 -0.11321,0.02514 -0.11386,0.06175 l -0.004,0.4017 c -4.1e-4,0.03704 0.0467,0.06375 0.11226,0.06461 l 4.45097,0.04895 -1.15512,0.632218 c -0.038,0.02062 -0.0384,0.063 -9.3e-4,0.08455 z"
           id="path5119"
           style="fill:#7e8b00;fill-opacity:1;stroke-width:0.07052927;stroke:none;stroke-opacity:1"
           sodipodi:nodetypes="sccsccssscsssscss"
           inkscape:transform-center-x="-0.0025937598"
           inkscape:transform-center-y="1.5900491" />
      </g>
    </g>
    <text
       id="text4801"
       y="133.40308"
       x="-13.281074"
       style="font-style:normal;font-variant:normal;font-weight:normal;font-stretch:normal;font-size:5.34460402px;line-height:1.25;font-family:'Humor Sans';-inkscape-font-specification:'Humor Sans';letter-spacing:0px;word-spacing:0px;fill:#2f2f3b;fill-opacity:1;stroke:none;stroke-width:0.22269183"
       xml:space="preserve"><tspan
         style="font-style:normal;font-variant:normal;font-weight:normal;font-stretch:normal;font-size:3.52777767px;font-family:'Glacial Indifference';-inkscape-font-specification:'Glacial Indifference';fill:#2f2f3b;fill-opacity:1;stroke-width:0.22269183"
         y="133.40308"
         x="-13.281074"
         id="tspan4799"
         sodipodi:role="line">Optim</tspan></text>
    <text
       id="text4809"
       y="126.8277"
       x="-12.212157"
       style="font-style:normal;font-variant:normal;font-weight:normal;font-stretch:normal;font-size:5.34460402px;line-height:1.25;font-family:'Glacial Indifference';-inkscape-font-specification:'Glacial Indifference';letter-spacing:0px;word-spacing:0px;fill:#2f2f3b;fill-opacity:1;stroke:none;stroke-width:0.22269183"
       xml:space="preserve"><tspan
         style="font-style:normal;font-variant:normal;font-weight:normal;font-stretch:normal;font-size:3.52777767px;font-family:'Glacial Indifference';-inkscape-font-specification:'Glacial Indifference';fill:#2f2f3b;fill-opacity:1;stroke-width:0.22269183"
         y="126.8277"
         x="-12.212157"
         id="tspan4807"
         sodipodi:role="line">OExp</tspan></text>
    <rect
       ry="0.39458767"
       y="123.91213"
       x="1.251788"
       height="4.2998133"
       width="1.8012739"
       id="rect5005"
       style="fill:#a02c2c;fill-opacity:1;fill-rule:evenodd;stroke:#550000;stroke-width:0.17666984;stroke-linecap:butt;stroke-linejoin:miter;stroke-miterlimit:4;stroke-dasharray:none;stroke-opacity:1" />
    <rect
       style="opacity:1;fill:#a6bf26;fill-opacity:1;fill-rule:evenodd;stroke:#7e8b00;stroke-width:0.15438353;stroke-linecap:butt;stroke-linejoin:miter;stroke-miterlimit:4;stroke-dasharray:none;stroke-opacity:1"
       id="rect4773"
       width="24.845617"
       height="4.1928287"
       x="1.2745111"
       y="130.52879"
       ry="0.38476986" />
    <text
       id="text5009"
       y="140.3179"
       x="-11.114633"
       style="font-style:normal;font-variant:normal;font-weight:normal;font-stretch:normal;font-size:4.23333311px;line-height:1.25;font-family:'Humor Sans';-inkscape-font-specification:'Humor Sans';letter-spacing:0px;word-spacing:0px;fill:#2f2f3b;fill-opacity:1;stroke:none;stroke-width:0.22269183"
       xml:space="preserve"><tspan
         style="font-style:normal;font-variant:normal;font-weight:normal;font-stretch:normal;font-size:3.52777767px;font-family:'Glacial Indifference';-inkscape-font-specification:'Glacial Indifference';fill:#2f2f3b;fill-opacity:1;stroke-width:0.22269183"
         y="140.3179"
         x="-11.114633"
         sodipodi:role="line"
         id="tspan5034">Sens</tspan></text>
    <text
       xml:space="preserve"
       style="font-style:normal;font-variant:normal;font-weight:normal;font-stretch:normal;font-size:5.34460402px;line-height:1.25;font-family:'Glacial Indifference';-inkscape-font-specification:'Glacial Indifference';letter-spacing:0px;word-spacing:0px;fill:#2f2f3b;fill-opacity:1;stroke:none;stroke-width:0.22269183"
       x="-10.207111"
       y="120.1611"
       id="text4797"><tspan
         sodipodi:role="line"
         id="tspan4795"
         x="-10.207111"
         y="120.1611"
         style="font-style:normal;font-variant:normal;font-weight:normal;font-stretch:normal;font-size:4.23333311px;font-family:'Glacial Indifference';-inkscape-font-specification:'Glacial Indifference';fill:#2f2f3b;fill-opacity:1;stroke-width:0.22269183"><tspan
           style="font-size:3.52777767px"
           id="tspan5241">IExp</tspan></tspan></text>
    <rect
       style="fill:#a02c2c;fill-opacity:1;fill-rule:evenodd;stroke:#550000;stroke-width:0.17666984;stroke-linecap:butt;stroke-linejoin:miter;stroke-miterlimit:4;stroke-dasharray:none;stroke-opacity:1"
       id="rect5542"
       width="1.8012739"
       height="4.2998133"
       x="1.2738442"
       y="117.24052"
       ry="0.39458767" />
    <g
       aria-label="Yes"
       transform="matrix(0.14361038,0,0,0.14361038,14.525285,97.853339)"
       style="font-style:normal;font-weight:normal;font-size:22.5px;line-height:125%;font-family:'Bitstream Vera Sans';text-align:center;letter-spacing:0px;word-spacing:0px;text-anchor:middle;fill:#2f2f3b;fill-opacity:1;stroke:none;stroke-width:1px;stroke-linecap:butt;stroke-linejoin:miter;stroke-opacity:1"
       id="flowRoot4656">
      <path
         d="m 278.31789,159.52559 5.7825,-8.1 h -2.0025 l -4.5675,6.5475 -4.5675,-6.5475 h -2.025 l 5.805,8.1225 v 7.1775 h 1.575 z"
         style="font-style:normal;font-variant:normal;font-weight:normal;font-stretch:normal;font-family:'Glacial Indifference';-inkscape-font-specification:'Glacial Indifference';fill:#2f2f3b;fill-opacity:1"
         id="path4675" />
      <path
         d="m 291.8752,161.55059 c 0,-1.35 -0.54,-2.52 -1.575,-3.5325 -1.0125,-0.9675 -2.2275,-1.4625 -3.6,-1.4625 -1.44,0 -2.655,0.5175 -3.6675,1.53 -1.0125,1.0125 -1.5075,2.2275 -1.5075,3.645 0,1.44 0.495,2.655 1.5075,3.645 0.4725,0.4725 1.0125,0.8325 1.6425,1.1025 0.63,0.27 1.3725,0.405 2.25,0.405 0.8775,0 1.7325,-0.27 2.5875,-0.81 0.855,-0.54 1.485,-1.305 1.9125,-2.25 h -1.8 c -0.36,0.4725 -0.7875,0.8325 -1.305,1.1025 -0.5175,0.27 -1.0575,0.3825 -1.62,0.3825 -0.855,0 -1.62,-0.27 -2.295,-0.8325 -0.675,-0.54 -1.1025,-1.2375 -1.2375,-2.0925 h 8.7075 z m -1.665,-0.5175 h -7.02 c 0.09,-0.405 0.2475,-0.7875 0.4725,-1.1475 0.72,-1.17 1.7325,-1.755 3.0375,-1.755 0.8325,0 1.575,0.27 2.2275,0.81 0.675,0.5625 1.08,1.26 1.2825,2.0925 z"
         style="font-style:normal;font-variant:normal;font-weight:normal;font-stretch:normal;font-family:'Glacial Indifference';-inkscape-font-specification:'Glacial Indifference';fill:#2f2f3b;fill-opacity:1"
         id="path4677" />
      <path
         d="m 295.87844,165.33059 c -0.3825,-0.27 -0.675,-0.72 -0.8325,-1.3725 h -1.665 c 0.3375,2.0475 1.6425,3.06 3.9375,3.06 0.54,0 1.035,-0.045 1.5075,-0.18 0.4725,-0.135 0.8775,-0.315 1.26,-0.5625 0.765,-0.5175 1.1475,-1.305 1.1475,-2.3625 0,-1.08 -0.495,-1.845 -1.53,-2.34 -0.4275,-0.2025 -0.9,-0.36 -1.4175,-0.4725 -0.495,-0.1125 -0.9675,-0.2475 -1.395,-0.3825 -0.45,-0.135 -0.81,-0.315 -1.1025,-0.5175 -0.2925,-0.2025 -0.45,-0.5175 -0.45,-0.9675 0,-0.45 0.18,-0.7875 0.54,-0.99 0.36,-0.225 0.7875,-0.3375 1.26,-0.3375 0.495,0 0.9225,0.1125 1.26,0.2925 0.3375,0.18 0.6075,0.54 0.765,1.08 h 1.6875 c -0.2025,-0.99 -0.63,-1.6875 -1.26,-2.07 -0.6525,-0.405 -1.44,-0.6075 -2.4075,-0.6075 -0.945,0 -1.7775,0.27 -2.475,0.765 -0.675,0.5175 -1.035,1.26 -1.035,2.25 0,0.4725 0.135,0.9 0.3825,1.26 0.27,0.3825 0.6525,0.675 1.1475,0.9 0.45,0.2025 0.9225,0.36 1.4175,0.495 0.495,0.1125 0.9675,0.2475 1.4175,0.3825 1.0125,0.3375 1.53,0.8325 1.53,1.4625 0,1.08 -0.72,1.5975 -2.16,1.5975 -0.6075,0 -1.125,-0.1125 -1.53,-0.3825 z"
         style="font-style:normal;font-variant:normal;font-weight:normal;font-stretch:normal;font-family:'Glacial Indifference';-inkscape-font-specification:'Glacial Indifference';fill:#2f2f3b;fill-opacity:1"
         id="path4679" />
    </g>
    <g
       aria-label="M"
       transform="matrix(0.14361038,0,0,0.14361038,7.2725137,114.55038)"
       style="font-style:normal;font-weight:normal;font-size:22.5px;line-height:125%;font-family:'Bitstream Vera Sans';text-align:center;letter-spacing:0px;word-spacing:0px;text-anchor:middle;fill:#2f2f3b;fill-opacity:1;stroke:none;stroke-width:1px;stroke-linecap:butt;stroke-linejoin:miter;stroke-opacity:1"
       id="flowRoot4670">
      <path
         d="m 293.2535,166.72559 h 1.5975 l -3.555,-16.3125 -5.0175,13.095 -5.0175,-13.095 -3.5775,16.3125 h 1.62 l 2.3625,-10.89 4.6125,11.79 4.59,-11.79 z"
         style="font-style:normal;font-variant:normal;font-weight:normal;font-stretch:normal;font-family:'Glacial Indifference';-inkscape-font-specification:'Glacial Indifference';fill:#2f2f3b;fill-opacity:1"
         id="path4672" />
    </g>
    <rect
       ry="0.39164409"
       y="136.98988"
       x="1.2420744"
       height="4.2677374"
       width="4.91049"
       id="rect4775"
       style="fill:#2f2f3b;fill-opacity:1;fill-rule:evenodd;stroke:#000000;stroke-width:0.0895101;stroke-linecap:butt;stroke-linejoin:miter;stroke-miterlimit:4;stroke-dasharray:none;stroke-opacity:1" />
  </g>
</svg>
