<?xml version="1.0" encoding="UTF-8" standalone="no"?>
<!-- Created with Inkscape (http://www.inkscape.org/) -->

<svg
   xmlns:dc="http://purl.org/dc/elements/1.1/"
   xmlns:cc="http://creativecommons.org/ns#"
   xmlns:rdf="http://www.w3.org/1999/02/22-rdf-syntax-ns#"
   xmlns:svg="http://www.w3.org/2000/svg"
   xmlns="http://www.w3.org/2000/svg"
   xmlns:sodipodi="http://sodipodi.sourceforge.net/DTD/sodipodi-0.dtd"
   xmlns:inkscape="http://www.inkscape.org/namespaces/inkscape"
   width="42.60709mm"
   height="41.554928mm"
   viewBox="0 0 150.97 147.24187"
   id="svg4956"
   version="1.1"
   inkscape:version="0.92.1 r15371"
   sodipodi:docname="github.svg">
  <defs
     id="defs4958" />
  <sodipodi:namedview
     id="base"
     pagecolor="#ffffff"
     bordercolor="#666666"
     borderopacity="1.0"
     inkscape:pageopacity="0.0"
     inkscape:pageshadow="2"
     inkscape:zoom="2.8"
     inkscape:cx="-12.377739"
     inkscape:cy="48.254172"
     inkscape:document-units="px"
     inkscape:current-layer="g4503"
     showgrid="false"
     fit-margin-top="0"
     fit-margin-left="0"
     fit-margin-right="0"
     fit-margin-bottom="0"
     inkscape:window-width="1859"
     inkscape:window-height="1176"
     inkscape:window-x="61"
     inkscape:window-y="24"
     inkscape:window-maximized="1" />
  <metadata
     id="metadata4961">
    <rdf:RDF>
      <cc:Work
         rdf:about="">
        <dc:format>image/svg+xml</dc:format>
        <dc:type
           rdf:resource="http://purl.org/dc/dcmitype/StillImage" />
        <dc:title />
      </cc:Work>
    </rdf:RDF>
  </metadata>
  <g
     inkscape:label="Calque 1"
     inkscape:groupmode="layer"
     id="layer1"
     transform="translate(-142.37215,-93.026935)">
    <g
       id="g4500">
      <g
         id="g4503">
        <path
           inkscape:connector-curvature="0"
           id="path28"
           style="fill:#ffffff;fill-opacity:1;fill-rule:evenodd;stroke:none;stroke-width:1.25"
           d="m 217.85715,93.026935 c -41.68375,0 -75.485,33.793755 -75.485,75.484995 0,33.35001 21.62875,61.645 51.62125,71.62625 3.7725,0.69875 5.1575,-1.6375 5.1575,-3.63125 0,-1.79875 -0.07,-7.74625 -0.1025,-14.05374 -21,4.56625 -25.43125,-8.90625 -25.43125,-8.90625 -3.43375,-8.72375 -8.38125,-11.04501 -8.38125,-11.04501 -6.84875,-4.685 0.51625,-4.58875 0.51625,-4.58875 7.58,0.5325 11.57125,7.78 11.57125,7.78 6.7325,11.53875 17.65875,8.20251 21.96625,6.27375 0.67875,-4.8775 2.63375,-8.20875 4.7925,-10.09374 -16.76625,-1.90751 -34.39125,-8.38126 -34.39125,-37.30501 0,-8.23999 2.94875,-14.975 7.7775,-20.26125 -0.78375,-1.90125 -3.3675,-9.57874 0.7325,-19.97624 0,0 6.33875,-2.02751 20.7625,7.73874 6.02125,-1.6725 12.47875,-2.51125 18.89375,-2.54125 6.415,0.03 12.8775,0.86875 18.91,2.54125 14.4075,-9.76625 20.7375,-7.73874 20.7375,-7.73874 4.10875,10.3975 1.525,18.07499 0.74125,19.97624 4.84,5.28625 7.7675,12.02126 7.7675,20.26125 0,28.99376 -17.65875,35.37625 -34.4675,37.245 2.7075,2.34251 5.12,6.93625 5.12,13.97875 0,10.1 -0.0863,18.22876 -0.0863,20.715 0,2.01 1.3575,4.3625 5.18375,3.62251 29.9775,-9.99251 51.57875,-38.2775 51.57875,-71.6175 0,-41.69125 -33.79625,-75.485005 -75.485,-75.485005" />
      </g>
    </g>
    <path
       inkscape:connector-curvature="0"
       id="path32"
       style="fill:#1b1817;fill-opacity:1;fill-rule:nonzero;stroke:none;stroke-width:1.25"
       d="m 170.96265,201.40594 c -0.16625,0.37625 -0.75625,0.48875 -1.29375,0.23125 -0.54875,-0.2475 -0.855,-0.75875 -0.6775,-1.135 0.1625,-0.385 0.7525,-0.4925 1.3,-0.235 0.5475,0.24625 0.86,0.7625 0.67125,1.13875" />
    <path
       inkscape:connector-curvature="0"
       id="path36"
       style="fill:#1b1817;fill-opacity:1;fill-rule:nonzero;stroke:none;stroke-width:1.25"
       d="m 174.02052,204.81656 c -0.36,0.33375 -1.065,0.17875 -1.54125,-0.34875 -0.495,-0.52625 -0.58625,-1.23125 -0.22125,-1.56875 0.37125,-0.33375 1.05375,-0.1775 1.5475,0.34875 0.495,0.5325 0.59125,1.23 0.215,1.56875" />
    <path
       inkscape:connector-curvature="0"
       id="path40"
       style="fill:#1b1817;fill-opacity:1;fill-rule:nonzero;stroke:none;stroke-width:1.25"
       d="m 176.99665,209.16343 c -0.4625,0.3225 -1.22,0.0212 -1.6875,-0.64999 -0.4625,-0.67251 -0.4625,-1.47751 0.0113,-1.80001 0.4675,-0.32249 1.21375,-0.0312 1.6875,0.63376 0.46125,0.6825 0.46125,1.4875 -0.0113,1.81624" />
    <path
       inkscape:connector-curvature="0"
       id="path44"
       style="fill:#1b1817;fill-opacity:1;fill-rule:nonzero;stroke:none;stroke-width:1.25"
       d="m 181.07377,213.36394 c -0.41375,0.45625 -1.295,0.33375 -1.94,-0.29001 -0.66,-0.60749 -0.84375,-1.47125 -0.43,-1.92749 0.42,-0.4575 1.30625,-0.32875 1.95625,0.28875 0.655,0.60749 0.85375,1.4775 0.41375,1.92875" />
    <path
       inkscape:connector-curvature="0"
       id="path48"
       style="fill:#1b1817;fill-opacity:1;fill-rule:nonzero;stroke:none;stroke-width:1.25"
       d="m 186.69877,215.80281 c -0.18375,0.59125 -1.03125,0.85875 -1.88625,0.6075 -0.85375,-0.25875 -1.4125,-0.95 -1.24,-1.5475 0.1775,-0.595 1.03,-0.875 1.89125,-0.60625 0.8525,0.2575 1.4125,0.945 1.235,1.54625" />
    <path
       inkscape:connector-curvature="0"
       id="path52"
       style="fill:#1b1817;fill-opacity:1;fill-rule:nonzero;stroke:none;stroke-width:1.25"
       d="m 192.87677,216.25456 c 0.0213,0.6225 -0.70374,1.13875 -1.60125,1.15 -0.9025,0.02 -1.63375,-0.48375 -1.64375,-1.09625 0,-0.62875 0.71,-1.13875 1.61126,-1.155 0.89749,-0.0175 1.63374,0.48375 1.63374,1.10125" />
    <path
       inkscape:connector-curvature="0"
       id="path56"
       style="fill:#1b1817;fill-opacity:1;fill-rule:nonzero;stroke:none;stroke-width:1.25"
       d="m 198.62502,215.27669 c 0.1075,0.60625 -0.51625,1.22999 -1.4075,1.39625 -0.87625,0.16125 -1.6875,-0.215 -1.79875,-0.81625 -0.10874,-0.6225 0.525,-1.24626 1.40125,-1.4075 0.8925,-0.155 1.69125,0.21 1.805,0.8275" />
  </g>
</svg>
