<?xml version="1.0" encoding="UTF-8" standalone="no"?>
<svg
   xmlns:dc="http://purl.org/dc/elements/1.1/"
   xmlns:cc="http://creativecommons.org/ns#"
   xmlns:rdf="http://www.w3.org/1999/02/22-rdf-syntax-ns#"
   xmlns:svg="http://www.w3.org/2000/svg"
   xmlns="http://www.w3.org/2000/svg"
   xmlns:sodipodi="http://sodipodi.sourceforge.net/DTD/sodipodi-0.dtd"
   xmlns:inkscape="http://www.inkscape.org/namespaces/inkscape"
   version="1.1"
   x="0px"
   y="0px"
   viewBox="0 0 72.490272 90.024201"
   enable-background="new 0 0 100 100"
   xml:space="preserve"
   id="svg38"
   sodipodi:docname="previousVersion.svg"
   width="72.490273"
   height="90.0242"
   inkscape:version="0.92.1 r15371"><metadata
     id="metadata44"><rdf:RDF><cc:Work
         rdf:about=""><dc:format>image/svg+xml</dc:format><dc:type
           rdf:resource="http://purl.org/dc/dcmitype/StillImage" /><dc:title></dc:title></cc:Work></rdf:RDF></metadata><defs
     id="defs42" /><sodipodi:namedview
     pagecolor="#ffffff"
     bordercolor="#666666"
     borderopacity="1"
     objecttolerance="10"
     gridtolerance="10"
     guidetolerance="10"
     inkscape:pageopacity="0"
     inkscape:pageshadow="2"
     inkscape:window-width="1859"
     inkscape:window-height="1056"
     id="namedview40"
     showgrid="false"
     width="100px"
     inkscape:zoom="1.888"
     inkscape:cx="7.9760653"
     inkscape:cy="53.125675"
     inkscape:window-x="61"
     inkscape:window-y="24"
     inkscape:window-maximized="1"
     inkscape:current-layer="svg38"
     fit-margin-top="0"
     fit-margin-left="0"
     fit-margin-right="0"
     fit-margin-bottom="0" /><path
     inkscape:connector-curvature="0"
     d="M 36.245135,0 C 19.950271,0 -5.9999999e-7,14.686108 0,32.80234 c 0,15.854463 27.787938,48.474566 34.63424,56.492917 0.805448,0.971922 2.416343,0.971922 3.221791,0 C 44.903696,81.276906 72.490271,48.656803 72.490271,32.80234 72.490272,14.686108 52.539999,0 36.245135,0 Z m -22.55094,36.886513 19.25414,-18.89566 c 1.710069,-1.678231 4.451226,-0.711129 3.416058,1.523842 v 10.971676 h 8.026184 c 8.424003,0 15.156949,-0.395145 15.156949,1.793225 v 12.261523 c 0,2.188149 -6.785999,1.793227 -15.156949,1.793227 h -8.026184 v 10.971673 c 1.035171,2.234972 -2.380889,3.758815 -3.416058,1.523844 l -19.25414,-18.89566 c -1.111101,-0.723298 -1.111101,-2.324392 0,-3.04769 z"
     id="path4"
     style="fill:#ffffff;stroke-width:1.82235205"
     sodipodi:nodetypes="asccsacsccssssccccc" /></svg>