<?xml version="1.0" encoding="UTF-8" standalone="no"?>
<!-- Created with Inkscape (http://www.inkscape.org/) -->

<svg
   xmlns:dc="http://purl.org/dc/elements/1.1/"
   xmlns:cc="http://creativecommons.org/ns#"
   xmlns:rdf="http://www.w3.org/1999/02/22-rdf-syntax-ns#"
   xmlns:svg="http://www.w3.org/2000/svg"
   xmlns="http://www.w3.org/2000/svg"
   xmlns:sodipodi="http://sodipodi.sourceforge.net/DTD/sodipodi-0.dtd"
   xmlns:inkscape="http://www.inkscape.org/namespaces/inkscape"
   width="152.8344mm"
   height="110.2253mm"
   viewBox="0 0 152.8344 110.2253"
   version="1.1"
   id="svg4853"
   inkscape:version="0.92.1 r15371"
   sodipodi:docname="profileID.svg">
  <defs
     id="defs4847">
    <inkscape:path-effect
       effect="spiro"
       id="path-effect5520"
       is_visible="true" />
  </defs>
  <sodipodi:namedview
     id="base"
     pagecolor="#ffffff"
     bordercolor="#666666"
     borderopacity="1.0"
     inkscape:pageopacity="0.0"
     inkscape:pageshadow="2"
     inkscape:zoom="0.98994949"
     inkscape:cx="439.0132"
     inkscape:cy="215.79956"
     inkscape:document-units="mm"
     inkscape:current-layer="layer1"
     showgrid="false"
     fit-margin-top="0"
     fit-margin-left="0"
     fit-margin-right="0"
     fit-margin-bottom="0"
     inkscape:window-width="1859"
     inkscape:window-height="1056"
     inkscape:window-x="61"
     inkscape:window-y="24"
     inkscape:window-maximized="1" />
  <metadata
     id="metadata4850">
    <rdf:RDF>
      <cc:Work
         rdf:about="">
        <dc:format>image/svg+xml</dc:format>
        <dc:type
           rdf:resource="http://purl.org/dc/dcmitype/StillImage" />
        <dc:title />
      </cc:Work>
    </rdf:RDF>
  </metadata>
  <g
     inkscape:label="Calque 1"
     inkscape:groupmode="layer"
     id="layer1"
     transform="translate(47.691007,-76.333778)">
    <text
       xml:space="preserve"
       style="font-style:normal;font-variant:normal;font-weight:normal;font-stretch:normal;font-size:5.34460402px;line-height:1.25;font-family:'Glacial Indifference';-inkscape-font-specification:'Glacial Indifference';letter-spacing:0px;word-spacing:0px;fill:#222222;fill-opacity:1;stroke:none;stroke-width:0.22269183;"
       x="-8.0614824"
       y="89.214317"
       id="text4495-6-1-6"><tspan
         sodipodi:role="line"
         id="tspan4493-6-8-81"
         x="-8.0614824"
         y="89.214317"
         style="fill:#222222;fill-opacity:1;stroke-width:0.22269183;-inkscape-font-specification:'Glacial Indifference';font-family:'Glacial Indifference';font-weight:normal;font-style:normal;font-stretch:normal;font-variant:normal;">Exploration</tspan></text>
    <text
       xml:space="preserve"
       style="font-style:normal;font-variant:normal;font-weight:normal;font-stretch:normal;font-size:5.34460402px;line-height:1.25;font-family:'Humor Sans';-inkscape-font-specification:'Humor Sans';letter-spacing:0px;word-spacing:0px;fill:#222222;fill-opacity:1;stroke:none;stroke-width:0.22269183"
       x="28.171593"
       y="177.56128"
       id="text4499-3-7-36"><tspan
         sodipodi:role="line"
         id="tspan4497-9-0-4"
         x="28.171593"
         y="177.56128"
         style="font-style:normal;font-variant:normal;font-weight:normal;font-stretch:normal;font-family:'Glacial Indifference';-inkscape-font-specification:'Glacial Indifference';fill:#222222;fill-opacity:1;stroke-width:0.22269183">Sensibility</tspan></text>
    <text
       xml:space="preserve"
       style="font-style:normal;font-variant:normal;font-weight:normal;font-stretch:normal;font-size:5.34460402px;line-height:1.25;font-family:'Humor Sans';-inkscape-font-specification:'Humor Sans';letter-spacing:0px;word-spacing:0px;fill:#222222;fill-opacity:1;stroke:none;stroke-width:0.22269183"
       x="-45.912251"
       y="180.79385"
       id="text4503-9-5-0"><tspan
         sodipodi:role="line"
         id="tspan4501-5-1-35"
         x="-45.912251"
         y="180.79385"
         style="font-style:normal;font-variant:normal;font-weight:normal;font-stretch:normal;font-family:'Glacial Indifference';-inkscape-font-specification:'Glacial Indifference';fill:#222222;fill-opacity:1;stroke-width:0.22269183">Optimisation</tspan></text>
    <g
       id="g5734"
       transform="translate(71.068266,61.272612)">
      <g
         transform="translate(-89.611282,19.683283)"
         id="g5693">
        <path
           style="fill:#800000;fill-rule:evenodd;stroke:#222222;stroke-width:0.69999999;stroke-linecap:butt;stroke-linejoin:miter;stroke-miterlimit:4;stroke-dasharray:none;stroke-opacity:1"
           d="m 19.74385,45.642306 4.67721,-0.133635"
           id="path5530"
           inkscape:connector-curvature="0" />
        <path
           style="fill:#800000;fill-rule:evenodd;stroke:#222222;stroke-width:0.69999999;stroke-linecap:butt;stroke-linejoin:miter;stroke-miterlimit:4;stroke-dasharray:none;stroke-opacity:1"
           d="m 19.20931,36.806295 6.94901,0.668174"
           id="path5532"
           inkscape:connector-curvature="0" />
        <path
           style="fill:#800000;fill-rule:evenodd;stroke:#222222;stroke-width:0.69999999;stroke-linecap:butt;stroke-linejoin:miter;stroke-miterlimit:4;stroke-dasharray:none;stroke-opacity:1"
           d="m 20.53006,28.537127 7.02648,0.291789"
           id="path5534"
           inkscape:connector-curvature="0" />
        <path
           style="fill:#800000;fill-rule:evenodd;stroke:#222222;stroke-width:0.69999999;stroke-linecap:butt;stroke-linejoin:miter;stroke-miterlimit:4;stroke-dasharray:none;stroke-opacity:1"
           d="m 21.23626,19.126216 6.12691,0.305682"
           id="path5536"
           inkscape:connector-curvature="0"
           sodipodi:nodetypes="cc" />
        <path
           inkscape:connector-curvature="0"
           id="path5550"
           d="M 19.46084,54.324595 23.9486,53.55522"
           style="fill:#800000;fill-rule:evenodd;stroke:#222222;stroke-width:0.69999999;stroke-linecap:butt;stroke-linejoin:miter;stroke-miterlimit:4;stroke-dasharray:none;stroke-opacity:1"
           sodipodi:nodetypes="cc" />
        <path
           inkscape:connector-curvature="0"
           id="path5552"
           d="m 19.74385,45.642306 4.67721,-0.133635"
           style="fill:#800000;fill-rule:evenodd;stroke:#222222;stroke-width:0.69999999;stroke-linecap:butt;stroke-linejoin:miter;stroke-miterlimit:4;stroke-dasharray:none;stroke-opacity:1" />
        <path
           inkscape:connector-curvature="0"
           id="path5554"
           d="m 19.20931,36.806295 6.94901,0.668174"
           style="fill:#800000;fill-rule:evenodd;stroke:#222222;stroke-width:0.69999999;stroke-linecap:butt;stroke-linejoin:miter;stroke-miterlimit:4;stroke-dasharray:none;stroke-opacity:1" />
        <path
           inkscape:connector-curvature="0"
           id="path5556"
           d="m 20.53006,28.537127 7.02648,0.291789"
           style="fill:#800000;fill-rule:evenodd;stroke:#222222;stroke-width:0.69999999;stroke-linecap:butt;stroke-linejoin:miter;stroke-miterlimit:4;stroke-dasharray:none;stroke-opacity:1" />
        <path
           sodipodi:nodetypes="cc"
           inkscape:connector-curvature="0"
           id="path5558"
           d="m 21.23626,19.126216 6.12691,0.305682"
           style="fill:#800000;fill-rule:evenodd;stroke:#222222;stroke-width:0.69999999;stroke-linecap:butt;stroke-linejoin:miter;stroke-miterlimit:4;stroke-dasharray:none;stroke-opacity:1" />
        <path
           style="fill:none;fill-rule:evenodd;stroke:#000000;stroke-width:1.20000005;stroke-linecap:butt;stroke-linejoin:miter;stroke-miterlimit:4;stroke-dasharray:none;stroke-opacity:1"
           d="M 24.74611,12.011948 21.0288,60.747612"
           id="path5524"
           inkscape:connector-curvature="0"
           sodipodi:nodetypes="cc" />
      </g>
      <g
         transform="translate(-89.742001,19.227793)"
         id="g5707">
        <g
           id="g5699">
          <path
             sodipodi:nodetypes="cc"
             inkscape:connector-curvature="0"
             id="path5560"
             d="m 18.75404,66.214455 -5.24469,-2.76321"
             style="fill:#800000;fill-rule:evenodd;stroke:#222222;stroke-width:0.69999999;stroke-linecap:butt;stroke-linejoin:miter;stroke-miterlimit:4;stroke-dasharray:none;stroke-opacity:1" />
          <path
             inkscape:connector-curvature="0"
             id="path5562"
             d="M 12.59896,72.081515 8.7845,69.371505"
             style="fill:#800000;fill-rule:evenodd;stroke:#222222;stroke-width:0.69999999;stroke-linecap:butt;stroke-linejoin:miter;stroke-miterlimit:4;stroke-dasharray:none;stroke-opacity:1" />
          <path
             inkscape:connector-curvature="0"
             id="path5564"
             d="M 7.70451,79.457505 2.55928,74.739275"
             style="fill:#800000;fill-rule:evenodd;stroke:#222222;stroke-width:0.69999999;stroke-linecap:butt;stroke-linejoin:miter;stroke-miterlimit:4;stroke-dasharray:none;stroke-opacity:1" />
          <path
             inkscape:connector-curvature="0"
             id="path5566"
             d="m 1.6703,85.263675 -5.43376,-4.4644"
             style="fill:#800000;fill-rule:evenodd;stroke:#222222;stroke-width:0.69999999;stroke-linecap:butt;stroke-linejoin:miter;stroke-miterlimit:4;stroke-dasharray:none;stroke-opacity:1" />
        </g>
        <path
           style="fill:none;fill-rule:evenodd;stroke:#000000;stroke-width:1.20000005;stroke-linecap:butt;stroke-linejoin:miter;stroke-miterlimit:4;stroke-dasharray:none;stroke-opacity:1"
           d="M 20.9984,60.775984 -10.36569,93.964335"
           id="path5526"
           inkscape:connector-curvature="0" />
      </g>
      <g
         transform="rotate(-3.3798083,294.30742,1591.5887)"
         id="g5681">
        <path
           inkscape:connector-curvature="0"
           id="path5574"
           d="m 23.66632,66.348095 4.30925,-2.49595"
           style="fill:#800000;fill-rule:evenodd;stroke:#222222;stroke-width:0.69999999;stroke-linecap:butt;stroke-linejoin:miter;stroke-miterlimit:4;stroke-dasharray:none;stroke-opacity:1"
           sodipodi:nodetypes="cc" />
        <path
           inkscape:connector-curvature="0"
           id="path5576"
           d="m 29.55413,72.081515 3.81446,-2.71001"
           style="fill:#800000;fill-rule:evenodd;stroke:#222222;stroke-width:0.69999999;stroke-linecap:butt;stroke-linejoin:miter;stroke-miterlimit:4;stroke-dasharray:none;stroke-opacity:1" />
        <path
           inkscape:connector-curvature="0"
           id="path5578"
           d="m 34.44858,79.457505 5.14523,-4.71823"
           style="fill:#800000;fill-rule:evenodd;stroke:#222222;stroke-width:0.69999999;stroke-linecap:butt;stroke-linejoin:miter;stroke-miterlimit:4;stroke-dasharray:none;stroke-opacity:1" />
        <path
           inkscape:connector-curvature="0"
           id="path5580"
           d="m 40.48279,85.263675 5.43376,-4.4644"
           style="fill:#800000;fill-rule:evenodd;stroke:#222222;stroke-width:0.69999999;stroke-linecap:butt;stroke-linejoin:miter;stroke-miterlimit:4;stroke-dasharray:none;stroke-opacity:1" />
        <path
           sodipodi:nodetypes="cc"
           inkscape:connector-curvature="0"
           id="path5582"
           d="m 46.71397,92.351445 4.70724,-3.93376"
           style="fill:#800000;fill-rule:evenodd;stroke:#222222;stroke-width:0.69999999;stroke-linecap:butt;stroke-linejoin:miter;stroke-miterlimit:4;stroke-dasharray:none;stroke-opacity:1" />
        <path
           inkscape:connector-curvature="0"
           id="path5572"
           d="M 21.15469,60.775984 52.51878,93.964335"
           style="fill:none;fill-rule:evenodd;stroke:#000000;stroke-width:1.20000005;stroke-linecap:butt;stroke-linejoin:miter;stroke-miterlimit:4;stroke-dasharray:none;stroke-opacity:1" />
      </g>
    </g>
    <g
       id="g7400"
       transform="matrix(0.84142143,0.02045218,-0.02045218,0.84142143,-304.32963,-107.65077)">
      <path
         sodipodi:nodetypes="cccc"
         inkscape:connector-curvature="0"
         id="path7044-4-3-9"
         d="m 371.52397,285.00433 -25.86053,29.34646 62.05584,4.37276 z"
         style="opacity:0.44600004;fill:#d40000;fill-opacity:1;stroke:#ff2a2a;stroke-width:0.26458332px;stroke-linecap:butt;stroke-linejoin:miter;stroke-opacity:1" />
      <circle
         r="1.0235634"
         cy="318.87918"
         cx="407.88989"
         id="path7061-3-4-9-0"
         style="opacity:1;fill:#d40000;fill-opacity:1;stroke:none;stroke-width:0.03763376;stroke-miterlimit:4;stroke-dasharray:none;stroke-opacity:1" />
      <circle
         r="1.0235634"
         cy="314.35416"
         cx="345.71475"
         id="path7061-3-3-4-4-7"
         style="opacity:1;fill:#d40000;fill-opacity:1;stroke:none;stroke-width:0.03763376;stroke-miterlimit:4;stroke-dasharray:none;stroke-opacity:1" />
      <circle
         r="1.0235634"
         cy="285.04541"
         cx="371.52045"
         id="path7061-3-9-9-95-2"
         style="opacity:1;fill:#d40000;fill-opacity:1;stroke:none;stroke-width:0.03763376;stroke-miterlimit:4;stroke-dasharray:none;stroke-opacity:1" />
      <path
         sodipodi:nodetypes="cccc"
         style="opacity:1;fill:none;fill-opacity:1;stroke:#d40000;stroke-width:0.5;stroke-linecap:butt;stroke-linejoin:miter;stroke-miterlimit:4;stroke-dasharray:none;stroke-opacity:1"
         d="m 371.52397,285.00433 -25.86053,29.34646 62.05584,4.37276 z"
         id="path7120-9-57-7"
         inkscape:connector-curvature="0" />
    </g>
    <g
       transform="matrix(0.02050765,0,0,0.02050765,48.418855,100.71981)"
       id="g4"
       style="fill:#22222f;fill-opacity:0.94117647">
      <path
         inkscape:connector-curvature="0"
         style="fill:#22222f;fill-opacity:0.94117647"
         d="m 426.60182,332.28423 c -12.435,-0.553 -25.18,1.316 -37.576,5.939 l -225.217,83.153 c -49.649,18.433 -74.975001,73.688 -56.729,123.276 l 83.154,225.095 c 18.494,49.65 73.688,75.034 123.275,56.85 l 56.729,-21.213 v -189.822 c -1.8,1.055 -3.655,1.86 -5.455,2.667 -20.046,7.385 -42.071,-2.622 -49.456,-22.668 -7.385,-19.797 2.622,-41.948 22.667,-49.334 11.358,-4.158 23.476,-2.688 32.971,3.394 2.11,-18.742 8.559,-35.829 18.303,-50.91 -7.944,-4.158 -14.29,-11.122 -17.455,-20.121 -7.447,-19.984 2.559,-41.887 22.667,-49.334 19.736,-7.386 41.707,2.689 49.092,22.424 14.771,-6.578 31.41,-10.303 48.85,-10.303 h 36.97 l -17.091,-46.426 c -13.871,-37.423 -48.395,-61.009 -85.699,-62.667 z m 65.82,135.76 c -53.001,0 -95.881,42.88 -95.881,95.881 v 240.005 c 0,53.001 42.88,95.88 95.881,95.88 h 240.005 c 53.001,0 96.001,-42.879 96.001,-95.88 v -240.005 c 0,-53.001 -43,-95.881 -96.001,-95.881 z m -258.551,23.758 c 14.947,0.652 28.886,10.057 34.425,25.092 7.385,19.798 -2.87,41.954 -22.668,49.091 -20.045,7.448 -41.948,-2.559 -49.334,-22.667 -7.385,-19.797 2.5,-41.955 22.546,-49.092 4.95,-1.846 10.048,-2.641 15.031,-2.424 z m 293.824,69.577 c 9.829,0 19.674,3.794 27.152,11.273 15.019,15.019 15.019,39.347 0,54.304 -14.956,15.019 -39.285,15.019 -54.304,0 -14.957,-14.957 -14.957,-39.285 0,-54.304 7.51,-7.479 17.323,-11.273 27.152,-11.273 z m 84.123,84.123 c 9.837,0 19.643,3.794 27.152,11.273 14.957,15.019 14.957,39.285 0,54.304 -15.019,15.019 -39.285,15.019 -54.304,0 -14.957,-14.957 -14.957,-39.285 0,-54.304 7.51,-7.479 17.315,-11.273 27.152,-11.273 z m -317.34,9.819 c 14.93,0.709 28.765,10.121 34.304,24.97 7.385,19.735 -2.932,41.949 -22.667,49.334 -20.046,7.385 -42.07,-2.81 -49.456,-22.546 -7.385,-19.798 2.743,-42.07 22.789,-49.456 4.949,-1.846 10.054,-2.539 15.03,-2.302 z m 401.463,74.304 c 9.829,0 19.642,3.794 27.152,11.273 14.957,15.019 14.957,39.347 0,54.304 -15.019,15.019 -39.347,15.019 -54.304,0 -15.019,-14.957 -15.019,-39.285 0,-54.304 7.478,-7.479 17.323,-11.273 27.152,-11.273 z"
         id="path2" />
    </g>
    <text
       id="text4694"
       y="115.41431"
       x="72.892082"
       style="font-style:normal;font-variant:normal;font-weight:normal;font-stretch:normal;font-size:5.76856041px;line-height:1.25;font-family:'Glacial Indifference';-inkscape-font-specification:'Glacial Indifference';letter-spacing:0px;word-spacing:0px;fill:#222222;fill-opacity:1;stroke:none;stroke-width:0.24035667"
       xml:space="preserve"><tspan
         style="font-style:normal;font-variant:normal;font-weight:normal;font-stretch:normal;font-family:'Glacial Indifference';-inkscape-font-specification:'Glacial Indifference';fill:#222222;fill-opacity:1;stroke-width:0.24035667"
         y="115.41431"
         x="72.892082"
         id="tspan4692"
         sodipodi:role="line">Yes</tspan></text>
    <g
       transform="matrix(0.13437877,0,0,0.17275544,41.983125,123.54413)"
       id="g6"
       style="fill:#2f2f3b;fill-opacity:1" />
    <g
       id="g4591"
       transform="matrix(0.70031004,0,0,0.70031004,7.0839863,37.092795)">
      <path
         inkscape:connector-curvature="0"
         d="m 299.73214,19.719542 h -70 c -5.5,0 -10,4.5 -10,10 v 18.7 c 0,0.7 0.6,1.3 1.3,1.3 h 7.5 c 0.7,0 1.3,-0.6 1.3,-1.3 v -14.6 c 0,-2.3 1.8,-4.1 4.1,-4.1 h 61.8 c 2.3,0 4.1,1.8 4.1,4.1 v 61.8 c 0,2.3 -1.8,4.1 -4.1,4.1 h -61.9 c -2.3,0 -4.13119,-1.800115 -4.1,-4.1 l 0.1981,-14.609335 c 0.009,-0.699965 -0.0475,-30.461492 -0.0981,-32.590665 l -10.09997,3.5e-5 c -0.0235,11.66276 0,31.9 0,32.6 v 18.7 c 0,5.499993 4.5,9.999993 10,9.999993 h 70 c 5.5,0 10,-4.5 10,-9.999993 v -70 c 0,-5.5 -4.5,-10 -10,-10 z"
         id="path2-5"
         sodipodi:nodetypes="csssssssssssssssccsssssssc"
         style="fill:#2f2f3b;fill-opacity:1"
         transform="matrix(0.13437877,0,0,0.17275544,41.983124,123.54413)" />
      <flowRoot
         xml:space="preserve"
         id="flowRoot4729"
         style="font-style:normal;font-variant:normal;font-weight:normal;font-stretch:normal;font-size:22.5px;line-height:125%;font-family:'Glacial Indifference';-inkscape-font-specification:'Glacial Indifference';text-align:center;letter-spacing:0px;word-spacing:0px;text-anchor:middle;fill:#2f2f3b;fill-opacity:1;stroke:none;stroke-width:1px;stroke-linecap:butt;stroke-linejoin:miter;stroke-opacity:1"
         transform="matrix(0.28348358,0,0,0.26877026,515.5324,-49.112179)"><flowRegion
           id="flowRegion4731"
           style="font-style:normal;font-variant:normal;font-weight:normal;font-stretch:normal;font-family:'Glacial Indifference';-inkscape-font-specification:'Glacial Indifference';fill:#2f2f3b;fill-opacity:1"><rect
             id="rect4733"
             width="69.268433"
             height="43.870007"
             x="-1579.6089"
             y="672.0119"
             style="font-style:normal;font-variant:normal;font-weight:normal;font-stretch:normal;font-family:'Glacial Indifference';-inkscape-font-specification:'Glacial Indifference';fill:#2f2f3b;fill-opacity:1" /></flowRegion><flowPara
           id="flowPara4735">M</flowPara></flowRoot>      <g
         transform="matrix(0.50788828,0,0,0.48152793,259.22707,27.511406)"
         id="g4740">
        <path
           inkscape:connector-curvature="0"
           d="m -378.07227,217.6776 1.40229,0.83076 c 0.13229,0.0784 0.3175,0.0784 0.44979,0 l 6.1648,-3.65225 c 0.13229,-0.0784 0.13229,-0.1881 0,-0.2508 l -6.1648,-3.66794 c -0.13229,-0.0784 -0.3175,-0.0784 -0.44979,0 l -1.40229,0.83078 c -0.13229,0.0784 -0.14191,0.19423 0,0.26646 l 3.22792,1.91235 h -12.51479 c -0.18521,0 -0.3175,0.0784 -0.3175,0.1881 v 1.19129 c 0,0.10973 0.13229,0.18811 0.3175,0.18811 h 12.51479 l -3.22792,1.91234 c -0.10583,0.0627 -0.10583,0.18809 0,0.2508 z"
           id="path2-6"
           style="fill:#2f2f3b;fill-opacity:1;stroke-width:0.20364992"
           sodipodi:nodetypes="sccsccssscsssscss" />
        <path
           sodipodi:nodetypes="sccsccssscsssscss"
           style="opacity:0.21499999;fill:#2f2f3b;fill-opacity:1;stroke-width:0.20364992"
           id="path4725"
           d="m -378.07227,225.5415 1.40229,0.83077 c 0.13229,0.0784 0.3175,0.0784 0.44979,0 l 6.1648,-3.65226 c 0.13229,-0.0784 0.13229,-0.1881 0,-0.2508 l -6.1648,-3.66794 c -0.13229,-0.0784 -0.3175,-0.0784 -0.44979,0 l -1.40229,0.83078 c -0.13229,0.0784 -0.14191,0.19423 0,0.26646 l 3.22792,1.91235 h -12.51479 c -0.18521,0 -0.3175,0.0784 -0.3175,0.1881 v 1.1913 c 0,0.10972 0.13229,0.1881 0.3175,0.1881 h 12.51479 l -3.22792,1.91234 c -0.10583,0.0627 -0.10583,0.18809 0,0.2508 z"
           inkscape:connector-curvature="0" />
        <path
           inkscape:connector-curvature="0"
           d="m -378.07227,233.5368 1.40229,0.83077 c 0.13229,0.0784 0.3175,0.0784 0.44979,0 l 6.1648,-3.65226 c 0.13229,-0.0784 0.13229,-0.1881 0,-0.2508 l -6.1648,-3.66794 c -0.13229,-0.0784 -0.3175,-0.0784 -0.44979,0 l -1.40229,0.83078 c -0.13229,0.0784 -0.14191,0.19423 0,0.26646 l 3.22792,1.91235 h -12.51479 c -0.18521,0 -0.3175,0.0784 -0.3175,0.1881 v 1.1913 c 0,0.10972 0.13229,0.1881 0.3175,0.1881 h 12.51479 l -3.22792,1.91234 c -0.10583,0.0627 -0.10583,0.1881 0,0.2508 z"
           id="path4727"
           style="fill:#2f2f3b;fill-opacity:1;stroke-width:0.20364992"
           sodipodi:nodetypes="sccsccssscsssscss" />
      </g>
    </g>
    <text
       xml:space="preserve"
       style="font-style:normal;font-variant:normal;font-weight:normal;font-stretch:normal;font-size:5.76856041px;line-height:1.25;font-family:'Glacial Indifference';-inkscape-font-specification:'Glacial Indifference';letter-spacing:0px;word-spacing:0px;fill:#222222;fill-opacity:1;stroke:none;stroke-width:0.24035667"
       x="72.892082"
       y="133.68117"
       id="text4757"><tspan
         sodipodi:role="line"
         id="tspan4755"
         x="72.892082"
         y="133.68117"
         style="font-style:normal;font-variant:normal;font-weight:normal;font-stretch:normal;font-family:'Glacial Indifference';-inkscape-font-specification:'Glacial Indifference';fill:#222222;fill-opacity:1;stroke-width:0.24035667">20</tspan></text>
    <g
       id="g5496"
       transform="translate(-327.67244,10.156242)" />
  </g>
</svg>
