<?xml version="1.0" encoding="UTF-8"?>
<svg xmlns="http://www.w3.org/2000/svg" version="1.1" width="512" height="512">
    <path d="M 502.34111,278.80364 278.79809,502.34216 c -12.86794,12.87712 -33.74784,12.87712 -46.63305,0 l -46.4152,-46.42448 58.88028,-58.88364 c 13.68647,4.62092 29.3794,1.51948 40.28378,-9.38732 10.97012,-10.9748 14.04307,-26.80288 9.30465,-40.537 l 56.75401,-56.74844 c 13.73383,4.73404 29.56829,1.67384 40.53842,-9.31156 15.32297,-15.3188 15.32297,-40.15196 0,-55.48356 -15.3341,-15.3322 -40.16175,-15.3322 -55.50254,0 -11.52454,11.53592 -14.37572,28.47172 -8.53182,42.6722 l -52.93386,52.93048 0,-139.28512 c 3.73267,-1.84996 7.25863,-4.31392 10.37114,-7.41756 15.32295,-15.3216 15.32295,-40.15196 0,-55.49696 -15.32296,-15.3166 -40.16844,-15.3166 -55.48025,0 -15.32296,15.345 -15.32296,40.17536 0,55.49696 3.78727,3.78288 8.17299,6.64472 12.85234,8.5604 l 0,140.57336 c -4.67935,1.91568 -9.05448,4.75356 -12.85234,8.56264 -11.60533,11.60168 -14.39801,28.6378 -8.4449,42.89232 L 162.93981,433.11336 9.6557406,279.83948 c -12.8743209,-12.88768 -12.8743209,-33.768 0,-46.64456 L 233.20978,9.65592 c 12.87017,-12.87456 33.74338,-12.87456 46.63305,0 l 222.49828,222.50316 c 12.87852,12.87876 12.87852,33.76968 0,46.64456" style="fill:#f03c2e;stroke:none"/>
</svg>