<?xml version="1.0" encoding="UTF-8" standalone="no"?>
<svg
   data-name="Layer 2"
   viewBox="0 0 15 20.774196"
   x="0px"
   y="0px"
   version="1.1"
   id="svg8"
   sodipodi:docname="pull.svg"
   width="15"
   height="20.774197"
   inkscape:version="1.2.2 (b0a8486541, 2022-12-01)"
   xmlns:inkscape="http://www.inkscape.org/namespaces/inkscape"
   xmlns:sodipodi="http://sodipodi.sourceforge.net/DTD/sodipodi-0.dtd"
   xmlns="http://www.w3.org/2000/svg"
   xmlns:svg="http://www.w3.org/2000/svg">
  <defs
     id="defs12" />
  <sodipodi:namedview
     id="namedview10"
     pagecolor="#ffffff"
     bordercolor="#666666"
     borderopacity="1.0"
     inkscape:showpageshadow="2"
     inkscape:pageopacity="0.0"
     inkscape:pagecheckerboard="0"
     inkscape:deskcolor="#d1d1d1"
     showgrid="false"
     inkscape:zoom="3.776"
     inkscape:cx="16.684322"
     inkscape:cy="30.720339"
     inkscape:window-width="1824"
     inkscape:window-height="957"
     inkscape:window-x="0"
     inkscape:window-y="0"
     inkscape:window-maximized="1"
     inkscape:current-layer="svg8" />
  <path
     d="M 15,3.4519338 V 20.096551 c 0,0.374233 -0.252874,0.677646 -0.564721,0.677646 H 0.56466 C 0.2528745,20.774197 0,20.470784 0,20.096551 V 3.4519338 C 0,3.0777006 0.2528745,2.7742872 0.56466,2.7742872 h 4.394218 c 0.3118465,0 0.564721,0.3034134 0.564721,0.6776466 0,0.3742158 -0.2528745,0.6776466 -0.564721,0.6776466 H 1.1293805 V 19.418922 H 13.870619 V 4.1295804 h -3.829436 c -0.311848,0 -0.5647213,-0.3034308 -0.5647213,-0.6776466 0,-0.3742332 0.2528733,-0.6776466 0.5647213,-0.6776466 h 4.394096 C 14.747126,2.7742872 15,3.0777006 15,3.4519338 Z M 4.024183,10.794168 c -0.2066725,0.280264 -0.184867,0.708421 0.04867,0.956591 l 3.0529239,3.24164 c 0.00807,0.0085 0.017225,0.01459 0.0256,0.02248 0.011865,0.01126 0.023795,0.02186 0.036205,0.03182 0.019215,0.01533 0.038975,0.02863 0.059333,0.04091 0.01313,0.0079 0.02596,0.01621 0.039515,0.02286 0.02259,0.01112 0.04584,0.01925 0.069393,0.02672 0.011925,0.0038 0.02343,0.0089 0.03554,0.01174 0.03584,0.0085 0.072224,0.01352 0.1087878,0.01352 h 6e-5 c 0.036742,0 0.073372,-0.0053 0.1096313,-0.01388 0.010665,-0.0025 0.020963,-0.007 0.031508,-0.01031 0.025538,-0.0079 0.050663,-0.01723 0.075357,-0.02956 0.00495,-0.0025 0.010238,-0.0033 0.01518,-0.006 0.0054,-0.003 0.0094,-0.0081 0.0147,-0.01122 0.040118,-0.0235 0.078669,-0.05185 0.1143893,-0.08761 0.0033,-0.0033 0.00712,-0.0057 0.010298,-0.0091 9.75e-4,-9.9e-4 0.00202,-0.0016 0.003,-0.0026 l 3.0528637,-3.241624 c 0.23354,-0.247989 0.255345,-0.676146 0.04861,-0.95641 -0.206733,-0.280409 -0.563636,-0.306721 -0.797114,-0.05838 l -2.1138906,2.24463 V 0.6776466 C 8.0647418,0.3034128 7.811868,0 7.5000217,0 7.1881755,0 6.935301,0.3034128 6.935301,0.6776466 V 12.980314 L 4.821349,10.735618 C 4.587871,10.487773 4.2309075,10.51376 4.0241745,10.794165 Z"
     id="path2"
     style="fill:#ffffff;stroke-width:0.289782" />
</svg>
