<?xml version="1.0" encoding="UTF-8" standalone="no"?>
<svg
   viewBox="0 0 24.999998 18.687878"
   x="0px"
   y="0px"
   version="1.1"
   id="svg10"
   sodipodi:docname="pull.svg"
   width="25"
   height="18.687878"
   inkscape:version="1.2.2 (b0a8486541, 2022-12-01)"
   xmlns:inkscape="http://www.inkscape.org/namespaces/inkscape"
   xmlns:sodipodi="http://sodipodi.sourceforge.net/DTD/sodipodi-0.dtd"
   xmlns="http://www.w3.org/2000/svg"
   xmlns:svg="http://www.w3.org/2000/svg"
   xmlns:rdf="http://www.w3.org/1999/02/22-rdf-syntax-ns#"
   xmlns:cc="http://creativecommons.org/ns#"
   xmlns:dc="http://purl.org/dc/elements/1.1/">
  <defs
     id="defs14" />
  <sodipodi:namedview
     id="namedview12"
     pagecolor="#ffffff"
     bordercolor="#666666"
     borderopacity="1.0"
     inkscape:showpageshadow="2"
     inkscape:pageopacity="0.0"
     inkscape:pagecheckerboard="0"
     inkscape:deskcolor="#d1d1d1"
     showgrid="false"
     inkscape:zoom="38.691564"
     inkscape:cx="10.208944"
     inkscape:cy="8.6840635"
     inkscape:window-width="1920"
     inkscape:window-height="1011"
     inkscape:window-x="0"
     inkscape:window-y="0"
     inkscape:window-maximized="1"
     inkscape:current-layer="svg10" />
  <title
     id="title2">programming-pull request</title>
  <path
     d="m 21.87888,13.291357 c -1.257551,0.0023 -2.347157,0.872091 -2.627806,2.097928 H 5.3256202 C 4.6098991,12.249073 0,12.78041 0,15.988694 c 0,3.208283 4.6098991,3.739619 5.3256202,0.599407 H 19.251074 c 0.502348,2.20404 3.330154,2.849409 4.739089,1.081812 1.408935,-1.767596 0.149279,-4.380305 -2.111283,-4.378556 z M 2.6978149,17.487214 c -1.3351322,-1e-6 -2.00352647,-1.614115 -1.0595595,-2.558081 0.943967,-0.943967 2.5580809,-0.275571 2.5580809,1.059561 -9.913e-4,0.827199 -0.671322,1.49753 -1.4985214,1.49852 z m 19.1810651,0 c -1.335132,0 -2.003526,-1.614114 -1.05956,-2.558081 0.943967,-0.943967 2.558081,-0.275571 2.558081,1.059561 -9.9e-4,0.827198 -0.671321,1.497529 -1.498521,1.49852 z M 22.478289,6.646888 V 4.7971139 C 22.476664,3.3081006 21.269965,2.101428 19.780952,2.0997766 H 5.3256202 C 4.6099004,-1.0404355 0,-0.50910005 0,2.6991839 0,5.9074691 4.6099004,6.4388046 5.3256202,3.2985925 H 19.780952 c 0.827199,9.913e-4 1.49753,0.671322 1.49852,1.4985214 V 6.646888 L 19.605325,4.9727402 18.757762,5.8203035 21.87888,8.9417219 25,5.8203035 24.152437,4.9727402 Z M 2.6978149,4.1977054 C 1.3626827,4.1977041 0.69428843,2.5835903 1.6382554,1.6396233 2.5822224,0.69565748 4.1963363,1.3640518 4.1963363,2.6991839 4.195345,3.5263834 3.5250143,4.1967141 2.6978149,4.1977054 Z"
     id="path4"
     style="fill:#ffffff;stroke-width:0.299704"
     sodipodi:nodetypes="cccsccsccscccsccccccscccccccccccscc" />
  <metadata
     id="metadata297">
    <rdf:RDF>
      <cc:Work
         rdf:about="">
        <dc:title>programming-pull request</dc:title>
      </cc:Work>
    </rdf:RDF>
  </metadata>
</svg>
