<?xml version="1.0" encoding="UTF-8" standalone="no"?>
<svg
   viewBox="0 0 14.999999 17.311814"
   x="0px"
   y="0px"
   version="1.1"
   id="svg10"
   sodipodi:docname="push.svg"
   width="15"
   height="17.311813"
   inkscape:version="1.2.2 (b0a8486541, 2022-12-01)"
   xmlns:inkscape="http://www.inkscape.org/namespaces/inkscape"
   xmlns:sodipodi="http://sodipodi.sourceforge.net/DTD/sodipodi-0.dtd"
   xmlns="http://www.w3.org/2000/svg"
   xmlns:svg="http://www.w3.org/2000/svg"
   xmlns:rdf="http://www.w3.org/1999/02/22-rdf-syntax-ns#"
   xmlns:cc="http://creativecommons.org/ns#"
   xmlns:dc="http://purl.org/dc/elements/1.1/">
  <defs
     id="defs14" />
  <sodipodi:namedview
     id="namedview12"
     pagecolor="#ffffff"
     bordercolor="#666666"
     borderopacity="1.0"
     inkscape:showpageshadow="2"
     inkscape:pageopacity="0.0"
     inkscape:pagecheckerboard="0"
     inkscape:deskcolor="#d1d1d1"
     showgrid="false"
     inkscape:zoom="3.8689074"
     inkscape:cx="-69.787145"
     inkscape:cy="-2.3262382"
     inkscape:window-width="1824"
     inkscape:window-height="957"
     inkscape:window-x="0"
     inkscape:window-y="0"
     inkscape:window-maximized="1"
     inkscape:current-layer="svg10" />
  <title
     id="title2">programming-pull request</title>
  <metadata
     id="metadata297">
    <rdf:RDF>
      <cc:Work
         rdf:about="">
        <dc:title>programming-pull request</dc:title>
      </cc:Work>
    </rdf:RDF>
  </metadata>
  <path
     d="M 15,14.435219 V 0.56470545 C 15,0.25284419 14.747126,0 14.435279,0 H 0.5646602 C 0.25287434,0 0,0.25284419 0,0.56470545 V 14.435219 c 0,0.311862 0.25287434,0.564706 0.5646602,0.564706 h 4.394218 c 0.3118463,0 0.5647208,-0.252844 0.5647208,-0.564706 0,-0.311845 -0.2528745,-0.564705 -0.5647208,-0.564705 H 1.1293807 V 1.1293958 H 13.870619 V 13.870514 h -3.829437 c -0.3118458,0 -0.5647202,0.25286 -0.5647202,0.564705 0,0.311862 0.2528744,0.564706 0.5647202,0.564706 h 4.394097 C 14.747126,14.999925 15,14.747081 15,14.435219 Z M 4.024183,8.316691 C 3.8175104,8.083138 3.8393162,7.72634 4.0728544,7.519532 L 7.1257785,4.8181652 c 0.00806,-0.00711 0.017225,-0.012153 0.0256,-0.018734 0.011865,-0.00938 0.023795,-0.018221 0.036205,-0.026519 0.019215,-0.012769 0.038975,-0.023854 0.059333,-0.034094 0.01313,-0.00663 0.02596,-0.013506 0.039515,-0.019049 0.02259,-0.00926 0.04584,-0.016039 0.069394,-0.022271 0.011925,-0.00315 0.02343,-0.00743 0.03554,-0.00979 0.03584,-0.00703 0.072224,-0.011264 0.108788,-0.011264 h 6e-5 c 0.036745,0 0.073369,0.00441 0.109631,0.011566 0.010665,0.00212 0.02096,0.00586 0.031505,0.00859 0.02554,0.00659 0.050659,0.014366 0.075356,0.024636 0.00495,0.00209 0.01024,0.00277 0.01518,0.00499 0.00542,0.00244 0.0094,0.00676 0.0147,0.00935 0.04012,0.019579 0.078669,0.043205 0.1143896,0.073008 0.0033,0.00274 0.00711,0.00476 0.0103,0.00756 9.529e-4,8.201e-4 0.00205,0.00135 0.003,0.00219 L 10.92714,7.5196803 c 0.233539,0.2066574 0.255344,0.5634555 0.04861,0.7970085 -0.206732,0.2336736 -0.563636,0.2556002 -0.797113,0.048655 L 8.0647435,6.494827 v 10.252282 c 0,0.311862 -0.252874,0.564705 -0.5647205,0.564705 -0.311846,0 -0.5647205,-0.252843 -0.5647205,-0.564705 V 6.494903 L 4.8213506,8.3654833 C 4.5878796,8.57202 4.2309159,8.550365 4.024183,8.316691 Z"
     id="path2"
     style="fill:#ffffff;stroke-width:0.264533" />
</svg>
