<?xml version="1.0" encoding="UTF-8" standalone="no"?>
<svg
   version="1.1"
   x="0px"
   y="0px"
   viewBox="0 0 16.370371 17"
   xml:space="preserve"
   id="svg18"
   sodipodi:docname="stashPop.svg"
   width="16.370371"
   height="17"
   inkscape:version="1.2.2 (b0a8486541, 2022-12-01)"
   xmlns:inkscape="http://www.inkscape.org/namespaces/inkscape"
   xmlns:sodipodi="http://sodipodi.sourceforge.net/DTD/sodipodi-0.dtd"
   xmlns="http://www.w3.org/2000/svg"
   xmlns:svg="http://www.w3.org/2000/svg"><defs
     id="defs22" /><sodipodi:namedview
     id="namedview20"
     pagecolor="#ffffff"
     bordercolor="#666666"
     borderopacity="1.0"
     inkscape:showpageshadow="2"
     inkscape:pageopacity="0.0"
     inkscape:pagecheckerboard="0"
     inkscape:deskcolor="#d1d1d1"
     showgrid="false"
     inkscape:zoom="6.2933333"
     inkscape:cx="12.711864"
     inkscape:cy="18.034958"
     inkscape:window-width="1920"
     inkscape:window-height="1011"
     inkscape:window-x="0"
     inkscape:window-y="0"
     inkscape:window-maximized="1"
     inkscape:current-layer="svg18" /><g
     transform="matrix(0.62962963,0,0,0.62962963,-284.60267,-239.88889)"
     id="g12"
     style="fill:#ffffff"><g
       id="g10"
       style="fill:#ffffff"><polygon
         points="475.627,402 465.001,406.898 454.399,402 456.344,401.102 455.151,400.551 452.016,402 465,408 478.016,402 474.871,400.551 473.677,401.102 "
         id="polygon2"
         style="fill:#ffffff" /><polygon
         points="465.001,402.898 454.399,398 456.344,397.102 455.151,396.551 452.016,398 465,404 478.016,398 474.871,396.551 473.677,397.102 475.627,398 "
         id="polygon4"
         style="fill:#ffffff" /><polygon
         points="465.001,398.898 454.399,394 464,389.564 464,388.462 452.016,394 465,400 478.016,394 467,388.922 467,390.023 475.627,394 "
         id="polygon6"
         style="fill:#ffffff" /><polygon
         points="466,391.586 466,386.586 466,382.915 469.742,386.657 470.45,385.95 465.5,381 460.55,385.95 461.258,386.657 465,382.915 465,386.586 465,391.586 465,394 466,394 "
         id="polygon8"
         style="fill:#ffffff" /></g></g></svg>
