<?xml version="1.0" encoding="UTF-8" standalone="no"?>
<svg
   version="1.1"
   x="0px"
   y="0px"
   viewBox="0 0 16.370371 17"
   xml:space="preserve"
   id="svg18"
   sodipodi:docname="stash.svg"
   width="16.370371"
   height="17"
   inkscape:version="1.2.2 (b0a8486541, 2022-12-01)"
   xmlns:inkscape="http://www.inkscape.org/namespaces/inkscape"
   xmlns:sodipodi="http://sodipodi.sourceforge.net/DTD/sodipodi-0.dtd"
   xmlns="http://www.w3.org/2000/svg"
   xmlns:svg="http://www.w3.org/2000/svg"><defs
     id="defs22" /><sodipodi:namedview
     id="namedview20"
     pagecolor="#ffffff"
     bordercolor="#666666"
     borderopacity="1.0"
     inkscape:showpageshadow="2"
     inkscape:pageopacity="0.0"
     inkscape:pagecheckerboard="0"
     inkscape:deskcolor="#d1d1d1"
     showgrid="false"
     inkscape:zoom="6.2933333"
     inkscape:cx="12.552966"
     inkscape:cy="18.193856"
     inkscape:window-width="1920"
     inkscape:window-height="1011"
     inkscape:window-x="0"
     inkscape:window-y="0"
     inkscape:window-maximized="1"
     inkscape:current-layer="svg18" /><g
     transform="matrix(0.62962963,0,0,0.62962963,-322.38044,-239.88889)"
     id="g12"
     style="fill:#ffffff"><g
       id="g10"
       style="fill:#ffffff"><polygon
         points="534.871,400.551 533.677,401.102 535.627,402 525.001,406.898 514.399,402 516.344,401.102 515.151,400.551 512.016,402 525,408 538.016,402 "
         id="polygon2"
         style="fill:#ffffff" /><polygon
         points="514.399,398 516.344,397.102 515.151,396.551 512.016,398 525,404 538.016,398 534.871,396.551 533.677,397.102 535.627,398 525.001,402.898 "
         id="polygon4"
         style="fill:#ffffff" /><polygon
         points="514.399,394 521.024,390.939 520.271,390.186 512.016,394 525,400 538.016,394 530.417,390.497 529.663,391.251 535.627,394 525.001,398.898 "
         id="polygon6"
         style="fill:#ffffff" /><polygon
         points="530.45,389.05 529.742,388.343 526,392.085 526,383.586 526,381 525,381 525,383.586 525,392.085 521.258,388.343 520.55,389.05 525.5,394 "
         id="polygon8"
         style="fill:#ffffff" /></g></g></svg>
