<?xml version="1.0" encoding="UTF-8" standalone="no"?>
<!-- Created with Inkscape (http://www.inkscape.org/) -->

<svg
   xmlns:dc="http://purl.org/dc/elements/1.1/"
   xmlns:cc="http://creativecommons.org/ns#"
   xmlns:rdf="http://www.w3.org/1999/02/22-rdf-syntax-ns#"
   xmlns:svg="http://www.w3.org/2000/svg"
   xmlns="http://www.w3.org/2000/svg"
   xmlns:sodipodi="http://sodipodi.sourceforge.net/DTD/sodipodi-0.dtd"
   xmlns:inkscape="http://www.inkscape.org/namespaces/inkscape"
   width="210mm"
   height="297mm"
   viewBox="0 0 744.09448819 1052.3622047"
   id="svg2"
   version="1.1"
   inkscape:version="0.91 r13725"
   sodipodi:docname="version.svg">
  <defs
     id="defs4" />
  <sodipodi:namedview
     id="base"
     pagecolor="#ffffff"
     bordercolor="#666666"
     borderopacity="1.0"
     inkscape:pageopacity="0.0"
     inkscape:pageshadow="2"
     inkscape:zoom="0.7"
     inkscape:cx="291.14251"
     inkscape:cy="410.14843"
     inkscape:document-units="px"
     inkscape:current-layer="flowRoot4234"
     showgrid="false"
     inkscape:window-width="1920"
     inkscape:window-height="1056"
     inkscape:window-x="0"
     inkscape:window-y="24"
     inkscape:window-maximized="1" />
  <metadata
     id="metadata7">
    <rdf:RDF>
      <cc:Work
         rdf:about="">
        <dc:format>image/svg+xml</dc:format>
        <dc:type
           rdf:resource="http://purl.org/dc/dcmitype/StillImage" />
        <dc:title />
      </cc:Work>
    </rdf:RDF>
  </metadata>
  <g
     inkscape:label="Calque 1"
     inkscape:groupmode="layer"
     id="layer1">
    <g
       id="g4166"
       inkscape:export-filename="/tmp/ll2"
       inkscape:export-xdpi="130"
       inkscape:export-ydpi="130"
       transform="matrix(2.1433266,0,0,2.1433266,2170.273,-656.1203)">
      <g
         transform="matrix(1.3904542,0,0,1.2466515,925.29696,-419.57376)"
         style="font-style:normal;font-variant:normal;font-weight:normal;font-stretch:normal;font-size:40px;line-height:125%;font-family:Bevan;-inkscape-font-specification:Bevan;text-align:start;letter-spacing:0px;word-spacing:0px;writing-mode:lr-tb;text-anchor:start;fill:#ffffff;fill-opacity:1;stroke:none;stroke-width:0.91661847;stroke-linecap:butt;stroke-linejoin:miter;stroke-miterlimit:4;stroke-dasharray:none;stroke-opacity:1"
         id="flowRoot4234">
        <g
           id="g4193"
           transform="translate(8.2701399e-6,21.653305)">
          <path
             inkscape:export-ydpi="130"
             inkscape:export-xdpi="130"
             inkscape:connector-curvature="0"
             id="path4171"
             d="m -892.81253,675.63771 c -6.84686,-2.24375 -9.54672,-5.8675 -9.51148,-12.76636 0.058,-11.36222 14.1126,-27.13382 32.76421,-36.767 l 8.44544,-4.3619 0,-4.81216 c 0,-2.64669 -0.42817,-5.61221 -0.95149,-6.59005 -1.09982,-2.05504 -5.12105,-3.51347 -12.14331,-4.40418 l -4.94454,-0.62717 -5.51122,7.45226 c -3.03116,4.09876 -8.27198,11.80785 -11.64625,17.13133 -7.13412,11.25525 -7.61933,11.83314 -8.87829,10.57419 -1.12002,-1.12002 6.83635,-21.40562 12.05751,-30.74194 1.94859,-3.48441 5.19493,-8.07193 7.21407,-10.19449 l 3.67118,-3.85922 8.35617,0.52133 c 8.29184,0.5173 8.33812,0.50765 6.01162,-1.25495 -1.28951,-0.97693 -4.64519,-2.65921 -7.45709,-3.73838 l -5.11253,-1.96213 -7.22158,5.90097 c -3.97187,3.24553 -11.00448,9.50088 -15.62803,13.90078 -8.24972,7.85069 -10.55317,9.30966 -10.55317,6.68421 0,-4.33179 23.04542,-31.63522 29.14451,-34.52944 4.3733,-2.07526 6.71461,-1.93255 13.52448,0.82441 l 5.75312,2.32913 -3.83541,-3.28166 c -2.10948,-1.80491 -5.22589,-4.03371 -6.92535,-4.95289 -2.99933,-1.62222 -3.22427,-1.60672 -7.67083,0.52832 -2.5195,1.20975 -10.67106,5.83207 -18.11458,10.27183 -7.44353,4.43975 -13.80792,8.07228 -14.14309,8.07228 -5.06642,0 18.6394,-21.90253 30.57391,-28.24817 5.7117,-3.03694 8.45894,-3.04609 13.70728,-0.0456 3.98273,2.27693 4.1278,2.29287 3.83541,0.4215 -0.23149,-1.48146 -3.38849,-3.31654 -13.24842,-7.70089 -7.5684,-3.36539 -13.90709,-6.83066 -15.26216,-8.3436 -1.27469,-1.42321 -2.46127,-2.47978 -2.63684,-2.34793 -1.13471,0.85207 -2.77437,-0.75996 -9.07156,-8.91874 l -7.06875,-9.15841 -4.79427,0.70975 c -16.09252,2.38235 -30.26905,-3.03259 -43.15516,-16.48379 -25.67066,-26.79638 -29.83922,-74.60713 -8.42562,-96.63726 5.88136,-6.05069 7.30501,-5.65438 8.09488,2.25347 0.82273,8.23675 3.71699,20.17654 7.97826,32.913 7.8654,23.50884 17.00152,39.88238 28.65633,51.35721 l 6.23153,6.13529 0.67952,-3.62217 c 1.19998,-6.39644 -0.25702,-23.42359 -2.79125,-32.61977 -5.34759,-19.4053 -16.40344,-44.65207 -25.50412,-58.24044 -2.73365,-4.08165 -4.70085,-7.85714 -4.37154,-8.38997 0.32931,-0.53283 3.57404,-0.96878 7.21052,-0.96878 35.35422,0 65.33891,49.9531 54.96584,91.57054 -1.47231,5.90699 -6.10387,16.00762 -8.65196,18.86843 -1.62978,1.82979 -1.57723,1.94543 4.47269,9.8422 4.34898,5.67659 5.22345,6.22468 20.79491,13.03359 l 3.99525,1.747 -4.11908,-5.92452 c -7.90984,-11.3768 -10.39521,-17.45958 -10.84399,-26.53989 -0.32998,-6.67673 -0.0305,-9.13775 1.65653,-13.61223 6.32832,-16.78461 26.69496,-31.45389 43.67017,-31.45389 11.42439,0 24.44109,6.49236 34.18951,17.05275 7.38455,7.99963 10.59501,14.99341 11.15103,24.29178 0.59316,9.9194 -2.79938,19.46456 -10.9836,30.90314 -1.82928,2.55666 -3.14872,4.82572 -2.9321,5.04235 0.21663,0.21662 4.92282,-1.72631 10.45819,-4.31763 9.24633,-4.32854 10.47974,-5.23354 15.17541,-11.13466 5.09442,-6.40224 5.10569,-6.43145 3.45827,-8.96054 -3.7122,-5.69887 -7.3485,-14.36866 -8.84185,-21.08103 -2.10884,-9.4788 -1.39625,-27.35204 1.49706,-37.54929 8.52882,-30.0592 31.48142,-51.7781 54.71927,-51.7781 5.02109,0 6.69184,0.32739 6.69184,1.31131 0,0.72122 -2.00825,4.28097 -4.46279,7.91054 -5.92955,8.76819 -15.43287,28.67931 -20.81224,43.60532 -6.9034,19.15466 -9.57302,35.61365 -7.65716,47.20886 l 0.60659,3.67123 6.17694,-6.06837 c 3.39732,-3.3376 8.08511,-8.71687 10.41732,-11.95396 10.82591,-15.02624 24.23104,-51.76383 26.80456,-73.45954 0.81558,-6.8757 2.1385,-7.07869 7.77757,-1.19343 7.99408,8.34309 12.56902,20.42942 13.42708,35.47245 1.56174,27.37945 -11.54101,55.91621 -32.11407,69.94195 -10.7034,7.29707 -20.48619,9.62964 -33.24426,7.92664 l -4.79427,-0.63995 -7.0108,9.08865 c -4.42954,5.74235 -7.67132,9.08866 -8.80479,9.08866 -0.98668,0 -2.04817,0.80091 -2.35886,1.7798 -0.36905,1.16279 -5.54388,4.05041 -14.92685,8.3294 -10.56731,4.81909 -14.36196,6.99426 -14.36196,8.23257 0,1.50323 0.43522,1.43414 4.07513,-0.64702 5.11454,-2.92428 7.3085,-2.93342 12.99052,-0.0542 10.05494,5.09522 33.20741,25.35069 31.2775,27.36382 -0.76287,0.79577 -3.76632,-0.58791 -11.33635,-5.2226 -5.66418,-3.46785 -13.91217,-8.09738 -18.32886,-10.28783 -9.14122,-4.53358 -9.60288,-4.47061 -17.1462,2.33879 l -3.92887,3.54662 5.75312,-2.3253 c 3.16422,-1.2789 6.85523,-2.33553 8.20225,-2.34805 3.08053,-0.0287 9.92569,4.34768 14.39714,9.2045 7.5451,8.19537 20.0696,25.10175 20.0696,27.09124 0,2.37648 -2.55319,0.68283 -11.84935,-7.8602 -5.34868,-4.91534 -12.4152,-11.14786 -15.7034,-13.85005 l -5.97852,-4.91306 -4.08944,1.39484 c -2.24918,0.76715 -5.81536,2.44347 -7.92484,3.72516 l -3.83541,2.33034 8.88206,-0.56526 8.88207,-0.56525 3.65599,3.84324 c 2.01078,2.11377 5.62081,7.67944 8.02226,12.36813 4.71601,9.20777 11.3089,25.35381 11.3089,27.69561 0,3.37256 -2.7323,0.86737 -7.59543,-6.96406 -2.85905,-4.60416 -8.24959,-12.61984 -11.97897,-17.81263 l -6.78068,-9.44145 -4.80097,0.60812 c -6.59784,0.83573 -11.28543,2.37756 -12.71151,4.18103 -0.65921,0.83365 -1.19857,3.72703 -1.19857,6.42974 l 0,4.91398 5.42289,2.24766 c 12.29005,5.09394 29.96105,20.16628 34.82798,29.70625 5.72248,11.217 1.71556,21.00422 -9.27386,22.65219 -8.82254,1.32301 -29.46243,-4.59071 -39.29342,-11.25832 -5.20965,-3.5333 -9.68269,-9.00738 -11.03955,-13.51014 -1.08829,-3.61155 -2.69767,-4.87584 -2.69767,-2.11922 0,2.99068 -3.87164,8.92577 -8.58973,13.16773 -9.59115,8.62326 -35.0566,16.26909 -44.20323,13.27171 z m 42.90061,-160.32276 c 2.27539,-1.1015 5.32414,-3.68119 6.775,-5.73265 1.45086,-2.05145 3.12165,-3.73914 3.71289,-3.7504 0.59123,-0.0112 2.06251,1.42076 3.26952,3.18227 3.91658,5.71587 8.07372,7.82408 15.42822,7.82408 6.07351,0 6.70346,-0.20761 9.83269,-3.24058 9.14169,-8.86047 5.26283,-25.05057 -7.4974,-31.29356 -6.60048,-3.22931 -11.6717,-2.78333 -17.01779,1.49663 -1.94671,1.55848 -3.83143,2.83361 -4.18826,2.83361 -0.35683,0 -2.08986,-1.26528 -3.85118,-2.81174 -9.37907,-8.23493 -25.22945,-1.28436 -28.84351,12.6482 -1.26643,4.88222 -0.89536,9.11433 1.15525,13.17603 1.34803,2.67006 4.94284,6.18844 7.14557,6.99366 3.32862,1.2168 10.15485,0.5741 14.079,-1.32555 z m -0.61681,-10.89574 c -2.53874,-3.05899 1.20706,-7.86726 4.19624,-5.38646 1.80375,1.49699 1.96919,4.02688 0.36802,5.62805 -1.53732,1.53733 -3.15914,1.45148 -4.56426,-0.24159 z m 18.37176,0.24159 c -2.68767,-2.68766 -0.0731,-7.22042 3.50905,-6.08349 2.41658,0.76699 3.26849,3.04393 2.01512,5.38587 -1.11567,2.08465 -3.79836,2.42344 -5.52417,0.69762 z"
             style="fill:#ff8080"
             transform="matrix(0.71918946,0,0,0.8021488,-665.46382,336.56059)" />
          <g
             inkscape:export-ydpi="130"
             inkscape:export-xdpi="130"
             style="fill:#ff5555;fill-opacity:1"
             transform="matrix(0.02738555,5.5895975e-4,-5.0115135e-4,0.03054451,-1263.3474,657.43377)"
             id="g4173"
             inkscape:transform-center-y="-12.771982"
             inkscape:transform-center-x="-9.0121547">
            <path
               inkscape:connector-curvature="0"
               d="M 297.29747,550.86823 C 283.52243,535.43191 249.1268,505.33855 220.86277,483.99412 137.11867,420.75228 125.72108,411.5999 91.719238,380.29088 29.03471,322.57071 2.413622,264.58086 2.5048478,185.95124 2.5493594,147.56739 5.1656152,132.77929 15.914734,110.15398 34.151433,71.768267 61.014996,43.244667 95.360052,25.799457 119.68545,13.443675 131.6827,7.9542046 172.30448,7.7296236 c 42.49329,-0.234834 51.43863,4.7197234 76.43471,18.4518354 30.42451,16.714318 61.7399,52.435708 68.21323,77.810591 l 3.9981,15.6724 9.85963,-21.584508 c 55.71617,-121.972928 233.59836,-120.148052 295.50229,3.031588 19.63767,39.07605 21.79364,122.51317 4.38012,169.51287 -22.71527,61.30937 -65.38001,108.05053 -164.00634,179.67658 -64.68082,46.97364 -137.88474,118.04586 -142.98067,128.02803 -5.91548,11.58753 -0.28216,1.8159 -26.40808,-27.46078 z"
               id="path4175"
               style="fill:#ff5555;fill-opacity:1" />
            <g
               style="fill:#ff5555;fill-opacity:1"
               transform="translate(129.28571,-64.285714)"
               id="g4177" />
          </g>
          <g
             inkscape:export-ydpi="130"
             inkscape:export-xdpi="130"
             style="fill:#ff5555;fill-opacity:1"
             id="g4179"
             transform="matrix(0.02345618,-0.01577452,0.0141431,0.02616187,-1301.735,692.98578)">
            <path
               style="fill:#ff5555;fill-opacity:1"
               id="path4181"
               d="M 297.29747,550.86823 C 283.52243,535.43191 249.1268,505.33855 220.86277,483.99412 137.11867,420.75228 125.72108,411.5999 91.719238,380.29088 29.03471,322.57071 2.413622,264.58086 2.5048478,185.95124 2.5493594,147.56739 5.1656152,132.77929 15.914734,110.15398 34.151433,71.768267 61.014996,43.244667 95.360052,25.799457 119.68545,13.443675 131.6827,7.9542046 172.30448,7.7296236 c 42.49329,-0.234834 51.43863,4.7197234 76.43471,18.4518354 30.42451,16.714318 61.7399,52.435708 68.21323,77.810591 l 3.9981,15.6724 9.85963,-21.584508 c 55.71617,-121.972928 233.59836,-120.148052 295.50229,3.031588 19.63767,39.07605 21.79364,122.51317 4.38012,169.51287 -22.71527,61.30937 -65.38001,108.05053 -164.00634,179.67658 -64.68082,46.97364 -137.88474,118.04586 -142.98067,128.02803 -5.91548,11.58753 -0.28216,1.8159 -26.40808,-27.46078 z"
               inkscape:connector-curvature="0" />
            <g
               style="fill:#ff5555;fill-opacity:1"
               id="g4183"
               transform="translate(129.28571,-64.285714)" />
          </g>
          <g
             inkscape:transform-center-x="4.5897619"
             inkscape:transform-center-y="-18.235587"
             id="g4185"
             transform="matrix(0.02050377,-0.02025568,0.01816081,0.0228689,-1308.3321,646.47311)"
             style="fill:#ff5555;fill-opacity:1"
             inkscape:export-xdpi="130"
             inkscape:export-ydpi="130">
            <path
               style="fill:#ff5555;fill-opacity:1"
               id="path4187"
               d="M 297.29747,550.86823 C 283.52243,535.43191 249.1268,505.33855 220.86277,483.99412 137.11867,420.75228 125.72108,411.5999 91.719238,380.29088 29.03471,322.57071 2.413622,264.58086 2.5048478,185.95124 2.5493594,147.56739 5.1656152,132.77929 15.914734,110.15398 34.151433,71.768267 61.014996,43.244667 95.360052,25.799457 119.68545,13.443675 131.6827,7.9542046 172.30448,7.7296236 c 42.49329,-0.234834 51.43863,4.7197234 76.43471,18.4518354 30.42451,16.714318 61.7399,52.435708 68.21323,77.810591 l 3.9981,15.6724 9.85963,-21.584508 c 55.71617,-121.972928 233.59836,-120.148052 295.50229,3.031588 19.63767,39.07605 21.79364,122.51317 4.38012,169.51287 -22.71527,61.30937 -65.38001,108.05053 -164.00634,179.67658 -64.68082,46.97364 -137.88474,118.04586 -142.98067,128.02803 -5.91548,11.58753 -0.28216,1.8159 -26.40808,-27.46078 z"
               inkscape:connector-curvature="0" />
            <g
               id="g4189"
               transform="translate(129.28571,-64.285714)"
               style="fill:#ff5555;fill-opacity:1" />
          </g>
          <g
             transform="matrix(0.02738921,2.5160614e-4,-2.2558468e-4,0.03054859,-1267.3651,780.92044)"
             id="g4191"
             style="fill:#ff5555;fill-opacity:1"
             inkscape:export-xdpi="130"
             inkscape:export-ydpi="130">
            <path
               inkscape:connector-curvature="0"
               d="M 297.29747,550.86823 C 283.52243,535.43191 249.1268,505.33855 220.86277,483.99412 137.11867,420.75228 125.72108,411.5999 91.719238,380.29088 29.03471,322.57071 2.413622,264.58086 2.5048478,185.95124 2.5493594,147.56739 5.1656152,132.77929 15.914734,110.15398 34.151433,71.768267 61.014996,43.244667 95.360052,25.799457 119.68545,13.443675 131.6827,7.9542046 172.30448,7.7296236 c 42.49329,-0.234834 51.43863,4.7197234 76.43471,18.4518354 30.42451,16.714318 61.7399,52.435708 68.21323,77.810591 l 3.9981,15.6724 9.85963,-21.584508 c 55.71617,-121.972928 233.59836,-120.148052 295.50229,3.031588 19.63767,39.07605 21.79364,122.51317 4.38012,169.51287 -22.71527,61.30937 -65.38001,108.05053 -164.00634,179.67658 -64.68082,46.97364 -137.88474,118.04586 -142.98067,128.02803 -5.91548,11.58753 -0.28216,1.8159 -26.40808,-27.46078 z"
               id="path4193"
               style="fill:#ff5555;fill-opacity:1" />
            <g
               transform="translate(129.28571,-64.285714)"
               id="g4195"
               style="fill:#ff5555;fill-opacity:1" />
          </g>
          <path
             id="path4178"
             d="m -1277.793,829.69616 q 0.8985,0.8789 3.0469,1.34765 2.1484,0.46875 4.082,0.46875 1.9922,0 3.7696,-0.37109 1.7968,-0.3711 3.3398,-1.19141 1.5625,-0.82031 2.6758,-2.01172 1.1328,-1.1914 1.7773,-2.92968 0.6446,-1.73829 0.6446,-3.86719 0,-3.59375 -2.6953,-5.97656 -2.6758,-2.38282 -6.5821,-2.38282 -1.0937,0 -2.1289,0.0977 -1.0156,0.0781 -1.5039,0.15625 l -0.4883,0.0781 0,-2.71484 11.9336,0 0,-5.80078 -17.8906,0 0,15.50781 0.2344,0.21485 q 1.6797,-1.25 3.4765,-1.25 1.1524,0 2.2266,0.3125 1.0742,0.3125 1.875,1.11328 0.8203,0.80078 0.8203,1.95312 0,0.9375 -0.5078,1.6211 -0.5078,0.68359 -1.2891,1.01562 -0.7617,0.3125 -1.4453,0.44922 -0.664,0.13672 -1.2304,0.13672 -0.6641,0 -1.6993,-0.3125 -1.0351,-0.33203 -1.7382,-0.64453 l -0.7032,-0.33203 0,5.3125 z"
             inkscape:connector-curvature="0" />
        </g>
      </g>
    </g>
  </g>
</svg>
