<?xml version="1.0" encoding="UTF-8" standalone="no"?>
<!-- Generator: Adobe Illustrator 14.0.0, SVG Export Plug-In . SVG Version: 6.00 Build 43363)  -->

<svg
   xmlns:dc="http://purl.org/dc/elements/1.1/"
   xmlns:cc="http://creativecommons.org/ns#"
   xmlns:rdf="http://www.w3.org/1999/02/22-rdf-syntax-ns#"
   xmlns:svg="http://www.w3.org/2000/svg"
   xmlns="http://www.w3.org/2000/svg"
   xmlns:sodipodi="http://sodipodi.sourceforge.net/DTD/sodipodi-0.dtd"
   xmlns:inkscape="http://www.inkscape.org/namespaces/inkscape"
   version="1.1"
   id="Layer_1"
   x="0px"
   y="0px"
   width="179.748"
   height="24.459"
   viewBox="0 0 179.748 24.458999"
   enable-background="new 0 0 175.67 20.176"
   xml:space="preserve"
   inkscape:version="0.91 r13725"
   sodipodi:docname="mairieParis.svg"><metadata
     id="metadata43"><rdf:RDF><cc:Work
         rdf:about=""><dc:format>image/svg+xml</dc:format><dc:type
           rdf:resource="http://purl.org/dc/dcmitype/StillImage" /><dc:title></dc:title></cc:Work></rdf:RDF></metadata><defs
     id="defs41" /><sodipodi:namedview
     pagecolor="#ffffff"
     bordercolor="#666666"
     borderopacity="1"
     objecttolerance="10"
     gridtolerance="10"
     guidetolerance="10"
     inkscape:pageopacity="0"
     inkscape:pageshadow="2"
     inkscape:window-width="1855"
     inkscape:window-height="1056"
     id="namedview39"
     showgrid="false"
     fit-margin-top="2"
     fit-margin-left="2"
     fit-margin-right="2"
     fit-margin-bottom="2"
     inkscape:zoom="1.7874424"
     inkscape:cx="89.834999"
     inkscape:cy="12.223999"
     inkscape:window-x="65"
     inkscape:window-y="24"
     inkscape:window-maximized="1"
     inkscape:current-layer="Layer_1" /><g
     id="g3"
     transform="translate(2,2.147)"><polygon
       points="163.752,20.176 163.752,20.176 163.752,0 0,0 0,20.176 "
       id="polygon5"
       style="clip-rule:evenodd;fill:#0063aa;fill-rule:evenodd" /><polygon
       points="175.67,20.176 175.67,20.176 175.67,0 163.783,0 163.783,20.176 "
       id="polygon7"
       style="clip-rule:evenodd;fill:#e7003c;fill-rule:evenodd" /><path
       d="m 16.657,8.53 c -0.337,2.204 -0.481,4.421 -0.642,6.624 -0.257,-0.043 -0.514,-0.072 -0.754,-0.072 -0.257,0 -0.498,0.029 -0.754,0.072 0.674,-3.355 1.203,-6.711 1.653,-10.067 0.225,0.043 0.433,0.073 0.658,0.073 0.208,0 0.433,-0.03 0.642,-0.073 1.171,2.319 2.535,4.917 3.707,6.975 1.268,-2.175 2.583,-4.656 3.739,-6.975 0.225,0.043 0.465,0.073 0.69,0.073 0.224,0 0.449,-0.03 0.674,-0.073 0.417,3.355 0.979,8.01 1.38,10.067 -0.433,-0.043 -0.866,-0.072 -1.3,-0.072 -0.434,0 -0.882,0.029 -1.332,0.072 -0.112,-2.027 -0.385,-4.508 -0.642,-6.77 l -0.032,0 c -1.203,2.262 -2.391,4.508 -3.546,6.77 -0.096,-0.014 -0.208,-0.027 -0.305,-0.027 -0.096,0 -0.208,0.014 -0.304,0.027 -1.139,-2.203 -2.295,-4.42 -3.498,-6.624 l -0.034,0 0,0 z"
       id="path9"
       inkscape:connector-curvature="0"
       style="clip-rule:evenodd;fill:#ffffff;fill-rule:evenodd" /><path
       d="m 39.397,15.154 c -0.514,-0.027 -0.963,-0.072 -1.413,-0.072 -0.449,0 -0.915,0.045 -1.364,0.072 -0.336,-0.992 -0.706,-1.998 -1.107,-2.99 -0.69,-0.016 -1.364,-0.029 -2.054,-0.029 -0.562,0 -1.107,0.014 -1.669,0.029 -0.433,0.992 -0.787,1.984 -1.091,2.99 -0.257,-0.027 -0.498,-0.072 -0.754,-0.072 -0.257,0 -0.498,0.045 -0.802,0.072 0.786,-1.619 3.193,-6.814 4.573,-10.14 0.208,0.029 0.401,0.073 0.609,0.073 0.208,0 0.401,-0.044 0.61,-0.073 1.365,3.326 3.242,7.763 4.462,10.14 l 0,0 z M 35.145,11.303 C 34.679,10.121 34.23,8.968 33.717,7.83 c -0.546,1.138 -1.043,2.291 -1.509,3.473 l 2.937,0 0,0 z"
       id="path11"
       inkscape:connector-curvature="0"
       style="clip-rule:evenodd;fill:#ffffff;fill-rule:evenodd" /><path
       d="m 41.186,9.128 c 0,-1.633 -0.032,-2.757 -0.128,-4.041 0.353,0.029 0.786,0.073 1.316,0.073 0.53,0 0.962,-0.044 1.316,-0.073 -0.097,1.284 -0.129,2.408 -0.129,4.041 l 0,1.985 c 0,1.633 0.032,2.758 0.129,4.041 -0.354,-0.027 -0.786,-0.072 -1.316,-0.072 -0.53,0 -0.963,0.045 -1.316,0.072 0.096,-1.283 0.128,-2.408 0.128,-4.041 l 0,-1.985 0,0 z"
       id="path13"
       inkscape:connector-curvature="0"
       style="clip-rule:evenodd;fill:#ffffff;fill-rule:evenodd" /><path
       d="m 49.021,10.515 -0.145,0 0,0.599 c 0,1.633 0.032,2.758 0.128,4.041 -0.353,-0.027 -0.786,-0.072 -1.315,-0.072 -0.53,0 -0.963,0.045 -1.316,0.072 0.096,-1.283 0.128,-2.408 0.128,-4.041 l 0,-1.986 c 0,-1.633 -0.032,-2.757 -0.128,-4.041 0.353,0.029 0.786,0.073 1.316,0.073 0.578,0 1.267,-0.073 2.359,-0.073 1.621,0 2.214,0.131 2.776,0.497 0.641,0.422 1.042,1.064 1.042,1.925 0,1.417 -0.898,2.321 -2.487,2.685 1.027,1.648 2.246,3.312 3.418,4.96 -0.481,-0.027 -0.962,-0.072 -1.444,-0.072 -0.482,0 -0.979,0.045 -1.46,0.072 l -2.872,-4.639 0,0 z M 48.925,5.919 c -0.032,1.327 -0.048,2.641 -0.048,3.969 0.128,0.014 0.24,0.029 0.353,0.029 1.413,0 2.183,-0.714 2.183,-2.086 C 51.412,6.108 50.674,5.919 48.925,5.919 l 0,0 z"
       id="path15"
       inkscape:connector-curvature="0"
       style="clip-rule:evenodd;fill:#ffffff;fill-rule:evenodd" /><path
       d="m 56.812,9.128 c 0,-1.633 -0.032,-2.757 -0.128,-4.041 0.354,0.03 0.787,0.074 1.316,0.074 0.529,0 0.963,-0.044 1.316,-0.073 -0.096,1.284 -0.128,2.408 -0.128,4.041 l 0,1.985 c 0,1.633 0.032,2.758 0.128,4.041 -0.353,-0.027 -0.787,-0.072 -1.316,-0.072 -0.53,0 -0.963,0.045 -1.316,0.072 0.096,-1.283 0.128,-2.408 0.128,-4.041 l 0,-1.986 0,0 z"
       id="path17"
       inkscape:connector-curvature="0"
       style="clip-rule:evenodd;fill:#ffffff;fill-rule:evenodd" /><path
       d="m 62.217,9.128 c 0,-1.633 -0.032,-2.757 -0.128,-4.041 0.947,0.015 1.91,0.073 2.856,0.073 1.572,0 2.92,-0.03 3.354,-0.073 -0.032,0.175 -0.064,0.351 -0.064,0.612 0,0.307 0.032,0.438 0.064,0.657 C 67.08,6.282 65.154,6.18 64.673,6.18 64.592,7.245 64.592,8.296 64.592,9.361 65.988,9.332 67.015,9.302 68.235,9.244 68.172,9.58 68.155,9.711 68.155,9.9 c 0,0.161 0.032,0.292 0.08,0.599 -1.219,-0.089 -2.423,-0.132 -3.643,-0.132 0,0.613 -0.016,1.24 -0.016,1.869 0,0.611 0.016,1.24 0.048,1.822 1.203,0 2.438,-0.059 3.674,-0.189 -0.032,0.203 -0.064,0.35 -0.064,0.656 0,0.306 0.032,0.453 0.064,0.627 -0.578,-0.014 -1.332,-0.072 -2.808,-0.072 -2.615,0 -3.049,0.045 -3.402,0.072 0.096,-1.283 0.128,-2.408 0.128,-4.041 l 0,-1.983 10e-4,0 z"
       id="path19"
       inkscape:connector-curvature="0"
       style="clip-rule:evenodd;fill:#ffffff;fill-rule:evenodd" /><path
       d="m 75.036,9.128 c 0,-1.633 -0.032,-2.757 -0.129,-4.041 0.354,0.029 0.786,0.073 1.315,0.073 0.707,0 1.494,-0.073 2.904,-0.073 3.659,0 6.179,1.065 6.179,4.742 0,3.209 -2.536,5.325 -5.552,5.325 -1.605,0 -2.696,-0.072 -3.531,-0.072 -0.529,0 -0.962,0.045 -1.315,0.072 0.097,-1.283 0.129,-2.408 0.129,-4.041 l 0,-1.985 0,0 z m 2.375,2.306 c 0,0.789 0,2.568 0.016,2.846 0.321,0.016 0.754,0.045 1.412,0.045 2.408,0 3.931,-1.49 3.931,-4.524 0,-2.393 -1.459,-3.881 -3.674,-3.881 -0.769,0 -1.17,0.029 -1.668,0.073 -0.016,0.276 -0.016,2.058 -0.016,2.845 l 0,2.596 -0.001,0 z"
       id="path21"
       inkscape:connector-curvature="0"
       style="clip-rule:evenodd;fill:#ffffff;fill-rule:evenodd" /><path
       d="m 87.667,9.128 c 0,-1.633 -0.032,-2.757 -0.128,-4.041 0.947,0.015 1.91,0.073 2.856,0.073 1.573,0 2.921,-0.03 3.354,-0.073 -0.032,0.175 -0.065,0.351 -0.065,0.612 0,0.307 0.033,0.438 0.065,0.657 -1.22,-0.074 -3.146,-0.176 -3.627,-0.176 -0.08,1.065 -0.08,2.116 -0.08,3.181 1.396,-0.029 2.424,-0.059 3.642,-0.117 -0.063,0.336 -0.079,0.467 -0.079,0.656 0,0.161 0.031,0.292 0.079,0.599 -1.218,-0.089 -2.423,-0.132 -3.642,-0.132 0,0.613 -0.017,1.24 -0.017,1.869 0,0.611 0.017,1.24 0.049,1.822 1.203,0 2.439,-0.059 3.675,-0.189 -0.032,0.203 -0.065,0.35 -0.065,0.656 0,0.306 0.033,0.453 0.065,0.627 -0.577,-0.014 -1.332,-0.072 -2.81,-0.072 -2.615,0 -3.048,0.045 -3.401,0.072 0.096,-1.283 0.128,-2.408 0.128,-4.041 l 0,-1.983 0.001,0 z"
       id="path23"
       inkscape:connector-curvature="0"
       style="clip-rule:evenodd;fill:#ffffff;fill-rule:evenodd" /><path
       d="m 100.765,9.128 c 0,-1.633 -0.032,-2.757 -0.128,-4.041 0.353,0.029 0.786,0.073 1.315,0.073 0.738,0 1.572,-0.073 2.343,-0.073 1.509,0 2.295,0.219 2.793,0.598 0.673,0.511 0.994,1.109 0.994,1.971 0,2.232 -1.733,3.122 -4.124,3.122 l -0.818,0 c 0,1.461 0.017,2.918 0.129,4.377 -0.354,-0.027 -0.787,-0.072 -1.316,-0.072 -0.529,0 -0.963,0.045 -1.315,0.072 0.096,-1.283 0.128,-2.408 0.128,-4.041 l 0,-1.986 -0.001,0 z m 3.081,-3.209 c -0.256,0 -0.497,0 -0.674,0.014 -0.016,1.372 -0.032,2.744 -0.032,4.101 1.075,0 2.407,-0.263 2.407,-2.146 0,-1.487 -0.786,-1.969 -1.701,-1.969 l 0,0 z"
       id="path25"
       inkscape:connector-curvature="0"
       style="clip-rule:evenodd;fill:#ffffff;fill-rule:evenodd" /><path
       d="m 117.954,15.154 c -0.514,-0.027 -0.964,-0.072 -1.413,-0.072 -0.449,0 -0.915,0.045 -1.363,0.072 -0.338,-0.992 -0.706,-1.998 -1.107,-2.99 -0.689,-0.016 -1.364,-0.029 -2.055,-0.029 -0.562,0 -1.107,0.014 -1.668,0.029 -0.434,0.992 -0.787,1.984 -1.092,2.99 -0.257,-0.027 -0.497,-0.072 -0.754,-0.072 -0.257,0 -0.498,0.045 -0.803,0.072 0.786,-1.619 3.193,-6.814 4.573,-10.14 0.209,0.029 0.401,0.073 0.609,0.073 0.21,0 0.401,-0.044 0.61,-0.073 1.365,3.326 3.243,7.763 4.463,10.14 l 0,0 z m -4.253,-3.851 c -0.466,-1.182 -0.915,-2.335 -1.429,-3.473 -0.546,1.138 -1.043,2.291 -1.508,3.473 l 2.937,0 0,0 z"
       id="path27"
       inkscape:connector-curvature="0"
       style="clip-rule:evenodd;fill:#ffffff;fill-rule:evenodd" /><path
       d="m 122.288,10.515 -0.145,0 0,0.599 c 0,1.633 0.032,2.758 0.128,4.041 -0.354,-0.027 -0.785,-0.072 -1.315,-0.072 -0.529,0 -0.962,0.045 -1.315,0.072 0.097,-1.283 0.128,-2.408 0.128,-4.041 l 0,-1.986 c 0,-1.633 -0.031,-2.757 -0.128,-4.041 0.354,0.029 0.786,0.073 1.315,0.073 0.578,0 1.268,-0.073 2.359,-0.073 1.62,0 2.215,0.131 2.775,0.497 0.642,0.422 1.044,1.064 1.044,1.925 0,1.417 -0.899,2.321 -2.487,2.685 1.026,1.648 2.246,3.312 3.418,4.96 -0.481,-0.027 -0.963,-0.072 -1.444,-0.072 -0.481,0 -0.979,0.045 -1.461,0.072 l -2.872,-4.639 0,0 z m -0.097,-4.596 c -0.031,1.327 -0.048,2.641 -0.048,3.969 0.128,0.014 0.24,0.029 0.353,0.029 1.413,0 2.183,-0.714 2.183,-2.086 0,-1.723 -0.738,-1.912 -2.488,-1.912 l 0,0 z"
       id="path29"
       inkscape:connector-curvature="0"
       style="clip-rule:evenodd;fill:#ffffff;fill-rule:evenodd" /><path
       d="m 130.05,9.128 c 0,-1.633 -0.031,-2.757 -0.128,-4.041 0.352,0.029 0.786,0.073 1.315,0.073 0.529,0 0.963,-0.044 1.316,-0.073 -0.097,1.284 -0.129,2.408 -0.129,4.041 l 0,1.985 c 0,1.633 0.032,2.758 0.129,4.041 -0.354,-0.027 -0.787,-0.072 -1.316,-0.072 -0.529,0 -0.964,0.045 -1.315,0.072 0.097,-1.283 0.128,-2.408 0.128,-4.041 l 0,-1.985 0,0 z"
       id="path31"
       inkscape:connector-curvature="0"
       style="clip-rule:evenodd;fill:#ffffff;fill-rule:evenodd" /><path
       d="m 140.514,7.057 c -0.338,-0.832 -0.963,-1.256 -1.941,-1.256 -0.979,0 -1.67,0.614 -1.67,1.314 0,2.159 4.879,1.62 4.879,4.932 0,1.955 -1.701,3.299 -4.252,3.299 -1.156,0 -2.118,-0.307 -2.584,-0.629 0.209,-0.672 0.354,-1.197 0.466,-1.854 l 0.305,0 c 0.176,0.848 0.914,1.576 2.214,1.576 1.252,0 1.878,-0.67 1.878,-1.488 0,-2.203 -4.782,-1.619 -4.782,-4.932 0,-2.013 1.701,-3.122 3.61,-3.122 1.155,0 2.021,0.277 2.632,0.715 -0.193,0.453 -0.306,0.803 -0.514,1.445 l -0.241,0 0,0 z"
       id="path33"
       inkscape:connector-curvature="0"
       style="clip-rule:evenodd;fill:#ffffff;fill-rule:evenodd" /><path
       d="M 163.791,-0.147 153.6,5.384 c 0,0 10.17,2.062 10.17,9.295 0,10e-4 13.208,-10.908 0.021,-14.826 l 0,0 z"
       id="path35"
       inkscape:connector-curvature="0"
       style="clip-rule:evenodd;fill:#ffffff;fill-rule:evenodd" /><path
       d="m 163.782,14.689 0,0 c 5.385,-0.344 10.493,-3.293 9.657,-6.094 l 2.309,3.006 c 0,0 -1.036,6.695 -11.966,8.711 -10.93,-2.016 -11.966,-8.711 -11.966,-8.711 l 2.31,-3.006 c -0.837,2.801 4.272,5.75 9.654,6.094 l 0.002,0 0,0 z"
       id="path37"
       inkscape:connector-curvature="0"
       style="clip-rule:evenodd;fill:#ffffff;fill-rule:evenodd" /></g></svg>